<svg width="63" height="171" viewBox="0 0 63 171" fill="none" xmlns="http://www.w3.org/2000/svg">
<g clip-path="url(#clip0_7338_8132)">
<path fill-rule="evenodd" clip-rule="evenodd" d="M57.9505 4.16082C57.9505 4.16082 45.6694 -3.04251 33.8528 4.6804C33.8528 4.6804 28.964 8.34504 27.7201 14.0408C27.7201 14.0408 17.9582 12.2655 11.2981 23.6177C11.2981 23.6177 7.11782 29.1205 10.0346 36.5679C10.0346 36.5679 7.55868 41.5748 9.40084 46.2983C9.40084 46.2983 3.98063 51.7146 5.65353 53.1198L8.42859 54.7416C8.42859 54.7416 6.79504 62.5314 17.2851 63.295L18.3637 65.763C18.3637 65.763 15.3406 67.928 17.8087 73.8166C20.2806 79.7013 22.1739 79.0912 24.2759 79.8036C24.2759 79.8036 24.7168 85.0782 32.0027 85.8576C32.0027 85.8576 32.8136 89.6836 37.1828 91.821C41.5521 93.9583 52.3768 97.0444 58.97 96.3713L57.9465 4.16869L57.9505 4.16082Z" fill="#FF3225"/>
<path fill-rule="evenodd" clip-rule="evenodd" d="M58.5133 54.7334C58.5133 54.7334 38.8832 74.6036 32.3058 75.8002C32.3058 75.8002 20.4773 79.272 17.7141 67.727C17.7141 67.727 13.3331 74.8516 24.1499 79.5121C24.1499 79.5121 23.0517 84.8693 31.8019 85.7865C31.8019 85.7865 40.9025 85.503 51.3651 77.4574C51.3651 77.4574 57.3324 72.0096 58.9935 70.1163L58.5133 54.7295V54.7334Z" fill="#AE0B00"/>
<path fill-rule="evenodd" clip-rule="evenodd" d="M57.7023 28.1402C52.0696 32.0725 51.5539 31.112 45.2717 33.8044C30.6131 40.0945 35.4468 49.8289 35.9625 49.7738C38.3203 49.5258 53.8488 40.9251 57.7063 28.1362L57.7023 28.1402Z" fill="white"/>
<path fill-rule="evenodd" clip-rule="evenodd" d="M10.188 60.0199C12.2978 50.7619 21.1465 45.9597 23.2366 46.188C25.8503 46.4753 32.1129 50.7343 31.4083 52.5607C31.2469 52.9819 17.3205 64.9205 10.188 60.0199Z" fill="white"/>
<path d="M57.7614 4.12529C47.602 -1.72791 37.3756 0.964482 32.6875 5.72734C25.2913 13.2456 25.9526 22.5627 28.834 35.9223" stroke="black" stroke-width="1.5745" stroke-linecap="round" stroke-linejoin="round"/>
<path d="M27.2122 14.4421C26.1612 14.1902 20.6859 12.7456 15.1516 18.6224C6.30682 28.0143 8.73548 33.2416 9.97933 37.2369" stroke="black" stroke-width="1.5745" stroke-linecap="round" stroke-linejoin="round"/>
<path d="M14.3408 31.415C13.7385 32.1275 7.45234 38.4924 9.07408 46.0224" stroke="black" stroke-width="1.5745" stroke-linecap="round" stroke-linejoin="round"/>
<path d="M17.6589 41.3623C15.3168 42.9289 8.96763 46.1645 6.18864 51.4588C4.72043 54.2574 7.73953 54.5527 8.02687 54.5802" stroke="black" stroke-width="1.5745" stroke-linecap="round" stroke-linejoin="round"/>
<path d="M27.8303 43.0783C28.1846 35.9774 31.3454 32.0805 39.5249 27.9277" stroke="black" stroke-width="1.5745" stroke-linecap="round" stroke-linejoin="round"/>
<path d="M31.8059 41.24C34.1834 34.1666 37.0529 29.5337 43.1226 25.4675C49.8851 20.9408 56.1437 21.7005 57.3049 21.8422" stroke="black" stroke-width="1.5745" stroke-linecap="round" stroke-linejoin="round"/>
<path d="M57.7695 25.9399C52.3768 26.3847 46.2087 25.9675 38.9581 34.4422C33.8725 40.386 35.1439 47.9908 35.3447 49.1874" stroke="black" stroke-width="1.5745" stroke-linecap="round" stroke-linejoin="round"/>
<path d="M35.25 42.7281C40.7726 33.8007 49.9834 32.0018 57.8362 27.5342" stroke="black" stroke-width="1.5745" stroke-linecap="round" stroke-linejoin="round"/>
<path d="M57.8954 27.6245C49.6096 48.4984 36.0492 47.7387 34.8684 50.9389C34.6322 51.5805 35.0691 55.4774 43.3982 50.4114C51.3219 45.5856 54.0654 44.267 59.0487 35.6663" stroke="black" stroke-width="1.5745" stroke-linecap="round" stroke-linejoin="round"/>
<path d="M53.2623 53.0685C48.3302 55.0839 46.4054 54.9461 41.8708 51.8955" stroke="black" stroke-width="1.5745" stroke-linecap="round" stroke-linejoin="round"/>
<path d="M24.8034 43.2593C18.3834 44.4559 9.39697 49.4038 8.49951 54.8318C7.62172 60.1143 13.5969 65.0582 21.4222 63.2948" stroke="black" stroke-width="1.5745" stroke-linecap="round" stroke-linejoin="round"/>
<path d="M22.1267 66.9829C19.0761 66.5381 18.6707 66.6798 16.8049 64.2236" stroke="black" stroke-width="1.5745" stroke-linecap="round" stroke-linejoin="round"/>
<path d="M27.72 61.1455C30.9044 59.0121 30.7745 58.8979 33.3606 56.0166C30.68 60.2992 30.5186 60.3504 30.4517 65.3967" stroke="black" stroke-width="1.5745" stroke-linecap="round" stroke-linejoin="round"/>
<path d="M17.5291 65.8966C13.5023 75.1232 24.9922 84.5466 35.7185 79.3861C52.2546 71.431 53.589 68.9669 59.3163 61.5825" stroke="black" stroke-width="1.5745" stroke-linecap="round" stroke-linejoin="round"/>
<path d="M17.726 66.6168C17.6198 75.2412 26.4921 78.2091 33.2191 75.1113C34.7779 74.3949 49.9285 65.6958 58.7181 55.064" stroke="black" stroke-width="1.5745" stroke-linecap="round" stroke-linejoin="round"/>
<path d="M24.0356 80.1379C24.2246 83.7947 29.4559 88.0144 38.0802 84.7709C51.9633 79.5514 57.1276 72.5292 59.3005 69.8525" stroke="black" stroke-width="1.5745" stroke-linecap="round" stroke-linejoin="round"/>
<path d="M31.3335 86.2666C35.7657 93.1353 40.0759 93.3203 43.2328 94.0879C51.0029 95.9852 50.8888 96.859 58.8675 96.6504" stroke="black" stroke-width="1.5745" stroke-linecap="round" stroke-linejoin="round"/>
<path d="M10.1487 59.9489C17.7732 64.1882 30.5227 54.3358 31.6524 52.0528C31.9004 51.5489 25.4489 42.4404 14.0574 48.0457" stroke="black" stroke-width="1.5745" stroke-linecap="round" stroke-linejoin="round"/>
<path d="M9.92041 59.626C12.0066 51.9897 18.836 47.5378 22.1346 46.4199" stroke="black" stroke-width="1.5745" stroke-linecap="round" stroke-linejoin="round"/>
<path fill-rule="evenodd" clip-rule="evenodd" d="M16.8168 50.2501C16.4862 50.6949 15.3447 52.9543 17.5332 56.7843C17.5332 56.7843 18.4622 59.0083 22.2685 58.6737L28.2162 54.95C28.2162 54.95 28.4838 48.1954 22.7291 46.9004C22.7291 46.9004 18.289 48.2859 16.8208 50.2501H16.8168Z" fill="black"/>
<path fill-rule="evenodd" clip-rule="evenodd" d="M39.6231 38.0438C39.6231 38.0438 38.8753 39.4255 40.5009 42.4642C40.5009 42.4642 41.7212 44.8024 43.6972 45.2432C43.6972 45.2432 51.3925 40.0828 53.4551 35.2491C53.4551 35.2491 52.5183 33.34 49.4992 32.0332C49.4992 32.0332 41.9101 35.3318 39.6192 38.0438H39.6231Z" fill="black"/>
<path fill-rule="evenodd" clip-rule="evenodd" d="M19.8831 53.5171C20.6979 53.5171 21.3631 54.1154 21.3631 54.8515C21.3631 55.5876 20.7018 56.1859 19.8831 56.1859C19.0644 56.1859 18.4031 55.5876 18.4031 54.8515C18.4031 54.1154 19.0644 53.5171 19.8831 53.5171Z" fill="white"/>
<path fill-rule="evenodd" clip-rule="evenodd" d="M44.3309 38.2798C45.1457 38.2798 45.8109 38.9804 45.8109 39.8425C45.8109 40.7045 45.1496 41.4052 44.3309 41.4052C43.5121 41.4052 42.8508 40.7045 42.8508 39.8425C42.8508 38.9804 43.5121 38.2798 44.3309 38.2798Z" fill="white"/>
<path fill-rule="evenodd" clip-rule="evenodd" d="M23.1304 49.1909C23.8035 49.1909 24.3506 49.7499 24.3506 50.4348C24.3506 51.1197 23.8035 51.6786 23.1304 51.6786C22.4573 51.6786 21.9102 51.1197 21.9102 50.4348C21.9102 49.7499 22.4573 49.1909 23.1304 49.1909Z" fill="white"/>
<path fill-rule="evenodd" clip-rule="evenodd" d="M47.7556 34.029C48.3381 33.6669 49.0427 33.7417 49.3301 34.1983C49.6135 34.6549 49.3694 35.3201 48.7869 35.6822C48.2043 36.0444 47.4997 35.9696 47.2163 35.513C46.9329 35.0564 47.1769 34.3911 47.7595 34.029H47.7556Z" fill="white"/>
<path fill-rule="evenodd" clip-rule="evenodd" d="M24.7166 53.5017C25.2087 53.2734 25.744 53.3797 25.9093 53.7379C26.0786 54.0961 25.8148 54.5763 25.3228 54.8046C24.8308 55.0329 24.2954 54.9266 24.1301 54.5684C23.9609 54.2102 24.2246 53.73 24.7166 53.5017Z" fill="white"/>
<path fill-rule="evenodd" clip-rule="evenodd" d="M49.2237 37.1697C49.8062 36.8981 50.4282 37.0005 50.6092 37.3941C50.7942 37.7877 50.4715 38.3309 49.8889 38.5986C49.3063 38.8702 48.6844 38.7679 48.5033 38.3742C48.3183 37.9806 48.6411 37.4374 49.2237 37.1697Z" fill="white"/>
</g>
<g clip-path="url(#clip1_7338_8132)">
<path fill-rule="evenodd" clip-rule="evenodd" d="M24.3661 140.521C24.3661 140.521 22.799 138.563 23.6142 136.405C24.4294 134.247 25.4195 130.249 25.4195 130.249L29.2944 131.797L35.4102 133.737C35.4102 133.737 39.125 137.453 38.5146 140.059C37.9041 142.665 35.734 144.126 32.1569 142.841L24.3661 140.517V140.521Z" fill="#FF3225"/>
<path fill-rule="evenodd" clip-rule="evenodd" d="M22.1291 143.03C22.1291 143.03 21.2134 145.195 22.3487 146.722C22.3487 146.722 22.8922 147.921 21.8164 148.794C20.7407 149.666 18.5222 152.351 22.3152 156.511C22.3152 156.511 20.2345 162.719 25.3117 166.28C25.3117 166.28 39.3857 175.697 48.6282 165.198C48.6282 165.198 49.4136 163.302 48.5947 161.01C48.5947 161.01 52.0564 159.055 48.349 153.974L49.9645 152.12C49.9645 152.12 53.832 155.677 57.9265 152.285C62.021 148.894 65.6019 141.176 58.1573 135.833C58.1573 135.833 51.6172 135.74 48.0029 146.991L37.4464 144.73L33.0466 145.595L22.1291 143.027V143.03Z" fill="#FF3225"/>
<path fill-rule="evenodd" clip-rule="evenodd" d="M23.6588 139.78C24.4889 141.327 25.8885 141.451 25.8885 141.451C25.8885 141.451 30.292 142.713 32.3541 143.299C33.482 143.62 34.6917 143.575 35.7861 143.168C38.4587 142.172 38.3135 139.807 38.3135 139.807C38.6895 136.788 35.4138 134.261 35.1868 134.123C34.9597 133.985 30.2994 132.569 30.2994 132.569L29.7746 131.928L25.2185 130.756C25.2185 130.756 23.9343 135.102 23.3722 137.008C23.1005 137.932 23.201 138.918 23.6588 139.776V139.78ZM19.6871 129.301L17.7441 126.709L2.16995 122.086C0.49119 121.683 0.788975 119.801 0.788975 119.801L5.47163 106L8.15914 105.703L11.1258 106.72L11.9112 107.864L12.0489 108.385L47.865 120.301L47.9878 121.245L53.2325 122.728L54.6619 121.966L59.1026 123.231L60.0071 125.699L61.5258 126.867L59.5195 134.375L58.6708 134.068L58.1683 135.757C50.519 136.846 48.1479 147.446 48.1479 147.446L37.2564 144.84L32.9013 145.546L21.8349 142.768L21.4478 143.344L16.1249 141.837L16.3147 141.121L15.7266 140.931L16.2961 138.818L16.8991 138.98L19.6908 129.311L19.6871 129.301Z" fill="#8C8B8B"/>
<mask id="mask0_7338_8132" style="mask-type:luminance" maskUnits="userSpaceOnUse" x="0" y="105" width="62" height="43">
<path d="M23.6588 139.78C24.4889 141.327 25.8885 141.451 25.8885 141.451C25.8885 141.451 30.292 142.713 32.3541 143.299C33.482 143.62 34.6917 143.575 35.7861 143.168C38.4587 142.172 38.3135 139.807 38.3135 139.807C38.6895 136.788 35.4138 134.261 35.1868 134.123C34.9597 133.985 30.2994 132.569 30.2994 132.569L29.7746 131.928L25.2185 130.756C25.2185 130.756 23.9343 135.102 23.3722 137.008C23.1005 137.932 23.201 138.918 23.6588 139.776V139.78ZM19.6871 129.301L17.7441 126.709L2.16995 122.086C0.49119 121.683 0.788975 119.801 0.788975 119.801L5.47163 106L8.15914 105.703L11.1258 106.72L11.9112 107.864L12.0489 108.385L47.865 120.301L47.9878 121.245L53.2325 122.728L54.6619 121.966L59.1026 123.231L60.0071 125.699L61.5258 126.867L59.5195 134.375L58.6708 134.068L58.1683 135.757C50.519 136.846 48.1479 147.446 48.1479 147.446L37.2564 144.84L32.9013 145.546L21.8349 142.768L21.4478 143.344L16.1249 141.837L16.3147 141.121L15.7266 140.931L16.2961 138.818L16.8991 138.98L19.6908 129.311L19.6871 129.301Z" fill="white"/>
</mask>
<g mask="url(#mask0_7338_8132)">
<path fill-rule="evenodd" clip-rule="evenodd" d="M36.4561 131.197L37.9711 132.951C37.9711 132.951 42.6277 134.044 42.583 139.514L42.9664 144.512L45.464 142.613C45.464 142.613 44.1761 139.383 44.8313 138.011C45.4864 136.64 46.0708 136.457 47.7272 136.547C49.3836 136.64 52.9943 138.277 52.9943 138.277C52.9943 138.277 48.9072 142.889 48.1181 147.26L37.2899 144.916L36.9288 142.668C36.9288 142.668 41.0606 139.8 35.3766 134.278L30.4185 132.569L29.4991 131.673L25.2631 130.866L23.3387 137.77L21.4738 141.92L16.244 140.817L16.1546 138.711L16.9326 138.77L19.6983 129.07L17.7292 126.647L4.37354 122.852C4.37354 122.852 6.77442 122.721 7.50399 121.37L22.3523 125.613L22.2592 126.74L32.2759 129.849L33.6048 132.727L35.9238 133.2L36.471 131.2L36.4561 131.197Z" fill="#625E5E"/>
</g>
<path d="M23.6588 139.78C24.4889 141.327 25.8885 141.451 25.8885 141.451C25.8885 141.451 30.292 142.713 32.3541 143.299C33.482 143.62 34.6917 143.575 35.7861 143.168C38.4587 142.172 38.3135 139.807 38.3135 139.807C38.6895 136.788 35.4138 134.261 35.1868 134.123C34.9597 133.985 30.2994 132.569 30.2994 132.569L29.7746 131.928L25.2185 130.756C25.2185 130.756 23.9343 135.102 23.3722 137.008C23.1005 137.932 23.201 138.918 23.6588 139.776V139.78ZM19.6871 129.301L17.7441 126.709L2.16995 122.086C0.49119 121.683 0.788975 119.801 0.788975 119.801L5.47163 106L8.15914 105.703L11.1258 106.72L11.9112 107.864L12.0489 108.385L47.865 120.301L47.9878 121.245L53.2325 122.728L54.6619 121.966L59.1026 123.231L60.0071 125.699L61.5258 126.867L59.5195 134.375L58.6708 134.068L58.1683 135.757C50.519 136.846 48.1479 147.446 48.1479 147.446L37.2564 144.84L32.9013 145.546L21.8349 142.768L21.4478 143.344L16.1249 141.837L16.3147 141.121L15.7266 140.931L16.2961 138.818L16.8991 138.98L19.6908 129.311L19.6871 129.301Z" stroke="black" stroke-width="1.48892" stroke-linecap="round" stroke-linejoin="round"/>
<path d="M11.993 108.364L47.809 120.394L47.8872 121.328L53.2994 122.728L54.498 121.997L59.0429 123.31L59.9437 125.602L61.5368 126.871L59.5454 134.292L8.98535 118.085" stroke="black" stroke-width="1.48892" stroke-linecap="round" stroke-linejoin="round"/>
<path d="M42.7132 118.884L41.5704 122.9L39.6907 122.373" stroke="black" stroke-width="1.48892" stroke-linecap="round" stroke-linejoin="round"/>
<path d="M42.1477 122.125L43.685 122.67" stroke="black" stroke-width="1.48892" stroke-linecap="round" stroke-linejoin="round"/>
<path d="M47.4331 124.62C47.5597 124.134 47.6899 123.645 47.8165 123.159" stroke="black" stroke-width="1.48892" stroke-linecap="round" stroke-linejoin="round"/>
<path d="M2.41577 122.173L17.8447 126.788L20.5843 130.425" stroke="black" stroke-width="1.48892" stroke-linecap="round" stroke-linejoin="round"/>
<path d="M7.88745 121.566L22.3002 125.671" stroke="black" stroke-width="1.48892" stroke-linecap="round" stroke-linejoin="round"/>
<path d="M23.3649 122.917L22.2556 126.737L32.0416 129.946L33.6198 132.638L35.9425 133.248L37.2044 127.285" stroke="black" stroke-width="1.48892" stroke-linecap="round" stroke-linejoin="round"/>
<path d="M19.6872 129.301L16.8954 138.969L16.2924 138.807L15.7229 140.92L16.311 141.11L16.1212 141.827L21.4441 143.333L21.8312 142.758L32.8976 145.536L37.2527 144.829L48.1442 147.435C48.1442 147.435 50.5116 136.836 58.1646 135.747L58.6671 134.058" stroke="black" stroke-width="1.48892" stroke-linecap="round" stroke-linejoin="round"/>
<path d="M17.1411 140.876L21.9652 142.17" stroke="black" stroke-width="1.48892" stroke-linecap="round" stroke-linejoin="round"/>
<path d="M23.6588 139.78C23.2009 138.922 23.1004 137.936 23.3722 137.012C23.9342 135.106 25.2184 130.759 25.2184 130.759L29.7745 131.931L30.2994 132.572C30.2994 132.572 34.9634 133.989 35.1868 134.127C35.4138 134.265 38.6894 136.791 38.3135 139.811C38.3135 139.811 38.4587 142.176 35.786 143.172C34.6917 143.578 33.4819 143.623 32.3541 143.303C30.2956 142.713 25.8884 141.455 25.8884 141.455C25.8884 141.455 24.4889 141.331 23.6588 139.783V139.78Z" stroke="black" stroke-width="1.48892" stroke-linecap="round" stroke-linejoin="round"/>
<path d="M5.29309 106.124L0.744438 120.001C0.744438 120.001 0.629047 121.756 2.59442 122.2C2.59442 122.2 6.5959 123.948 7.66048 120.884L11.8667 107.913L10.9659 106.582L8.23744 105.686L5.29309 106.12V106.124Z" stroke="black" stroke-width="1.48892" stroke-linecap="round" stroke-linejoin="round"/>
<path d="M1.34757 119.294L5.17172 107.161C5.34901 106.598 5.98603 106.275 6.59348 106.439L8.79102 107.033C9.39846 107.197 9.74766 107.787 9.57037 108.349L5.74622 120.483C5.56893 121.046 4.93191 121.369 4.32446 121.205L2.12692 120.611C1.51947 120.447 1.17028 119.857 1.34757 119.294Z" fill="#8C8B8B"/>
<path d="M1.34757 119.294L5.17172 107.161C5.34901 106.598 5.98603 106.275 6.59348 106.439L8.79102 107.033C9.39846 107.197 9.74766 107.787 9.57037 108.349L5.74622 120.483C5.56893 121.046 4.93191 121.369 4.32446 121.205L2.12692 120.611C1.51947 120.447 1.17028 119.857 1.34757 119.294Z" stroke="black" stroke-width="1.48892" stroke-linecap="round" stroke-linejoin="round"/>
<path fill-rule="evenodd" clip-rule="evenodd" d="M6.04128 106.786C7.40736 107.124 8.05504 109.006 7.48181 110.984C6.9123 112.963 5.33776 114.297 3.97168 113.959C2.60559 113.621 1.95791 111.739 2.53114 109.76C3.10066 107.782 4.67519 106.448 6.04128 106.786Z" fill="#8C8B8B"/>
<path d="M6.04128 106.786C7.40736 107.124 8.05504 109.006 7.48181 110.984C6.9123 112.963 5.33776 114.297 3.97168 113.959C2.60559 113.621 1.95791 111.739 2.53114 109.76C3.10066 107.782 4.67519 106.448 6.04128 106.786Z" stroke="black" stroke-width="1.48892" stroke-linecap="round" stroke-linejoin="round"/>
<path fill-rule="evenodd" clip-rule="evenodd" d="M5.14778 107.427C6.22725 107.692 6.75582 109.102 6.33148 110.574C5.90714 112.042 4.68994 113.021 3.61047 112.752C2.531 112.487 2.00244 111.077 2.42678 109.609C2.85112 108.14 4.06832 107.161 5.14778 107.43V107.427Z" fill="black"/>
<path d="M5.14778 107.427C6.22725 107.692 6.75582 109.102 6.33148 110.574C5.90714 112.042 4.68994 113.021 3.61047 112.752C2.531 112.487 2.00244 111.077 2.42678 109.609C2.85112 108.14 4.06832 107.161 5.14778 107.43V107.427Z" stroke="black" stroke-width="1.48892" stroke-linecap="round" stroke-linejoin="round"/>
<path fill-rule="evenodd" clip-rule="evenodd" d="M3.86734 114.486C4.80536 114.717 5.24831 116.009 4.85747 117.367C4.46663 118.726 3.38716 119.642 2.44914 119.408C1.51112 119.177 1.06816 117.884 1.45901 116.526C1.84985 115.168 2.92932 114.251 3.86734 114.486Z" fill="#8C8B8B"/>
<path d="M3.86734 114.486C4.80536 114.717 5.24831 116.009 4.85747 117.367C4.46663 118.726 3.38716 119.642 2.44914 119.408C1.51112 119.177 1.06816 117.884 1.45901 116.526C1.84985 115.168 2.92932 114.251 3.86734 114.486Z" stroke="black" stroke-width="1.48892" stroke-linecap="round" stroke-linejoin="round"/>
<path fill-rule="evenodd" clip-rule="evenodd" d="M3.25329 114.928C3.99403 115.11 4.35881 116.079 4.06847 117.085C3.77813 118.095 2.94062 118.764 2.19988 118.581C1.45914 118.399 1.09435 117.43 1.38469 116.423C1.67503 115.414 2.51255 114.745 3.25329 114.928Z" fill="black"/>
<path d="M3.25329 114.928C3.99403 115.11 4.35881 116.079 4.06847 117.085C3.77813 118.095 2.94062 118.764 2.19988 118.581C1.45914 118.399 1.09435 117.43 1.38469 116.423C1.67503 115.414 2.51255 114.745 3.25329 114.928Z" stroke="black" stroke-width="1.48892" stroke-linecap="round" stroke-linejoin="round"/>
<path d="M24.0273 135.13C26.0932 132.227 27.2211 132.572 32.4435 133.268" stroke="black" stroke-width="1.48892" stroke-linecap="round" stroke-linejoin="round"/>
<path d="M48.334 147.349C48.3973 148.09 48.9779 155.094 56.2737 153.054C61.1797 151.682 65.8214 141.51 58.2874 135.847" stroke="black" stroke-width="1.48892" stroke-linecap="round" stroke-linejoin="round"/>
<path d="M22.0694 143.161C21.8647 143.716 21.0644 145.043 21.9391 146.329C23.6365 148.821 16.4525 150.048 22.2518 156.739C21.6562 162.419 21.8796 167.245 34.1595 169.647C39.0469 170.602 50.8801 168.713 48.777 161.44C48.1702 159.348 52.4658 158.731 48.3675 153.926C48.9259 153.106 49.0264 153.192 49.8378 151.62" stroke="black" stroke-width="1.48892" stroke-linecap="round" stroke-linejoin="round"/>
<path d="M24.8984 150.4C29.6928 155.446 30.266 156.632 37.3644 157.601C44.273 158.542 45.5126 156.501 48.4532 153.678" stroke="black" stroke-width="1.48892" stroke-linecap="round" stroke-linejoin="round"/>
<path d="M28.9519 161.809C38.6485 165.749 43.2083 164.205 48.9146 160.32" stroke="black" stroke-width="1.48892" stroke-linecap="round" stroke-linejoin="round"/>
</g>
<defs>
<clipPath id="clip0_7338_8132">
<rect width="55.1035" height="97.4693" fill="white" transform="translate(5)"/>
</clipPath>
<clipPath id="clip1_7338_8132">
<rect width="63" height="65.5679" fill="white" transform="translate(0 105)"/>
</clipPath>
</defs>
</svg>
