<?xml version="1.0" encoding="utf-8"?>
<!-- Generator: Adobe Illustrator 28.0.0, SVG Export Plug-In . SVG Version: 6.00 Build 0)  -->
<svg version="1.1" id="Layer_1" xmlns="http://www.w3.org/2000/svg" xmlns:xlink="http://www.w3.org/1999/xlink" x="0px" y="0px"
	 viewBox="0 0 523.4 468.8" style="enable-background:new 0 0 523.4 468.8;" xml:space="preserve">
<style type="text/css">
	.st0{fill-rule:evenodd;clip-rule:evenodd;fill:#0047FE;}
	
		.st1{clip-path:url(#SVGID_00000093156493211229806850000003212045441468591241_);fill-rule:evenodd;clip-rule:evenodd;fill:#498D36;}
	
		.st2{clip-path:url(#SVGID_00000093156493211229806850000003212045441468591241_);fill:none;stroke:#000000;stroke-width:4;stroke-linecap:round;stroke-linejoin:round;stroke-miterlimit:10;}
	.st3{fill-rule:evenodd;clip-rule:evenodd;fill:#498D36;}
	
		.st4{clip-path:url(#SVGID_00000016798245038943379980000000490731330308255361_);fill-rule:evenodd;clip-rule:evenodd;fill:#2E552E;}
	.st5{fill:none;stroke:#000000;stroke-width:4;stroke-linecap:round;stroke-linejoin:round;stroke-miterlimit:10;}
	.st6{fill-rule:evenodd;clip-rule:evenodd;fill:#AB5C3E;}
	
		.st7{clip-path:url(#SVGID_00000176753565833722160870000009516603264982321292_);fill-rule:evenodd;clip-rule:evenodd;fill:#498D36;}
	
		.st8{clip-path:url(#SVGID_00000176753565833722160870000009516603264982321292_);fill:none;stroke:#000000;stroke-width:4;stroke-linecap:round;stroke-linejoin:round;stroke-miterlimit:10;}
	.st9{fill-rule:evenodd;clip-rule:evenodd;fill:#FFFFFF;}
	.st10{clip-path:url(#SVGID_00000024717859139248435230000006115702897208025233_);fill-rule:evenodd;clip-rule:evenodd;}
	.st11{clip-path:url(#SVGID_00000024717859139248435230000006115702897208025233_);}
	
		.st12{clip-path:url(#SVGID_00000045582469317021831140000007780767194609198736_);fill-rule:evenodd;clip-rule:evenodd;fill:#FFFFFF;}
	
		.st13{clip-path:url(#SVGID_00000024717859139248435230000006115702897208025233_);fill:none;stroke:#000000;stroke-width:4.1564;stroke-linecap:round;stroke-linejoin:round;stroke-miterlimit:10;}
	.st14{clip-path:url(#SVGID_00000101084366496160736100000003338619363859801228_);fill-rule:evenodd;clip-rule:evenodd;}
	.st15{clip-path:url(#SVGID_00000101084366496160736100000003338619363859801228_);}
	
		.st16{clip-path:url(#SVGID_00000041258067881655800430000009613008702000443779_);fill-rule:evenodd;clip-rule:evenodd;fill:#FFFFFF;}
	
		.st17{clip-path:url(#SVGID_00000101084366496160736100000003338619363859801228_);fill:none;stroke:#000000;stroke-width:4.1564;stroke-linecap:round;stroke-linejoin:round;stroke-miterlimit:10;}
</style>
<path class="st0" d="M98.8,468.8h364.6c0,0-4.6-53.4-33.2-71.8L57,397.7L98.8,468.8z"/>
<g>
	<defs>
		<rect id="SVGID_1_" width="523.4" height="468.8"/>
	</defs>
	<clipPath id="SVGID_00000008858759897085143320000005851654705471014844_">
		<use xlink:href="#SVGID_1_"  style="overflow:visible;"/>
	</clipPath>
	
		<path style="clip-path:url(#SVGID_00000008858759897085143320000005851654705471014844_);fill-rule:evenodd;clip-rule:evenodd;fill:#498D36;" d="
		M419.3,382.7c12-7.1,26.6-21.2,26.6-21.2c4.8-8.6,33.1-59.4,29.4-119.3c-3.1-49-32.3-72.4-41.7-80.9c-11.7,3.3-46.9,16.7-49.5-5.9
		c-2.3-20.4,22.6-23.3,25.4-23.6c-2.2-1.4-21.8-14.5-11-30.6c2.3-3.5,23.9-25.4,35.6,12.4c19.4-47.4,38.6-10.5,36.1,4.6
		c-1.6,9.5-11.2,13.6,3.2,29c62,66.5,46.9,81.6,45.2,167.1c-1.2,61.3-0.7,66.9-62,115.5"/>
	
		<path style="clip-path:url(#SVGID_00000008858759897085143320000005851654705471014844_);fill:none;stroke:#000000;stroke-width:4;stroke-linecap:round;stroke-linejoin:round;stroke-miterlimit:10;" d="
		M419.3,382.7c12-7.1,26.6-21.2,26.6-21.2c4.8-8.6,33.1-59.4,29.4-119.3c-3.1-49-32.3-72.4-41.7-80.9c-11.7,3.3-46.9,16.7-49.5-5.9
		c-2.3-20.4,22.6-23.3,25.4-23.6c-2.2-1.4-21.8-14.5-11-30.6c2.3-3.5,23.9-25.4,35.6,12.4c19.4-47.4,38.6-10.5,36.1,4.6
		c-1.6,9.5-11.2,13.6,3.2,29c62,66.5,46.9,81.6,45.2,167.1c-1.2,61.3-0.7,66.9-62,115.5"/>
</g>
<path class="st3" d="M14.4,358.7c54.5,72.8,123.7,84.9,123.7,84.9c83,20.7,99-3.7,99-3.7c81.3,11.8,143.4-15.4,143.4-15.4
	c21.8-3.3,37.7-16.5,37.7-16.5c40-30.9,31.8-47,31.8-47c21.5-24.2,14.1-45.2,14.1-45.2c-3.4-26.5-10.8-25.4-10.8-25.4
	c7.4-26.4,4.3-51,4.3-51c-15.9-54.8-68.4-52.9-68.4-52.9c-10.3-13.9-51.2-32.8-51.2-32.8c-64.7-15.4-109.7,36.2-109.7,36.2
	c-12-6.3-119.1-72.6-190.7,56.7C22.9,273.1,16.1,322.3,14.4,358.7z"/>
<g>
	<defs>
		<path id="SVGID_00000005987564146472453180000009912175700191234189_" d="M14.4,358.7c54.5,72.8,123.7,84.9,123.7,84.9
			c83,20.7,99-3.7,99-3.7c81.3,11.8,143.4-15.4,143.4-15.4c21.8-3.3,37.7-16.5,37.7-16.5c40-30.9,31.8-47,31.8-47
			c21.5-24.2,14.1-45.2,14.1-45.2c-3.4-26.5-10.8-25.4-10.8-25.4c7.4-26.4,4.3-51,4.3-51c-15.9-54.8-68.4-52.9-68.4-52.9
			c-10.3-13.9-51.2-32.8-51.2-32.8c-64.7-15.4-109.7,36.2-109.7,36.2c-12-6.3-119.1-72.6-190.7,56.7
			C22.9,273.1,16.1,322.3,14.4,358.7z"/>
	</defs>
	<clipPath id="SVGID_00000059282650123260886370000000647436289530372783_">
		<use xlink:href="#SVGID_00000005987564146472453180000009912175700191234189_"  style="overflow:visible;"/>
	</clipPath>
	
		<path style="clip-path:url(#SVGID_00000059282650123260886370000000647436289530372783_);fill-rule:evenodd;clip-rule:evenodd;fill:#2E552E;" d="
		M72.4,414.3c0,0-39.5-192.5,76-246.8c0,0-56-10.6-111.7,80c0,0-27.3,44-21.8,104.8C14.9,352.2,31.9,396.9,72.4,414.3z"/>
	
		<path style="clip-path:url(#SVGID_00000059282650123260886370000000647436289530372783_);fill-rule:evenodd;clip-rule:evenodd;fill:#2E552E;" d="
		M175.1,172.6l19.7,25.4l33.9,14.8l56.2,14.6c0,0,36.5-28.4,60.8-34.4c0,0-44-17.6-85.6,10.7l-29.3-13.6
		C230.8,190.1,188.9,164.6,175.1,172.6z"/>
</g>
<path class="st5" d="M14.4,358.7c54.5,72.8,123.7,84.9,123.7,84.9c83,20.7,99-3.7,99-3.7c81.3,11.8,143.4-15.4,143.4-15.4
	c21.8-3.3,37.7-16.5,37.7-16.5c40-30.9,31.8-47,31.8-47c21.5-24.2,14.1-45.2,14.1-45.2c-3.4-26.5-10.8-25.4-10.8-25.4
	c7.4-26.4,4.3-51,4.3-51c-15.9-54.8-68.4-52.9-68.4-52.9c-10.3-13.9-51.2-32.8-51.2-32.8c-64.7-15.4-109.7,36.2-109.7,36.2
	c-12-6.3-119.1-72.6-190.7,56.7C22.9,273.1,16.1,322.3,14.4,358.7z"/>
<path class="st5" d="M94,225.2c28.3-21.1,69.1-48.2,130.2-14.1"/>
<path class="st5" d="M259.4,205.8c40.5-32.3,84.2-13.6,87.6-12.4"/>
<path class="st5" d="M285.3,226c40.5-26.5,39.7-31,104.6-39.1"/>
<path class="st5" d="M91.8,284c59.7-13,63.5-61.1,129.6-56.5"/>
<path class="st6" d="M452.7,358.7c23.9-27.6,9.1-55,9.1-55c-2.7-12.1-8.9-12.8-8.9-12.8c-45.1,33.4-47.5,29.7-135.6,50.3
	c-124.8,29.1-203.8-47.1-217.7,9.5c-4.7,19,9.6,29.2,64.9,43c37.6,9.4,55.8-0.1,137.6,4C325,398.8,414.3,403,452.7,358.7z"/>
<path class="st5" d="M452.7,358.7c23.9-27.6,9.1-55,9.1-55c-2.7-12.1-8.9-12.8-8.9-12.8c-45.1,33.4-47.5,29.7-135.6,50.3
	c-124.8,29.1-203.8-47.1-217.7,9.5c-4.7,19,9.6,29.2,64.9,43c37.6,9.4,55.8-0.1,137.6,4C325,398.8,414.3,403,452.7,358.7z"/>
<path class="st5" d="M141.1,357.1c56.7,16.8,100.1,14.5,151.8,12.3c73.4-3.1,138.5-31,172.8-52.9"/>
<g>
	<defs>
		<rect id="SVGID_00000119094044766040538450000004147749098761970315_" width="523.4" height="468.8"/>
	</defs>
	<clipPath id="SVGID_00000170242545082014825850000011005588344463786888_">
		<use xlink:href="#SVGID_00000119094044766040538450000004147749098761970315_"  style="overflow:visible;"/>
	</clipPath>
	
		<path style="clip-path:url(#SVGID_00000170242545082014825850000011005588344463786888_);fill-rule:evenodd;clip-rule:evenodd;fill:#498D36;" d="
		M36.4,468.8C7.2,422,6,401.9,4.5,323.6C2.6,216.9-5.9,182.7,25,135.6c25.6-39,35.2-35,32.8-45.7c-0.1-0.5-13-33.6,8.7-41.9
		c19.4-7.4,24.7,14.9,25.3,17.3c2.1-1.8,25.4-21.8,35-0.5c8,17.7-9.8,29.5-10.8,30.5c5.7,6.5,30.3,26.6,17.4,48.4
		c-2.7,4.6-12.7,11.1-20.9,8.6c-9.2-2.8-17.9-19.1-18.9-21.1C86.5,135.4,31,163.2,44.7,284c11.4,100.6,12.1,107.7,54.2,184.8"/>
	
		<path style="clip-path:url(#SVGID_00000170242545082014825850000011005588344463786888_);fill:none;stroke:#000000;stroke-width:4;stroke-linecap:round;stroke-linejoin:round;stroke-miterlimit:10;" d="
		M36.4,468.8C7.2,422,6,401.9,4.5,323.6C2.6,216.9-5.9,182.7,25,135.6c25.6-39,35.2-35,32.8-45.7c-0.1-0.5-13-33.6,8.7-41.9
		c19.4-7.4,24.7,14.9,25.3,17.3c2.1-1.8,25.4-21.8,35-0.5c8,17.7-9.8,29.5-10.8,30.5c5.7,6.5,30.3,26.6,17.4,48.4
		c-2.7,4.6-12.7,11.1-20.9,8.6c-9.2-2.8-17.9-19.1-18.9-21.1C86.5,135.4,31,163.2,44.7,284c11.4,100.6,12.1,107.7,54.2,184.8"/>
</g>
<path class="st5" d="M432,397c24.9,30.9,26,34.5,30.9,71"/>
<path class="st9" d="M293.5,292.1c3.6-42.6,12.2-39.4,46.9-64.5c54.4-39.4,143.3,4.4,96.6,37.6c-9.8,7-45.4,21.8-71.6,28.1
	C322.6,303.7,309.9,296.4,293.5,292.1z"/>
<g>
	<defs>
		<path id="SVGID_00000129887487138487023650000008742457436522575495_" d="M293.5,292.1c3.6-42.6,12.2-39.4,46.9-64.5
			c54.4-39.4,143.3,4.4,96.6,37.6c-9.8,7-45.4,21.8-71.6,28.1C322.6,303.7,309.9,296.4,293.5,292.1z"/>
	</defs>
	<clipPath id="SVGID_00000088839994436238697240000016219594561408213910_">
		<use xlink:href="#SVGID_00000129887487138487023650000008742457436522575495_"  style="overflow:visible;"/>
	</clipPath>
	
		<ellipse style="clip-path:url(#SVGID_00000088839994436238697240000016219594561408213910_);fill-rule:evenodd;clip-rule:evenodd;" cx="380.5" cy="263.1" rx="40.9" ry="41"/>
	<g style="clip-path:url(#SVGID_00000088839994436238697240000016219594561408213910_);">
		<defs>
			<ellipse id="SVGID_00000102544249925291331080000015721144559515781035_" cx="380.5" cy="263.1" rx="40.9" ry="41"/>
		</defs>
		<clipPath id="SVGID_00000084498110197473929130000003091547433295918513_">
			<use xlink:href="#SVGID_00000102544249925291331080000015721144559515781035_"  style="overflow:visible;"/>
		</clipPath>
		
			<path style="clip-path:url(#SVGID_00000084498110197473929130000003091547433295918513_);fill-rule:evenodd;clip-rule:evenodd;fill:#FFFFFF;" d="
			M363.8,233.5c4.9,0,8.9,3.8,8.9,8.6c0,4.7-4,8.6-8.9,8.6s-8.9-3.8-8.9-8.6C354.9,237.3,358.9,233.5,363.8,233.5z"/>
		
			<path style="clip-path:url(#SVGID_00000084498110197473929130000003091547433295918513_);fill-rule:evenodd;clip-rule:evenodd;fill:#FFFFFF;" d="
			M395.6,237.5c6.7,0,12.1,5.5,12.1,12.3c0,6.8-5.4,12.3-12.1,12.3c-6.7,0-12.1-5.5-12.1-12.3C383.4,243.1,388.9,237.5,395.6,237.5z
			"/>
		
			<path style="clip-path:url(#SVGID_00000084498110197473929130000003091547433295918513_);fill-rule:evenodd;clip-rule:evenodd;fill:#FFFFFF;" d="
			M370.7,258.3c3.3,0,5.9,2.6,5.9,5.7c0,3.2-2.6,5.7-5.9,5.7c-3.3,0-5.9-2.6-5.9-5.7C364.8,260.9,367.4,258.3,370.7,258.3z"/>
		
			<path style="clip-path:url(#SVGID_00000084498110197473929130000003091547433295918513_);fill-rule:evenodd;clip-rule:evenodd;fill:#FFFFFF;" d="
			M375.8,268c4.4,0,8,3.4,8,7.6s-3.6,7.6-8,7.6c-4.4,0-8-3.4-8-7.6S371.3,268,375.8,268z"/>
	</g>
	
		<ellipse style="clip-path:url(#SVGID_00000088839994436238697240000016219594561408213910_);fill:none;stroke:#000000;stroke-width:4.1564;stroke-linecap:round;stroke-linejoin:round;stroke-miterlimit:10;" cx="380.5" cy="263.1" rx="40.9" ry="41"/>
</g>
<path class="st5" d="M293.5,292.1c3.6-42.6,12.2-39.4,46.9-64.5c54.4-39.4,143.3,4.4,96.6,37.6c-9.8,7-45.4,21.8-71.6,28.1
	C322.6,303.7,309.9,296.4,293.5,292.1z"/>
<path class="st9" d="M122.6,294.5c40.8-12.7,60.1-61.5,126.9-58.5c29.2,1.3,48.2,24.7,48.2,24.7s-3.3,30.7-8.7,34.4
	c-11.4,7.6-73.2,26.1-88.9,26.7C185.8,322.3,158.9,323.6,122.6,294.5z"/>
<g>
	<defs>
		<path id="SVGID_00000111875916153242605360000012182934000961822896_" d="M122.6,294.5c40.8-12.7,60.1-61.5,126.9-58.5
			c29.2,1.3,48.2,24.7,48.2,24.7s-3.3,30.7-8.7,34.4c-11.4,7.6-73.2,26.1-88.9,26.7C185.8,322.3,158.9,323.6,122.6,294.5z"/>
	</defs>
	<clipPath id="SVGID_00000067922336038861667610000012506704975430817444_">
		<use xlink:href="#SVGID_00000111875916153242605360000012182934000961822896_"  style="overflow:visible;"/>
	</clipPath>
	
		<path style="clip-path:url(#SVGID_00000067922336038861667610000012506704975430817444_);fill-rule:evenodd;clip-rule:evenodd;" d="
		M222.9,249.5c22.6,0,40.9,18.4,40.9,41c0,22.6-18.3,41-40.9,41s-40.9-18.4-40.9-41C181.9,267.9,200.3,249.5,222.9,249.5z"/>
	<g style="clip-path:url(#SVGID_00000067922336038861667610000012506704975430817444_);">
		<defs>
			<path id="SVGID_00000068679831127339338000000014817745648994589839_" d="M222.9,249.5c22.6,0,40.9,18.4,40.9,41
				c0,22.6-18.3,41-40.9,41s-40.9-18.4-40.9-41C181.9,267.9,200.3,249.5,222.9,249.5z"/>
		</defs>
		<clipPath id="SVGID_00000124162937470553516970000011623733196083728813_">
			<use xlink:href="#SVGID_00000068679831127339338000000014817745648994589839_"  style="overflow:visible;"/>
		</clipPath>
		
			<path style="clip-path:url(#SVGID_00000124162937470553516970000011623733196083728813_);fill-rule:evenodd;clip-rule:evenodd;fill:#FFFFFF;" d="
			M206.1,260.9c4.9,0,8.9,3.8,8.9,8.6s-4,8.6-8.9,8.6c-4.9,0-8.9-3.8-8.9-8.6S201.2,260.9,206.1,260.9z"/>
		
			<path style="clip-path:url(#SVGID_00000124162937470553516970000011623733196083728813_);fill-rule:evenodd;clip-rule:evenodd;fill:#FFFFFF;" d="
			M237.9,264.9c6.7,0,12.1,5.5,12.1,12.3c0,6.8-5.4,12.3-12.1,12.3c-6.7,0-12.1-5.5-12.1-12.3C225.8,270.5,231.2,264.9,237.9,264.9z
			"/>
		
			<ellipse style="clip-path:url(#SVGID_00000124162937470553516970000011623733196083728813_);fill-rule:evenodd;clip-rule:evenodd;fill:#FFFFFF;" cx="213.1" cy="291.4" rx="5.9" ry="5.7"/>
		
			<path style="clip-path:url(#SVGID_00000124162937470553516970000011623733196083728813_);fill-rule:evenodd;clip-rule:evenodd;fill:#FFFFFF;" d="
			M218.1,295.5c4.4,0,8,3.4,8,7.6c0,4.2-3.6,7.6-8,7.6c-4.4,0-8-3.4-8-7.6C210.1,298.9,213.7,295.5,218.1,295.5z"/>
	</g>
	
		<path style="clip-path:url(#SVGID_00000067922336038861667610000012506704975430817444_);fill:none;stroke:#000000;stroke-width:4.1564;stroke-linecap:round;stroke-linejoin:round;stroke-miterlimit:10;" d="
		M222.9,249.5c22.6,0,40.9,18.4,40.9,41c0,22.6-18.3,41-40.9,41s-40.9-18.4-40.9-41C181.9,267.9,200.3,249.5,222.9,249.5z"/>
</g>
<path class="st5" d="M122.6,294.5c40.8-12.7,60.1-61.5,126.9-58.5c29.2,1.3,48.2,24.7,48.2,24.7s-3.3,30.7-8.7,34.4
	c-11.4,7.6-73.2,26.1-88.9,26.7C185.8,322.3,158.9,323.6,122.6,294.5z"/>
</svg>
