<svg width="157" height="52" viewBox="0 0 157 52" fill="none" xmlns="http://www.w3.org/2000/svg">
<g clip-path="url(#clip0_3_6132)">
<path d="M15.3763 21.6084L25.2805 11.7045L35.19 21.6136L40.953 15.8506L25.2805 0.177734L9.61328 15.8454L15.3763 21.6084Z" fill="#F3BA2F"/>
<path d="M11.3059 25.6765L5.54297 19.9136L-0.220199 25.6767L5.54269 31.4396L11.3059 25.6765Z" fill="#F3BA2F"/>
<path d="M15.3769 29.7468L25.2812 39.6506L35.1903 29.7419L40.9565 35.5017L40.9536 35.5049L25.2812 51.1774L9.61353 35.5102L9.60547 35.5021L15.3769 29.7468Z" fill="#F3BA2F"/>
<path d="M45.0181 31.4424L50.7812 25.6792L45.0184 19.9163L39.2552 25.6795L45.0181 31.4424Z" fill="#F3BA2F"/>
<path d="M31.126 25.6746H31.1285L25.2805 19.8267L20.9587 24.1484H20.9583L20.4621 24.6451L19.4377 25.6694L19.4297 25.6775L19.4377 25.6859L25.2805 31.5287L31.1285 25.6807L31.1313 25.6775L31.126 25.6746Z" fill="#F3BA2F"/>
</g>
<path d="M76.086 15.8287C76.7913 16.1967 77.3433 16.7104 77.742 17.3697C78.1407 18.0137 78.34 18.7497 78.34 19.5777C78.34 20.8964 77.8723 21.9927 76.937 22.8667C76.0017 23.7407 74.8593 24.1777 73.51 24.1777H66.61V8.07773H73.004C74.3227 8.07773 75.4343 8.50707 76.339 9.36573C77.259 10.2244 77.719 11.2824 77.719 12.5397C77.719 13.9197 77.1747 15.0161 76.086 15.8287ZM73.004 10.5617H69.255V14.7937H73.004C73.5867 14.7937 74.0773 14.5944 74.476 14.1957C74.8747 13.7817 75.074 13.2757 75.074 12.6777C75.074 12.0797 74.8747 11.5814 74.476 11.1827C74.0773 10.7687 73.5867 10.5617 73.004 10.5617ZM69.255 21.6937H73.51C74.1233 21.6937 74.637 21.4791 75.051 21.0497C75.4803 20.6051 75.695 20.0684 75.695 19.4397C75.695 18.8111 75.4803 18.2821 75.051 17.8527C74.637 17.4081 74.1233 17.1857 73.51 17.1857H69.255V21.6937ZM82.8331 10.4927C82.5264 10.7994 82.1584 10.9527 81.7291 10.9527C81.2998 10.9527 80.9241 10.7994 80.6021 10.4927C80.2954 10.1707 80.1421 9.79507 80.1421 9.36573C80.1421 8.9364 80.2954 8.5684 80.6021 8.26173C80.9088 7.93973 81.2844 7.77873 81.7291 7.77873C82.1738 7.77873 82.5494 7.93973 82.8561 8.26173C83.1628 8.5684 83.3161 8.9364 83.3161 9.36573C83.3161 9.79507 83.1551 10.1707 82.8331 10.4927ZM82.9711 24.1777H80.4871V12.6777H82.9711V24.1777ZM91.9043 12.3787C93.2383 12.3787 94.3039 12.8081 95.1013 13.6667C95.9139 14.5101 96.3203 15.6601 96.3203 17.1167V24.1777H93.8363V17.3697C93.8363 16.5111 93.6063 15.8517 93.1463 15.3917C92.6863 14.9317 92.0576 14.7017 91.2603 14.7017C90.3556 14.7017 89.6426 14.9854 89.1213 15.5527C88.5999 16.1047 88.3393 16.9251 88.3393 18.0137V24.1777H85.8553V12.6777H88.3393V14.1497C89.1059 12.9691 90.2943 12.3787 91.9043 12.3787ZM108.103 14.3107V12.6777H110.587V24.1777H108.103V22.5217C107.168 23.8251 105.826 24.4767 104.078 24.4767C102.499 24.4767 101.149 23.8941 100.03 22.7287C98.9106 21.5634 98.3509 20.1297 98.3509 18.4277C98.3509 16.7257 98.9106 15.2921 100.03 14.1267C101.149 12.9614 102.499 12.3787 104.078 12.3787C105.826 12.3787 107.168 13.0227 108.103 14.3107ZM101.87 21.0727C102.56 21.7627 103.426 22.1077 104.469 22.1077C105.512 22.1077 106.378 21.7627 107.068 21.0727C107.758 20.3674 108.103 19.4857 108.103 18.4277C108.103 17.3697 107.758 16.4957 107.068 15.8057C106.378 15.1004 105.512 14.7477 104.469 14.7477C103.426 14.7477 102.56 15.1004 101.87 15.8057C101.18 16.4957 100.835 17.3697 100.835 18.4277C100.835 19.4704 101.18 20.3521 101.87 21.0727ZM119.531 12.3787C120.865 12.3787 121.931 12.8081 122.728 13.6667C123.541 14.5101 123.947 15.6601 123.947 17.1167V24.1777H121.463V17.3697C121.463 16.5111 121.233 15.8517 120.773 15.3917C120.313 14.9317 119.685 14.7017 118.887 14.7017C117.983 14.7017 117.27 14.9854 116.748 15.5527C116.227 16.1047 115.966 16.9251 115.966 18.0137V24.1777H113.482V12.6777H115.966V14.1497C116.733 12.9691 117.921 12.3787 119.531 12.3787ZM132.05 24.4767C130.317 24.4767 128.868 23.8941 127.703 22.7287C126.553 21.5481 125.978 20.1144 125.978 18.4277C125.978 16.7104 126.553 15.2767 127.703 14.1267C128.868 12.9614 130.317 12.3787 132.05 12.3787C133.169 12.3787 134.189 12.6471 135.109 13.1837C136.029 13.7204 136.719 14.4411 137.179 15.3457L135.04 16.5877C134.779 16.0357 134.381 15.6064 133.844 15.2997C133.323 14.9777 132.717 14.8167 132.027 14.8167C131.015 14.8167 130.164 15.1617 129.474 15.8517C128.799 16.5571 128.462 17.4157 128.462 18.4277C128.462 19.4397 128.799 20.2984 129.474 21.0037C130.164 21.6937 131.015 22.0387 132.027 22.0387C132.702 22.0387 133.307 21.8854 133.844 21.5787C134.396 21.2567 134.81 20.8197 135.086 20.2677L137.225 21.4867C136.734 22.4067 136.021 23.1351 135.086 23.6717C134.166 24.2084 133.154 24.4767 132.05 24.4767ZM149.95 19.4857H140.796C140.98 20.3444 141.394 21.0114 142.038 21.4867C142.697 21.9621 143.51 22.1997 144.476 22.1997C145.779 22.1997 146.768 21.7244 147.443 20.7737L149.49 21.9697C148.37 23.6411 146.691 24.4767 144.453 24.4767C142.597 24.4767 141.087 23.9094 139.922 22.7747C138.772 21.6247 138.197 20.1757 138.197 18.4277C138.197 16.7257 138.764 15.2921 139.899 14.1267C141.018 12.9614 142.475 12.3787 144.269 12.3787C145.94 12.3787 147.32 12.9691 148.409 14.1497C149.497 15.3304 150.042 16.7641 150.042 18.4507C150.042 18.7574 150.011 19.1024 149.95 19.4857ZM140.773 17.4617H147.535C147.366 16.5571 146.983 15.8594 146.385 15.3687C145.802 14.8781 145.089 14.6327 144.246 14.6327C143.326 14.6327 142.559 14.8857 141.946 15.3917C141.332 15.8977 140.941 16.5877 140.773 17.4617Z" fill="#F3BA2F"/>
<path d="M68.68 32.8517C68.68 33.2044 68.864 33.4957 69.232 33.7257C69.6 33.9404 70.1367 34.1474 70.842 34.3467C71.3787 34.4694 71.8463 34.5997 72.245 34.7377C72.6437 34.8757 73.0653 35.0827 73.51 35.3587C73.9547 35.6194 74.292 35.9721 74.522 36.4167C74.7673 36.8461 74.8823 37.3521 74.867 37.9347C74.867 39.0387 74.4377 39.9051 73.579 40.5337C72.7203 41.1624 71.6547 41.4767 70.382 41.4767C69.2473 41.4767 68.2737 41.2391 67.461 40.7637C66.6483 40.2884 66.058 39.6291 65.69 38.7857L67.829 37.5437C68.2123 38.6477 69.0633 39.1997 70.382 39.1997C71.6853 39.1997 72.337 38.7704 72.337 37.9117C72.337 37.2831 71.6087 36.7924 70.152 36.4397C69.6 36.3017 69.1323 36.1637 68.749 36.0257C68.381 35.8877 67.967 35.6884 67.507 35.4277C67.0623 35.1671 66.7173 34.8221 66.472 34.3927C66.242 33.9634 66.1347 33.4651 66.15 32.8977C66.15 31.8397 66.5487 30.9887 67.346 30.3447C68.1587 29.7007 69.163 29.3787 70.359 29.3787C71.3097 29.3787 72.153 29.5934 72.889 30.0227C73.6403 30.4367 74.2153 31.0194 74.614 31.7707L72.521 32.9437C72.1377 32.0697 71.417 31.6327 70.359 31.6327C69.8683 31.6327 69.462 31.7401 69.14 31.9547C68.8333 32.1694 68.68 32.4684 68.68 32.8517ZM85.8666 31.3337V29.6777H88.3506V45.7777H85.8666V39.5447C84.9312 40.8327 83.5896 41.4767 81.8416 41.4767C80.2622 41.4767 78.9129 40.8941 77.7936 39.7287C76.6742 38.5634 76.1146 37.1297 76.1146 35.4277C76.1146 33.7411 76.6742 32.3151 77.7936 31.1497C78.9282 29.9691 80.2776 29.3787 81.8416 29.3787C83.5896 29.3787 84.9312 30.0304 85.8666 31.3337ZM79.6336 38.0727C80.3236 38.7627 81.1899 39.1077 82.2326 39.1077C83.2752 39.1077 84.1416 38.7627 84.8316 38.0727C85.5216 37.3674 85.8666 36.4857 85.8666 35.4277C85.8666 34.3697 85.5216 33.4957 84.8316 32.8057C84.1416 32.1004 83.2752 31.7477 82.2326 31.7477C81.1899 31.7477 80.3236 32.1004 79.6336 32.8057C78.9436 33.4957 78.5986 34.3697 78.5986 35.4277C78.5986 36.4704 78.9436 37.3521 79.6336 38.0727ZM98.9969 35.8417V29.6777H101.481V41.1777H98.9969V39.7057C98.2302 40.8864 97.0419 41.4767 95.4319 41.4767C94.0979 41.4767 93.0245 41.0551 92.2119 40.2117C91.4145 39.3531 91.0159 38.1954 91.0159 36.7387V29.6777H93.4999V36.4857C93.4999 37.3444 93.7299 38.0037 94.1899 38.4637C94.6499 38.9237 95.2785 39.1537 96.0759 39.1537C96.9805 39.1537 97.6935 38.8777 98.2149 38.3257C98.7362 37.7584 98.9969 36.9304 98.9969 35.8417ZM113.494 31.3107V29.6777H115.978V41.1777H113.494V39.5217C112.558 40.8251 111.217 41.4767 109.469 41.4767C107.889 41.4767 106.54 40.8941 105.421 39.7287C104.301 38.5634 103.742 37.1297 103.742 35.4277C103.742 33.7257 104.301 32.2921 105.421 31.1267C106.54 29.9614 107.889 29.3787 109.469 29.3787C111.217 29.3787 112.558 30.0227 113.494 31.3107ZM107.261 38.0727C107.951 38.7627 108.817 39.1077 109.86 39.1077C110.902 39.1077 111.769 38.7627 112.459 38.0727C113.149 37.3674 113.494 36.4857 113.494 35.4277C113.494 34.3697 113.149 33.4957 112.459 32.8057C111.769 32.1004 110.902 31.7477 109.86 31.7477C108.817 31.7477 107.951 32.1004 107.261 32.8057C106.571 33.4957 106.226 34.3697 106.226 35.4277C106.226 36.4704 106.571 37.3521 107.261 38.0727ZM121.357 29.6777V31.6097C121.985 30.1837 123.166 29.4707 124.899 29.4707V32.1617C123.963 32.1004 123.135 32.3304 122.415 32.8517C121.709 33.3577 121.357 34.2011 121.357 35.3817V41.1777H118.873V29.6777H121.357ZM137.304 36.4857H128.15C128.334 37.3444 128.748 38.0114 129.392 38.4867C130.051 38.9621 130.864 39.1997 131.83 39.1997C133.133 39.1997 134.122 38.7244 134.797 37.7737L136.844 38.9697C135.725 40.6411 134.046 41.4767 131.807 41.4767C129.952 41.4767 128.441 40.9094 127.276 39.7747C126.126 38.6247 125.551 37.1757 125.551 35.4277C125.551 33.7257 126.118 32.2921 127.253 31.1267C128.372 29.9614 129.829 29.3787 131.623 29.3787C133.294 29.3787 134.674 29.9691 135.763 31.1497C136.852 32.3304 137.396 33.7641 137.396 35.4507C137.396 35.7574 137.365 36.1024 137.304 36.4857ZM128.127 34.4617H134.889C134.72 33.5571 134.337 32.8594 133.739 32.3687C133.156 31.8781 132.443 31.6327 131.6 31.6327C130.68 31.6327 129.913 31.8857 129.3 32.3917C128.687 32.8977 128.296 33.5877 128.127 34.4617Z" fill="white"/>
<defs>
<clipPath id="clip0_3_6132">
<rect width="51" height="51" fill="white" transform="translate(0 0.177734)"/>
</clipPath>
</defs>
</svg>
