<svg width="165" height="36" viewBox="0 0 165 36" fill="none" xmlns="http://www.w3.org/2000/svg">
<path d="M34.4471 17.8122C34.4471 23.3549 34.4471 28.8605 34.4471 34.4033C34.4471 34.9241 34.2611 35.0729 33.7775 35.0729C26.5236 35.0729 19.2696 35.0729 12.0156 35.0729C11.6064 35.0729 11.3088 34.9613 11.0112 34.6637C7.43999 31.0925 3.94319 27.5213 0.371999 23.9501C0.1488 23.7269 0 23.4665 0 23.1317C0 15.7662 0 8.40057 0 0.997783C0 0.514184 0.185999 0.402588 0.595198 0.402588C11.6436 0.402588 22.7292 0.402588 33.8519 0.402588C34.3727 0.402588 34.4471 0.588589 34.4471 1.07219C34.4471 6.54058 34.4471 12.195 34.4471 17.8122Z" fill="white"/>
<path d="M100.254 12.4924C100.254 8.6236 100.254 4.86641 100.254 1.07201C100.254 0.662812 100.329 0.476809 100.775 0.551209C101.445 0.625609 102.04 0.625609 102.672 0.551209C103.081 0.551209 103.156 0.66281 103.156 1.03481C103.156 2.70881 103.156 4.3828 103.156 6.0196C103.156 10.8184 103.156 15.6544 103.156 20.5276C103.156 21.0112 103.044 21.1228 102.561 21.1228C101.854 21.0484 101.073 21.1228 100.291 21.1228C99.9194 21.1228 99.7706 21.0484 99.6962 20.6392C98.5058 16.138 97.241 11.5996 96.0506 7.1356C95.9762 6.9496 95.9762 6.7636 95.8274 6.6148C95.8274 11.2648 95.8274 15.8776 95.8274 20.5276C95.8274 21.0112 95.7158 21.1972 95.2322 21.1228C94.637 21.0484 94.0418 21.0484 93.4466 21.1228C92.963 21.1972 92.9258 21.0112 92.9258 20.602C92.9258 17.1052 92.9258 13.5712 92.9258 10.1488C92.9258 7.1728 92.9258 4.1596 92.9258 1.18361C92.9258 0.774408 93.0002 0.66281 93.4466 0.66281C94.451 0.73721 95.4554 0.73721 96.497 0.66281C96.869 0.66281 97.0178 0.774411 97.0922 1.14641C98.0594 4.8292 99.0638 8.47479 99.9938 12.1576C100.105 12.1948 100.105 12.3808 100.254 12.4924Z" fill="white"/>
<path d="M45.199 10.1859C46.9846 10.9671 47.4682 12.4551 47.5054 14.1291C47.5798 15.3195 47.617 16.5843 47.3938 17.7003C46.9846 19.7091 45.6082 20.9739 43.525 21.0483C41.665 21.1227 39.8423 21.0483 37.9823 21.1227C37.5731 21.1227 37.6103 20.8995 37.6103 20.6391C37.6103 18.4815 37.6103 16.3983 37.6103 14.2779C37.6103 9.88833 37.6103 5.46154 37.6103 1.07195C37.6103 0.662751 37.6847 0.551147 38.1311 0.551147C39.8422 0.625547 41.5906 0.439546 43.3018 0.625546C45.8686 0.923146 46.873 1.92755 47.1706 4.49434C47.2822 5.49874 47.2822 6.46594 47.0962 7.47034C46.873 8.62354 46.315 9.59074 45.199 10.1859Z" fill="white"/>
<path d="M85.7095 10.8927C85.7095 12.7527 85.7095 14.6499 85.7095 16.4727C85.7095 17.2911 85.5235 18.1467 85.1887 18.9279C84.7051 19.9323 83.9983 20.6391 82.9195 21.0111C81.5431 21.4947 80.1295 21.5319 78.6787 21.0111C76.7815 20.3043 76.0003 18.7047 75.9259 16.8447C75.8515 12.8643 75.8143 8.88395 75.9259 4.90355C76.0375 1.25796 78.6043 0.141962 81.4687 0.439562C84.0727 0.737161 85.5235 2.41116 85.5607 5.20115C85.7467 7.09835 85.7095 8.99555 85.7095 10.8927Z" fill="white"/>
<path d="M64.9522 10.0745C65.0266 8.80975 64.8406 6.72655 65.0266 4.71775C65.3242 1.25815 67.705 0.142157 70.4206 0.439756C72.9874 0.737356 74.2894 2.22535 74.4754 5.01535C74.5498 5.72215 74.4754 6.42895 74.4754 7.21015C74.4754 7.50775 74.3638 7.58215 74.1034 7.58215C73.3222 7.58215 72.541 7.58215 71.797 7.58215C71.4994 7.58215 71.425 7.47055 71.425 7.21015C71.425 6.42895 71.425 5.72215 71.425 4.94095C71.3506 3.75055 70.6066 3.08095 69.3418 3.34135C68.7466 3.45295 68.3374 3.86215 68.2258 4.53175C68.1514 4.82935 68.1514 5.20135 68.1514 5.49895C68.1514 9.07014 68.1514 12.6413 68.1514 16.2125C68.1514 16.4357 68.1514 16.6961 68.2258 16.9193C68.3374 17.9237 68.9326 18.4073 69.937 18.3329C70.9042 18.2585 71.425 17.7377 71.4994 16.7705C71.5738 15.8033 71.5738 14.8733 71.4994 13.9061C71.4994 13.5341 71.5738 13.3853 71.983 13.4225C72.6898 13.4969 73.471 13.4225 74.2522 13.4225C74.4382 13.4225 74.6242 13.4225 74.6242 13.7201C74.5498 15.1337 74.7358 16.5845 74.4382 17.9609C73.9546 19.9697 72.5782 21.1601 70.495 21.3461C69.8998 21.4205 69.2302 21.4205 68.635 21.2717C66.5518 20.8625 65.287 19.4117 65.1382 17.3285C65.1382 17.0309 65.0638 16.7333 65.0638 16.5101C64.8778 14.5757 64.9522 12.7529 64.9522 10.0745Z" fill="white"/>
<path d="M118.11 6.13124C117.626 6.13124 117.031 6.31724 116.696 6.05684C116.324 5.83364 116.584 5.16405 116.51 4.68045C116.398 3.71325 115.84 3.19245 114.948 3.19245C113.98 3.19245 113.534 3.67605 113.385 4.60605C113.199 5.79645 113.571 6.87524 114.352 7.80524C114.873 8.47484 115.543 9.07004 116.138 9.66524C116.956 10.4464 117.737 11.1532 118.407 12.1204C119.709 14.0176 119.97 16.1752 119.3 18.37C118.816 19.9324 117.812 20.8252 116.25 21.1228C115.245 21.346 114.278 21.3088 113.274 21.0484C111.488 20.6392 110.372 19.1884 110.112 17.068C110.037 16.3984 110.112 15.766 110.037 15.0964C110.037 14.7988 110.149 14.7244 110.409 14.7244C111.19 14.7244 111.972 14.7244 112.716 14.7244C113.013 14.7244 113.088 14.836 113.088 15.1336C113.088 15.8032 113.013 16.3984 113.199 17.0308C113.385 17.812 113.869 18.2212 114.762 18.2212C115.58 18.2212 116.138 17.8492 116.361 17.1052C116.659 16.0264 116.436 14.9476 115.84 14.0176C115.32 13.1992 114.576 12.4552 113.832 11.8228C113.05 11.116 112.344 10.4464 111.674 9.62804C110.186 7.73084 109.814 5.57324 110.409 3.34125C110.818 1.55565 112.009 0.55125 113.869 0.253651C114.687 0.142051 115.468 0.142055 116.25 0.328055C118.035 0.737254 119.226 2.03925 119.449 3.97364C119.523 4.49444 119.56 5.05244 119.56 5.64764C119.56 5.94524 119.486 6.05684 119.188 6.05684C118.891 6.13124 118.519 6.20564 118.11 6.13124C118.11 6.20564 118.11 6.20564 118.11 6.13124Z" fill="white"/>
<path d="M124.098 12.3809C124.098 9.70246 124.098 7.02406 124.098 4.30847C124.098 3.52727 124.098 3.52726 123.391 3.52726C122.684 3.52726 121.978 3.52726 121.196 3.52726C120.824 3.52726 120.713 3.45287 120.713 3.11807C120.713 2.41127 120.713 1.70447 120.713 0.923269C120.713 0.625669 120.787 0.55127 121.085 0.55127C124.172 0.55127 127.223 0.55127 130.31 0.55127C130.608 0.55127 130.682 0.625669 130.682 0.923269C130.682 1.70447 130.682 2.41127 130.682 3.19247C130.682 3.49007 130.608 3.60166 130.31 3.60166C129.492 3.60166 128.636 3.60166 127.855 3.60166C127.372 3.60166 127.334 3.71327 127.334 4.12247C127.334 9.59086 127.334 15.0592 127.334 20.5276C127.334 21.0112 127.223 21.1972 126.739 21.1972C126.032 21.1228 125.326 21.1228 124.582 21.1972C124.172 21.1972 124.098 21.0856 124.098 20.6764C124.098 17.8492 124.098 15.1336 124.098 12.3809Z" fill="white"/>
<path d="M57.3988 12.3436C57.3988 9.55365 57.3988 6.80086 57.3988 4.01087C57.3988 3.60167 57.2872 3.49006 56.9152 3.52726C56.134 3.60166 55.3156 3.52726 54.5344 3.52726C54.1252 3.52726 54.0508 3.41566 54.0508 3.04366C54.0508 2.33687 54.0508 1.66727 54.0508 0.960471C54.0508 0.662872 54.1252 0.55127 54.46 0.55127C57.5104 0.55127 60.598 0.55127 63.6112 0.55127C63.8344 0.55127 63.9832 0.625669 63.9832 0.923269C63.9832 1.70447 63.9832 2.48567 63.9832 3.19247C63.9832 3.49007 63.8716 3.56447 63.6112 3.56447C62.7928 3.56447 61.9372 3.56447 61.156 3.56447C60.7468 3.56447 60.6352 3.67606 60.6352 4.08526C60.6352 9.55366 60.6352 15.022 60.6352 20.4904C60.6352 21.0112 60.4492 21.16 59.9656 21.16C59.296 21.0856 58.6636 21.0856 57.9568 21.16C57.5476 21.16 57.3616 21.0484 57.3616 20.6392C57.436 17.8492 57.3988 15.0592 57.3988 12.3436Z" fill="white"/>
<path d="M136.302 3.15534C136.19 3.37854 136.228 3.63894 136.228 3.82494C136.228 9.40493 136.228 14.9477 136.228 20.5277C136.228 20.7137 136.339 21.0113 136.116 21.0485C135.818 21.1229 135.409 21.1229 135.112 21.0485C135 21.0485 135.037 20.7509 135.037 20.6393C135.037 19.5233 135.037 18.3329 135.037 17.1797C135.037 11.8229 135.037 6.46613 135.037 1.10934C135.037 0.625741 135.112 0.43974 135.632 0.43974C136.748 0.51414 136.748 0.439744 137.195 1.51854C138.98 6.61493 140.84 11.8229 142.589 16.9193C142.663 17.1053 142.7 17.2913 142.775 17.4401C142.961 17.2169 142.886 16.9565 142.886 16.7705C142.886 11.5253 142.886 6.24293 142.886 0.997739C142.886 0.81174 142.775 0.514142 142.998 0.476942C143.296 0.402543 143.668 0.402543 144.002 0.476942C144.114 0.476942 144.077 0.700142 144.077 0.848942C144.077 1.74174 144.077 2.63454 144.077 3.45294C144.077 9.10733 144.077 14.7617 144.077 20.4161C144.077 20.8253 143.965 21.0113 143.556 20.9369C142.589 20.8625 142.589 20.9369 142.291 20.0441C140.394 14.5013 138.422 8.99573 136.525 3.45294C136.414 3.52734 136.376 3.34134 136.302 3.15534Z" fill="white"/>
<path d="M108.401 10.8931C108.401 14.0923 108.401 17.3287 108.401 20.5279C108.401 21.0115 108.326 21.1975 107.805 21.1231C107.099 21.0487 106.317 21.1231 105.536 21.1231C105.239 21.1231 105.127 21.0115 105.127 20.7139C105.127 19.3375 105.127 17.9239 105.127 16.5475C105.127 11.4511 105.127 6.31754 105.127 1.22114C105.127 0.737545 105.239 0.551543 105.722 0.625943C106.429 0.700343 107.136 0.700343 107.917 0.625943C108.289 0.625943 108.401 0.737544 108.401 1.10954C108.401 4.34594 108.401 7.61953 108.401 10.8931Z" fill="white"/>
<path d="M90.8049 10.8931C90.8049 14.0923 90.8049 17.3659 90.8049 20.6023C90.8049 21.0859 90.6932 21.1975 90.2097 21.1231C89.5401 21.0487 88.9077 21.0487 88.2381 21.1231C87.7173 21.1975 87.5312 21.0115 87.5312 20.4163C87.5312 15.2455 87.5312 10.1119 87.5312 4.94113C87.5312 3.63913 87.5312 2.37434 87.5312 1.07234C87.5312 0.588739 87.6429 0.477136 88.1265 0.551536C88.8333 0.625936 89.5029 0.625936 90.2097 0.551536C90.6932 0.551536 90.8049 0.663138 90.8049 1.14674C90.8049 4.42033 90.8049 7.61953 90.8049 10.8931Z" fill="white"/>
<path d="M52.5258 10.8558C52.5258 14.1294 52.5258 17.403 52.5258 20.6766C52.5258 21.0858 52.4514 21.1974 52.0422 21.1974C51.3354 21.123 50.6286 21.123 49.8474 21.1974C49.4382 21.1974 49.2522 21.0858 49.3266 20.6766C49.3266 16.0266 49.3266 11.4138 49.3266 6.76378C49.3266 4.90378 49.3266 3.00659 49.3266 1.18379C49.3266 0.811791 49.401 0.700195 49.8102 0.700195C50.517 0.774595 51.2238 0.774595 52.005 0.700195C52.4886 0.700195 52.6002 0.811792 52.6002 1.29539C52.4514 4.34579 52.5258 7.61938 52.5258 10.8558Z" fill="white"/>
<path d="M145.713 10.8929C145.713 7.61926 145.713 4.42007 145.713 1.14647C145.713 0.662872 145.825 0.55127 146.308 0.55127C148.615 0.55127 150.958 0.625669 153.265 0.55127C153.86 0.55127 153.748 0.84887 153.748 1.22087C153.748 1.51847 153.86 1.89047 153.265 1.89047C151.367 1.81607 149.47 1.89047 147.573 1.89047C147.164 1.89047 147.089 2.00207 147.089 2.37407C147.089 4.82927 147.089 7.24726 147.089 9.62806C147.089 10.0373 147.164 10.1489 147.573 10.1489C149.135 10.1489 150.661 10.1489 152.223 10.1489C152.744 10.1489 152.707 10.4465 152.707 10.7441C152.707 11.0417 152.893 11.4509 152.223 11.4137C150.661 11.3393 149.135 11.4137 147.573 11.4137C147.164 11.4137 147.089 11.5253 147.089 11.9345C147.089 14.4268 147.089 16.9192 147.089 19.4116C147.089 19.8208 147.164 20.0068 147.61 20.0068C149.47 20.0068 151.293 20.0068 153.153 20.0068C153.674 20.0068 153.748 20.1928 153.748 20.6764C153.748 21.0856 153.674 21.2716 153.153 21.2716C150.847 21.1972 148.503 21.2716 146.197 21.2716C145.787 21.2716 145.676 21.16 145.676 20.788C145.713 17.3656 145.713 14.1664 145.713 10.8929Z" fill="white"/>
<path d="M160.816 11.4881C160.816 14.5384 160.816 17.5516 160.816 20.602C160.816 21.0112 160.742 21.2716 160.295 21.1228C160.109 21.1228 159.923 21.1228 159.775 21.1228C159.551 21.1228 159.403 21.0484 159.477 20.8252C159.477 20.7136 159.477 20.602 159.477 20.416C159.477 14.4268 159.477 8.40046 159.477 2.41127C159.477 1.92767 159.365 1.81607 158.882 1.81607C157.877 1.89047 156.799 1.81607 155.794 1.81607C155.422 1.81607 155.311 1.74167 155.311 1.33247C155.311 0.551272 155.311 0.55127 156.092 0.55127C158.882 0.55127 161.672 0.55127 164.462 0.55127C165.131 0.55127 164.945 0.923272 164.983 1.25807C165.057 1.66727 164.908 1.85327 164.462 1.85327C163.383 1.77887 162.379 1.85327 161.3 1.85327C160.891 1.85327 160.816 1.96487 160.816 2.33687C160.816 5.38726 160.816 8.40046 160.816 11.4881Z" fill="white"/>
<path d="M131.018 19.8953C131.018 19.6721 131.092 19.4117 131.018 19.2257C130.906 18.7049 131.204 18.6306 131.687 18.5562C132.282 18.5562 132.468 18.6677 132.394 19.2629C132.32 19.7465 132.394 20.2673 132.394 20.7509C132.394 21.0485 132.32 21.1601 132.022 21.1601C131.055 21.2345 131.055 21.2345 131.055 20.2673C131.018 20.1185 131.018 20.0069 131.018 19.8953Z" fill="white"/>
<path d="M107.174 31.3529C107.397 29.6789 107.694 28.0049 107.955 26.2937C107.955 26.1077 107.955 25.8845 108.252 25.9217C108.55 25.9217 108.476 26.1449 108.55 26.3309C108.773 27.8933 109.034 29.4929 109.257 31.0181C109.257 31.1297 109.257 31.3157 109.443 31.4273C109.74 29.7161 109.964 28.0421 110.261 26.3682C110.261 26.2938 110.261 26.1821 110.261 26.1449C110.261 25.9589 110.336 25.8473 110.559 25.8473C110.745 25.9217 110.67 26.0333 110.67 26.1449C110.559 26.9633 110.447 27.8189 110.261 28.6373C110.075 29.7533 109.889 30.9065 109.74 32.0225C109.666 32.2085 109.74 32.4317 109.443 32.4317C109.071 32.4317 109.071 32.2085 109.071 31.9481C108.848 30.3857 108.587 28.8605 108.29 27.1865C108.066 27.8561 107.992 28.4513 107.88 29.0465C107.694 30.0137 107.583 31.0181 107.397 31.9481C107.322 32.1341 107.397 32.4317 107.025 32.4317C106.616 32.4317 106.653 32.2085 106.616 31.9481C106.318 30.0881 106.02 28.1909 105.723 26.3682C105.723 26.1822 105.648 26.0705 105.648 25.8846C105.648 25.8102 105.76 25.7729 105.834 25.7729C106.058 25.7729 106.058 25.9961 106.058 26.1449C106.281 27.5585 106.541 29.0465 106.764 30.4973C106.839 30.7205 106.839 30.9809 106.876 31.2041C106.988 31.3157 106.988 31.4273 106.95 31.5761C107.062 31.6505 107.062 31.4645 107.174 31.3529Z" fill="white"/>
<path d="M145.712 31.2413C145.712 29.6789 145.712 28.0793 145.712 26.5541C145.712 26.3681 145.712 26.2565 145.712 26.0705C145.712 25.9589 145.787 25.8845 145.898 25.8845C146.01 25.8845 146.084 25.9589 146.084 26.0705C146.084 26.1821 146.084 26.2937 146.084 26.4425C146.084 28.3025 146.084 30.1997 146.084 32.0225C146.084 32.2085 146.27 32.4317 145.898 32.5061C145.526 32.5805 145.526 32.3201 145.489 32.0969C144.894 30.3857 144.299 28.7117 143.629 27.0005C143.629 27.1121 143.555 27.2237 143.555 27.4097C143.555 28.9721 143.555 30.5717 143.555 32.0969C143.555 32.2829 143.666 32.5061 143.369 32.5061C143.071 32.5061 143.183 32.2085 143.183 32.0969C143.183 30.1997 143.183 28.3025 143.183 26.4053C143.183 26.2193 143.071 25.9961 143.406 25.9217C143.703 25.9217 143.778 26.1077 143.889 26.3309C144.41 27.8933 145.005 29.4929 145.563 31.0181C145.638 31.0553 145.638 31.1669 145.712 31.2413Z" fill="white"/>
<path d="M120.789 27.0005C120.789 28.6745 120.789 30.2741 120.789 31.948C120.789 32.134 120.789 32.2456 120.789 32.4316C120.789 32.5432 120.678 32.6176 120.603 32.6176C120.492 32.6176 120.417 32.5432 120.417 32.4316C120.417 32.32 120.417 32.2084 120.417 32.0224C120.417 30.2369 120.417 28.4513 120.417 26.6285C120.417 26.4053 120.194 26.0333 120.64 25.9217C121.05 25.8473 121.05 26.2193 121.161 26.4425C121.682 27.9305 122.24 29.4928 122.761 30.9436C122.835 31.018 122.835 31.1296 122.947 31.1668C122.947 30.0508 122.947 28.8977 122.947 27.7073C122.947 27.1865 122.947 26.6285 122.947 26.1077C122.947 25.9961 122.947 25.8101 123.133 25.8101C123.319 25.8101 123.319 25.9961 123.319 26.1077C123.319 28.1165 123.319 30.1624 123.319 32.1712C123.319 32.2828 123.319 32.3944 123.133 32.4688C122.91 32.4688 122.761 32.3572 122.724 32.1712C122.314 30.9808 121.905 29.8649 121.459 28.6745C121.273 28.0793 121.05 27.5585 120.864 26.9633C120.826 27.0005 120.789 27.0005 120.789 27.0005Z" fill="white"/>
<path d="M80.3901 31.3153C80.3901 29.7157 80.3901 28.1533 80.3901 26.6281C80.3901 26.4421 80.3901 26.3305 80.3901 26.1445C80.3901 26.0329 80.4645 25.9585 80.5761 25.9585C80.7621 25.9585 80.7621 26.0329 80.7621 26.1445C80.7621 26.2561 80.7621 26.3677 80.7621 26.5537C80.7621 28.3393 80.7621 30.1249 80.7621 31.9477C80.7621 32.1337 80.9481 32.4685 80.5761 32.5429C80.1669 32.6545 80.1669 32.2453 80.0925 32.0221C79.5717 30.4597 79.0137 28.9345 78.4929 27.3721C78.4185 27.2605 78.3813 27.1489 78.2697 27.0745C78.2697 28.6369 78.2697 30.2365 78.2697 31.7617C78.2697 31.9849 78.4929 32.5429 78.0837 32.5429C77.6745 32.5429 77.8605 32.0221 77.8605 31.7617C77.8605 29.9761 77.8605 28.1905 77.8605 26.4049C77.8605 26.2189 77.7489 25.9957 78.0837 25.9213C78.3813 25.8469 78.4929 26.0329 78.5673 26.2933C79.0881 27.8557 79.6461 29.3809 80.2413 30.9433C80.2413 31.0549 80.2413 31.1665 80.3901 31.3153Z" fill="white"/>
<path d="M123.988 29.2322C123.988 28.265 123.988 27.3722 123.988 26.4422C123.988 26.033 124.1 25.9214 124.509 25.9586C124.695 25.9586 124.918 25.9586 125.179 25.9586C126.443 25.9586 126.89 26.3306 126.964 27.5582C127.039 28.823 127.076 30.0506 126.89 31.241C126.778 32.1338 126.295 32.5058 125.476 32.543C124.063 32.6174 124.063 32.6174 124.063 31.1666C123.988 30.5342 123.988 29.8646 123.988 29.2322Z" fill="white"/>
<path d="M142.327 29.2696C142.327 30.2368 142.327 31.1668 142.327 32.134C142.327 32.32 142.439 32.5432 142.104 32.5432C141.732 32.5432 141.881 32.32 141.881 32.134C141.881 31.3528 141.881 30.5716 141.881 29.8648C141.881 29.4928 141.769 29.4556 141.472 29.4556C140.951 29.53 140.281 29.2324 139.909 29.5672C139.612 29.8648 139.835 30.5344 139.798 31.0552C139.798 31.4644 139.798 31.8364 139.798 32.2456C139.798 32.3572 139.872 32.5432 139.612 32.6176C139.389 32.6176 139.389 32.506 139.389 32.32C139.389 30.3112 139.389 28.3396 139.389 26.3308C139.389 26.1448 139.389 26.0332 139.612 26.0332C139.909 26.0332 139.835 26.2564 139.835 26.4052C139.835 27.1864 139.835 27.9676 139.835 28.6744C139.835 29.0464 139.947 29.158 140.319 29.0836C140.839 29.0092 141.509 29.2696 141.807 28.972C142.179 28.6744 141.881 28.0048 141.918 27.484C141.918 27.0748 141.918 26.7028 141.918 26.2936C141.918 26.182 141.844 25.996 142.104 25.9216C142.402 25.9216 142.327 26.1076 142.327 26.2936C142.327 27.2608 142.327 28.2652 142.327 29.2696Z" fill="white"/>
<path d="M92.1805 29.3811C92.8501 29.6043 92.9989 30.0879 92.9989 30.6459C92.9989 31.2039 92.9245 31.7247 93.0733 32.2455C93.0733 32.3571 93.2593 32.4687 92.9989 32.5431C92.8129 32.6175 92.6269 32.4687 92.6269 32.3199C92.5525 32.0967 92.5525 31.8363 92.5525 31.6131C92.5525 31.4271 92.5525 31.2411 92.5525 31.0179C92.5525 29.9019 92.0689 29.4555 90.8785 29.6043C90.5809 29.6787 90.6553 29.8275 90.6553 30.0135C90.6553 30.7203 90.6553 31.5015 90.6553 32.2083C90.6553 32.3199 90.7297 32.5059 90.4693 32.5803C90.2461 32.5803 90.2461 32.3943 90.2461 32.2083C90.2461 30.2367 90.2461 28.2279 90.2461 26.2563C90.2461 25.9587 90.3577 25.8843 90.6181 25.8843C90.7297 25.8843 90.8413 25.8843 90.9901 25.8843C93.1477 25.6983 93.1477 26.7027 92.9989 28.4511C92.8873 28.9347 92.5897 29.1579 92.1805 29.3811Z" fill="white"/>
<path d="M44.1943 29.3813C44.7895 29.6045 44.9754 30.0509 44.9754 30.6461C44.9754 31.1669 44.9011 31.7249 45.0499 32.2457C45.0499 32.3573 45.2358 32.4689 44.9754 32.5433C44.7894 32.6177 44.6778 32.5433 44.6034 32.3573C44.529 32.1713 44.5291 31.9853 44.5291 31.8365C44.5291 31.5389 44.5291 31.2413 44.5291 31.0181C44.5291 29.9021 44.0083 29.4557 42.8551 29.6045C42.5575 29.6789 42.6319 29.8277 42.6319 30.0137C42.6319 30.7205 42.6319 31.5017 42.6319 32.2085C42.6319 32.3201 42.7063 32.5061 42.4459 32.5805C42.2227 32.5805 42.2227 32.3945 42.2227 32.2085C42.2227 30.2369 42.2227 28.2281 42.2227 26.2565C42.2227 26.0333 42.2971 25.8845 42.5203 25.8845C42.9295 25.8845 43.3387 25.8845 43.7851 25.8845C44.4919 25.9589 44.901 26.3681 44.9754 27.0005C45.0498 27.3725 44.9754 27.7817 44.9754 28.1165C44.9754 28.7489 44.8267 28.9721 44.1943 29.3813Z" fill="white"/>
<path d="M72.7998 29.3812C73.4694 29.6044 73.6182 30.088 73.6182 30.6832C73.6182 31.204 73.5438 31.6876 73.6926 32.2456C73.6926 32.3572 73.8786 32.4688 73.6182 32.5432C73.4322 32.6176 73.2462 32.5432 73.2462 32.32C73.1718 31.9108 73.1718 31.5016 73.1718 31.0552C73.1718 29.8648 72.8742 29.5672 71.6094 29.5672C71.3118 29.5672 71.2002 29.6788 71.2002 29.9764C71.2002 30.6832 71.2002 31.4644 71.2002 32.1712C71.2002 32.2828 71.2746 32.4688 71.0142 32.5432C70.791 32.5432 70.791 32.4316 70.791 32.1712C70.791 30.1996 70.791 28.1908 70.791 26.2192C70.791 25.9216 70.9026 25.8472 71.163 25.8472C71.2746 25.8472 71.3862 25.8472 71.5722 25.8472C73.7298 25.6612 73.7298 26.74 73.5438 28.4512C73.5066 28.9348 73.209 29.158 72.7998 29.3812Z" fill="white"/>
<path d="M69.2651 29.3815C69.8603 29.6047 70.0463 30.0883 70.0463 30.6835C70.0463 31.1671 69.9719 31.6879 70.1207 32.1715C70.1207 32.2831 70.3439 32.4691 70.0463 32.5435C69.8231 32.6179 69.6743 32.4691 69.6743 32.2459C69.6743 31.9483 69.5999 31.6507 69.5999 31.3531C69.5999 31.1299 69.5999 30.8323 69.5999 30.5719C69.5255 29.7907 68.4839 29.2699 67.8143 29.6047C67.6283 29.7163 67.7027 29.8279 67.7027 30.0139C67.7027 30.7207 67.7027 31.4275 67.7027 32.2087C67.7027 32.3947 67.7771 32.5807 67.4795 32.5807C67.1819 32.5807 67.2563 32.3575 67.2563 32.2087C67.2563 30.2371 67.2563 28.2655 67.2563 26.3311C67.2563 26.1079 67.3307 25.9219 67.6283 25.9591C67.8143 25.9591 68.0003 25.9591 68.1491 25.9591C68.8559 25.9591 69.6371 25.8847 70.0091 26.7403C70.3439 27.6703 70.0463 28.7863 69.2651 29.3815Z" fill="white"/>
<path d="M157.579 29.3442C157.579 30.0138 157.579 30.609 157.579 31.2414C157.654 31.911 157.989 32.2458 158.547 32.2458C159.067 32.2458 159.439 31.8738 159.514 31.2786C159.514 30.981 159.514 30.6834 159.514 30.4602C159.514 30.051 159.625 29.4558 158.844 29.6418C158.733 29.6418 158.621 29.5674 158.621 29.4558C158.621 29.3442 158.695 29.2698 158.844 29.2698C159.067 29.2698 159.365 29.2698 159.625 29.2698C159.811 29.2698 159.849 29.3814 159.849 29.5674C159.849 30.2742 159.923 30.981 159.774 31.6506C159.588 32.3574 159.179 32.7294 158.398 32.7294C157.691 32.7294 157.282 32.3574 157.096 31.725C156.91 31.2042 157.021 30.6462 157.021 30.051C157.021 29.2326 157.021 28.377 157.021 27.5587C157.021 26.6659 157.505 26.1451 158.212 25.9963C159.328 25.8847 160.109 26.7775 159.886 27.8934C159.886 28.005 159.811 28.1167 159.7 28.1167C159.514 28.1167 159.477 28.005 159.477 27.8934C159.477 27.7074 159.477 27.5958 159.477 27.4098C159.402 26.7402 159.067 26.4055 158.472 26.4055C157.951 26.4055 157.579 26.7774 157.505 27.4098C157.542 27.9678 157.579 28.6375 157.579 29.3442Z" fill="white"/>
<path d="M63.7613 28.7862C63.7613 27.8934 63.7613 27.1866 63.7613 26.4054C63.7613 26.2194 63.5753 25.8846 63.9473 25.8846C64.3565 25.8846 64.1705 26.2566 64.1705 26.4054C64.1705 27.8934 64.1705 29.3814 64.1705 30.8694C64.1705 31.2414 64.2449 31.5762 64.4681 31.8366C64.7657 32.1342 65.1377 32.2086 65.4725 32.0598C65.8817 31.9482 66.0677 31.5762 66.1421 31.167C66.2165 30.5718 66.2165 30.051 66.2165 29.4558C66.2165 28.377 66.2165 27.2982 66.2165 26.2566C66.2165 26.0706 66.1049 25.8474 66.4397 25.8474C66.7373 25.8474 66.6257 26.145 66.6257 26.2566C66.6257 27.7446 66.6257 29.1582 66.6257 30.6462C66.6257 30.8694 66.5513 31.167 66.5141 31.4274C66.3281 32.097 65.9189 32.4318 65.2493 32.4318C64.5425 32.4318 64.0589 32.1342 63.8729 31.4646C63.5753 30.6462 63.7985 29.6418 63.7613 28.7862Z" fill="white"/>
<path d="M156.35 29.2697C156.35 29.9393 156.35 30.5345 156.35 31.1669C156.35 32.0597 155.83 32.5805 155.048 32.5805C154.156 32.6549 153.56 32.2085 153.486 31.3157C153.374 29.9021 153.374 28.5257 153.486 27.0749C153.56 26.1821 154.156 25.8101 155.048 25.8845C155.755 25.9589 156.313 26.4053 156.313 27.2609C156.35 27.8933 156.35 28.5629 156.35 29.2697Z" fill="white"/>
<path d="M149.692 29.2323C149.692 29.9019 149.692 30.4971 149.692 31.1295C149.692 32.0223 149.171 32.5431 148.39 32.6175C147.497 32.6919 146.902 32.2455 146.827 31.3155C146.753 29.9391 146.753 28.5627 146.827 27.2235C146.902 26.3307 147.497 25.8471 148.39 25.9215C149.171 25.9959 149.654 26.5167 149.692 27.4095C149.692 27.4839 149.692 27.4839 149.692 27.5211C149.692 28.0419 149.692 28.6371 149.692 29.2323Z" fill="white"/>
<path d="M59.5204 29.2697C59.5204 29.9393 59.5204 30.5345 59.5204 31.1669C59.5204 32.0597 58.9996 32.5805 58.2184 32.5805C57.3256 32.6549 56.7304 32.2085 56.656 31.3157C56.5444 29.9021 56.5444 28.5257 56.656 27.0749C56.7304 26.1821 57.3256 25.8101 58.2184 25.8845C58.9252 25.9589 59.4832 26.4053 59.4832 27.2609C59.5204 27.8933 59.5204 28.5629 59.5204 29.2697Z" fill="white"/>
<path d="M119.598 32.2457C119.672 32.4689 119.598 32.5433 119.486 32.5433C119.3 32.5433 119.263 32.5433 119.189 32.3573C119.114 32.0597 119.077 31.8365 119.003 31.5389C118.928 31.1669 118.78 31.0553 118.408 31.1297C118.296 31.1297 118.184 31.1297 118.036 31.1297C116.845 31.1297 116.845 31.1297 116.548 32.2457C116.473 32.4317 116.473 32.6549 116.25 32.5433C115.952 32.4689 116.138 32.2457 116.176 32.1341C116.585 30.2369 116.994 28.3397 117.44 26.3681C117.515 26.1449 117.515 25.8845 117.85 25.8845C118.259 25.8845 118.222 26.1821 118.259 26.3681C118.668 28.2653 119.077 30.1625 119.524 32.1341C119.598 32.1713 119.635 32.2457 119.598 32.2457Z" fill="white"/>
<path d="M38.6512 29.4556C38.6512 28.6372 38.6512 28.042 38.6512 27.3724C38.7256 26.4796 39.1348 25.9588 39.8416 25.8844C40.9576 25.81 41.7388 26.7772 41.4412 27.8932C41.3668 28.0048 41.3668 28.0792 41.218 28.0792C41.1064 28.0792 41.032 28.0048 41.032 27.856C41.032 27.6328 41.032 27.3724 40.9576 27.1492C40.8832 26.6284 40.5856 26.3308 40.0648 26.3308C39.544 26.3308 39.0976 26.6284 39.0604 27.1492C38.9488 28.5628 38.9488 30.0136 39.0604 31.4272C39.1348 31.948 39.4696 32.2456 40.0276 32.2456C40.5484 32.2456 40.9204 31.948 40.9948 31.4272C41.0692 31.1296 40.9948 30.832 41.0692 30.5344C41.0692 30.4228 41.1436 30.2368 41.2924 30.3112C41.4784 30.3112 41.4784 30.4228 41.4784 30.6088C41.4784 31.018 41.4784 31.39 41.3668 31.7992C41.1808 32.4688 40.6972 32.7664 40.0648 32.7664C39.358 32.7664 38.9488 32.4688 38.7628 31.7992C38.5396 30.8692 38.7256 30.0508 38.6512 29.4556Z" fill="white"/>
<path d="M60.1893 29.4555C60.1893 28.6371 60.1149 27.9675 60.1893 27.3723C60.2637 26.2935 60.8589 25.7727 61.8633 25.9587C62.6445 26.0703 63.3513 27.3351 62.9793 28.0419C62.9049 28.1535 62.8677 28.1535 62.7561 28.1535C62.6445 28.1535 62.5701 28.0791 62.5701 27.9675C62.5701 27.7443 62.5701 27.4839 62.5701 27.2607C62.4957 26.6655 62.1609 26.2935 61.6029 26.2935C61.0821 26.2935 60.6357 26.5911 60.5985 27.1863C60.5241 28.5627 60.5241 29.9763 60.5985 31.3527C60.6729 31.8735 61.0077 32.2455 61.5657 32.2455C62.1237 32.2455 62.4585 31.9479 62.5329 31.3527C62.6073 31.0551 62.5329 30.7575 62.6073 30.4599C62.6073 30.3483 62.6073 30.2367 62.7933 30.2367C62.9793 30.2367 63.0165 30.3111 63.0165 30.4599C63.0165 30.9435 63.0165 31.3527 62.9049 31.8363C62.6817 32.4315 62.2353 32.6547 61.5285 32.6547C60.8589 32.6547 60.4497 32.2827 60.2637 31.6875C60.0777 30.8319 60.2265 30.0507 60.1893 29.4555Z" fill="white"/>
<path d="M81.9505 29.2325C81.9505 29.9021 81.9505 30.5345 81.9505 31.204C82.0249 31.8736 82.3597 32.2084 82.9549 32.2084C83.4757 32.2084 83.8477 31.8364 83.9221 31.204C83.9221 30.9809 83.9221 30.7204 83.9221 30.4972C83.9221 30.3856 83.9221 30.1996 84.1081 30.1996C84.2941 30.1996 84.3313 30.3112 84.3313 30.4228C84.3313 30.832 84.3313 31.2412 84.2197 31.6876C84.0337 32.2828 83.5501 32.6548 82.8433 32.5804C82.1737 32.5804 81.7645 32.2828 81.5413 31.6132C81.4297 31.204 81.4297 30.832 81.4297 30.4228C81.4297 29.4185 81.4297 28.4141 81.4297 27.3725C81.4297 26.3681 81.9505 25.8101 82.8061 25.8101C83.8105 25.8101 84.5917 26.8889 84.2941 27.8189C84.2197 27.9305 84.1825 28.0049 84.1081 28.0049C83.9965 28.0049 83.8849 27.9305 83.8849 27.8189C83.8849 27.5957 83.8849 27.3353 83.8849 27.1121C83.8105 26.5169 83.4757 26.1449 82.9177 26.1449C82.3597 26.1449 81.9505 26.4425 81.9505 27.0377C81.8761 27.8561 81.9505 28.5629 81.9505 29.2325Z" fill="white"/>
<path d="M135.93 29.456C135.93 28.6376 135.93 27.968 135.93 27.3728C136.004 26.3684 136.525 25.8104 137.492 25.8848C138.385 25.9592 139.092 27.1496 138.757 27.968C138.683 28.0796 138.646 28.0796 138.534 28.0796C138.422 28.0796 138.348 27.968 138.348 27.8564C138.348 27.6332 138.348 27.3728 138.274 27.1496C138.199 26.6288 137.902 26.3312 137.381 26.3312C136.86 26.3312 136.414 26.6288 136.376 27.1496C136.265 28.5632 136.265 30.014 136.376 31.4276C136.451 31.9484 136.786 32.246 137.344 32.246C137.902 32.246 138.162 31.9484 138.311 31.4276C138.385 31.13 138.385 30.8324 138.385 30.5348C138.385 30.3488 138.385 30.2372 138.608 30.2372C138.794 30.2372 138.794 30.3488 138.794 30.5348C138.794 30.944 138.794 31.316 138.683 31.7252C138.497 32.3948 138.013 32.6924 137.381 32.6924C136.674 32.6924 136.265 32.3948 136.079 31.7252C135.818 30.8324 135.93 30.0512 135.93 29.456Z" fill="white"/>
<path d="M49.6621 29.2698C49.6621 28.3026 49.6621 27.2982 49.6621 26.3682C49.6621 25.9962 49.7737 25.959 50.1457 25.8846C52.1545 25.8102 52.4521 26.1078 52.4521 28.1538C52.4521 29.4186 52.0429 29.8278 50.7781 29.7534C50.2573 29.7534 50.0713 29.865 50.1085 30.4602C50.1829 31.0554 50.1085 31.5762 50.1085 32.1714C50.1085 32.283 50.1829 32.469 49.9225 32.5434C49.6993 32.5434 49.6993 32.3574 49.6993 32.1714C49.6621 31.2414 49.6621 30.2742 49.6621 29.2698Z" fill="white"/>
<path d="M98.8396 31.762C99.2488 29.9764 99.6208 28.1908 100.03 26.4052C100.03 26.3308 100.03 26.2193 100.104 26.1821C100.104 25.9961 100.216 25.8845 100.402 25.9589C100.625 26.0333 100.514 26.1821 100.514 26.3309C100.142 27.9304 99.844 29.4928 99.5092 31.0924C99.4348 31.4644 99.3232 31.7992 99.286 32.2084C99.2116 32.4316 99.1744 32.6176 98.8768 32.6176C98.5792 32.6176 98.5048 32.4316 98.4676 32.2456C98.0584 30.274 97.6492 28.3024 97.2028 26.4052C97.1284 26.2936 97.0168 26.0333 97.3144 25.9961C97.5376 25.9961 97.5376 26.1821 97.612 26.3681C98.0212 28.228 98.3932 30.0508 98.8024 31.9108C98.7652 31.762 98.7652 31.762 98.8396 31.762Z" fill="white"/>
<path d="M112.677 32.6176C111.71 32.6176 111.003 31.7248 111.263 30.832C111.338 30.7204 111.338 30.646 111.487 30.646C111.635 30.646 111.673 30.7576 111.673 30.8692C111.673 31.0924 111.673 31.3528 111.747 31.5388C111.859 31.948 112.156 32.2084 112.64 32.2456C113.123 32.2456 113.458 32.0596 113.607 31.576C113.83 30.8692 113.681 30.274 113.086 29.8648C112.714 29.5672 112.305 29.2696 111.97 28.8976C111.449 28.414 111.263 27.7817 111.375 27.0377C111.561 26.2193 112.045 25.8473 112.937 25.9217C113.644 25.9961 114.053 26.4425 114.128 27.2237C114.128 27.4097 114.239 27.6329 113.942 27.6329C113.644 27.6329 113.756 27.4097 113.719 27.2609C113.607 26.5541 113.235 26.1821 112.64 26.2565C111.933 26.3309 111.561 27.2237 111.859 27.9677C111.97 28.3396 112.268 28.5629 112.528 28.7861C112.9 29.0837 113.235 29.3069 113.533 29.6045C114.128 30.1252 114.239 31.018 113.942 31.762C113.719 32.32 113.272 32.6176 112.677 32.6176Z" fill="white"/>
<path d="M132.617 29.2324C132.617 28.2652 132.617 27.3724 132.617 26.4424C132.617 26.0704 132.729 25.9588 133.101 25.9588C133.696 25.9588 134.291 25.9588 134.886 25.9588C134.998 25.9588 135.258 25.8844 135.258 26.1448C135.258 26.4052 135.072 26.3308 134.886 26.3308C134.403 26.3308 133.994 26.3308 133.51 26.3308C133.138 26.3308 133.026 26.4052 133.026 26.74C133.101 27.4096 133.026 28.042 133.026 28.7116C133.026 28.9348 133.101 29.0836 133.324 29.0836C133.733 29.0836 134.105 29.0836 134.514 29.0836C134.626 29.0836 134.812 29.0836 134.812 29.2696C134.812 29.4556 134.7 29.4556 134.514 29.4556C134.142 29.4556 133.808 29.4556 133.436 29.4556C133.138 29.4556 132.952 29.53 133.026 29.8648C133.026 30.5344 133.026 31.1668 133.026 31.8736C133.026 32.1712 133.138 32.2828 133.436 32.2456C133.919 32.2456 134.403 32.2456 134.849 32.2456C134.961 32.2456 135.221 32.1712 135.221 32.4316C135.221 32.6548 135.035 32.6176 134.924 32.6176C134.254 32.6176 133.659 32.6176 133.026 32.6176C132.654 32.6176 132.617 32.506 132.617 32.2084C132.617 31.1296 132.617 30.1624 132.617 29.2324Z" fill="white"/>
<path d="M74.5117 29.2328C74.5117 28.2656 74.5117 27.3728 74.5117 26.4428C74.5117 26.0708 74.5861 25.922 74.9953 25.9592C75.5905 26.0336 76.2601 25.9592 76.8553 25.9592C76.9669 25.9592 77.2273 25.9592 77.1529 26.1824C77.1529 26.3684 76.9669 26.3684 76.8553 26.3684C76.3717 26.3684 75.8509 26.3684 75.3673 26.3684C75.1441 26.3684 74.9953 26.4428 74.9953 26.7404C74.9953 27.41 74.9953 28.0424 74.9953 28.7492C74.9953 29.0468 75.1069 29.1212 75.3673 29.1212C75.7393 29.1212 76.0741 29.1212 76.4461 29.1212C76.5577 29.1212 76.8181 29.0468 76.8181 29.3072C76.8181 29.6048 76.5949 29.5304 76.4461 29.5304C76.0741 29.5304 75.7393 29.5304 75.4417 29.5304C75.1441 29.5304 75.0325 29.6048 75.0325 29.9024C75.0325 30.572 75.0325 31.2043 75.0325 31.9111C75.0325 32.2831 75.1441 32.3203 75.4417 32.3203C75.9253 32.3203 76.4089 32.3203 76.8553 32.3203C77.0413 32.3203 77.1529 32.3203 77.1529 32.5435C77.1529 32.7295 76.9669 32.7295 76.8553 32.7295C76.1857 32.7295 75.5905 32.7295 74.9581 32.7295C74.6605 32.7295 74.5489 32.6551 74.5489 32.3203C74.5117 31.1672 74.5117 30.1628 74.5117 29.2328Z" fill="white"/>
<path d="M102.338 29.2323C102.338 28.2651 102.338 27.3351 102.338 26.368C102.338 25.996 102.449 25.8843 102.821 25.8843C103.417 25.8843 104.086 25.8843 104.681 25.8843C104.793 25.8843 105.053 25.8099 104.979 26.0703C104.979 26.2563 104.793 26.2563 104.681 26.2563C104.198 26.2563 103.714 26.2563 103.268 26.2563C102.97 26.2563 102.784 26.3307 102.859 26.6655C102.859 27.3351 102.859 27.9675 102.859 28.6371C102.859 28.9347 102.933 29.0091 103.231 29.0091C103.64 29.0091 104.012 29.0091 104.421 29.0091C104.533 29.0091 104.644 29.0091 104.644 29.1951C104.644 29.3811 104.533 29.4183 104.421 29.4183C104.049 29.4183 103.64 29.4183 103.305 29.4183C103.007 29.4183 102.896 29.4927 102.896 29.7903C102.896 30.4971 102.896 31.1667 102.896 31.8735C102.896 32.1711 103.007 32.2455 103.268 32.2455C103.751 32.2455 104.272 32.2455 104.756 32.2455C104.942 32.2455 105.053 32.2455 105.053 32.4687C105.053 32.6547 104.867 32.6547 104.756 32.6547C104.086 32.6547 103.454 32.6547 102.784 32.6547C102.487 32.6547 102.412 32.5431 102.412 32.2455C102.338 31.1667 102.338 30.2367 102.338 29.2323Z" fill="white"/>
<path d="M95.1576 25.9588C95.4552 25.9588 95.7528 25.9588 96.0504 25.9588C96.162 25.9588 96.4224 25.8844 96.4224 26.1448C96.4224 26.4052 96.1992 26.3308 96.0504 26.3308C95.5668 26.3308 95.0832 26.3308 94.6368 26.3308C94.3392 26.3308 94.2276 26.4424 94.2648 26.74C94.2648 27.4096 94.2648 28.042 94.2648 28.7116C94.2648 29.0092 94.3764 29.0836 94.674 29.0836C95.046 29.0836 95.3808 29.0836 95.7528 29.0836C95.8644 29.0836 96.1248 29.0092 96.0504 29.2696C96.0504 29.4556 95.8644 29.4556 95.7528 29.4556C95.3808 29.4556 94.9716 29.4556 94.6368 29.4556C94.3392 29.4556 94.2648 29.53 94.2648 29.8276C94.2648 30.5344 94.2648 31.204 94.2648 31.9108C94.2648 32.2084 94.3764 32.2828 94.6368 32.2828C95.1204 32.2828 95.604 32.2828 96.0504 32.2828C96.2364 32.2828 96.4224 32.2084 96.4224 32.506C96.4224 32.7292 96.1992 32.692 96.0504 32.692C95.3808 32.692 94.7856 32.692 94.1532 32.692C93.8556 32.692 93.7812 32.5804 93.7812 32.2828C93.7812 30.3856 93.7812 28.414 93.7812 26.5168C93.7812 26.1448 93.8928 26.0332 94.2648 26.0332C94.488 25.9588 94.7856 25.9588 95.1576 25.9588Z" fill="white"/>
<path d="M47.356 29.3814C47.7652 28.2654 48.1372 27.2238 48.472 26.2938C48.5464 26.1078 48.5464 25.8846 48.844 25.9218C49.1416 26.0334 48.9184 26.2194 48.844 26.4054C48.658 26.889 48.5464 27.4098 48.3232 27.819C47.728 29.1954 47.4304 30.5718 47.542 32.0598C47.542 32.2458 47.728 32.5434 47.3188 32.5434C46.9468 32.5434 47.0956 32.2458 47.0956 32.0598C47.3932 30.0882 46.5004 28.4142 45.9052 26.6658C45.8308 26.5542 45.7936 26.3682 45.7192 26.2566C45.6448 26.145 45.6076 26.0334 45.7936 25.959C45.9052 25.8846 46.0912 25.959 46.0912 26.145C46.2028 26.517 46.3144 26.8146 46.4632 27.1494C46.798 27.8562 47.0584 28.563 47.356 29.3814Z" fill="white"/>
<path d="M162.042 29.381C162.414 28.3766 162.749 27.4094 163.046 26.5166C163.121 26.405 163.158 26.219 163.232 26.1074C163.307 25.9958 163.344 25.8842 163.53 25.9214C163.716 25.9586 163.642 26.1446 163.604 26.2934C163.418 26.777 163.232 27.2978 163.084 27.7814C162.488 29.1578 162.116 30.5714 162.302 32.1338C162.302 32.3198 162.414 32.6173 162.079 32.6173C161.744 32.6173 161.856 32.3198 161.856 32.2082C162.154 30.311 161.335 28.5626 160.74 26.8514C160.666 26.7398 160.628 26.6282 160.628 26.5538C160.628 26.3678 160.331 26.1446 160.628 26.033C160.926 25.9214 160.926 26.219 161 26.4422C161.298 27.2978 161.633 28.265 162.042 29.381Z" fill="white"/>
<path d="M86.4167 29.3812C86.8259 28.2652 87.1979 27.298 87.5327 26.2936C87.6071 26.1076 87.6071 25.8844 87.9047 25.9216C88.2023 26.0332 87.9792 26.2192 87.9792 26.4052C87.7932 26.8888 87.6816 27.4096 87.4584 27.8188C86.8632 29.1952 86.5656 30.5716 86.6772 32.0596C86.6772 32.2456 86.8631 32.5432 86.454 32.5432C86.082 32.5432 86.2307 32.2456 86.2307 32.0596C86.5283 30.1624 85.71 28.414 85.0404 26.7028C84.966 26.5912 84.9288 26.4052 84.8544 26.2936C84.78 26.182 84.6684 25.996 84.9288 25.9216C85.152 25.8472 85.2264 25.996 85.3008 26.1448C85.4123 26.5168 85.524 26.8516 85.71 27.2236C85.9332 27.8932 86.1563 28.6372 86.4167 29.3812Z" fill="white"/>
<path d="M54.2375 29.3815C54.2375 28.5631 54.2375 27.6703 54.2375 26.8147C54.2375 26.3311 54.0515 26.2195 53.6423 26.2939C53.4191 26.2939 52.9355 26.4799 52.9355 26.1079C52.9355 25.8103 53.3447 25.9219 53.6051 25.9219C54.3119 25.9219 54.9815 25.9219 55.6883 25.9219C55.7999 25.9219 56.0603 25.9219 55.9859 26.1451C55.9859 26.3311 55.7999 26.3311 55.6883 26.3311C55.3907 26.3311 54.9815 26.2195 54.7211 26.4055C54.4979 26.6287 54.6467 27.1123 54.6467 27.4843C54.6467 29.0467 54.6467 30.6463 54.6467 32.1715C54.6467 32.3575 54.7583 32.5807 54.4607 32.6551C54.0887 32.6551 54.2375 32.4319 54.2375 32.2459C54.2375 31.1671 54.2375 30.2743 54.2375 29.3815Z" fill="white"/>
<path d="M130.312 29.3813C130.312 28.5629 130.312 27.7073 130.312 26.8889C130.312 26.4053 130.2 26.2193 129.717 26.2937C129.493 26.2937 129.01 26.5169 129.01 26.1077C129.01 25.8101 129.419 25.9961 129.679 25.9217C130.349 25.9217 130.981 25.9217 131.688 25.9217C131.8 25.9217 132.06 25.8473 132.06 26.1077C132.06 26.3681 131.874 26.2937 131.763 26.2937C130.758 26.4053 130.758 26.4053 130.758 27.4097C130.758 28.9721 130.758 30.5717 130.758 32.0969C130.758 32.2829 130.87 32.5061 130.572 32.5061C130.2 32.5061 130.349 32.2085 130.349 32.0225C130.312 31.1669 130.312 30.2741 130.312 29.3813Z" fill="white"/>
<path d="M150.399 29.2326C150.399 28.2654 150.399 27.3354 150.399 26.3682C150.399 26.1822 150.324 25.959 150.622 25.959C150.92 25.959 150.845 26.1822 150.845 26.3682C150.845 28.0794 150.92 29.8278 150.845 31.539C150.845 32.0598 151.031 32.2086 151.515 32.1342C151.887 32.0598 152.222 32.1342 152.519 32.1342C152.705 32.1342 152.891 32.0598 152.928 32.3202C152.928 32.6178 152.705 32.5062 152.556 32.5062C151.961 32.5062 151.44 32.5062 150.845 32.5062C150.473 32.5062 150.436 32.3946 150.436 32.097C150.399 31.167 150.399 30.1626 150.399 29.2326Z" fill="white"/>
<path d="M101.221 29.2698C101.221 28.3026 101.221 27.2982 101.221 26.3682C101.221 26.1822 101.109 25.959 101.444 25.959C101.816 25.959 101.667 26.1822 101.667 26.3682C101.667 28.3398 101.667 30.237 101.667 32.2086C101.667 32.3202 101.779 32.5806 101.481 32.5806C101.184 32.5806 101.258 32.3574 101.258 32.1714C101.221 31.167 101.221 30.237 101.221 29.2698Z" fill="white"/>
<path d="M107.172 31.3528C107.247 31.5388 107.172 31.7248 107.061 31.8736C106.949 31.6876 106.986 31.5016 106.986 31.39C106.986 31.4272 107.061 31.4272 107.172 31.3528Z" fill="white"/>
<path d="M23.4735 18.4074C25.4451 19.5234 25.8543 21.0114 25.3335 22.8714C24.7383 25.029 23.3247 26.145 21.1671 26.2566C20.3487 26.331 19.5675 26.2566 18.7863 26.0706C18.3027 25.959 18.0795 25.9962 18.0051 26.5542C17.8935 27.3354 17.6331 28.0422 17.4843 28.8234C17.4099 29.1954 17.2983 29.307 16.8891 29.1954C16.4055 29.0094 15.6987 29.121 15.4755 28.7118C15.2523 28.3398 15.6615 27.7446 15.6987 27.2238C15.8103 26.7402 15.9219 26.2566 16.0707 25.8474C16.1451 25.5498 16.0707 25.4382 15.7731 25.3638C14.5827 24.9918 14.5827 24.9918 14.2851 26.1822C14.0991 26.7774 13.9875 27.3726 13.8759 28.0422C13.8015 28.3398 13.6899 28.4142 13.4667 28.2654H13.3923C12.8715 28.1538 12.1275 28.1538 11.9043 27.7818C11.6067 27.4842 12.0159 26.8146 12.1275 26.2938C12.2391 25.8102 12.3135 25.401 12.4995 24.9918C12.6111 24.6198 12.4995 24.5082 12.2019 24.471C11.1231 24.2478 10.0443 23.9502 9.00268 23.6898C8.70508 23.6154 8.63068 23.5038 8.77948 23.2062C9.00268 22.6854 9.26308 22.1274 9.48628 21.6066C9.59788 21.309 9.78388 21.309 10.0071 21.3834C10.3791 21.495 10.7139 21.5694 11.1231 21.6066C11.6067 21.7182 11.9043 21.495 12.0159 21.0114C12.7227 18.1098 13.5039 15.171 14.2107 12.2694C14.3223 11.6742 14.0991 11.1906 13.5039 11.0046C13.0947 10.893 12.6855 10.7814 12.3135 10.707C11.9415 10.6326 11.9043 10.4838 12.0159 10.1862C12.2019 9.66539 12.1275 8.88419 12.4995 8.58659C12.8715 8.28899 13.5783 8.77259 14.0991 8.88419C14.7687 8.99579 15.3639 9.18178 15.9963 9.36778C16.3683 9.44218 16.4799 9.44218 16.5915 8.99578C16.7775 8.17739 17.0007 7.32179 17.1867 6.50339C17.2611 6.20579 17.3727 6.13139 17.6703 6.20579C18.1911 6.39179 18.9351 6.31739 19.2327 6.68939C19.4559 7.06139 19.0467 7.69379 18.9351 8.17739C18.8235 8.58659 18.7491 9.07019 18.5631 9.47939C18.4887 9.70258 18.5631 9.77699 18.7863 9.88859C20.0511 10.2978 20.0511 10.2978 20.3487 9.07019C20.4603 8.47499 20.6463 7.95419 20.7579 7.35899C20.8323 7.06139 20.9439 6.98699 21.1671 7.13579C21.6879 7.32179 22.4319 7.24739 22.7295 7.61939C23.0271 7.99139 22.5435 8.62379 22.5063 9.10739C22.3947 9.62818 22.0227 10.2978 22.1343 10.7814C22.2459 11.1906 23.1015 11.265 23.5479 11.4882C23.8455 11.6742 24.1431 11.7858 24.3663 11.9718C25.6311 12.7902 26.2263 13.9434 26.0403 15.4314C25.8543 16.845 25.1475 17.9238 23.7339 18.4074C23.5479 18.333 23.4735 18.4074 23.4735 18.4074Z" fill="#12332A"/>
<path d="M44.3797 15.2456C44.3797 15.7664 44.3797 16.3244 44.3053 16.8452C44.1937 17.738 43.7845 18.1472 42.8917 18.2216C42.3709 18.296 41.7757 18.2216 41.2177 18.2216C40.9945 18.2216 40.8457 18.1472 40.8457 17.924C40.8457 16.0268 40.8457 14.1668 40.8457 12.2696C40.8457 12.0464 40.9201 11.8976 41.1433 11.972C41.6269 11.972 42.1105 11.972 42.5569 11.972C43.5613 12.0464 44.1193 12.4928 44.2309 13.5344C44.3053 14.0552 44.3053 14.6504 44.3797 15.2456Z" fill="#12332A"/>
<path d="M40.8087 6.20579C40.8087 5.42459 40.8087 4.71779 40.8087 3.93659C40.8087 3.63899 40.8831 3.45299 41.2179 3.52739C41.6271 3.60179 42.0363 3.52739 42.4827 3.52739C43.3011 3.52739 43.7847 3.93659 43.8963 4.71779C44.0823 5.68499 44.0823 6.61499 43.8963 7.58219C43.7103 8.40059 43.2267 8.88419 42.3339 8.95859C40.7715 9.07019 40.7715 9.07018 40.7715 7.54499C40.8087 7.09859 40.8087 6.61499 40.8087 6.20579Z" fill="#12332A"/>
<path d="M82.4729 10.8929C82.4729 12.6785 82.4729 14.4641 82.4729 16.2497C82.4729 16.5473 82.4729 16.8449 82.3985 17.1425C82.2125 17.9609 81.6917 18.4073 80.8361 18.4073C79.9433 18.4073 79.4597 17.9981 79.2365 17.1425C79.1621 16.8449 79.1621 16.6217 79.1621 16.3241C79.1621 12.6413 79.1621 8.99573 79.1621 5.31294C79.1621 5.01534 79.1621 4.71774 79.2737 4.42014C79.4969 3.60174 79.9805 3.22974 80.8733 3.22974C81.6917 3.22974 82.1753 3.63894 82.4357 4.42014C82.5101 4.71774 82.5473 5.08973 82.5473 5.38733C82.4729 7.28453 82.4729 9.07013 82.4729 10.8929Z" fill="#12332A"/>
<path d="M124.471 29.2324C124.471 28.414 124.471 27.5584 124.471 26.74C124.471 26.368 124.582 26.3308 124.954 26.3308C126.219 26.3308 126.554 26.6284 126.554 27.8932C126.554 28.8976 126.554 29.9764 126.554 30.9808C126.554 31.9852 125.55 32.5804 124.657 32.1712C124.471 32.0968 124.545 31.948 124.545 31.762C124.471 30.9436 124.471 30.1252 124.471 29.2324Z" fill="#12332A"/>
<path d="M90.6201 27.7447C90.6201 27.4471 90.6945 27.1495 90.6201 26.8519C90.5457 26.3683 90.8061 26.2567 91.2153 26.3311C91.6989 26.4055 92.2197 26.2567 92.4057 26.8519C92.6289 27.5215 92.7033 28.2283 92.3313 28.8607C92.1453 29.1583 90.9549 29.3815 90.7317 29.2327C90.6201 29.1583 90.6201 29.0467 90.6201 28.9351C90.6201 28.4887 90.6201 28.1539 90.6201 27.7447Z" fill="#12332A"/>
<path d="M42.6307 27.7447C42.6307 27.5215 42.5563 27.3355 42.6307 27.1495C42.7051 26.8519 42.4075 26.4427 42.8539 26.3683C43.5607 26.2567 44.2675 26.4427 44.4163 26.8891C44.6023 27.4843 44.6023 28.0795 44.4163 28.6747C44.3047 29.0839 43.0027 29.4931 42.7051 29.1955C42.5935 29.1211 42.6307 29.0095 42.6307 28.8979C42.6307 28.4887 42.6307 28.0795 42.6307 27.7447Z" fill="#12332A"/>
<path d="M71.3127 27.7444C71.3127 27.4468 71.3127 27.1492 71.3127 26.926C71.2383 26.4424 71.4243 26.3308 71.9079 26.3308C72.9867 26.4052 73.2843 26.6284 73.2843 27.7072C73.2843 27.8188 73.2843 27.9304 73.2843 28.1164C73.2843 29.0092 72.3171 29.6044 71.4987 29.2324C71.3127 29.158 71.3871 29.0464 71.3871 28.9348C71.3127 28.4884 71.3127 28.1536 71.3127 27.7444Z" fill="#12332A"/>
<path d="M67.7404 27.7443C67.7404 27.5211 67.666 27.3351 67.7404 27.1491C67.8148 26.8515 67.4428 26.4423 67.9636 26.3307C68.8564 26.2191 69.3772 26.4423 69.5632 27.0375C69.6748 27.5211 69.6748 28.0419 69.5632 28.5255C69.4516 29.0463 68.2984 29.5299 67.7776 29.2323C67.666 29.1579 67.666 29.0463 67.666 28.9347C67.7404 28.4883 67.7404 28.1535 67.7404 27.7443Z" fill="#12332A"/>
<path d="M153.896 29.2326C153.896 28.563 153.896 27.9678 153.896 27.3354C153.971 26.6286 154.268 26.2566 154.864 26.2566C155.459 26.2566 155.868 26.5542 155.942 27.261C156.017 28.563 156.017 29.865 155.942 31.1298C155.942 31.8366 155.459 32.2086 154.864 32.1342C154.268 32.1342 153.971 31.725 153.896 31.0554C153.896 30.4602 153.896 29.865 153.896 29.2326Z" fill="#12332A"/>
<path d="M149.284 29.2698C149.284 29.865 149.284 30.3858 149.284 30.981C149.21 31.7622 148.875 32.1714 148.28 32.1714C147.61 32.1714 147.275 31.7622 147.275 30.981C147.275 29.7162 147.275 28.5258 147.275 27.2982C147.275 26.6286 147.647 26.2938 148.168 26.2194C148.763 26.145 149.173 26.4426 149.247 27.1122C149.284 27.8562 149.21 28.563 149.284 29.2698Z" fill="#12332A"/>
<path d="M57.1034 29.2326C57.1034 28.563 57.1034 27.9678 57.1034 27.3354C57.1778 26.6286 57.4754 26.2566 58.0706 26.2566C58.6658 26.2566 59.075 26.5542 59.1494 27.261C59.2238 28.563 59.2238 29.865 59.1494 31.1298C59.1494 31.8366 58.6658 32.2086 58.0706 32.1342C57.4754 32.1342 57.1778 31.725 57.1034 31.0554C57.029 30.4602 57.1034 29.865 57.1034 29.2326Z" fill="#12332A"/>
<path d="M117.924 26.6656C118.222 27.9304 118.52 29.2324 118.817 30.46C118.892 30.6832 118.743 30.6832 118.594 30.6832C118.073 30.6832 117.515 30.6832 116.92 30.6832C117.218 29.3068 117.515 27.9304 117.813 26.6284C117.85 26.6656 117.924 26.6656 117.924 26.6656Z" fill="#12332A"/>
<path d="M50.0712 27.856C50.0712 27.5584 50.1456 27.1864 50.0712 26.8888C49.9968 26.368 50.2571 26.2192 50.7407 26.2936C51.7451 26.368 52.0055 26.5912 52.0427 27.5956C52.0427 27.7816 52.0427 27.8932 52.0427 28.0792C52.0427 29.1952 51.4475 29.6788 50.3315 29.4556C50.1084 29.3812 50.1083 29.2696 50.1083 29.0836C50.0711 28.6744 50.0712 28.2652 50.0712 27.856Z" fill="#12332A"/>
<path d="M18.6736 23.3177C17.5948 23.2433 16.5904 23.0202 15.5116 22.7226C15.2884 22.6482 15.1396 22.5366 15.2884 22.3134C15.586 21.0486 15.8836 19.821 16.2556 18.6306C16.33 18.4446 16.33 18.2586 16.6276 18.333C17.8924 18.6306 19.1944 18.9282 20.3104 19.635C20.98 20.0442 21.5008 20.6394 21.4264 21.495C21.352 22.4994 20.7196 23.169 19.7152 23.355C19.3432 23.3178 19.0456 23.3177 18.6736 23.3177Z" fill="white"/>
<path d="M19.7906 16.7333C18.7862 16.7333 17.9306 16.5101 17.1122 16.2497C16.8146 16.1753 16.8146 16.0637 16.889 15.7661C17.1866 14.6501 17.4098 13.5713 17.7074 12.4181C17.7818 12.2321 17.819 12.1205 18.0794 12.1949C19.1954 12.4925 20.3858 12.6785 21.353 13.4597C21.8738 13.8689 22.1342 14.4641 22.0226 15.1337C21.911 15.8033 21.539 16.2497 20.9066 16.5101C20.4602 16.7333 20.0882 16.7705 19.7906 16.7333Z" fill="white"/>
</svg>
