<svg width="193" height="21" viewBox="0 0 193 21" fill="none" xmlns="http://www.w3.org/2000/svg">
<g clip-path="url(#clip0_3_6141)">
<path d="M12.5859 0.177734H18.3751C18.6531 0.177734 18.8785 0.401255 18.8785 0.676982V6.41833H12.5859V0.177734Z" fill="#0AC18E"/>
<path opacity="0.5" d="M18.8785 6.41846H12.5859V12.6591H18.8785V6.41846Z" fill="#0AC18E"/>
<path opacity="0.25" d="M12.5859 12.6592H18.8785V18.4006C18.8785 18.6763 18.6531 18.8998 18.3751 18.8998H12.5859V12.6592Z" fill="#0AC18E"/>
<path opacity="0.25" d="M0.503409 0.177734H6.29261V6.41833H0V0.676982C0 0.401255 0.225384 0.177734 0.503409 0.177734Z" fill="#0AC18E"/>
<path d="M12.5856 6.41846H6.29297V12.6591H12.5856V6.41846Z" fill="#0AC18E"/>
<path d="M0 12.6592H6.29261V18.8998H0.503409C0.225384 18.8998 0 18.6763 0 18.4006V12.6592Z" fill="#0AC18E"/>
<path opacity="0.5" d="M12.5856 12.6592H6.29297V18.8998H12.5856V12.6592Z" fill="#0AC18E"/>
<path opacity="0.5" d="M12.5856 0.177734H6.29297V6.41833H12.5856V0.177734Z" fill="#0AC18E"/>
<path opacity="0.5" d="M6.29261 6.41846H0V12.6591H6.29261V6.41846Z" fill="#0AC18E"/>
<path fill-rule="evenodd" clip-rule="evenodd" d="M35.2018 12.4567C35.2018 15.8557 32.3171 17.1975 29.3206 17.1975H22.4777C22.3883 17.1975 22.2988 17.108 22.2988 17.0186L22.3659 9.3707L22.2988 1.72285C22.2988 1.6334 22.3883 1.54395 22.4777 1.54395H29.2087C32.4065 1.54395 34.7769 2.70678 34.7769 5.4126C34.7769 7.29102 33.793 8.36441 32.0711 8.87874C34.1731 9.34834 35.2018 10.7348 35.2018 12.4567ZM25.7204 3.91387L25.6757 7.84961H29.2537C30.573 7.84961 31.3781 7.17875 31.3781 5.9041C31.3781 4.51765 30.4165 3.91387 29.2537 3.91387H25.7204ZM25.7204 14.8269L25.6757 10.2203H29.2537C30.6177 10.2203 31.7582 10.8017 31.7582 12.4565C31.7582 14.2902 30.6625 14.8269 29.2537 14.8269H25.7204ZM39.1768 4.56285H36.1356C36.0461 4.56285 35.9567 4.4734 35.9567 4.38395V1.72286C35.9567 1.63341 36.0461 1.54396 36.1356 1.54396H39.1768C39.2663 1.54396 39.3557 1.63341 39.3557 1.72286V4.38395C39.3557 4.4734 39.2663 4.56285 39.1768 4.56285ZM36.1356 17.1968H39.1768C39.2663 17.1968 39.3557 17.1074 39.3557 17.0179L39.311 11.4498L39.3557 5.85923C39.3557 5.76978 39.2663 5.68033 39.1768 5.68033H36.1356C36.0461 5.68033 35.9567 5.76978 35.9567 5.85923L36.0014 11.4498L35.9567 17.0179C35.9567 17.1074 36.0461 17.1968 36.1356 17.1968ZM47.7124 14.9615V16.7952C47.7124 16.907 47.6453 16.9965 47.5335 17.0412C46.885 17.2425 46.1471 17.4214 45.4315 17.4214C43.486 17.4214 41.6299 16.4374 41.6299 13.8211L41.6523 8.05162H40.3329C40.2435 8.05162 40.154 7.96217 40.154 7.87272V5.86013C40.154 5.77068 40.2435 5.68123 40.3329 5.68123H41.6523L41.6299 2.97541C41.6299 2.88596 41.7194 2.79651 41.8088 2.79651H44.8054C44.8948 2.79651 44.9842 2.88596 44.9842 2.97541L44.9619 5.68123H47.5559C47.6453 5.68123 47.7348 5.77068 47.7348 5.86013V7.87272C47.7348 7.96217 47.6453 8.05162 47.5559 8.05162H44.9619L44.9842 13.7316C44.9842 14.7155 45.4762 15.0286 46.2142 15.0286C46.7732 15.0286 47.1981 14.9392 47.5335 14.8274C47.623 14.805 47.7124 14.8721 47.7124 14.9615ZM54.0567 17.488C57.0756 17.488 59.2 15.5872 59.4237 12.9485C59.446 12.859 59.3566 12.7696 59.2671 12.7696H56.4495C56.36 12.7696 56.2706 12.8367 56.2482 12.9485C56.1141 14.4691 55.2643 15.2742 54.1238 15.2518C52.4467 15.2294 51.6193 14.089 51.6193 11.4502C51.6193 8.90095 52.4243 7.67103 54.1238 7.64867C55.0854 7.64867 55.9128 8.27481 56.1588 9.59417C56.1811 9.70598 56.2706 9.77307 56.36 9.77307H59.1106C59.2 9.77307 59.2895 9.68362 59.2671 9.59417C59.0211 7.06725 57.098 5.39009 54.1238 5.39009C50.367 5.39009 48.1755 7.8052 48.1755 11.4726C48.1755 15.14 50.367 17.488 54.0567 17.488ZM71.9332 11.4055C71.9332 15.0729 69.8088 17.488 66.0519 17.488C62.2951 17.488 60.126 15.14 60.126 11.4726C60.126 7.8052 62.2951 5.39009 66.0519 5.39009C69.8088 5.39009 71.9332 7.73811 71.9332 11.4055ZM66.0512 15.2522C64.3741 15.2522 63.5467 14.0894 63.5467 11.4954C63.5467 8.90137 64.3293 7.64909 66.0289 7.62673C67.6837 7.62673 68.4887 8.87901 68.4887 11.473C68.4887 14.1118 67.706 15.2522 66.0512 15.2522ZM75.8867 4.56285H72.8454C72.756 4.56285 72.6665 4.4734 72.6665 4.38395V1.72286C72.6665 1.63341 72.756 1.54396 72.8454 1.54396H75.8867C75.9761 1.54396 76.0656 1.63341 76.0656 1.72286V4.38395C76.0656 4.4734 75.9761 4.56285 75.8867 4.56285ZM72.8454 17.1968H75.8867C75.9761 17.1968 76.0656 17.1074 76.0656 17.0179L76.0209 11.4498L76.0656 5.85923C76.0656 5.76978 75.9761 5.68033 75.8867 5.68033H72.8454C72.756 5.68033 72.6665 5.76978 72.6665 5.85923L72.7113 11.4498L72.6665 17.0179C72.6665 17.1074 72.756 17.1968 72.8454 17.1968ZM80.222 17.1968H77.136C77.0465 17.1968 76.9571 17.1074 76.9571 17.0179L77.0018 11.6734V5.85922C77.0018 5.76977 77.0913 5.68032 77.1807 5.68032H80.0654C80.1549 5.68032 80.2443 5.76977 80.2443 5.85922L80.1773 7.13386C80.9599 6.12757 82.2793 5.41198 83.8894 5.41198C86.3268 5.41198 87.9146 7.06678 87.9146 9.88441V12.2995L87.9593 17.0179C87.9593 17.1074 87.8698 17.1968 87.7804 17.1968H84.7391C84.6497 17.1968 84.5602 17.1074 84.5602 17.0179L84.605 12.2995V9.92913C84.605 8.67685 83.867 7.87182 82.8607 7.87182C81.6532 7.87182 80.3561 8.98992 80.3561 11.4498V12.2995L80.4009 17.0179C80.4009 17.1074 80.3114 17.1968 80.222 17.1968ZM88.9532 17.1966H92.0839C92.1733 17.1966 92.2628 17.1072 92.2628 17.0177V14.1777C92.2628 14.0883 92.1733 13.9988 92.0839 13.9988H88.9532C88.8637 13.9988 88.7743 14.0883 88.7743 14.1777V17.0177C88.7743 17.1072 88.8637 17.1966 88.9532 17.1966ZM104.154 12.9485C103.93 15.5872 101.806 17.488 98.7863 17.488C95.0965 17.488 92.905 15.14 92.905 11.4726C92.905 7.8052 95.0965 5.39009 98.8533 5.39009C101.828 5.39009 103.751 7.06725 103.997 9.59417C104.02 9.68362 103.93 9.77307 103.841 9.77307H101.09C101.001 9.77307 100.911 9.70598 100.889 9.59417C100.643 8.27481 99.8149 7.64867 98.8533 7.64867C97.1538 7.67103 96.3488 8.90095 96.3488 11.4502C96.3488 14.089 97.1762 15.2294 98.8533 15.2518C99.9938 15.2742 100.844 14.4691 100.978 12.9485C101.001 12.8367 101.09 12.7696 101.18 12.7696H103.997C104.087 12.7696 104.176 12.859 104.154 12.9485ZM110.782 17.488C114.539 17.488 116.663 15.0729 116.663 11.4055C116.663 7.73811 114.539 5.39009 110.782 5.39009C107.025 5.39009 104.856 7.8052 104.856 11.4726C104.856 15.14 107.025 17.488 110.782 17.488ZM108.277 11.4954C108.277 14.0894 109.104 15.2522 110.781 15.2522C112.436 15.2522 113.219 14.1118 113.219 11.473C113.219 8.87901 112.414 7.62673 110.759 7.62673C109.059 7.64909 108.277 8.90137 108.277 11.4954ZM120.858 13.0598V11.4498C120.858 9.10173 121.932 7.87182 122.871 7.87182C123.81 7.87182 124.347 8.54268 124.347 9.92913V13.0598L124.302 17.0179C124.302 17.1074 124.391 17.1968 124.481 17.1968H127.522C127.612 17.1968 127.701 17.1074 127.701 17.0179L127.656 13.0598V11.4498C127.656 9.10173 128.752 7.87182 129.669 7.87182C130.586 7.87182 131.145 8.54268 131.145 9.92913V13.0598L131.1 17.0179C131.1 17.1074 131.19 17.1968 131.279 17.1968H134.32C134.41 17.1968 134.499 17.1074 134.499 17.0179L134.454 13.0598V9.88441C134.454 6.82079 133.113 5.41198 130.787 5.41198C129.423 5.41198 128.283 5.83685 127.299 7.58111C126.762 6.10521 125.599 5.41198 123.989 5.41198C122.513 5.41198 121.484 6.01576 120.679 7.13386L120.746 5.85922C120.746 5.76977 120.657 5.68032 120.568 5.68032H117.683C117.593 5.68032 117.504 5.76977 117.504 5.85922V13.0598L117.459 17.0179C117.459 17.1074 117.549 17.1968 117.638 17.1968H120.724C120.814 17.1968 120.903 17.1074 120.903 17.0179L120.858 13.0598Z" fill="white"/>
<path d="M141.113 11.4798V16.9138C141.113 17.0678 141.003 17.1778 140.849 17.1778H138.209C138.055 17.1778 137.945 17.0678 137.945 16.9138L138.077 9.47783L137.945 2.04183C137.945 1.88783 138.055 1.77783 138.209 1.77783H141.817C141.949 1.77783 142.081 1.84383 142.147 1.95383L148.307 12.8438L148.175 8.22383V2.04183C148.175 1.88783 148.285 1.77783 148.439 1.77783H151.079C151.233 1.77783 151.343 1.88783 151.343 2.04183L151.211 9.47783L151.343 16.9138C151.343 17.0678 151.233 17.1778 151.079 17.1778H147.339C147.207 17.1778 147.075 17.1118 147.009 17.0018L140.959 6.17783L141.113 11.4798ZM158.676 15.2638C159.776 15.2638 160.568 14.7798 160.876 13.5918C160.898 13.4378 161.008 13.3498 161.162 13.3498H163.802C163.978 13.3498 164.088 13.4598 164.066 13.6358C163.736 15.6598 161.778 17.4638 158.632 17.4638C154.848 17.4638 152.802 14.9778 152.802 11.5458C152.802 7.93783 154.958 5.56183 158.566 5.56183C162.262 5.56183 164.33 8.00383 164.418 11.9198C164.418 12.0958 164.308 12.1838 164.154 12.1838H156.124C156.256 14.3178 157.092 15.2638 158.676 15.2638ZM158.588 7.73983C157.246 7.73983 156.476 8.53183 156.212 10.0938H160.854C160.722 8.88383 160.04 7.73983 158.588 7.73983ZM170.771 16.9358C170.749 17.1118 170.639 17.1778 170.485 17.1778H167.097C166.943 17.1778 166.833 17.0898 166.811 16.9358L164.413 6.13383C164.369 5.93583 164.479 5.84783 164.655 5.84783H167.427C167.581 5.84783 167.691 5.91383 167.713 6.08983L168.967 14.5378L170.529 6.08983C170.551 5.91383 170.661 5.84783 170.815 5.84783H174.313C174.467 5.84783 174.577 5.91383 174.599 6.08983L176.117 14.3398L177.415 6.08983C177.437 5.91383 177.547 5.84783 177.701 5.84783H180.209C180.385 5.84783 180.495 5.93583 180.451 6.13383L178.075 16.9358C178.053 17.0898 177.943 17.1778 177.789 17.1778H174.379C174.225 17.1778 174.115 17.0898 174.093 16.9358L172.311 8.55383L170.771 16.9358ZM186.406 17.4418C183.26 17.4418 180.95 16.1218 180.796 13.6358C180.796 13.4598 180.906 13.3718 181.06 13.3718H183.744C183.898 13.3718 184.008 13.4598 184.008 13.6358C184.118 14.8458 184.954 15.3958 186.472 15.3958C187.77 15.3958 188.474 14.8898 188.474 14.0098C188.474 11.8538 181.06 13.9438 181.06 9.19183C181.06 6.83783 182.952 5.58383 186.01 5.58383C188.958 5.58383 190.938 6.74983 191.18 9.08183C191.202 9.25783 191.114 9.34583 190.938 9.34583H188.364C188.21 9.34583 188.122 9.25783 188.078 9.10383C187.902 8.15783 187.286 7.58583 185.965 7.58583C184.888 7.58583 184.206 7.98183 184.206 8.94983C184.206 11.1058 191.619 8.90583 191.619 13.7238C191.619 16.0998 189.376 17.4418 186.406 17.4418Z" fill="#0AC18E"/>
</g>
<defs>
<clipPath id="clip0_3_6141">
<rect width="193" height="20" fill="white" transform="translate(0 0.177734)"/>
</clipPath>
</defs>
</svg>
