<svg width="68" height="14" viewBox="0 0 68 14" fill="none" xmlns="http://www.w3.org/2000/svg">
<path d="M0.937862 1.33028H5.24255C6.63614 1.33028 7.70198 1.50103 8.44009 1.84255C9.382 2.28871 9.85295 3.05711 9.85295 4.14774C9.85295 4.62145 9.68495 5.08139 9.34895 5.52756C9.04599 5.93517 8.69898 6.19956 8.30789 6.32075C9.09557 6.46947 9.72626 6.81373 10.2 7.35354C10.6847 7.90987 10.9271 8.58739 10.9271 9.38608C10.9271 11.0826 10.0044 12.1925 8.15917 12.7158C7.40454 12.9251 6.52047 13.0298 5.50695 13.0298H0.937862V1.33028ZM5.39128 5.87458C6.63614 5.87458 7.49542 5.59366 7.96913 5.03182C8.1454 4.8225 8.23353 4.54985 8.23353 4.21384C8.23353 3.87784 8.12887 3.61069 7.91956 3.41239C7.71575 3.20859 7.45411 3.05436 7.13463 2.9497C6.64991 2.79547 5.93935 2.71836 5.00294 2.71836H2.4664V5.87458H5.39128ZM9.30764 9.48523C9.30764 8.00351 8.09307 7.26266 5.66393 7.26266H2.4664V11.6417H5.71351C7.38251 11.6417 8.47865 11.2864 9.00193 10.5759C9.20573 10.2949 9.30764 9.9314 9.30764 9.48523ZM19.7182 12.2283C18.9581 12.8728 18.0382 13.195 16.9586 13.195C15.6366 13.195 14.6919 12.8453 14.1246 12.1457C13.5903 11.4957 13.3231 10.4657 13.3231 9.05559V4.76742H14.893V8.95644C14.893 9.91487 15.0362 10.6199 15.3226 11.0716C15.6586 11.6059 16.2398 11.8731 17.066 11.8731C17.9088 11.8731 18.6055 11.6417 19.1564 11.179C19.3271 11.0358 19.4703 10.8788 19.586 10.7081V4.76742H21.1559V13.0298H19.9578L19.7182 12.2283ZM26.0141 1.37159C26.0141 1.68005 25.9205 1.92792 25.7332 2.1152C25.5459 2.30248 25.2981 2.39612 24.9896 2.39612C24.6811 2.39612 24.4333 2.30248 24.246 2.1152C24.0587 1.92792 23.9651 1.68005 23.9651 1.37159C23.9651 1.06313 24.0587 0.818012 24.246 0.63624C24.4333 0.44896 24.6811 0.35532 24.9896 0.35532C25.2981 0.35532 25.5459 0.44896 25.7332 0.63624C25.9205 0.818012 26.0141 1.06313 26.0141 1.37159ZM24.2047 4.76742H25.7745V13.0298H24.2047V4.76742ZM28.8151 0.132236H30.3849V10.2041C30.3849 10.7659 30.4235 11.1405 30.5006 11.3277C30.6548 11.6858 30.9192 11.9144 31.2938 12.0135L31.0624 13.0298C30.2087 13.1399 29.6 12.9141 29.2365 12.3523C28.9555 11.9116 28.8151 11.2341 28.8151 10.3197V0.132236ZM33.252 6.03983H32.3679V5.01529L34.4004 3.48676H34.8218V4.76742H37.1849V6.03983H34.8218V9.37782C34.8218 10.3142 34.9402 10.9532 35.1771 11.2947C35.414 11.6307 35.8766 11.8373 36.5652 11.9144L36.3256 13.0298C34.6731 13.2391 33.6954 12.5864 33.3924 11.0716C33.2988 10.6199 33.252 10.1324 33.252 9.60917V6.03983ZM45.439 11.5508C44.8661 11.0275 44.4117 10.4051 44.0757 9.68353C43.7452 8.96195 43.5799 8.23486 43.5799 7.50226C43.5799 6.76967 43.6543 6.13622 43.803 5.60192C43.9572 5.06211 44.1748 4.56637 44.4557 4.1147C44.7366 3.65751 45.0727 3.24715 45.4637 2.8836C45.8548 2.52006 46.29 2.2116 46.7692 1.95822C47.7717 1.42943 48.8651 1.16503 50.0493 1.16503C51.184 1.16503 52.2416 1.41841 53.2221 1.92517C54.175 2.42091 54.9352 3.10944 55.5025 3.99076C56.0809 4.91064 56.3701 5.93242 56.3701 7.0561C56.3701 8.83526 55.7421 10.3087 54.4862 11.4765C53.6986 12.2091 52.7484 12.7131 51.6357 12.9885C51.0794 13.1262 50.4349 13.195 49.7023 13.195C48.9697 13.195 48.2206 13.0518 47.455 12.7654C46.6893 12.4735 46.0173 12.0686 45.439 11.5508ZM46.5709 3.82551C46.1468 4.22761 45.8108 4.70408 45.5629 5.2549C45.3205 5.80573 45.1993 6.41163 45.1993 7.07262C45.1993 7.73361 45.326 8.35329 45.5794 8.93165C45.8328 9.51002 46.1798 10.014 46.6205 10.4437C47.5624 11.3635 48.7053 11.8235 50.0493 11.8235C51.3548 11.8235 52.462 11.3938 53.3708 10.5346C54.2907 9.66425 54.7506 8.58739 54.7506 7.30397C54.7506 6.43367 54.5303 5.62671 54.0896 4.88309C53.6765 4.17804 53.0954 3.61069 52.3463 3.18105C51.6082 2.75141 50.8536 2.53658 50.0824 2.53658C49.3112 2.53658 48.6392 2.65226 48.0664 2.8836C47.499 3.10944 47.0005 3.42341 46.5709 3.82551ZM60.4599 5.5854C61.3247 4.92992 62.3162 4.60217 63.4344 4.60217C65.9461 4.60217 67.202 5.98199 67.202 8.74162V13.0298H65.6322V8.84077C65.6322 7.88784 65.4669 7.18003 65.1364 6.71734C64.7674 6.18855 64.1642 5.92415 63.327 5.92415C62.4291 5.92415 61.6772 6.14448 61.0713 6.58514C60.873 6.72285 60.7133 6.88259 60.5921 7.06436V13.0298H59.0223V4.76742H60.2203L60.4599 5.5854Z" fill="#389739"/>
</svg>
