<svg width="67" height="14" viewBox="0 0 67 14" fill="none" xmlns="http://www.w3.org/2000/svg">
<path d="M0.189449 1.60274H4.49414C5.88773 1.60274 6.95357 1.7735 7.69167 2.11501C8.63358 2.56117 9.10454 3.32957 9.10454 4.42021C9.10454 4.89391 8.93654 5.35385 8.60053 5.80002C8.29758 6.20763 7.95056 6.47203 7.55948 6.59321C8.34716 6.74193 8.97785 7.08619 9.45156 7.626C9.93628 8.18233 10.1786 8.85985 10.1786 9.65854C10.1786 11.3551 9.25602 12.465 7.41075 12.9883C6.65613 13.1976 5.77205 13.3022 4.75854 13.3022H0.189449V1.60274ZM4.64286 6.14704C5.88773 6.14704 6.74701 5.86612 7.22072 5.30428C7.39698 5.09497 7.48512 4.82231 7.48512 4.4863C7.48512 4.1503 7.38046 3.88315 7.17115 3.68486C6.96734 3.48105 6.7057 3.32682 6.38622 3.22216C5.9015 3.06793 5.19093 2.99082 4.25453 2.99082H1.71799V6.14704H4.64286ZM8.55922 9.75769C8.55922 8.27598 7.34466 7.53512 4.91552 7.53512H1.71799V11.9142H4.9651C6.63409 11.9142 7.73023 11.5589 8.25352 10.8483C8.45732 10.5674 8.55922 10.2039 8.55922 9.75769ZM18.9698 12.5008C18.2097 13.1453 17.2898 13.4675 16.2102 13.4675C14.8882 13.4675 13.9435 13.1177 13.3762 12.4182C12.8419 11.7682 12.5747 10.7382 12.5747 9.32805V5.03988H14.1446V9.2289C14.1446 10.1873 14.2878 10.8924 14.5742 11.3441C14.9102 11.8784 15.4913 12.1455 16.3176 12.1455C17.1603 12.1455 17.8571 11.9142 18.408 11.4515C18.5787 11.3083 18.7219 11.1513 18.8376 10.9805V5.03988H20.4075V13.3022H19.2094L18.9698 12.5008ZM25.2657 1.64405C25.2657 1.95251 25.1721 2.20038 24.9848 2.38766C24.7975 2.57494 24.5497 2.66858 24.2412 2.66858C23.9327 2.66858 23.6849 2.57494 23.4976 2.38766C23.3103 2.20038 23.2167 1.95251 23.2167 1.64405C23.2167 1.33559 23.3103 1.09047 23.4976 0.908701C23.6849 0.721421 23.9327 0.627781 24.2412 0.627781C24.5497 0.627781 24.7975 0.721421 24.9848 0.908701C25.1721 1.09047 25.2657 1.33559 25.2657 1.64405ZM23.4563 5.03988H25.0261V13.3022H23.4563V5.03988ZM28.0667 0.404697H29.6365V10.4765C29.6365 11.0384 29.6751 11.4129 29.7522 11.6002C29.9064 11.9582 30.1708 12.1868 30.5454 12.286L30.314 13.3022C29.4602 13.4124 28.8516 13.1866 28.488 12.6247C28.2071 12.1841 28.0667 11.5066 28.0667 10.5922V0.404697ZM32.5036 6.31229H31.6195V5.28775L33.652 3.75922H34.0734V5.03988H36.4364V6.31229H34.0734V9.65028C34.0734 10.5867 34.1918 11.2256 34.4287 11.5671C34.6655 11.9032 35.1282 12.1097 35.8168 12.1868L35.5772 13.3022C33.9247 13.5116 32.947 12.8588 32.644 11.3441C32.5504 10.8924 32.5036 10.4049 32.5036 9.88163V6.31229ZM44.6905 11.8233C44.1177 11.3 43.6633 10.6776 43.3272 9.95599C42.9968 9.23441 42.8315 8.50732 42.8315 7.77473C42.8315 7.04213 42.9059 6.40868 43.0546 5.87438C43.2088 5.33457 43.4264 4.83883 43.7073 4.38716C43.9882 3.92997 44.3242 3.51961 44.7153 3.15606C45.1064 2.79252 45.5416 2.48406 46.0208 2.23068C47.0233 1.70189 48.1167 1.43749 49.3009 1.43749C50.4356 1.43749 51.4932 1.69087 52.4737 2.19763C53.4266 2.69337 54.1867 3.3819 54.7541 4.26322C55.3325 5.1831 55.6216 6.20488 55.6216 7.32856C55.6216 9.10772 54.9937 10.5812 53.7378 11.7489C52.9501 12.4815 52 12.9855 50.8873 13.2609C50.331 13.3986 49.6865 13.4675 48.9539 13.4675C48.2213 13.4675 47.4722 13.3243 46.7066 13.0379C45.9409 12.7459 45.2689 12.3411 44.6905 11.8233ZM45.8225 4.09797C45.3983 4.50008 45.0623 4.97654 44.8145 5.52736C44.5721 6.07819 44.4509 6.68409 44.4509 7.34508C44.4509 8.00607 44.5776 8.62575 44.831 9.20411C45.0844 9.78248 45.4314 10.2865 45.8721 10.7161C46.814 11.636 47.9569 12.0959 49.3009 12.0959C50.6064 12.0959 51.7135 11.6663 52.6224 10.807C53.5423 9.93671 54.0022 8.85985 54.0022 7.57643C54.0022 6.70613 53.7819 5.89917 53.3412 5.15556C52.9281 4.4505 52.347 3.88315 51.5979 3.45351C50.8598 3.02387 50.1051 2.80904 49.334 2.80904C48.5628 2.80904 47.8908 2.92472 47.318 3.15606C46.7506 3.3819 46.2521 3.69587 45.8225 4.09797ZM59.7115 5.85786C60.5763 5.20238 61.5678 4.87464 62.686 4.87464C65.1977 4.87464 66.4536 6.25445 66.4536 9.01408V13.3022H64.8838V9.11323C64.8838 8.1603 64.7185 7.45249 64.388 6.9898C64.019 6.46101 63.4158 6.19661 62.5786 6.19661C61.6807 6.19661 60.9288 6.41694 60.3229 6.8576C60.1246 6.99531 59.9649 7.15505 59.8437 7.33682V13.3022H58.2739V5.03988H59.4719L59.7115 5.85786Z" fill="white"/>
</svg>
