<svg width="321" height="308" viewBox="0 0 321 308" fill="none" xmlns="http://www.w3.org/2000/svg">
<circle cx="182" cy="139" r="139" fill="#1F7A20"/>
<g clip-path="url(#clip0_7322_8132)">
<path fill-rule="evenodd" clip-rule="evenodd" d="M91.6678 150.913C91.6678 150.913 68.0878 142.561 69.249 133.249C69.249 133.249 69.8515 128.747 73.9016 128.149C73.9016 128.149 87.6674 115.081 92.0758 113.137L90.6106 110.463C90.6106 110.463 77.5467 105.866 79.3382 96.2399C79.3382 96.2399 69.1097 84.6837 82.3264 70.2687C82.3264 70.2687 80.2039 61.0168 97.2037 59.3359C97.2037 59.3359 119.024 52.2285 136.705 53.4816C136.705 53.4816 149.296 41.1374 169.996 49.5253C169.996 49.5253 185.812 56.692 190.934 61.4007C190.934 61.4007 214.91 48.6351 235.196 56.3364C235.196 56.3364 279.069 66.2693 279.376 115.664C279.376 115.664 280.464 119.461 283.907 123.202C283.907 123.202 307.75 148.06 285.601 196.606C285.601 196.606 272.246 210.95 227.059 223.651C227.059 223.651 126.82 243.174 81.4209 185.567C81.4209 185.567 64.7281 175.055 71.1305 163.941C71.1305 163.941 79.9099 153.196 91.6631 150.901L91.6678 150.913Z" fill="#48A92B"/>
<path fill-rule="evenodd" clip-rule="evenodd" d="M92.4187 150.798C84.9238 148.205 60.7507 137.455 71.7678 128.476C75.1429 125.725 80.3037 135.161 92.4816 140.771C135.207 160.453 170.165 158.209 177.003 157.768C202.491 156.132 202.429 156.278 227.709 153.16C249.121 150.521 258.15 164.912 243.901 176.909C233.44 185.718 202.802 198.683 192.549 200.389C181.748 202.188 153.946 206.8 140.701 204.812C106.554 199.682 47.4745 178.784 79.1982 156.314C83.1908 153.487 91.234 151.061 92.4146 150.798L92.4187 150.798Z" fill="#B38E40"/>
<path fill-rule="evenodd" clip-rule="evenodd" d="M103.41 156.299C103.41 156.299 84.9452 163.975 82.8743 169.118C82.8743 169.118 100.351 187.604 150.214 191.296C150.214 191.296 217.94 187.321 233.484 170.28C233.484 170.28 238.202 167.491 226.083 167.949C226.083 167.949 148.935 176.23 103.406 156.299L103.41 156.299Z" fill="#D48DB5"/>
<path fill-rule="evenodd" clip-rule="evenodd" d="M133.602 188.767L147.296 191.073C151.832 191.122 171.212 190.291 197.74 185.134C224.268 179.976 234.332 169.249 234.332 169.249C235.074 167.074 222.244 168.25 222.244 168.25C191.379 171.771 126.722 164.618 126.722 164.618C124.469 166.087 116.953 169.988 118.305 174.09C119.518 177.779 127.961 184.068 133.602 188.767Z" fill="#C93322"/>
<path fill-rule="evenodd" clip-rule="evenodd" d="M134.15 189.271C130.912 188.365 152.22 180.073 173.112 178.391C193.502 176.747 196.655 181.888 199.573 184.429C199.573 184.429 159.975 191.543 150.469 191.099C150.469 191.099 136.563 189.945 134.146 189.268L134.15 189.271Z" fill="#CB89AF"/>
<path fill-rule="evenodd" clip-rule="evenodd" d="M148.45 109.802C147.303 107.95 140.743 102.024 145.428 89.0994C150.804 74.2718 165.39 73.9452 187.685 78.3052C211.668 82.9944 215.569 94.39 236.602 99.949C239.038 100.593 248.148 107.246 232.083 109.547C221.253 111.097 213.319 122.23 188.147 123.829C179.191 124.4 171.467 121.316 160.224 117.995C152.827 115.81 149.103 110.697 148.446 109.802L148.45 109.802Z" fill="white"/>
<path fill-rule="evenodd" clip-rule="evenodd" d="M144.664 100.816C144.664 100.816 100.112 113.212 79.3426 96.2431C79.3426 96.2431 69.3748 82.0292 83.2876 68.9573C83.2876 68.9573 114.084 58.7109 149.549 80.9359C149.549 80.9359 142.438 87.7432 144.664 100.816Z" fill="white"/>
<path d="M92.4187 150.798C84.9238 148.205 60.7507 137.455 71.7678 128.476C75.1429 125.725 80.3037 135.161 92.4816 140.771C135.207 160.453 170.165 158.209 177.003 157.768C202.491 156.132 202.429 156.278 227.709 153.16C249.121 150.521 258.15 164.912 243.901 176.909C233.44 185.718 202.802 198.683 192.549 200.389C181.748 202.188 153.946 206.8 140.701 204.812C106.554 199.682 47.4745 178.784 79.1982 156.314C83.1908 153.487 91.234 151.061 92.4146 150.798L92.4187 150.798Z" stroke="black" stroke-width="2.09858" stroke-linecap="round" stroke-linejoin="round"/>
<path d="M103.41 156.299C103.41 156.299 84.9452 163.975 82.8743 169.118C82.8743 169.118 100.351 187.604 150.214 191.296C150.214 191.296 217.94 187.321 233.484 170.28C233.484 170.28 238.202 167.491 226.083 167.949C226.083 167.949 148.935 176.23 103.406 156.299L103.41 156.299Z" stroke="black" stroke-width="2.09858" stroke-linecap="round" stroke-linejoin="round"/>
<path fill-rule="evenodd" clip-rule="evenodd" d="M93.1142 176.374C93.1142 176.374 87.2407 171.772 90.033 168.396C92.829 165.015 104.182 159.751 108.137 158.554L101.849 156.474C101.849 156.474 86.7434 163.555 83.1373 168.738C83.1373 168.738 86.7955 173.592 93.1142 176.374Z" fill="black"/>
<path fill-rule="evenodd" clip-rule="evenodd" d="M81.2419 187.644C54.6293 170.977 71.5467 154.032 78.2845 151.744C81.8865 150.519 82.0321 150.982 85.2792 149.03C86.5575 148.264 91.0812 150.705 91.2149 150.763C84.2345 153.93 75.13 155.645 73.8794 167.688C72.6369 179.645 79.477 183.296 86.5864 188.172C83.8748 188.474 83.9129 188.419 81.246 187.644L81.2419 187.644Z" fill="black"/>
<path d="M126.718 164.618C124.465 166.087 116.949 169.988 118.301 174.09C119.514 177.779 127.957 184.068 133.598 188.767" stroke="black" stroke-width="2.09858" stroke-linecap="round" stroke-linejoin="round"/>
<path d="M134.15 189.271C137.167 188.038 152.22 180.073 173.112 178.391C193.502 176.747 196.655 181.888 199.573 184.429" stroke="black" stroke-width="2.09858" stroke-linecap="round" stroke-linejoin="round"/>
<path d="M254.081 151.697C254.535 152.701 256.556 157.175 259.991 164.126" stroke="black" stroke-width="2.09858" stroke-linecap="round" stroke-linejoin="round"/>
<path d="M74.4107 127.695C75.8997 125.9 84.8442 115.106 99.3635 111.05" stroke="black" stroke-width="2.09858" stroke-linecap="round" stroke-linejoin="round"/>
<path d="M94.0852 113.017C102.086 117.893 105.389 120.775 121.36 122.436" stroke="black" stroke-width="2.09858" stroke-linecap="round" stroke-linejoin="round"/>
<path fill-rule="evenodd" clip-rule="evenodd" d="M79.6287 97.1445C79.6287 97.1445 91.3197 104.724 111.011 104.643C130.702 104.566 143.482 101.443 143.482 101.443L145.983 106.629C145.983 106.629 125.493 118.625 121.973 121.914C121.973 121.914 102.108 119.245 93.4575 112.307C93.4575 112.307 80.5763 108.92 79.6287 97.1445Z" fill="black"/>
<path d="M91.8906 110.8C89.7248 109.91 83.7234 107.84 80.8996 103.324C78.6571 99.732 79.5168 96.7052 79.6732 96.1497" stroke="black" stroke-width="2.09858" stroke-linecap="round" stroke-linejoin="round"/>
<path fill-rule="evenodd" clip-rule="evenodd" d="M147.212 106.519C147.255 106.648 147.31 106.772 147.337 106.905C147.364 107.023 147.516 107.706 147.081 108.41C146.869 108.752 146.6 108.945 146.549 108.98C146.261 109.187 146.243 109.151 144.857 109.739C127.615 117.077 115.217 129.04 113.242 130.932C113.211 130.962 113.039 131.126 112.757 131.128C112.672 131.132 112.585 131.116 112.502 131.083C112.464 131.069 112.243 130.982 112.136 130.725C112.03 130.477 112.113 130.252 112.132 130.214C112.164 130.131 112.218 130.059 112.272 129.987C112.298 129.949 112.981 129.216 113.043 129.147C116.73 125.179 128.261 113.456 144.341 105.595C144.393 105.572 144.553 105.49 144.553 105.49C144.681 105.447 144.805 105.392 144.939 105.365C145.056 105.338 145.735 105.186 146.44 105.625C146.782 105.837 146.975 106.11 147.01 106.161L147.212 106.515L147.212 106.519Z" fill="black"/>
<path fill-rule="evenodd" clip-rule="evenodd" d="M90.2279 114.283C87.7164 115.818 90.0258 111.526 88.6763 108.96C88.6763 108.96 118.539 111.939 132.096 109.914C132.303 111.706 95.4305 112.774 90.2279 114.283Z" fill="black"/>
<path d="M142.612 101.302C142.612 101.302 97.4251 112.029 79.86 96.4549C79.86 96.4549 69.3559 84.287 82.7387 69.3486C82.7387 69.3486 117.29 58.7321 148.897 80.6456" stroke="black" stroke-width="2.09858" stroke-linecap="round" stroke-linejoin="round"/>
<path d="M82.7063 69.1871C82.7063 69.1871 79.6795 61.4026 96.9661 58.9921C96.9661 58.9921 134.371 59.4962 154.767 77.9349" stroke="black" stroke-width="2.09858" stroke-linecap="round" stroke-linejoin="round"/>
<path d="M98.0109 58.8747C98.0109 58.8747 120.622 52.0592 135.37 53.5109C135.37 53.5109 149.716 41.4312 170.117 49.4743C170.117 49.4743 185.505 55.3622 190.227 61.0718" stroke="black" stroke-width="2.09858" stroke-linecap="round" stroke-linejoin="round"/>
<path d="M152.616 74.7827C163.087 67.9764 176.821 69.5152 190.414 71.8376C205.656 74.438 222.33 84.9142 235.045 92.2101" stroke="black" stroke-width="2.09858" stroke-linecap="round" stroke-linejoin="round"/>
<path d="M162.372 70.2977C178.299 64.1939 178.627 65.1341 190.889 62.2043C196.549 60.8526 209.897 47.9476 239.699 57.7034C252.693 61.9563 268.518 77.3106 273.93 87.9404C283.853 107.422 277.055 115.93 280.903 119.901C286.392 125.577 294.755 131.502 294.499 166.891C294.485 168.76 292.539 192.75 282.793 200.068C282.196 200.518 278.048 202.808 270.347 206.94C270.347 206.94 214.94 243.212 134.704 218.992C134.704 218.992 97.3297 211.263 79.3531 183.02" stroke="black" stroke-width="2.09858" stroke-linecap="round" stroke-linejoin="round"/>
<path fill-rule="evenodd" clip-rule="evenodd" d="M158.3 123.053L172.56 131.74C189.836 143.87 232.816 134.401 231.807 132.023C202.516 134.784 177.208 132.801 158.3 123.057L158.3 123.053Z" fill="black"/>
<path fill-rule="evenodd" clip-rule="evenodd" d="M140.56 53.3348C140.56 53.3348 162.92 41.5282 187.856 62.1454L191.315 62.1416C191.315 62.1416 176.796 47.4053 159.04 46.8713C159.04 46.8713 146.887 45.6302 138.109 52.5284L140.56 53.3348Z" fill="black"/>
<path fill-rule="evenodd" clip-rule="evenodd" d="M199.573 58.7771C199.573 58.7771 218.34 53.8119 236.205 58.9516C236.205 58.9516 270.879 69.0299 276.52 105.21C276.52 105.21 276.084 114.887 276.144 115.697C276.205 116.508 279.381 119.384 279.381 119.384C279.381 119.384 279.648 114.804 279.726 112.744C279.804 110.684 279.243 97.3856 276.179 91.6551C273.115 85.9246 258.388 62.7939 237.311 56.2805C237.311 56.2805 214.305 49.2905 199.573 58.7812L199.573 58.7771Z" fill="black"/>
<path fill-rule="evenodd" clip-rule="evenodd" d="M148.87 205.755C148.87 205.755 149.43 213.92 158.753 217.603C168.073 221.29 204.128 230.114 232.457 221.805C232.457 221.805 176.375 233.661 151.327 223.228C151.327 223.228 144.926 207.002 139.856 204.682L148.874 205.755L148.87 205.755Z" fill="black"/>
<path fill-rule="evenodd" clip-rule="evenodd" d="M135.268 165.818C135.268 165.818 124.312 169.431 122.229 172.113C122.229 172.113 120.794 174.159 124.493 177.283C128.192 180.406 136.99 185.693 140.878 185.386L133.229 189.497L120.047 177.066C120.047 177.066 116.112 172.396 120.309 168.832C124.506 165.272 127.73 163.759 127.73 163.759L135.268 165.818Z" fill="black"/>
<path fill-rule="evenodd" clip-rule="evenodd" d="M172.414 177.687C172.414 177.687 192.157 174.03 198.011 177.153C203.864 180.281 207.557 181.72 207.557 181.72L199.977 184.737C199.977 184.737 192.852 176.489 174.028 177.41" fill="black"/>
<path fill-rule="evenodd" clip-rule="evenodd" d="M147.726 110.218C155.644 124.063 187.924 126.91 187.924 126.91C198.47 126.98 229.664 117.078 229.664 117.078C229.664 117.078 194.113 136.562 166.889 128.407C161.025 126.65 155.544 123.615 150.892 118.825C150.892 118.825 144.19 104.028 147.726 110.218Z" fill="black"/>
<path fill-rule="evenodd" clip-rule="evenodd" d="M125.573 62.6096C125.573 62.6096 120.657 58.5325 116.461 58.0006C116.461 58.0006 128.1 53.2335 158.331 62.4938L139.258 51.556L135.763 53.6956C135.763 53.6956 117.586 51.4247 101.531 58.6387C101.531 58.6387 121.668 60.6898 125.569 62.6098L125.573 62.6096Z" fill="black"/>
<path fill-rule="evenodd" clip-rule="evenodd" d="M174.502 66.2008C174.502 66.2008 210.246 64.874 234.125 73.5745C234.125 73.5745 244.233 77.1612 253.743 85.2864C253.743 85.2864 244.895 75.1048 226.886 68.8849C226.886 68.8849 203.896 61.3749 194.989 60.4021L188.783 62.1202L174.502 66.2008Z" fill="black"/>
<path d="M148.45 109.802C147.303 107.95 140.743 102.024 145.428 89.0994C150.804 74.2718 165.39 73.9452 187.685 78.3052C211.668 82.9944 215.569 94.39 236.602 99.949C239.038 100.593 248.148 107.246 232.083 109.547C221.253 111.097 213.319 122.23 188.147 123.829C179.191 124.4 171.467 121.316 160.224 117.995C152.827 115.81 149.103 110.697 148.446 109.802L148.45 109.802Z" stroke="black" stroke-width="2.09858" stroke-linecap="round" stroke-linejoin="round"/>
<path fill-rule="evenodd" clip-rule="evenodd" d="M103.071 74.027C96.902 78.2285 91.6826 79.8118 97.3185 93.9666C98.5744 97.1174 111.5 100.417 116.366 95.0865C119.177 92.012 122.679 88.5927 116.394 77.7485C113.595 72.9205 107.758 71.1947 103.067 74.0272L103.071 74.027Z" fill="black"/>
<path fill-rule="evenodd" clip-rule="evenodd" d="M172.159 86.8671C171.016 87.8149 163.262 94.2617 165.876 103.612C169.016 114.841 191.198 120.388 195.14 106.392C196.642 101.064 188.207 78.611 172.159 86.8671Z" fill="black"/>
<path fill-rule="evenodd" clip-rule="evenodd" d="M175.536 96.2772C164.117 99.3901 175.577 107.488 179.33 105.532C182.909 103.67 184.424 96.0531 175.536 96.2772Z" fill="white"/>
<path fill-rule="evenodd" clip-rule="evenodd" d="M99.4937 85.6462C99.2708 86.5934 97.5447 90.0351 104.063 91.8948C110.125 93.6218 110.239 88.5881 108.91 86.8308C107.404 84.837 103.053 81.8356 99.4937 85.6462Z" fill="white"/>
<path d="M92.1821 150.731C99.0058 153.721 97.4482 153.965 104.397 156.601" stroke="black" stroke-width="2.09858" stroke-linecap="round" stroke-linejoin="round"/>
<path fill-rule="evenodd" clip-rule="evenodd" d="M53.1264 181.394C78.2711 190.633 118.131 189.789 134.302 200.747C165.575 221.946 142.187 252.023 139.447 255.544C141.01 256.549 166.636 268.258 149.57 291.849C138.246 307.503 113.283 298.954 66.884 293.063C62.6387 292.525 24.0408 291.365 20.0371 258.022C18.7011 246.908 25.4495 243.348 17.6459 231.562C-6.67058 194.836 30.4093 189.126 35.9308 177.971C39.5014 170.754 43.8174 150.87 77.2294 148.681C72.3607 150.742 47.2888 158.718 53.1303 181.39L53.1264 181.394Z" fill="white"/>
<path d="M53.1264 181.394C78.2711 190.633 118.131 189.789 134.302 200.747C165.575 221.946 142.187 252.023 139.447 255.544C141.01 256.549 166.636 268.258 149.57 291.849C138.246 307.503 113.283 298.954 66.884 293.063C62.6387 292.525 24.0408 291.365 20.0371 258.022C18.7011 246.908 25.4495 243.348 17.6459 231.562C-6.67058 194.836 30.4094 189.126 35.9308 177.971C39.5014 170.754 43.8174 150.87 77.2294 148.681C72.3607 150.742 47.2888 158.718 53.1303 181.39L53.1264 181.394Z" stroke="black" stroke-width="1.57598" stroke-linecap="round" stroke-linejoin="round"/>
<path fill-rule="evenodd" clip-rule="evenodd" d="M54.1119 195.17C54.1119 195.17 50.1762 185.047 44.7646 190.008C44.7646 190.008 40.9256 194.532 39.7021 197.887L35.7801 203.294L37.4536 205.717C37.4536 205.717 36.2834 214.764 37.3506 215.099C38.4178 215.435 38.9628 214.059 39.2844 212.96C39.6098 211.856 41.011 207.22 43.5623 205.663C46.1134 204.102 47.3167 203.225 47.3167 203.225C47.3167 203.225 41.5093 202.842 42.4662 198.727C43.4232 194.612 45.9397 191.365 48.9722 192.175C52.0048 192.989 54.1079 195.17 54.1079 195.17L54.1119 195.17Z" fill="black"/>
<path fill-rule="evenodd" clip-rule="evenodd" d="M59.2695 210.477C61.7066 209.996 63.3212 208.592 63.3212 208.592C63.3212 208.592 62.0255 205.627 60.2519 205.556C59.019 205.506 58.4541 206.891 57.9043 208.501C57.3587 210.11 59.2655 210.477 59.2655 210.477L59.2695 210.477ZM58.3211 216.823L61.8857 216.659C63.9596 216.687 64.4041 217.159 63.7394 217.851C63.0787 218.541 60.6593 219.05 56.2843 218.617C51.9052 218.184 53.8832 212.98 54.3334 210.436C54.7837 207.891 56.5675 205.779 56.5675 205.779C60.6201 201.523 63.9931 205.82 63.9931 205.82C65.3292 207.29 65.6175 209.725 65.5945 210.662C65.5714 211.599 64.2693 212.298 63.256 212.883C62.2428 213.473 60.4119 212.575 59.6553 212.898C58.8987 213.222 57.6101 213.78 57.1446 215.026C56.679 216.271 58.3211 216.823 58.3211 216.823Z" fill="black"/>
<path fill-rule="evenodd" clip-rule="evenodd" d="M78.4046 217.728C78.8615 213.753 88.3011 215.664 86.0443 210.711C83.077 204.207 70.8541 209.808 73.1166 214.794C73.8919 216.497 77.2168 222.133 81.5789 222.141C85.3197 222.148 87.3161 220.777 86.9448 220.379C85.7228 219.066 83.0152 220.439 80.0757 219.689C80.0757 219.689 78.2335 219.225 78.4046 217.728Z" fill="black"/>
<path fill-rule="evenodd" clip-rule="evenodd" d="M102.05 198.622C100.562 205.134 101.684 205.422 98.7071 211.423C97.9564 212.936 95.9888 223.38 97.7726 228.193C100.756 224.464 100.474 216.634 101.851 210.859C102.985 206.106 102.191 206.01 103.012 201.203C103.455 198.593 102.292 198.639 102.05 198.622Z" fill="black"/>
<path fill-rule="evenodd" clip-rule="evenodd" d="M102.751 248.304C105.261 252.256 116.081 250.603 110.132 244.223C106.052 239.847 100.679 243.694 102.751 248.304ZM124.472 214.864C124.118 215.491 123.937 215.536 123.856 215.561C123.828 215.574 123.796 215.576 123.767 215.565C123.305 215.322 118.01 212 116.639 214.202C115.095 216.686 124.136 223.347 121.357 227.155C119.818 229.263 118.884 228.222 115.836 228.59C117.54 233.439 116.312 233.496 115.702 243.366C115.02 254.417 115.593 254.862 113.923 255.791C112.483 254.044 111.375 252.643 108.952 252.502C94.4354 251.66 100.115 243.693 101.277 242.646C105.656 238.709 110.317 239.553 110.662 239.487C118.271 238.047 109.242 225.704 109.554 224.495C110.099 222.379 112.696 228.161 116.001 225.737C119.662 223.053 113.713 217.589 113.582 217.423C109.883 212.734 119.844 207.273 124.467 214.766C124.485 214.798 124.487 214.835 124.468 214.864L124.472 214.864Z" fill="black"/>
<path fill-rule="evenodd" clip-rule="evenodd" d="M48.5597 228.79C43.1923 226.068 40.7769 233.746 43.1568 235.905C48.7214 240.956 54.6327 233.129 48.5597 228.79ZM52.0321 226.435C54.3786 221.654 54.447 228.147 53.9866 232.629C52.5338 246.694 51.6115 249.859 51.1889 251.311C50.9651 252.074 48.6242 260.1 42.811 257.457C36.6381 254.648 38.057 244.187 40.7555 246.093C41.6452 246.723 41.0322 246.892 40.5156 249.334C40.3632 250.053 40.4564 252.264 42.0737 253.222C48.3784 256.956 51.0416 242.157 50.8749 240.857C50.5853 238.644 49.5426 239.627 49.3014 239.709C44.0821 241.541 36.374 235.142 40.989 229.202C45.9692 222.795 50.0588 225.552 52.0321 226.435Z" fill="black"/>
<path fill-rule="evenodd" clip-rule="evenodd" d="M65.5338 233.017C60.0022 241.246 67.6348 242.082 70.1883 240.075C74.5398 236.654 68.9237 231.389 65.5338 233.017ZM65.0898 230.905C65.1853 230.851 68.259 228.536 71.0127 230.566C75.7647 234.067 76.0472 239.106 72.6862 241.316C62.061 248.306 55.5063 237.303 65.0939 230.905L65.0898 230.905Z" fill="black"/>
<path fill-rule="evenodd" clip-rule="evenodd" d="M85.2605 235.959C77.3335 239.079 83.9278 244.532 90.4222 242.53C95.3987 240.996 94.0825 234.071 85.2605 235.959ZM88.9834 232.145C89.9751 232.275 93.7636 231.515 95.5767 237.741C96.301 240.232 96.9935 243.974 85.399 245.596C77.8237 246.658 73.4064 235.644 88.9836 232.149L88.9834 232.145Z" fill="black"/>
<path fill-rule="evenodd" clip-rule="evenodd" d="M61.7665 264.378C60.0706 268.759 60.4958 268.844 59.3605 274.885C58.2161 273.404 57.6895 273.255 57.6543 264.3C57.6353 259.629 59.7401 260.775 59.87 260.756C60.945 260.589 63.4649 258.812 68.2156 262.121C69.6171 263.098 69.871 264.921 72.6497 264.239C72.7386 264.218 78.2385 262.192 81.9303 265.5C85.4937 268.692 83.7084 280.255 82.7104 279.748C79.5151 278.129 83.4525 266.933 77.8914 267.147C73.6521 267.309 71.1947 275.459 69.9263 277.66C67.1966 276.773 69.6771 272.718 67.4877 266.899C65.5992 261.87 62.1662 264.113 61.7667 264.382L61.7665 264.378Z" fill="black"/>
<path fill-rule="evenodd" clip-rule="evenodd" d="M101.676 275.17C92.947 275.063 95.4203 278.448 95.8894 278.755C97.2075 279.618 102.317 280.44 103.402 278.162C104.487 275.889 101.966 275.253 101.676 275.17ZM104.633 271.495C103.43 266.286 99.4223 267.895 94.3023 268.018C96.2427 263.539 107.156 262.115 107.081 274.203C107.058 278.108 105.573 282.547 104.142 282.197C102.755 281.857 93.8754 283.564 93.2072 277.756C92.5756 272.273 101.957 273.512 104.629 271.491L104.633 271.495Z" fill="black"/>
<path fill-rule="evenodd" clip-rule="evenodd" d="M115.871 268.784C115.711 270.264 114.479 282.678 116.518 287.36C119.021 283.352 118.49 273.633 125.717 272.543C132.051 271.587 127.877 280.82 128.435 287.374C131.637 285.748 133.552 274.992 130.583 272.241C128.385 270.203 125.412 270.269 124.81 270.168C120.124 269.399 118.27 267.7 115.867 268.784L115.871 268.784Z" fill="black"/>
</g>
<defs>
<clipPath id="clip0_7322_8132">
<rect width="289" height="254.271" fill="white" transform="translate(0.881348 53.3115) rotate(-2.83858)"/>
</clipPath>
</defs>
</svg>
