<svg width="199" height="35" viewBox="0 0 199 35" fill="none" xmlns="http://www.w3.org/2000/svg">
<path d="M29.7608 20.8281C29.1677 21.1905 28.4757 21.2564 27.9485 20.9599C27.2895 20.5645 26.8941 19.6748 26.8941 18.4557V14.7323C26.8941 12.953 26.2022 11.6679 25.016 11.3384C23.006 10.7453 21.4903 13.2166 20.9301 14.1392L17.3715 19.8396V12.8212C17.3386 11.2066 16.8114 10.2511 15.8229 9.95451C15.1638 9.75681 14.1753 9.85566 13.2198 11.3055L5.27879 24.0242C4.22438 22.0143 3.66423 19.7737 3.66423 17.5001C3.66423 9.82271 9.82592 3.59512 17.3715 3.59512C24.9171 3.59512 31.0788 9.82271 31.0788 17.5001V17.5331V17.566C31.1447 19.0488 30.6834 20.235 29.7608 20.8281ZM34.1102 17.5001V17.4672V17.4342C34.0773 8.1093 26.5646 0.497803 17.3715 0.497803C8.14546 0.497803 0.632812 8.1093 0.632812 17.5001C0.632812 26.858 8.14546 34.5024 17.3715 34.5024C21.6221 34.5024 25.642 32.8878 28.7393 29.9553C29.3654 29.3622 29.3983 28.4066 28.8052 27.7806C28.2451 27.1545 27.2895 27.1216 26.6635 27.6817C26.6635 27.6817 26.6635 27.6817 26.6305 27.7147C24.1263 30.0871 20.7654 31.438 17.3056 31.438C13.2527 31.438 9.62822 29.6587 7.124 26.825L14.2742 15.3583V20.6633C14.2742 23.2005 15.2627 24.0242 16.0865 24.2549C16.9102 24.4855 18.1623 24.3208 19.5133 22.179L23.4343 15.8196C23.5661 15.6219 23.665 15.4242 23.7968 15.2924V18.5216C23.7968 20.894 24.7524 22.8051 26.3999 23.7277C27.8826 24.5844 29.7608 24.4855 31.3094 23.53C33.2206 22.2779 34.242 20.1032 34.1102 17.5001ZM57.439 11.7009C57.8344 11.9315 58.1968 12.4917 58.1968 12.9859C58.1968 13.7767 57.5378 14.4357 56.7799 14.4357C56.5822 14.4357 56.4175 14.3698 56.2527 14.3369C55.3631 13.6779 54.2428 13.2495 53.0566 13.2495C50.2558 13.2495 48.3447 15.5231 48.3447 18.3568C48.3447 21.1905 50.2888 23.4311 53.0566 23.4311C54.4405 23.4311 55.6926 22.871 56.6152 21.9813C56.8458 21.8166 57.1424 21.7177 57.439 21.7177C58.1968 21.7177 58.7899 22.3108 58.7899 23.0687C58.7899 23.5629 58.4934 23.9913 58.1309 24.2219C56.7799 25.3752 54.9677 26.1331 53.0895 26.1331C48.806 26.1331 45.3133 22.6074 45.3133 18.258C45.3133 13.9085 48.806 10.3829 53.0895 10.3829C54.6711 10.3499 56.1868 10.8442 57.439 11.7009ZM65.2811 14.9959C68.2137 14.9959 70.652 17.4672 70.652 20.5315C70.652 23.5629 68.1807 26.166 65.2811 26.166C62.2167 26.166 59.6796 23.5959 59.6796 20.5315C59.6796 17.4672 62.2167 14.9959 65.2811 14.9959ZM65.2481 23.4311C66.5332 23.4311 67.6206 22.212 67.6206 20.5645C67.6206 18.917 66.5332 17.8626 65.2481 17.8626C63.8642 17.8626 62.711 18.884 62.711 20.5645C62.711 22.179 63.8642 23.4311 65.2481 23.4311ZM72.4972 24.4526V16.6763C72.4972 15.8196 73.1562 15.1277 74.0129 15.1277C74.8367 15.1277 75.5286 15.8196 75.5286 16.6763V24.4526C75.5286 25.3093 74.8367 26.0012 74.0129 26.0012C73.1891 26.0012 72.4972 25.2764 72.4972 24.4526ZM72.2665 12.1951C72.2665 11.1737 73.0573 10.3829 74.0129 10.3829C75.0014 10.3829 75.7922 11.2066 75.7922 12.1951C75.7922 13.1836 75.0014 13.9744 74.0129 13.9744C73.0244 13.9415 72.2665 13.1507 72.2665 12.1951ZM81.3278 20.235V24.4526C81.3278 25.3093 80.6359 26.0012 79.8121 26.0012C78.9884 26.0012 78.2964 25.3093 78.2964 24.4526V16.3139C78.2964 15.6549 78.8236 15.1277 79.4826 15.1277C80.1416 15.1277 80.6359 15.6878 80.6359 16.3139C81.855 15.1606 82.9424 14.9959 83.9639 14.9959C86.9953 14.9959 88.3462 17.2695 88.3462 19.8725V24.4526C88.3462 25.3093 87.6543 26.0012 86.8305 26.0012C86.0068 26.0012 85.3148 25.3093 85.3148 24.4526V20.235C85.3148 18.917 85.1501 17.7967 83.239 17.7967C81.888 17.7967 81.3278 18.917 81.3278 20.235ZM98.1654 21.8495C97.8029 21.8495 97.5723 21.6848 97.3746 21.4541L93.8489 17.6319V24.4526C93.8489 25.3093 93.157 26.0012 92.3332 26.0012C91.5094 26.0012 90.8175 25.3093 90.8175 24.4526V10.943C90.9163 10.7124 91.147 10.5476 91.3776 10.5476C91.6413 10.5476 91.8719 10.7783 92.0367 10.943L97.6711 17.2694C97.8359 17.4671 98.0336 17.566 98.1654 17.566C98.2642 17.566 98.4949 17.4671 98.6596 17.2694L104.294 10.943C104.459 10.7783 104.657 10.5476 104.953 10.5476C105.217 10.5476 105.447 10.7124 105.513 10.943V24.4526C105.513 25.3093 104.854 26.0012 103.998 26.0012C103.174 26.0012 102.482 25.3093 102.482 24.4526V17.6319L98.9562 21.4541C98.6926 21.6848 98.4619 21.8495 98.1654 21.8495ZM112.729 23.4311C114.08 23.4311 115.234 22.212 115.234 20.5645C115.234 18.917 114.047 17.8296 112.729 17.8296C111.411 17.8296 110.324 18.9499 110.324 20.5645C110.324 22.1461 111.378 23.4311 112.729 23.4311ZM115.958 24.8151L115.893 24.4526C115.299 25.6059 113.421 26.1331 112.235 26.1331C109.401 26.1331 107.293 23.5629 107.293 20.4986C107.293 17.4672 109.434 14.9629 112.4 14.9629C112.894 14.9629 114.608 15.0947 115.926 16.6434L115.991 16.2809C115.991 15.6219 116.486 15.0947 117.145 15.0947C117.804 15.0947 118.331 15.6549 118.331 16.2809V24.7821C118.331 25.4411 117.804 25.9683 117.145 25.9683C116.453 26.0013 115.958 25.4411 115.958 24.8151ZM126.667 17.7967H126.338C124.427 17.8955 124.064 18.9829 124.064 20.235V24.4526C124.064 25.3093 123.372 26.0012 122.549 26.0012C121.725 26.0012 121.033 25.3093 121.033 24.4526V16.3139C121.033 15.6549 121.56 15.1277 122.219 15.1277C122.878 15.1277 123.372 15.6878 123.372 16.3139C124.493 15.2595 125.415 15.0288 126.338 14.9959H126.634C127.359 14.9959 128.018 15.6219 128.018 16.4128C128.051 17.1377 127.392 17.7967 126.667 17.7967ZM138.365 23.7277C138.496 23.9583 138.595 24.189 138.595 24.4526C138.595 25.2434 137.87 25.9683 137.08 25.9683C136.552 25.9683 136.091 25.5729 135.729 25.1116L132.236 21.0587V24.4196C132.236 25.2764 131.544 25.9683 130.72 25.9683C129.896 25.9683 129.204 25.2764 129.204 24.4196V12.0633C129.204 11.2066 129.863 10.5147 130.72 10.5147C131.577 10.5147 132.236 11.2066 132.236 12.0633V19.7737L135.729 15.9185C136.091 15.5231 136.519 15.0947 137.047 15.0947C137.804 15.0947 138.496 15.7867 138.496 16.5775C138.496 16.8082 138.431 17.0717 138.299 17.2694L135.531 20.3009L138.365 23.7277ZM144.296 17.8296C143.472 17.8296 142.121 18.258 142.121 19.543H146.503C146.47 18.258 145.086 17.8296 144.296 17.8296ZM148.25 21.4871H142.121C142.121 23.2993 143.867 23.5959 144.625 23.5959C145.185 23.5959 145.976 23.497 146.602 23.2005C146.8 23.0687 147.096 22.9698 147.393 22.9698C148.052 22.9698 148.612 23.53 148.612 24.2219C148.612 24.6832 148.316 25.0787 147.953 25.3093C147.031 26.0013 145.811 26.166 144.658 26.166C141.594 26.166 139.057 24.5185 139.057 20.6633C139.057 17.6319 140.605 14.9959 144.23 14.9959C147.162 14.9959 149.37 16.907 149.436 20.3009C149.436 20.9269 148.909 21.4871 148.25 21.4871ZM156.685 26.1331H155.861C153.555 26.1331 152.204 25.1116 152.204 21.52V17.7967H151.413C150.688 17.7967 150.062 17.1377 150.062 16.4128C150.062 15.6219 150.721 14.9959 151.413 14.9959H152.204V12.1292C152.204 11.2725 152.863 10.5806 153.719 10.5806C154.543 10.5806 155.235 11.2725 155.235 12.1292V14.9959H156.487C157.212 14.9959 157.838 15.6219 157.838 16.4128C157.838 17.1377 157.179 17.7967 156.487 17.7967H155.235V20.9269C155.235 23.0028 155.334 23.4311 156.257 23.4311H156.685C157.41 23.4311 158.036 24.0242 158.036 24.7821C158.036 25.507 157.41 26.1331 156.685 26.1331ZM171.348 11.7009C171.743 11.9315 172.106 12.4917 172.106 12.9859C172.106 13.7767 171.447 14.4357 170.689 14.4357C170.491 14.4357 170.326 14.3698 170.162 14.3369C169.272 13.6779 168.152 13.2495 166.965 13.2495C164.165 13.2495 162.254 15.5231 162.254 18.3568C162.254 21.1905 164.198 23.4311 166.965 23.4311C168.349 23.4311 169.601 22.871 170.524 21.9813C170.755 21.8166 171.051 21.7177 171.348 21.7177C172.106 21.7177 172.699 22.3108 172.699 23.0687C172.699 23.5629 172.402 23.9913 172.04 24.2219C170.689 25.3752 168.876 26.1331 166.998 26.1331C162.715 26.1331 159.222 22.6074 159.222 18.258C159.222 13.9085 162.715 10.3829 166.998 10.3829C168.58 10.3499 170.129 10.8442 171.348 11.7009ZM179.025 23.4311C180.376 23.4311 181.529 22.212 181.529 20.5645C181.529 18.917 180.343 17.8296 179.025 17.8296C177.674 17.8296 176.62 18.9499 176.62 20.5645C176.62 22.1461 177.707 23.4311 179.025 23.4311ZM182.254 24.8151L182.188 24.4526C181.595 25.6059 179.717 26.1331 178.531 26.1331C175.697 26.1331 173.588 23.5629 173.588 20.4986C173.588 17.4672 175.73 14.9629 178.696 14.9629C179.19 14.9629 180.903 15.0947 182.221 16.6434L182.287 16.2809C182.287 15.6219 182.781 15.0947 183.44 15.0947C184.1 15.0947 184.627 15.6549 184.627 16.2809V24.7821C184.627 25.4411 184.1 25.9683 183.44 25.9683C182.749 26.0013 182.254 25.4411 182.254 24.8151ZM192.897 23.4311C194.248 23.4311 195.303 22.1461 195.303 20.5645C195.303 18.917 194.215 17.8296 192.897 17.8296C191.546 17.8296 190.393 18.917 190.393 20.5645C190.393 22.212 191.546 23.4311 192.897 23.4311ZM190.393 25.2434V29.0986C190.393 29.9553 189.701 30.6472 188.877 30.6472C188.054 30.6472 187.362 29.9553 187.362 29.0986V16.3139C187.362 15.6549 187.889 15.1277 188.548 15.1277C189.207 15.1277 189.701 15.6878 189.701 16.4457C190.821 15.2924 192.205 14.9959 193.26 14.9959C196.192 14.9959 198.367 17.4672 198.367 20.5315C198.367 23.5629 196.291 26.166 193.424 26.166C192.535 26.1331 191.217 25.8695 190.393 25.2434Z" fill="white"/>
</svg>
