<svg width="115" height="106" viewBox="0 0 115 106" fill="none" xmlns="http://www.w3.org/2000/svg">
<path fill-rule="evenodd" clip-rule="evenodd" d="M78.5652 96.6773C78.7617 96.7093 87.0282 98.9193 90.2736 94.1313C92.6848 90.5751 92.4836 88.2394 101.555 81.4401C97.3334 75.3265 60.222 66.7309 57.532 67.8279C54.5952 69.0255 47.4463 82.2172 49.6837 85.3482C51.9989 88.5868 65.954 93.6079 78.5652 96.6773Z" fill="#1F1818"/>
<path d="M78.5652 96.6773C78.7617 96.7093 87.0282 98.9193 90.2736 94.1313C92.6848 90.5751 92.4836 88.2394 101.555 81.4401C97.3334 75.3265 60.222 66.7309 57.532 67.8279C54.5952 69.0255 47.4463 82.2172 49.6837 85.3482C51.9989 88.5868 65.954 93.6079 78.5652 96.6773Z" stroke="black" stroke-width="0.914186" stroke-linecap="round" stroke-linejoin="round"/>
<mask id="mask0_5330_42979" style="mask-type:luminance" maskUnits="userSpaceOnUse" x="0" y="-1" width="115" height="107">
<path d="M115 -0.000976562H0V105.752H115V-0.000976562Z" fill="white"/>
</mask>
<g mask="url(#mask0_5330_42979)">
<path fill-rule="evenodd" clip-rule="evenodd" d="M5.97412 75.752L9.75199 94.7099C35.692 105.584 61.3098 109.143 86.2236 96.5223C86.2236 96.5223 84.9826 90.9983 78.3251 86.8273L74.0695 83.5248L73.0251 81.2691L10.1085 73.7773C10.1085 73.7773 7.03001 75.3657 5.97412 75.7474V75.752Z" fill="#0558FE"/>
<path d="M5.97412 75.752L9.75199 94.7099C35.692 105.584 61.3098 109.143 86.2236 96.5223C86.2236 96.5223 84.9826 90.9983 78.3251 86.8273L74.0695 83.5248L73.0251 81.2691L10.1085 73.7773C10.1085 73.7773 7.03001 75.3657 5.97412 75.7474V75.752Z" stroke="black" stroke-width="0.914186" stroke-linecap="round" stroke-linejoin="round"/>
</g>
<mask id="mask1_5330_42979" style="mask-type:luminance" maskUnits="userSpaceOnUse" x="0" y="-1" width="115" height="107">
<path d="M115 -0.000976562H0V105.752H115V-0.000976562Z" fill="white"/>
</mask>
<g mask="url(#mask1_5330_42979)">
<path fill-rule="evenodd" clip-rule="evenodd" d="M21.056 22.8834C21.056 22.8834 26.084 1.59884 44.85 0.435538C44.85 0.435538 57.468 0.140713 62.0481 6.81198C62.0481 6.81198 74.7256 -0.53807 82.119 3.08896C82.119 3.08896 90.5227 5.56641 91.1855 15.2751C91.1855 15.2751 98.7367 17.9536 99.9982 20.9156C99.9982 20.9156 103.271 21.5555 103.28 24.9014C103.28 24.9014 107.492 27.1069 105.545 29.2758L104.414 34.6055C104.414 34.6055 103.285 36.7607 101.349 37.8532C101.349 37.8532 98.7709 43.192 93.5875 44.3919C93.5875 44.3919 100.666 51.9202 100.439 57.8281C100.439 57.8281 92.4014 70.4965 89.8485 72.8071C89.8485 72.8071 79.0862 82.5294 72.0882 82.2689C72.0882 82.2689 70.1364 86.4856 65.89 86.5541C65.89 86.5541 35.683 88.5905 24.0591 83.2082C24.0591 83.2082 8.03114 79.9171 9.74067 74.4732C9.74067 74.4732 4.05901 66.1312 5.32515 51.8631" fill="#63A740"/>
</g>
<path fill-rule="evenodd" clip-rule="evenodd" d="M5.32739 51.8612C5.32739 51.8612 6.73067 28.9631 21.056 22.8838L5.32739 51.8612Z" fill="#63A740"/>
<mask id="mask2_5330_42979" style="mask-type:luminance" maskUnits="userSpaceOnUse" x="0" y="-1" width="115" height="107">
<path d="M115 -0.000976562H0V105.752H115V-0.000976562Z" fill="white"/>
</mask>
<g mask="url(#mask2_5330_42979)">
<path d="M20.1899 31.5665C20.2814 26.534 19.4197 22.1641 25.6179 12.5881C35.0432 -1.97721 47.9172 0.383671 51.0803 0.939039C64.448 3.29078 64.9576 13.6394 65.4513 16.1351" stroke="black" stroke-width="0.914186" stroke-linecap="round" stroke-linejoin="round"/>
</g>
<path d="M62.814 6.40528C68.2305 3.8867 75.6743 -0.444259 85.0447 4.56776C90.2258 7.34003 90.9549 14.1667 91.0577 15.1335" stroke="black" stroke-width="0.914186" stroke-linecap="round" stroke-linejoin="round"/>
<path d="M65.7756 15.2279C86.6808 11.8317 97.5916 16.398 99.9799 21.1381" stroke="black" stroke-width="0.914186" stroke-linecap="round" stroke-linejoin="round"/>
<path d="M36.0121 15.6071C42.8776 11.1458 50.2642 6.44235 64.7929 15.863C65.266 16.1693 65.0329 16.455 70.3717 20.1689C73.1669 22.1138 73.2217 24.8518 70.2163 24.3604C62.0664 23.028 57.9114 18.3679 46.155 25.7774C37.2668 31.3791 34.8853 27.2424 33.8934 30.0101C33.6877 30.586 33.1484 32.5286 41.1406 32.4761" stroke="black" stroke-width="0.914186" stroke-linecap="round" stroke-linejoin="round"/>
<path d="M36.885 25.6197C45.2292 24.5866 44.1116 21.1196 51.7748 19.8877C59.4563 18.6536 68.1433 19.7483 69.5534 19.9266" stroke="black" stroke-width="0.914186" stroke-linecap="round" stroke-linejoin="round"/>
<path d="M72.783 23.165C82.5328 20.3288 86.9094 19.3552 94.4195 20.2328C101.068 21.0098 103.511 22.1731 103.394 25.3454" stroke="black" stroke-width="0.914186" stroke-linecap="round" stroke-linejoin="round"/>
<path d="M73.4709 25.238C83.1613 23.1194 88.459 21.275 100.362 24.3832C106.825 26.0722 106.418 27.4343 105.783 29.0387" stroke="black" stroke-width="0.914186" stroke-linecap="round" stroke-linejoin="round"/>
<path d="M104.359 34.959C103.15 37.3222 102.362 36.6594 100.86 38.826C95.5943 46.4183 89.0716 45.9109 81.1501 45.8538" stroke="black" stroke-width="0.914186" stroke-linecap="round" stroke-linejoin="round"/>
<path d="M75.7061 43.6611C78.2635 44.6964 79.6211 44.861 85.4947 48.4903" stroke="black" stroke-width="0.914186" stroke-linecap="round" stroke-linejoin="round"/>
<path d="M73.5327 34.7773C74.6251 39.0557 71.6357 38.3929 67.4442 40.9115C66.5803 41.4303 66.3403 41.5766 54.849 40.971C48.8314 40.6533 41.9612 37.577 40.9031 37.1062" stroke="black" stroke-width="0.914186" stroke-linecap="round" stroke-linejoin="round"/>
<path d="M53.7588 47.8992C60.3089 46.0799 61.6391 45.3714 66.8934 42.4209" stroke="black" stroke-width="0.914186" stroke-linecap="round" stroke-linejoin="round"/>
<path d="M29.4346 68.0293C31.4526 72.7099 32.1863 73.3864 36.7115 74.2161" stroke="black" stroke-width="0.914186" stroke-linecap="round" stroke-linejoin="round"/>
<path d="M20.6991 23C-0.148887 33.7485 3.00962 71.4861 11.6281 76.0251C12.0029 76.2216 31.6099 85.1898 57.422 83.8871C73.7722 83.062 79.2664 82.4541 89.3248 73.6619" stroke="black" stroke-width="0.914186" stroke-linecap="round" stroke-linejoin="round"/>
<path d="M93.3291 44.7021C94.4124 45.8586 100.252 50.6055 100.309 58.2047" stroke="black" stroke-width="0.914186" stroke-linecap="round" stroke-linejoin="round"/>
<path d="M9.84104 74.1016C9.07769 75.7997 7.95096 77.7972 17.2848 81.1728C32.1723 86.5596 35.34 87.0236 55.2784 87.1127C67.0211 87.1653 69.6768 86.0774 71.8594 82.8343" stroke="black" stroke-width="0.914186" stroke-linecap="round" stroke-linejoin="round"/>
<path fill-rule="evenodd" clip-rule="evenodd" d="M97.0112 66.0924C97.4432 65.8295 102.115 63.976 102.192 60.6095C102.334 54.2514 94.8492 63.3612 81.4266 63.1236C66.4111 62.8562 57.8521 62.0242 55.8294 61.5466C50.8677 60.3741 35.7928 47.1253 32.8788 56.2306C32.232 58.2532 38.2816 65.569 43.5382 67.5711C57.3813 72.8482 53.2286 72.7888 78.876 73.8607C84.3954 74.0915 93.7681 74.8845 97.3083 70.8964C98.963 69.0338 97.2306 66.394 97.0112 66.0924Z" fill="#E9585D"/>
<path d="M97.0112 66.0924C97.4432 65.8295 102.115 63.976 102.192 60.6095C102.334 54.2514 94.8492 63.3612 81.4266 63.1236C66.4111 62.8562 57.8521 62.0242 55.8294 61.5466C50.8677 60.3741 35.7928 47.1253 32.8788 56.2306C32.232 58.2532 38.2816 65.569 43.5382 67.5711C57.3813 72.8482 53.2286 72.7888 78.8761 73.8607C84.3954 74.0915 93.7681 74.8845 97.3083 70.8964C98.963 69.0338 97.2306 66.394 97.0112 66.0924Z" stroke="black" stroke-width="0.914186" stroke-linecap="round" stroke-linejoin="round"/>
<path d="M36.5103 57.2562C40.327 57.1968 43.4078 64.2726 58.3936 67.0266C71.0459 69.3509 83.3943 69.1269 97.0179 66.1078" stroke="black" stroke-width="0.914186" stroke-linecap="round" stroke-linejoin="round"/>
<path fill-rule="evenodd" clip-rule="evenodd" d="M75.0021 29.794C76.7139 29.3415 79.8038 27.8377 93.8937 26.9623C106.845 26.1556 108.914 31.1196 104.715 34.3444C104.03 34.8701 93.8754 38.6571 83.3852 37.4138C82.2378 37.2766 68.0611 37.0435 75.0021 29.794Z" fill="white"/>
<mask id="mask3_5330_42979" style="mask-type:luminance" maskUnits="userSpaceOnUse" x="73" y="26" width="34" height="12">
<path d="M75.0021 29.794C76.7139 29.3415 79.8038 27.8377 93.8937 26.9623C106.845 26.1556 108.914 31.1196 104.715 34.3444C104.03 34.8701 93.8754 38.6571 83.3852 37.4138C82.2378 37.2766 68.0611 37.0435 75.0021 29.794Z" fill="white"/>
</mask>
<g mask="url(#mask3_5330_42979)">
<path fill-rule="evenodd" clip-rule="evenodd" d="M83.7507 36.9359C81.6801 25.0607 98.9513 24.2036 99.0016 34.5042C99.0016 34.9476 99.493 36.088 96.0579 36.3783C84.7403 37.3313 85.4785 37.1988 83.753 36.9359H83.7507Z" fill="black"/>
<mask id="mask4_5330_42979" style="mask-type:luminance" maskUnits="userSpaceOnUse" x="83" y="27" width="17" height="11">
<path d="M83.7507 36.935C81.6801 25.0597 98.9513 24.2026 99.0016 34.5032C99.0016 34.9466 99.493 36.087 96.0579 36.3773C84.7403 37.3303 85.4785 37.1978 83.753 36.935H83.7507Z" fill="white"/>
</mask>
<g mask="url(#mask4_5330_42979)">
<path fill-rule="evenodd" clip-rule="evenodd" d="M89.3114 29.2773C90.0359 29.2773 90.6232 29.8624 90.6232 30.5846C90.6232 31.3068 90.0359 31.8919 89.3114 31.8919C88.5869 31.8919 87.9995 31.3068 87.9995 30.5846C87.9995 29.8624 88.5869 29.2773 89.3114 29.2773Z" fill="white"/>
<path fill-rule="evenodd" clip-rule="evenodd" d="M93.8275 31.6338C94.7188 31.6338 95.4433 32.4177 95.4433 33.3822C95.4433 34.3466 94.7188 35.1306 93.8275 35.1306C92.9362 35.1306 92.2117 34.3466 92.2117 33.3822C92.2117 32.4177 92.9362 31.6338 93.8275 31.6338Z" fill="white"/>
<path fill-rule="evenodd" clip-rule="evenodd" d="M88.7994 33.4883C89.3411 33.4883 89.7822 33.9385 89.7822 34.4916C89.7822 35.0447 89.3433 35.4949 88.7994 35.4949C88.2555 35.4949 87.8167 35.0447 87.8167 34.4916C87.8167 33.9385 88.2555 33.4883 88.7994 33.4883Z" fill="white"/>
</g>
</g>
<path d="M75.0021 29.794C76.7139 29.3415 79.8038 27.8377 93.8937 26.9623C106.845 26.1556 108.914 31.1196 104.715 34.3444C104.03 34.8701 93.8754 38.6571 83.3852 37.4138C82.2378 37.2766 68.0611 37.0435 75.0021 29.794Z" stroke="black" stroke-width="0.914186" stroke-linecap="round" stroke-linejoin="round"/>
<path fill-rule="evenodd" clip-rule="evenodd" d="M41.1178 32.2251C52.4674 31.7452 63.3393 26.26 73.2194 27.2451C77.171 27.6382 74.417 34.1975 72.0492 35.6853C67.9743 38.2473 55.3448 38.5216 55.0454 38.517C47.9559 38.3776 41.9702 32.977 41.1155 32.2251H41.1178Z" fill="white"/>
<mask id="mask5_5330_42979" style="mask-type:luminance" maskUnits="userSpaceOnUse" x="41" y="27" width="35" height="12">
<path d="M41.118 32.2241C52.4676 31.7442 63.3396 26.2591 73.2196 27.2441C77.1712 27.6372 74.4172 34.1965 72.0495 35.6843C67.9745 38.2463 55.345 38.5206 55.0456 38.516C47.9561 38.3766 41.9705 32.9761 41.1157 32.2241H41.118Z" fill="white"/>
</mask>
<g mask="url(#mask5_5330_42979)">
<path fill-rule="evenodd" clip-rule="evenodd" d="M51.7229 38.1119C49.6522 27.2057 66.9235 26.4172 66.9738 35.879C66.9761 36.2881 67.4652 37.3349 64.0301 37.6C52.7125 38.4753 53.4507 38.3542 51.7252 38.1119H51.7229Z" fill="black"/>
<mask id="mask6_5330_42979" style="mask-type:luminance" maskUnits="userSpaceOnUse" x="51" y="29" width="16" height="10">
<path d="M51.7226 38.1119C49.652 27.2057 66.9233 26.4172 66.9735 35.879C66.9758 36.2881 67.4649 37.3349 64.0299 37.6C52.7122 38.4753 53.4504 38.3542 51.7249 38.1119H51.7226Z" fill="white"/>
</mask>
<g mask="url(#mask6_5330_42979)">
<path d="M57.2809 33.4769C58.0054 33.4769 58.5927 32.9397 58.5927 32.277C58.5927 31.6143 58.0054 31.0771 57.2809 31.0771C56.5563 31.0771 55.969 31.6143 55.969 32.277C55.969 32.9397 56.5563 33.4769 57.2809 33.4769Z" fill="white"/>
<path fill-rule="evenodd" clip-rule="evenodd" d="M61.797 33.2393C62.6883 33.2393 63.4128 33.9592 63.4128 34.8437C63.4128 35.7281 62.6883 36.448 61.797 36.448C60.9056 36.448 60.1812 35.7281 60.1812 34.8437C60.1812 33.9592 60.9056 33.2393 61.797 33.2393Z" fill="white"/>
<path d="M56.7689 36.791C57.3116 36.791 57.7516 36.3776 57.7516 35.8677C57.7516 35.3577 57.3116 34.9443 56.7689 34.9443C56.2261 34.9443 55.7861 35.3577 55.7861 35.8677C55.7861 36.3776 56.2261 36.791 56.7689 36.791Z" fill="white"/>
</g>
</g>
<path d="M41.1178 32.2251C52.4674 31.7452 63.3393 26.26 73.2194 27.2451C77.171 27.6382 74.417 34.1975 72.0492 35.6853C67.9743 38.2473 55.3448 38.5216 55.0454 38.517C47.9559 38.3776 41.9702 32.977 41.1155 32.2251H41.1178Z" stroke="black" stroke-width="0.914186" stroke-linecap="round" stroke-linejoin="round"/>
<path fill-rule="evenodd" clip-rule="evenodd" d="M7.03698 93.4299C7.03698 93.4299 1.4513 89.7549 0.687957 84.4069C0.687957 84.4069 -0.0982423 79.6691 1.02849 74.2183C1.02849 74.2183 2.43177 69.124 2.58261 65.9837C2.58261 65.9837 1.82612 56.8739 4.18015 57.0133C4.18015 57.0133 7.31352 58.6131 10.5612 61.4311C13.8088 64.2468 24.9642 72.3465 37.3217 74.1063C37.3217 74.1063 60.7591 79.3057 61.0608 79.7354C61.2779 80.0462 52.9931 94.6526 50.7419 103.301C50.4425 104.46 49.4186 105.282 48.2233 105.328C42.2491 105.438 24.4888 104.7 7.03698 93.4322V93.4299Z" fill="#1F1818"/>
<path d="M7.03698 93.4299C7.03698 93.4299 1.4513 89.7549 0.687957 84.4069C0.687957 84.4069 -0.0982423 79.6691 1.02849 74.2183C1.02849 74.2183 2.43177 69.124 2.58261 65.9837C2.58261 65.9837 1.82612 56.8739 4.18015 57.0133C4.18015 57.0133 7.31352 58.6131 10.5612 61.4311C13.8088 64.2468 24.9642 72.3465 37.3217 74.1063C37.3217 74.1063 60.7591 79.3057 61.0608 79.7354C61.2779 80.0462 52.9931 94.6526 50.7419 103.301C50.4425 104.46 49.4186 105.282 48.2233 105.328C42.2491 105.438 24.4888 104.7 7.03698 93.4322V93.4299Z" stroke="black" stroke-width="0.843336" stroke-linecap="round" stroke-linejoin="round"/>
<path fill-rule="evenodd" clip-rule="evenodd" d="M12.9105 32.2798C12.4854 32.9883 11.5667 33.2169 10.8605 32.7918C10.152 32.3667 9.92341 31.4479 10.3485 30.7417C10.3485 30.7417 14.6383 23.7048 21.7141 26.4085C21.7895 26.4382 21.8627 26.4725 21.9312 26.5136L36.6976 35.1001C37.4107 35.5161 37.653 36.4302 37.2393 37.1433C36.8256 37.8564 35.9091 38.0986 35.1961 37.685C35.1961 37.685 20.5394 29.1625 20.5371 29.1625C15.7582 27.4255 12.9105 32.2798 12.9105 32.2798Z" fill="black"/>
<path fill-rule="evenodd" clip-rule="evenodd" d="M75.0614 34.8329C74.2912 35.13 73.425 34.746 73.1279 33.9758C72.8307 33.2056 73.2147 32.3394 73.9849 32.0423C77.0223 30.8722 78.7272 30.3419 80.3636 30.3831C82.0115 30.4242 83.6204 31.0367 86.4521 32.3577C87.1995 32.7074 87.524 33.5964 87.1743 34.3438C86.8246 35.0911 85.9356 35.4157 85.1882 35.066C82.8959 33.9964 81.6252 33.4045 80.2905 33.3702C78.9421 33.3359 77.5617 33.8661 75.0614 34.8306V34.8329Z" fill="black"/>
<path fill-rule="evenodd" clip-rule="evenodd" d="M35.9551 35.525C35.9551 35.525 38.8713 34.7662 42.4938 34.9285C46.1163 35.0908 71.5786 32.9287 75.9233 31.6123C75.9233 31.6123 77.3151 32.8602 76.9015 35.509C76.4878 38.1579 72.8333 45.9376 69.0966 48.0357C69.0966 48.0357 55.1621 51.9644 46.2694 49.0047C46.2694 49.0047 37.4338 47.2426 36.5584 42.6808L35.9574 35.5227L35.9551 35.525Z" fill="#1F1818"/>
<mask id="mask7_5330_42979" style="mask-type:luminance" maskUnits="userSpaceOnUse" x="35" y="31" width="42" height="20">
<path d="M35.9551 35.525C35.9551 35.525 38.8713 34.7662 42.4938 34.9285C46.1163 35.0908 71.5786 32.9287 75.9233 31.6123C75.9233 31.6123 77.3151 32.8602 76.9015 35.509C76.4878 38.1579 72.8333 45.9376 69.0966 48.0357C69.0966 48.0357 55.1621 51.9644 46.2694 49.0047C46.2694 49.0047 37.4338 47.2426 36.5584 42.6808L35.9574 35.5227L35.9551 35.525Z" fill="white"/>
</mask>
<g mask="url(#mask7_5330_42979)">
<path d="M39.6233 37.0483C56.938 37.0643 57.8384 36.3307 74.2869 33.9355" stroke="white" stroke-width="0.914186" stroke-linecap="round" stroke-linejoin="round"/>
</g>
<path d="M35.9551 35.525C35.9551 35.525 38.8713 34.7662 42.4938 34.9285C46.1162 35.0908 71.5786 32.9287 75.9233 31.6123C75.9233 31.6123 77.3151 32.8602 76.9015 35.509C76.4878 38.1579 72.8333 45.9376 69.0966 48.0356C69.0966 48.0356 55.1621 51.9644 46.2694 49.0047C46.2694 49.0047 37.4338 47.2426 36.5584 42.6808L35.9574 35.5227L35.9551 35.525Z" stroke="black" stroke-width="0.914186" stroke-linecap="round" stroke-linejoin="round"/>
<path fill-rule="evenodd" clip-rule="evenodd" d="M82.2745 31.9968C82.2745 31.9968 103.388 32.1271 113.377 28.6943C113.377 28.6943 114.168 29.1834 114.337 30.9684C114.504 32.751 115.021 37.5117 113.373 40.2108C111.723 42.9099 106.75 48.0751 99.9663 47.7711C99.9663 47.7711 86.0478 48.6876 81.9934 40.1125C81.9934 40.1125 80.2976 34.8559 82.2768 31.9968H82.2745Z" fill="#1F1818"/>
<mask id="mask8_5330_42979" style="mask-type:luminance" maskUnits="userSpaceOnUse" x="81" y="28" width="34" height="20">
<path d="M82.2743 31.9968C82.2743 31.9968 103.387 32.1271 113.377 28.6943C113.377 28.6943 114.168 29.1834 114.337 30.9684C114.504 32.751 115.02 37.5117 113.373 40.2108C111.722 42.9099 106.749 48.0751 99.966 47.7711C99.966 47.7711 86.0476 48.6876 81.9932 40.1125C81.9932 40.1125 80.2973 34.8559 82.2765 31.9968H82.2743Z" fill="white"/>
</mask>
<g mask="url(#mask8_5330_42979)">
<path d="M84.2239 33.4971C93.72 33.9382 105.026 32.2127 111.803 30.4346" stroke="white" stroke-width="0.914186" stroke-linecap="round" stroke-linejoin="round"/>
</g>
<path d="M82.2745 31.9968C82.2745 31.9968 103.388 32.1271 113.377 28.6943C113.377 28.6943 114.168 29.1834 114.337 30.9684C114.504 32.751 115.021 37.5117 113.373 40.2108C111.723 42.9099 106.75 48.0751 99.9663 47.7711C99.9663 47.7711 86.0478 48.6876 81.9934 40.1125C81.9934 40.1125 80.2976 34.8559 82.2768 31.9968H82.2745Z" stroke="black" stroke-width="0.914186" stroke-linecap="round" stroke-linejoin="round"/>
</svg>
