<svg width="137" height="120" viewBox="0 0 137 120" fill="none" xmlns="http://www.w3.org/2000/svg">
<g clip-path="url(#clip0_5330_42785)">
<path fill-rule="evenodd" clip-rule="evenodd" d="M40.4208 48.0185C40.4208 48.0185 29.526 43.5409 30.2892 39.1884C30.2892 39.1884 30.6776 37.0851 32.5962 36.8986C32.5962 36.8986 39.375 31.0734 41.4936 30.2621L40.8669 28.9702C40.8669 28.9702 34.8302 26.5036 35.8972 22.0184C35.8972 22.0184 31.3562 16.3451 37.9081 9.8739C37.9081 9.8739 37.1257 5.47327 45.1598 5.07915C45.1598 5.07915 55.5875 2.24537 63.8736 3.247C63.8736 3.247 70.0833 -2.26485 79.6228 2.1627C79.6228 2.1627 86.8937 5.90198 89.1931 8.23591C89.1931 8.23591 100.767 2.79136 110.127 6.88631C110.127 6.88631 130.529 12.5808 129.522 35.8182C129.522 35.8182 129.945 37.6292 131.477 39.469C131.477 39.469 142.11 51.7155 130.562 74.03C130.562 74.03 123.946 80.4647 102.399 85.3844C102.399 85.3844 54.8012 92.2285 34.7937 64.0772C34.7937 64.0772 27.1882 58.7442 30.4584 53.6668C30.4584 53.6668 34.8379 48.8182 40.4189 48.0127L40.4208 48.0185Z" fill="#48A92B"/>
<path fill-rule="evenodd" clip-rule="evenodd" d="M40.7766 47.9817C37.3122 46.5879 26.1943 40.9684 31.5851 37.0022C33.2365 35.7872 35.4435 40.3455 41.04 43.2677C60.6746 53.5204 77.1678 53.2801 80.3938 53.2321C92.4191 53.0571 92.3864 53.1244 104.348 52.2477C114.48 51.5056 118.39 58.4844 111.41 63.7943C106.284 67.6932 91.5732 73.0762 86.7112 73.6395C81.5896 74.2336 68.4069 75.7543 62.2241 74.5104C46.2846 71.3017 18.9868 60.0954 34.4304 50.2675C36.374 49.0314 40.2133 48.0778 40.7747 47.9817H40.7766Z" fill="#B38E40"/>
<path fill-rule="evenodd" clip-rule="evenodd" d="M45.8173 50.8252C45.8173 50.8252 36.9545 54.005 35.8606 56.3755C35.8606 56.3755 43.6487 65.4767 67.013 68.3758C67.013 68.3758 98.9574 68.0855 106.665 60.4339C106.665 60.4339 108.949 59.2323 103.239 59.1651C103.239 59.1651 66.7631 61.2606 45.8154 50.8252H45.8173Z" fill="#D48DB5"/>
<path fill-rule="evenodd" clip-rule="evenodd" d="M59.2594 66.8L65.646 68.2034C67.778 68.3322 76.9119 68.3938 89.5082 66.5866C102.104 64.7794 107.088 59.9693 107.088 59.9693C107.488 58.9638 101.426 59.2176 101.426 59.2176C86.8282 60.1539 56.5871 55.2822 56.5871 55.2822C55.4932 55.9205 51.8673 57.5796 52.4076 59.5406C52.892 61.3035 56.7159 64.4584 59.2594 66.8Z" fill="#C93322"/>
<path fill-rule="evenodd" clip-rule="evenodd" d="M59.5056 67.0493C58.0041 66.5475 68.2184 63.1447 78.0828 62.8409C87.7107 62.5429 89.0738 65.0345 90.3869 66.2976C90.3869 66.2976 71.5982 68.72 67.1379 68.2893C67.1379 68.2893 60.6245 67.4223 59.5037 67.0474L59.5056 67.0493Z" fill="#CB89AF"/>
<path fill-rule="evenodd" clip-rule="evenodd" d="M68.0839 30.0084C67.5879 29.1105 64.6407 26.171 67.1457 20.2016C70.0199 13.3536 76.8871 13.5401 87.2706 16.1105C98.4404 18.8751 100.009 24.3254 109.772 27.4303C110.902 27.7898 115.032 31.1311 107.422 31.8386C102.293 32.3154 98.3019 37.3658 86.4266 37.5311C82.2009 37.5907 78.6404 35.9605 73.4304 34.136C70.0026 32.9363 68.3704 30.4448 68.082 30.0084H68.0839Z" fill="white"/>
<path fill-rule="evenodd" clip-rule="evenodd" d="M66.5131 25.6949C66.5131 25.6949 45.2712 30.4858 35.899 22.021C35.899 22.021 31.5426 15.1038 38.3906 9.28053C38.3906 9.28053 53.1132 5.17981 69.2738 16.4592C69.2738 16.4592 65.771 19.4948 66.5131 25.6949Z" fill="white"/>
<path d="M40.7766 47.9817C37.3122 46.5879 26.1943 40.9684 31.5851 37.0022C33.2365 35.7872 35.4435 40.3455 41.04 43.2677C60.6746 53.5204 77.1678 53.2801 80.3938 53.2321C92.4191 53.0571 92.3864 53.1244 104.348 52.2477C114.48 51.5056 118.39 58.4844 111.41 63.7943C106.284 67.6932 91.5732 73.0762 86.7112 73.6395C81.5896 74.2336 68.4069 75.7543 62.2241 74.5104C46.2846 71.3017 18.9868 60.0954 34.4304 50.2675C36.374 49.0314 40.2133 48.0778 40.7747 47.9817H40.7766Z" stroke="black" stroke-width="1.95186" stroke-linecap="round" stroke-linejoin="round"/>
<path d="M45.8173 50.8252C45.8173 50.8252 36.9545 54.005 35.8606 56.3755C35.8606 56.3755 43.6487 65.4767 67.013 68.3758C67.013 68.3758 98.9574 68.0855 106.665 60.4339C106.665 60.4339 108.949 59.2323 103.239 59.1651C103.239 59.1651 66.7631 61.2606 45.8154 50.8252H45.8173Z" stroke="black" stroke-width="1.95186" stroke-linecap="round" stroke-linejoin="round"/>
<path fill-rule="evenodd" clip-rule="evenodd" d="M40.5072 60.0261C40.5072 60.0261 37.8522 57.7249 39.2441 56.2022C40.638 54.6777 46.0998 52.4668 47.9877 51.9958L45.079 50.8711C45.079 50.8711 37.8099 53.8491 35.9932 56.2022C35.9932 56.2022 37.6004 58.5708 40.5072 60.0261Z" fill="black"/>
<path fill-rule="evenodd" clip-rule="evenodd" d="M34.6608 65.0501C22.5336 56.591 30.885 49.0163 34.1071 48.0974C35.8297 47.6052 35.8873 47.8263 37.4599 46.9842C38.079 46.6535 40.1495 47.907 40.2111 47.9378C36.8544 49.2643 32.5325 49.8584 31.6636 55.4933C30.8004 61.0878 33.9321 62.9641 37.162 65.423C35.8796 65.5019 35.8989 65.4769 34.6627 65.0501H34.6608Z" fill="black"/>
<path d="M56.5851 55.2822C55.4912 55.9205 51.8654 57.5796 52.4056 59.5406C52.8901 61.3035 56.714 64.4584 59.2574 66.8" stroke="black" stroke-width="1.95186" stroke-linecap="round" stroke-linejoin="round"/>
<path d="M59.5056 67.0493C60.9533 66.5398 68.2184 63.1447 78.0828 62.8409C87.7108 62.5429 89.0738 65.0345 90.3869 66.2976" stroke="black" stroke-width="1.95186" stroke-linecap="round" stroke-linejoin="round"/>
<path d="M116.785 52.1748C116.975 52.6574 117.821 54.8086 119.275 58.1577" stroke="black" stroke-width="1.95186" stroke-linecap="round" stroke-linejoin="round"/>
<path d="M32.8462 36.6971C33.5883 35.8877 38.0466 31.0199 44.9696 29.4512" stroke="black" stroke-width="1.95186" stroke-linecap="round" stroke-linejoin="round"/>
<path d="M42.4414 30.252C46.0903 32.732 47.5764 34.1643 55.0492 35.3178" stroke="black" stroke-width="1.95186" stroke-linecap="round" stroke-linejoin="round"/>
<path fill-rule="evenodd" clip-rule="evenodd" d="M36.0125 22.4512C36.0125 22.4512 41.334 26.2885 50.5966 26.7095C59.8593 27.1325 65.9421 25.9617 65.9421 25.9617L66.9976 28.459C66.9976 28.459 57.0813 33.6229 55.3491 35.0878C55.3491 35.0878 46.0691 33.3691 42.1626 29.9048C42.1626 29.9048 36.1836 28.0111 36.0125 22.4512Z" fill="black"/>
<path d="M41.4608 29.1592C40.463 28.6901 37.6889 27.577 36.4661 25.3872C35.4953 23.6454 35.9701 22.242 36.0566 21.9844" stroke="black" stroke-width="1.95186" stroke-linecap="round" stroke-linejoin="round"/>
<path fill-rule="evenodd" clip-rule="evenodd" d="M67.5782 28.4363C67.5955 28.4978 67.6186 28.5574 67.6282 28.6209C67.6378 28.6766 67.6936 29.0015 67.4725 29.3226C67.3648 29.4783 67.2341 29.5629 67.2091 29.5783C67.0688 29.6686 67.0611 29.6513 66.3959 29.8955C58.1156 32.9446 52.0059 38.2815 51.0331 39.1255C51.0177 39.1389 50.9331 39.212 50.8005 39.2062C50.7601 39.2062 50.7197 39.1966 50.6813 39.1793C50.664 39.1716 50.5621 39.1255 50.5178 39.0024C50.4736 38.8832 50.5179 38.7794 50.5275 38.7621C50.5448 38.7237 50.5717 38.691 50.5986 38.6583C50.6121 38.641 50.9504 38.3122 50.9812 38.2815C52.8076 36.5012 58.504 31.2566 66.2498 27.9345C66.2748 27.9249 66.3517 27.8903 66.3517 27.8903C66.4132 27.873 66.4728 27.8499 66.5362 27.8403C66.592 27.8307 66.915 27.775 67.236 27.998C67.3917 28.1056 67.4763 28.2383 67.4917 28.2633L67.5782 28.4344V28.4363Z" fill="black"/>
<path fill-rule="evenodd" clip-rule="evenodd" d="M40.5978 30.7584C39.3808 31.4217 40.567 29.4568 39.9922 28.2188C39.9922 28.2188 53.9669 30.3162 60.39 29.6799C60.4458 30.5277 43.0797 30.1701 40.5978 30.7584Z" fill="black"/>
<path d="M65.5364 25.8748C65.5364 25.8748 44.0351 29.8659 36.1374 22.1316C36.1374 22.1316 31.4811 16.1641 38.1233 9.45074C38.1233 9.45074 54.6204 5.2635 68.9739 16.3064" stroke="black" stroke-width="1.95186" stroke-linecap="round" stroke-linejoin="round"/>
<path d="M38.1117 9.37426C38.1117 9.37426 36.8698 5.64266 45.0559 4.91211C45.0559 4.91211 62.6353 6.0214 71.798 15.1687" stroke="black" stroke-width="1.95186" stroke-linecap="round" stroke-linejoin="round"/>
<path d="M45.55 4.88124C45.55 4.88124 56.343 2.20318 63.2449 3.22981C63.2449 3.22981 70.2736 -2.1167 79.6804 2.14166C79.6804 2.14166 86.7802 5.26959 88.8681 8.06492" stroke="black" stroke-width="1.95186" stroke-linecap="round" stroke-linejoin="round"/>
<path d="M70.8599 13.6365C75.943 10.6797 82.3661 11.7236 88.7046 13.1328C95.8121 14.7112 103.41 20.0269 109.22 23.7547" stroke="black" stroke-width="1.95186" stroke-linecap="round" stroke-linejoin="round"/>
<path d="M75.5527 11.7545C83.1851 9.25521 83.3178 9.70508 89.1526 8.61309C91.846 8.10939 98.4249 2.35147 112.213 7.63453C118.225 9.9377 125.309 17.5278 127.607 22.6532C131.819 32.0466 128.424 35.8897 130.141 37.8468C132.59 40.6441 136.385 43.6259 135.439 60.2633C135.389 61.1419 133.914 72.379 129.16 75.5934C128.869 75.7908 126.865 76.7713 123.146 78.5349C123.146 78.5349 96.2428 94.3014 59.073 81.0399C59.073 81.0399 41.6762 76.5335 33.8804 62.8318" stroke="black" stroke-width="1.95186" stroke-linecap="round" stroke-linejoin="round"/>
<path fill-rule="evenodd" clip-rule="evenodd" d="M72.4075 36.4707L78.9113 40.8886C86.7533 46.9965 107.188 43.5455 106.769 42.4036C92.9284 43.0188 81.0722 41.4962 72.4075 36.4726V36.4707Z" fill="black"/>
<path fill-rule="evenodd" clip-rule="evenodd" d="M65.6904 3.26819C65.6904 3.26819 76.4815 -1.76302 87.7282 8.51473L89.3546 8.59355C89.3546 8.59355 82.87 1.32453 74.5321 0.659343C74.5321 0.659343 68.8453 -0.20771 64.5562 2.83178L65.6904 3.26819Z" fill="black"/>
<path fill-rule="evenodd" clip-rule="evenodd" d="M93.3169 7.20315C93.3169 7.20315 102.258 5.30563 110.541 8.13941C110.541 8.13941 126.613 13.6878 128.422 30.8347C128.422 30.8347 127.991 35.3756 128.001 35.7582C128.011 36.1408 129.437 37.5673 129.437 37.5673C129.437 37.5673 129.67 35.4199 129.754 34.4528C129.839 33.4858 129.885 27.2184 128.578 24.4519C127.27 21.6854 120.884 10.4637 111.123 6.909C111.123 6.909 100.467 3.08513 93.3169 7.20507V7.20315Z" fill="black"/>
<path fill-rule="evenodd" clip-rule="evenodd" d="M66.044 75.1449C66.044 75.1449 66.117 78.9976 70.4158 80.947C74.7126 82.8984 91.4634 87.8892 104.981 84.6421C104.981 84.6421 78.3288 88.91 66.7918 83.4194C66.7918 83.4194 64.1599 75.6389 61.8298 74.4297L66.0459 75.1449H66.044Z" fill="black"/>
<path fill-rule="evenodd" clip-rule="evenodd" d="M60.5784 56.0453C60.5784 56.0453 55.3415 57.4891 54.2995 58.7022C54.2995 58.7022 53.5766 59.6307 55.2435 61.1861C56.9103 62.7414 60.9245 65.4329 62.7605 65.3791L59.0673 67.1343L53.1575 60.9803C53.1575 60.9803 51.4157 58.6926 53.4728 57.1142C55.5299 55.5377 57.0814 54.9014 57.0814 54.9014L60.5784 56.0453Z" fill="black"/>
<path fill-rule="evenodd" clip-rule="evenodd" d="M77.7712 62.4931C77.7712 62.4931 87.1416 61.2339 89.8215 62.8392C92.5015 64.4464 94.2049 65.2096 94.2049 65.2096L90.5694 66.4516C90.5694 66.4516 87.4107 62.4066 78.5364 62.4008" fill="black"/>
<path fill-rule="evenodd" clip-rule="evenodd" d="M67.7339 30.1873C71.1348 36.8834 86.2496 38.9751 86.2496 38.9751C91.2078 39.2538 106.109 35.3242 106.109 35.3242C106.109 35.3242 88.9353 43.6583 76.3217 39.1885C73.6052 38.2253 71.0983 36.67 69.022 34.3091C69.022 34.3091 66.2151 27.1939 67.7339 30.1873Z" fill="black"/>
<path fill-rule="evenodd" clip-rule="evenodd" d="M58.4252 7.2807C58.4252 7.2807 56.2085 5.24861 54.2476 4.90063C54.2476 4.90063 59.8325 2.93006 73.8341 7.99011L65.1194 2.40137L63.4256 3.3261C63.4256 3.3261 54.9301 1.83423 47.2112 4.85257C47.2112 4.85257 56.6334 6.28676 58.4233 7.2807H58.4252Z" fill="black"/>
<path fill-rule="evenodd" clip-rule="evenodd" d="M81.353 10.1107C81.353 10.1107 98.1942 10.3202 109.222 14.9689C109.222 14.9689 113.892 16.8914 118.175 20.9344C118.175 20.9344 114.251 15.9397 105.927 12.5946C105.927 12.5946 95.2893 8.52652 91.1232 7.86133L88.1645 8.52459L81.353 10.1107Z" fill="black"/>
<path d="M68.0839 30.0084C67.5879 29.1105 64.6407 26.171 67.1457 20.2016C70.0199 13.3536 76.8871 13.5401 87.2706 16.1105C98.4404 18.8751 100.009 24.3254 109.772 27.4303C110.902 27.7898 115.032 31.1311 107.422 31.8386C102.293 32.3154 98.3019 37.3658 86.4266 37.5311C82.2009 37.5907 78.6404 35.9605 73.4304 34.136C70.0026 32.9363 68.3704 30.4448 68.082 30.0084H68.0839Z" stroke="black" stroke-width="1.95186" stroke-linecap="round" stroke-linejoin="round"/>
<path fill-rule="evenodd" clip-rule="evenodd" d="M47.5763 12.1254C44.5772 13.9576 42.0856 14.5805 44.4061 21.3688C44.9232 22.8799 50.9253 24.7332 53.3381 22.3397C54.7319 20.9594 56.4583 19.4329 53.7552 14.1863C52.5518 11.8505 49.8468 10.9027 47.5744 12.1254H47.5763Z" fill="black"/>
<path fill-rule="evenodd" clip-rule="evenodd" d="M79.769 19.775C79.2095 20.1941 75.4126 23.0451 76.4238 27.5035C77.6388 32.8576 87.9416 35.9837 90.1217 29.4933C90.9522 27.0228 87.509 16.2664 79.769 19.775Z" fill="black"/>
<path fill-rule="evenodd" clip-rule="evenodd" d="M81.1377 24.2793C75.6951 25.477 80.8955 29.5527 82.7065 28.7203C84.4329 27.9282 85.323 24.3812 81.1377 24.2793Z" fill="white"/>
<path fill-rule="evenodd" clip-rule="evenodd" d="M45.6232 17.506C45.4963 17.9463 44.6043 19.5247 47.6265 20.5513C50.4372 21.5049 50.6083 19.1402 50.0238 18.2827C49.3625 17.3099 47.3861 15.7969 45.6232 17.506Z" fill="white"/>
<path d="M40.6667 47.9453C43.8062 49.5102 43.068 49.5891 46.2747 50.9906" stroke="black" stroke-width="1.95186" stroke-linecap="round" stroke-linejoin="round"/>
<path fill-rule="evenodd" clip-rule="evenodd" d="M21.5841 61.4554C33.1941 66.3866 51.9598 66.9192 59.3096 72.4502C73.5227 83.149 61.8223 96.7489 60.4515 98.3407C61.1629 98.8502 72.9421 104.954 64.3658 115.651C58.6751 122.749 47.1343 118.146 25.4503 114.294C23.4662 113.942 5.3408 112.496 4.23536 96.7219C3.86623 91.4639 7.12297 89.947 3.72781 84.2218C-6.85177 66.3828 10.72 64.5622 13.5768 59.4444C15.4244 56.1339 17.9179 46.8827 33.6825 46.6328C31.3447 47.4883 19.3674 50.6547 21.586 61.4535L21.5841 61.4554Z" fill="white"/>
<path d="M21.5841 61.4554C33.1941 66.3866 51.9598 66.9192 59.3096 72.4502C73.5227 83.149 61.8223 96.7489 60.4515 98.3407C61.1629 98.8502 72.9421 104.954 64.3658 115.651C58.6751 122.749 47.1343 118.146 25.4503 114.294C23.4662 113.942 5.3408 112.496 4.23536 96.7219C3.86623 91.4639 7.12297 89.947 3.72781 84.2218C-6.85177 66.3828 10.72 64.5622 13.5768 59.4444C15.4244 56.1339 17.9179 46.8827 33.6825 46.6328C31.3447 47.4883 19.3674 50.6547 21.586 61.4535L21.5841 61.4554Z" stroke="black" stroke-width="1.4658" stroke-linecap="round" stroke-linejoin="round"/>
<path fill-rule="evenodd" clip-rule="evenodd" d="M21.7262 67.9572C21.7262 67.9572 20.1112 63.1048 17.4505 65.3118C17.4505 65.3118 15.5395 67.3497 14.8859 68.8992L12.9153 71.3504L13.6458 72.5289C13.6458 72.5289 12.8845 76.7565 13.3786 76.9392C13.8727 77.1218 14.1611 76.4874 14.3379 75.9779C14.5167 75.4665 15.2838 73.3191 16.52 72.6462C17.7562 71.9714 18.3425 71.5869 18.3425 71.5869C18.3425 71.5869 15.6203 71.2716 16.1663 69.3587C16.7122 67.4458 17.9715 65.977 19.3788 66.4288C20.786 66.8825 21.7242 67.9572 21.7242 67.9572H21.7262Z" fill="black"/>
<path fill-rule="evenodd" clip-rule="evenodd" d="M23.7948 75.276C24.9521 75.1068 25.7442 74.4839 25.7442 74.4839C25.7442 74.4839 25.204 73.0594 24.3715 72.9844C23.7929 72.9325 23.4949 73.5708 23.1988 74.3148C22.9047 75.0588 23.7929 75.276 23.7929 75.276H23.7948ZM23.2007 78.2386L24.881 78.2444C25.8557 78.3059 26.0537 78.5385 25.725 78.848C25.3982 79.1576 24.2485 79.3402 22.201 79.0345C20.1516 78.7289 21.2032 76.3276 21.4743 75.1414C21.7454 73.9553 22.6336 73.0036 22.6336 73.0036C24.6388 71.0965 26.1249 73.1959 26.1249 73.1959C26.7189 73.9187 26.7977 75.0703 26.7651 75.5106C26.7324 75.9508 26.1037 76.2488 25.6135 76.5007C25.1232 76.7544 24.2831 76.2892 23.9197 76.4238C23.5564 76.5583 22.9373 76.791 22.6893 77.3658C22.4413 77.9406 23.2007 78.2386 23.2007 78.2386Z" fill="black"/>
<path fill-rule="evenodd" clip-rule="evenodd" d="M32.6249 79.1326C32.9325 77.2735 37.3274 78.3924 36.3815 76.0104C35.1377 72.8825 29.2586 75.2318 30.2064 77.6292C30.5313 78.4482 31.9636 81.1762 34.0149 81.282C35.774 81.3723 36.7449 80.7744 36.5795 80.5783C36.0355 79.9324 34.7301 80.5149 33.3651 80.0938C33.3651 80.0938 32.5096 79.8324 32.6249 79.1326Z" fill="black"/>
<path fill-rule="evenodd" clip-rule="evenodd" d="M44.1909 70.6982C43.3392 73.7262 43.8602 73.8877 42.3203 76.6407C41.9319 77.3348 40.763 82.2006 41.4898 84.5057C42.9797 82.8216 43.0297 79.1323 43.8122 76.4485C44.4562 74.2395 44.0851 74.1761 44.5831 71.9344C44.8522 70.7175 44.3043 70.7117 44.1909 70.6982Z" fill="black"/>
<path fill-rule="evenodd" clip-rule="evenodd" d="M43.3622 94.0804C44.4504 95.9972 49.5777 95.4723 46.9285 92.3329C45.1117 90.1797 42.4952 91.8638 43.3622 94.0804ZM54.3571 78.8599C54.1763 79.1464 54.0898 79.1637 54.0514 79.1733C54.0379 79.1791 54.0225 79.1791 54.0091 79.1733C53.7976 79.0483 51.3849 77.3623 50.6889 78.3658C49.9045 79.4982 54.0014 82.8414 52.6057 84.5679C51.8328 85.5233 51.4175 85.012 49.9757 85.1139C50.6639 87.4343 50.0852 87.4324 49.5681 92.0599C48.9894 97.2411 49.249 97.4641 48.4415 97.862C47.8051 97.0065 47.3168 96.3221 46.1806 96.1991C39.373 95.4647 42.2299 91.8503 42.8008 91.3851C44.9521 89.6356 47.1246 90.1412 47.288 90.1182C50.9004 89.6183 46.9419 83.6028 47.1169 83.0414C47.4226 82.059 48.5088 84.8389 50.1199 83.7758C51.9039 82.5992 49.2336 79.8904 49.1759 79.8096C47.5456 77.518 52.3576 75.1822 54.3571 78.8138C54.3648 78.8292 54.3648 78.8465 54.3551 78.8599H54.3571Z" fill="black"/>
<path fill-rule="evenodd" clip-rule="evenodd" d="M18.331 83.6386C15.8702 82.2332 14.5552 85.7879 15.6241 86.8588C18.1234 89.3638 21.086 85.8206 18.331 83.6386ZM20.019 82.612C21.234 80.4184 21.1148 83.4732 20.7938 85.5707C19.7825 92.1515 19.275 93.6183 19.0424 94.2912C18.9193 94.645 17.6312 98.365 14.959 96.9866C12.1213 95.5216 13.0326 90.6346 14.2572 91.5939C14.661 91.9111 14.3687 91.9765 14.0688 93.1127C13.9804 93.4472 13.9727 94.4892 14.711 94.9776C17.589 96.8808 19.1866 89.9829 19.1385 89.3677C19.0539 88.3199 18.5406 88.7582 18.4252 88.7909C15.9279 89.5311 12.452 86.3416 14.7609 83.6559C17.2525 80.7587 19.1116 82.1506 20.019 82.612Z" fill="black"/>
<path fill-rule="evenodd" clip-rule="evenodd" d="M26.2155 86.0221C23.4221 89.7633 26.9922 90.3343 28.2399 89.45C30.3662 87.9427 27.8477 85.3358 26.2155 86.0221ZM26.0559 85.0186C26.1021 84.9955 27.6016 83.9785 28.8494 84.9974C31.0026 86.7546 31.0179 89.1308 29.3857 90.0921C24.2257 93.1316 21.3996 87.8043 26.0579 85.0186H26.0559Z" fill="black"/>
<path fill-rule="evenodd" clip-rule="evenodd" d="M35.4241 87.8664C31.6233 89.1487 34.5974 91.8671 37.6984 91.077C40.0746 90.4714 39.6171 87.1839 35.4241 87.8664ZM37.2639 86.1592C37.7272 86.2438 39.5267 85.9746 40.2342 88.9449C40.5168 90.133 40.7552 91.9094 35.2645 92.4016C31.6771 92.7246 29.8565 87.4415 37.2639 86.1611V86.1592Z" fill="black"/>
<path fill-rule="evenodd" clip-rule="evenodd" d="M23.7123 100.684C22.8125 102.704 23.0106 102.754 22.3358 105.569C21.8321 104.846 21.5879 104.763 21.7801 100.551C21.8801 98.3538 22.8433 98.942 22.9048 98.9363C23.4143 98.8824 24.6408 98.1057 26.7979 99.7726C27.4343 100.265 27.5112 101.128 28.8338 100.872C28.8761 100.865 31.51 100.04 33.1691 101.682C34.7706 103.266 33.6613 108.662 33.2037 108.401C31.7388 107.565 33.8516 102.391 31.2312 102.362C29.2337 102.339 27.888 106.115 27.2401 107.12C25.977 106.64 27.2382 104.79 26.3442 102.003C25.5733 99.5938 23.9064 100.568 23.7123 100.686V100.684Z" fill="black"/>
<path fill-rule="evenodd" clip-rule="evenodd" d="M42.2299 106.69C38.1273 106.436 39.2116 108.086 39.425 108.241C40.0248 108.678 42.4087 109.183 42.972 108.137C43.5353 107.094 42.3645 106.736 42.2299 106.69ZM43.7064 105.031C43.2623 102.553 41.3398 103.216 38.929 103.154C39.946 101.093 45.1118 100.678 44.7946 106.361C44.6927 108.197 43.891 110.25 43.2258 110.052C42.5818 109.86 38.3657 110.456 38.1869 107.709C38.0177 105.115 42.401 105.917 43.7045 105.029L43.7064 105.031Z" fill="black"/>
<path fill-rule="evenodd" clip-rule="evenodd" d="M49.0549 104.017C48.9453 104.709 48.0764 110.519 48.9261 112.768C50.1969 110.942 50.1738 106.358 53.5978 106.014C56.5989 105.712 54.4207 109.957 54.5302 113.053C56.074 112.362 57.2256 107.349 55.8933 105.985C54.907 104.976 53.5075 104.938 53.2268 104.876C51.0409 104.405 50.2084 103.563 49.053 104.017H49.0549Z" fill="black"/>
</g>
<defs>
<clipPath id="clip0_5330_42785">
<rect width="136.083" height="119.73" fill="white"/>
</clipPath>
</defs>
</svg>
