<svg width="141" height="115" viewBox="0 0 141 115" fill="none" xmlns="http://www.w3.org/2000/svg">
<g clip-path="url(#clip0_5166_108952)">
<path fill-rule="evenodd" clip-rule="evenodd" d="M21.5091 32.1074C21.5091 32.1074 27.0464 2.72616 56.085 0.983399C56.085 0.983399 69.1483 0.961056 75.8177 7.50759C75.8177 7.50759 89.5364 -2.95271 107.456 5.50416C107.456 5.50416 115.071 10.7734 116.951 15.9123C116.951 15.9123 125.427 18.6121 129.944 23.3749C129.944 23.3749 136.561 25.7507 136.055 30.8524L138.222 43.9865C138.222 43.9865 141.425 47.7587 131.218 51.3522C131.218 51.3522 131.314 52.5662 128.16 55.9363C128.16 55.9363 134.796 60.7661 134.487 70.8057L130.745 80.1637L122.452 100.433C122.452 100.433 109.433 120.065 59.336 112.77C59.336 112.77 17.0702 110.584 4.88577 86.4458C4.88577 86.4458 -11.1194 58.1632 21.5053 32.1111L21.5091 32.1074Z" fill="#8FCA92"/>
<mask id="mask0_5166_108952" style="mask-type:luminance" maskUnits="userSpaceOnUse" x="0" y="0" width="139" height="115">
<path d="M21.5091 32.1074C21.5091 32.1074 27.0464 2.72616 56.085 0.983399C56.085 0.983399 69.1483 0.961056 75.8177 7.50759C75.8177 7.50759 89.5364 -2.95271 107.456 5.50416C107.456 5.50416 115.071 10.7734 116.951 15.9123C116.951 15.9123 125.427 18.6121 129.944 23.3749C129.944 23.3749 136.561 25.7507 136.055 30.8524L138.222 43.9865C138.222 43.9865 141.425 47.7587 131.218 51.3522C131.218 51.3522 131.314 52.5662 128.16 55.9363C128.16 55.9363 134.796 60.7661 134.487 70.8057L130.745 80.1637L122.452 100.433C122.452 100.433 109.433 120.065 59.336 112.77C59.336 112.77 17.0702 110.584 4.88577 86.4458C4.88577 86.4458 -11.1194 58.1632 21.5053 32.1111L21.5091 32.1074Z" fill="white"/>
</mask>
<g mask="url(#mask0_5166_108952)">
<path fill-rule="evenodd" clip-rule="evenodd" d="M28.7855 105.348C28.7855 105.348 -2.89328 73.8218 30.5469 40.9885C30.5469 40.9885 29.4633 18.4741 45.8184 9.17939C45.8184 9.17939 56.5729 2.43549 67.454 3.35528C67.454 3.35528 58.8408 -1.26602 47.8368 3.10951C47.8368 3.10951 29.076 8.21118 22.5816 31.2283C22.5816 31.2283 1.2104 45.6024 1.76526 70.7943C1.76526 70.7943 0.651827 94.4445 28.7818 105.352L28.7855 105.348Z" fill="#C3EBA4"/>
<path fill-rule="evenodd" clip-rule="evenodd" d="M80.5657 12.2476C80.5657 12.2476 94.2323 2.71085 103.87 2.51349C103.87 2.51349 88.9481 -2.46158 75.7471 7.30981C75.7471 7.30981 80.1896 10.8326 80.5657 12.2476Z" fill="#C3EBA4"/>
<path fill-rule="evenodd" clip-rule="evenodd" d="M41.8452 21.7359C41.8452 21.7359 48.3135 21.4268 54.51 20.0453C60.7065 18.6637 76.7079 17.1816 82.2081 19.3638C82.2081 19.3638 66.1992 9.10087 41.8452 21.7396V21.7359Z" fill="#C3EBA4"/>
<path fill-rule="evenodd" clip-rule="evenodd" d="M87.2466 19.0622C87.2466 19.0622 111.921 11.4916 126.943 19.3229C126.943 19.3229 112.234 16.3736 96.6866 19.4793C96.6866 19.4793 90.6651 20.9093 87.2466 19.0622Z" fill="#C3EBA4"/>
</g>
<path fill-rule="evenodd" clip-rule="evenodd" d="M31.3438 76.5583C31.3438 76.5583 31.8465 71.7396 40.3108 71.3672C40.3108 71.3672 50.4955 72.1194 58.0028 73.0169C65.5101 73.9143 85.4476 76.2194 86.3786 76.0406C87.3095 75.8619 112.866 77.1429 130.64 70.8086C130.64 70.8086 139.228 66.839 138.323 73.8324C138.323 73.8324 137.328 77.0349 131.389 80.1443C131.389 80.1443 140.728 90.7946 122.921 99.5791C122.921 99.5791 93.1113 110.241 52.7485 95.4345C52.7485 95.4345 33.1759 90.586 31.3438 76.5583Z" fill="#E9585D"/>
<path fill-rule="evenodd" clip-rule="evenodd" d="M48.7415 74.6553C36.5086 70.7415 36.5384 74.9234 36.9704 75.765C37.9907 77.7461 42.4668 76.4651 46.1683 76.7965C46.5742 76.8338 51.5046 77.3551 48.7415 74.6553Z" fill="#F6745C"/>
<path fill-rule="evenodd" clip-rule="evenodd" d="M127.978 74.2532C117.718 76.6588 113.253 76.8413 114.304 79.3623C115.253 81.6413 132.696 77.8653 134.252 74.3128C135.641 71.1475 128.413 74.0893 127.978 74.2532Z" fill="#F6745C"/>
<path fill-rule="evenodd" clip-rule="evenodd" d="M79.3815 97.4717C78.2047 96.82 77.2477 95.8965 78.4728 95.2895C81.1652 93.9564 81.9472 96.5929 95.1855 95.6209C105.158 94.8873 109.403 96.4663 121.629 92.9882C127.185 91.4093 125.546 94.8538 125.032 95.3454C122.56 97.71 118.821 98.5479 94.6344 99.0506C91.4952 99.1176 90.2253 98.6112 79.3777 97.4717H79.3815Z" fill="#F6745C"/>
<path fill-rule="evenodd" clip-rule="evenodd" d="M42.6791 78.8525C42.6791 78.8525 87.1382 88.5495 122.355 82.1742C122.355 82.1742 129.735 84.7809 120.969 89.5884C120.969 89.5884 87.5516 100.611 44.9842 81.3624C44.9842 81.3624 42.4929 80.4017 42.6791 78.8525Z" fill="#832122"/>
<path fill-rule="evenodd" clip-rule="evenodd" d="M107.024 83.5038C88.5312 84.5688 70.7907 83.1388 53.2849 80.9492C53.2849 80.9492 77.8102 93.2305 94.6681 92.4261C103.922 91.3239 108.156 88.3932 107.024 83.5038Z" fill="#B3383B"/>
<path fill-rule="evenodd" clip-rule="evenodd" d="M44.9617 41.8079C44.9617 41.8079 67.3383 28.3984 82.3454 29.4187C82.3454 29.4187 92.195 30.0257 94.3251 34.0623C94.3251 34.0623 98.3059 40.8211 93.759 46.6341C93.759 46.6341 86.5385 57.0199 66.0014 52.1826C66.0014 52.1826 48.6073 45.8632 44.9654 41.8079H44.9617Z" fill="#D4D2D3"/>
<path fill-rule="evenodd" clip-rule="evenodd" d="M134.644 30.9339C134.644 30.9339 140.591 32.0249 139.987 38.281C139.987 38.281 139.835 43.7178 134.245 46.7528C134.245 46.7528 116.151 52.953 95.1409 46.3469C95.1409 46.3469 97.2746 41.6288 95.2265 36.8213C95.2265 36.8213 111.898 26.5621 134.64 30.9376L134.644 30.9339Z" fill="#D4D2D3"/>
<path fill-rule="evenodd" clip-rule="evenodd" d="M67.7816 35.1232C67.4986 34.7248 67.0182 34.5125 66.5341 34.5684C63.9348 34.8365 54.0927 35.8755 57.6564 37.9645C60.5014 39.6328 69.4312 37.473 67.7816 35.1232Z" fill="white"/>
<path fill-rule="evenodd" clip-rule="evenodd" d="M86.9185 30.8857C89.5103 33.0381 90.8323 34.6766 90.7615 40.6497C90.7317 43.2154 89.3651 44.9061 91.1265 45.1109C95.2413 45.5838 95.3568 39.5549 94.9732 36.7359C94.2247 31.2283 87.6894 30.949 86.9148 30.8857H86.9185Z" fill="white"/>
<path fill-rule="evenodd" clip-rule="evenodd" d="M86.9111 50.6332C89.6147 48.0824 90.7579 46.1274 91.633 47.2631C92.8097 48.7974 87.9017 51.6461 86.9111 50.6332Z" fill="white"/>
<path fill-rule="evenodd" clip-rule="evenodd" d="M109.507 34.3448C109.764 35.1678 108.297 36.3594 106.234 36.9962C104.171 37.6367 102.291 37.4878 102.034 36.6648C101.777 35.8418 103.244 34.6502 105.307 34.0134C107.37 33.3766 109.25 33.5219 109.507 34.3448Z" fill="white"/>
<path fill-rule="evenodd" clip-rule="evenodd" d="M130.852 30.5019C139.112 36.5085 132.938 40.6047 135.142 42.3177C136.587 43.4386 139.756 40.0536 139.603 35.9946C139.566 35.086 136.777 28.748 130.852 30.5056V30.5019Z" fill="white"/>
<path fill-rule="evenodd" clip-rule="evenodd" d="M134.103 45.684C134.312 45.4605 136.896 42.0569 136.837 43.6731C136.818 44.2019 135.369 46.0861 134.103 45.684Z" fill="white"/>
<path d="M20.3433 40.3778C22.4956 9.16073 48.1195 -2.84125 65.0258 1.65716C80.8894 5.88001 82.4236 19.0029 82.7066 19.8147" stroke="black" stroke-width="1.48954" stroke-linecap="round" stroke-linejoin="round"/>
<path d="M75.7209 7.02697C100.473 -4.80371 112.84 5.91726 117.272 16.0648" stroke="black" stroke-width="1.48954" stroke-linecap="round" stroke-linejoin="round"/>
<path d="M41.1523 21.6318C58.2709 15.3683 74.9165 10.9444 85.5705 23.0432" stroke="black" stroke-width="1.48954" stroke-linecap="round" stroke-linejoin="round"/>
<path d="M83.7048 20.8535C91.7037 18.5335 117.045 8.90737 130.678 23.5384" stroke="black" stroke-width="1.48954" stroke-linecap="round" stroke-linejoin="round"/>
<path d="M21.6767 31.4697C21.6767 31.4697 -1.0835 46.03 0.864072 72.3688C0.864072 72.3688 0.141644 91.2264 25.0505 104.189C27.8806 105.668 30.8709 106.814 33.9617 107.619C48.8645 111.462 102.574 123.278 122.668 100.138" stroke="black" stroke-width="1.48954" stroke-linecap="round" stroke-linejoin="round"/>
<path d="M24.2795 82.3267C23.6948 79.4034 21.5089 74.4507 26.659 67.9414" stroke="black" stroke-width="1.48954" stroke-linecap="round" stroke-linejoin="round"/>
<path d="M51.9402 58.9517C67.3346 60.9775 72.5443 61.3685 86.4156 56.9482" stroke="black" stroke-width="1.48954" stroke-linecap="round" stroke-linejoin="round"/>
<path d="M109.459 58.6767C118.072 59.2353 125.326 59.9651 131.355 51.9961" stroke="black" stroke-width="1.48954" stroke-linecap="round" stroke-linejoin="round"/>
<path d="M128.361 55.9395C133.493 60.0767 134.282 65.48 134.93 69.0176" stroke="black" stroke-width="1.48954" stroke-linecap="round" stroke-linejoin="round"/>
<path d="M94.3364 27.7686C112.81 18.6042 136.874 20.8832 136.055 30.0029" stroke="black" stroke-width="1.48954" stroke-linecap="round" stroke-linejoin="round"/>
<path d="M96.5781 31.1495C102.246 28.4981 111.351 24.0444 126.045 26.2415" stroke="black" stroke-width="1.48954" stroke-linecap="round" stroke-linejoin="round"/>
<path d="M102.547 52.4615C138.807 55.6118 138.445 46.5629 138.639 43.9785" stroke="black" stroke-width="1.48954" stroke-linecap="round" stroke-linejoin="round"/>
<path d="M95.8372 48.5176C104.689 53.7086 104.912 54.1816 111.109 62.5826" stroke="black" stroke-width="1.48954" stroke-linecap="round" stroke-linejoin="round"/>
<path d="M48.0449 50.2938C55.8613 53.392 65.0071 57.9351 80.5355 56.0844C92.1279 54.7028 94.1425 51.478 94.6825 47.0205" stroke="black" stroke-width="1.48954" stroke-linecap="round" stroke-linejoin="round"/>
<path d="M94.7979 33.9017C94.8649 33.4251 99.7245 17.7439 66.3551 25.3331C59.2016 26.9605 31.9802 40.8169 39.1859 43.1406C43.5428 44.5482 52.1151 35.246 70.1422 30.9673C90.2399 26.1971 94.4851 33.3916 94.8724 33.8384" stroke="black" stroke-width="1.48954" stroke-linecap="round" stroke-linejoin="round"/>
<path d="M52.5735 34.1548C62.3449 29.0345 65.3351 27.7013 74.3692 26.6475" stroke="black" stroke-width="1.48954" stroke-linecap="round" stroke-linejoin="round"/>
<path d="M81.3477 26.5028C86.278 26.3464 86.3227 26.041 90.9664 27.6907" stroke="black" stroke-width="1.48954" stroke-linecap="round" stroke-linejoin="round"/>
<path d="M44.4519 41.9978C46.1798 43.0182 69.048 59.0568 87.0528 51.1474C96.7199 46.9022 97.1556 43.4092 94.7537 34.0586" stroke="black" stroke-width="1.48954" stroke-linecap="round" stroke-linejoin="round"/>
<path d="M95.7513 36.1923C96.1349 36.021 109.124 27.6461 132.684 30.3235C144.411 31.6567 139.76 42.7649 136.822 45.2599C132.204 49.1774 119.048 48.8944 116.46 48.9987C105.24 49.4455 102.428 48.4922 95.0103 46.1015" stroke="black" stroke-width="1.48954" stroke-linecap="round" stroke-linejoin="round"/>
<path d="M122.656 81.8166C130.681 87.421 116.758 90.7091 116.758 90.7091C82.4015 98.5515 43.9899 80.8335 43.9899 80.8335C40.9475 79.1726 42.5562 78.5694 42.5562 78.5694C87.6298 89.2829 126.187 81.1909 126.187 81.1909C137.254 79.0758 138.736 73.2368 138.736 73.2368C137.965 63.5734 127.792 77.1245 90.0428 75.9627C71.6693 75.3966 41.063 68.7682 35.0266 72.2053C19.6992 80.934 53.3256 103.452 98.0528 103.173C102.462 103.147 128.008 104.506 133.463 89.6888C135.068 85.3281 131.959 80.759 131.504 80.0365" stroke="black" stroke-width="1.48954" stroke-linecap="round" stroke-linejoin="round"/>
<path d="M53.2849 80.9492C53.2849 80.9492 77.8102 93.2305 94.6681 92.4261C94.6681 92.4261 109.042 90.7132 107.024 83.5038" stroke="black" stroke-width="1.48954" stroke-linecap="round" stroke-linejoin="round"/>
<path fill-rule="evenodd" clip-rule="evenodd" d="M79.3775 32.4346C84.6058 32.4346 88.851 36.4712 88.851 41.4426C88.851 46.4139 84.6058 50.4506 79.3775 50.4506C74.1492 50.4506 69.9041 46.4139 69.9041 41.4426C69.9041 36.4712 74.1492 32.4346 79.3775 32.4346Z" fill="black"/>
<mask id="mask1_5166_108952" style="mask-type:luminance" maskUnits="userSpaceOnUse" x="69" y="32" width="20" height="19">
<path d="M79.3775 32.4346C84.6058 32.4346 88.851 36.4712 88.851 41.4426C88.851 46.4139 84.6058 50.4506 79.3775 50.4506C74.1492 50.4506 69.9041 46.4139 69.9041 41.4426C69.9041 36.4712 74.1492 32.4346 79.3775 32.4346Z" fill="white"/>
</mask>
<g mask="url(#mask1_5166_108952)">
<path fill-rule="evenodd" clip-rule="evenodd" d="M74.8605 35.7113C75.866 34.8474 77.4747 35.0671 78.4503 36.2029C79.426 37.3386 79.3999 38.9622 78.3944 39.8262C77.389 40.6901 75.7803 40.4667 74.8047 39.3309C73.829 38.1951 73.8551 36.5715 74.8605 35.7076V35.7113Z" fill="white"/>
<path fill-rule="evenodd" clip-rule="evenodd" d="M77.9143 45.2705C77.0652 45.3785 76.3912 46.0376 76.2572 46.8792C75.7731 49.7652 78.9048 49.3928 79.5677 48.2272C80.1188 47.2553 79.6086 45.0508 77.9143 45.2667V45.2705Z" fill="white"/>
<path fill-rule="evenodd" clip-rule="evenodd" d="M83.1427 39.7739C80.0891 42.4514 83.4927 44.7304 86.1255 42.9466C87.5666 41.971 87.4214 36.8805 83.1427 39.7739Z" fill="white"/>
</g>
<path fill-rule="evenodd" clip-rule="evenodd" d="M123.527 31.3506C128.756 31.3506 133.001 35.3872 133.001 40.3586C133.001 45.3299 128.756 49.3666 123.527 49.3666C118.299 49.3666 114.054 45.3299 114.054 40.3586C114.054 35.3872 118.299 31.3506 123.527 31.3506Z" fill="black"/>
<mask id="mask2_5166_108952" style="mask-type:luminance" maskUnits="userSpaceOnUse" x="114" y="31" width="20" height="19">
<path d="M123.527 31.3506C128.756 31.3506 133.001 35.3872 133.001 40.3586C133.001 45.3299 128.756 49.3666 123.527 49.3666C118.299 49.3666 114.054 45.3299 114.054 40.3586C114.054 35.3872 118.299 31.3506 123.527 31.3506Z" fill="white"/>
</mask>
<g mask="url(#mask2_5166_108952)">
<path fill-rule="evenodd" clip-rule="evenodd" d="M119.011 34.6271C120.016 33.7631 121.625 33.9828 122.6 35.1223C123.576 36.2581 123.55 37.8817 122.545 38.7457C121.539 39.6096 119.93 39.3862 118.955 38.2504C117.979 37.1146 118.005 35.491 119.011 34.6271Z" fill="white"/>
<path fill-rule="evenodd" clip-rule="evenodd" d="M122.064 44.1867C121.215 44.2947 120.541 44.9538 120.407 45.7991C119.923 48.6851 123.055 48.3127 123.718 47.1471C124.269 46.1752 123.759 43.9707 122.064 44.1867Z" fill="white"/>
<path fill-rule="evenodd" clip-rule="evenodd" d="M127.293 38.6938C124.239 41.3713 127.643 43.6503 130.275 41.8666C131.717 40.8909 131.568 35.8004 127.293 38.6938Z" fill="white"/>
</g>
</g>
<defs>
<clipPath id="clip0_5166_108952">
<rect width="141" height="114.806" fill="white"/>
</clipPath>
</defs>
</svg>
