<svg width="110" height="89" viewBox="0 0 110 89" fill="none" xmlns="http://www.w3.org/2000/svg">
<g clip-path="url(#clip0_5330_42839)">
<path fill-rule="evenodd" clip-rule="evenodd" d="M17.4636 25.4576C17.4636 25.4576 19.3002 4.36028 41.668 1.03811C41.668 1.03811 54.4525 -1.25577 61.8038 6.95078C61.8038 6.95078 76.9538 -0.412871 82.8541 2.35313C82.8541 2.35313 89.7258 3.30233 92.5709 16.2721C92.5709 16.2721 102.3 18.4721 103.015 22.6817C103.015 22.6817 107.231 24.5726 106.742 27.4202C106.742 27.4202 110.442 28.4683 108.524 31.3801L107.583 37.4189C107.583 37.4189 108.702 39.5694 105.415 40.4667C105.415 40.4667 103.531 41.0475 102.436 43.0077C102.436 43.0077 98.9038 47.0838 95.6434 47.2692C95.6434 47.2692 101.865 53.9185 102.273 56.6474L102.513 62.0311C102.513 62.0311 94.3902 75.3544 90.6874 78.3256C90.6874 78.3256 82.3745 87.0265 64.1594 87.469C64.1594 87.469 32.0204 88.1215 19.8267 84.4731C19.8267 84.4731 2.97857 82.1668 1.52512 69.333C1.52512 69.333 -5.40596 33.9162 17.4612 25.4625L17.4636 25.4576Z" fill="#48A92B"/>
<path d="M16.3635 33.8178C17.1941 0.156052 44.822 -0.207313 49.605 0.722104C64.2038 3.55485 64.5968 12.9454 65.3161 16.7793" stroke="black" stroke-width="0.988742" stroke-linecap="round" stroke-linejoin="round"/>
<path d="M62.4514 6.5235C74.6327 1.67373 88.0425 -3.99177 92.8157 16.4258" stroke="black" stroke-width="0.988742" stroke-linecap="round" stroke-linejoin="round"/>
<path d="M33.0413 16.942C50.6359 6.45391 63.8925 15.1845 68.7052 21.1219" stroke="black" stroke-width="0.988742" stroke-linecap="round" stroke-linejoin="round"/>
<path d="M65.4001 16.9571C69.9904 15.3504 71.7751 12.9132 90.5439 16.0722C102.443 18.0744 103.187 21.933 103.41 23.0849" stroke="black" stroke-width="0.988742" stroke-linecap="round" stroke-linejoin="round"/>
<path d="M95.354 47.6602C102.241 54.2872 102.589 55.4687 102.52 62.2194" stroke="black" stroke-width="0.988742" stroke-linecap="round" stroke-linejoin="round"/>
<path d="M77.4802 46.6614C79.4478 47.1829 96.4715 51.6916 102.584 42.5408C104.873 39.1148 108.643 41.1714 107.585 37.1299" stroke="black" stroke-width="0.988742" stroke-linecap="round" stroke-linejoin="round"/>
<path d="M81.4575 47.7266C82.8937 49.1528 82.7651 49.3234 86.0181 50.6705" stroke="black" stroke-width="0.988742" stroke-linecap="round" stroke-linejoin="round"/>
<path d="M91.2733 78.303C86.4656 81.9515 78.8844 89.3794 44.1969 87.6763C4.03664 85.7062 2.556 74.8375 1.25086 68.2277C-0.860106 57.5493 0.561212 29.7212 17.1721 25.4004" stroke="black" stroke-width="0.988742" stroke-linecap="round" stroke-linejoin="round"/>
<path fill-rule="evenodd" clip-rule="evenodd" d="M103.605 61.893C97.8162 64.0164 94.4075 67.5437 70.6901 66.2138C59.1688 65.5687 29.7537 55.4118 31.5136 68.525C32.4876 75.7799 43.381 71.3034 69.1699 76.7217C70.957 77.0974 103.865 82.5973 100.711 70.9722C100.078 68.6387 107.793 66.1941 104.985 62.4937C104.582 61.9623 104.255 61.6533 103.605 61.8906V61.893Z" fill="#E9585D"/>
<path d="M103.605 61.893C97.8162 64.0164 94.4075 67.5437 70.6901 66.2138C59.1688 65.5687 29.7537 55.4118 31.5136 68.525C32.4876 75.7799 43.381 71.3034 69.1699 76.7217C70.957 77.0974 103.865 82.5973 100.711 70.9722C100.078 68.6387 107.793 66.1941 104.985 62.4937C104.582 61.9623 104.255 61.6533 103.605 61.8906V61.893Z" stroke="black" stroke-width="0.988742" stroke-linecap="round" stroke-linejoin="round"/>
<path d="M38.2051 66.9931C49.9934 66.2392 49.8475 67.7445 65.042 70.3869C66.7723 70.6885 86.0355 73.6523 100.825 70.0854" stroke="black" stroke-width="0.988742" stroke-linecap="round" stroke-linejoin="round"/>
<path d="M52.8186 50.7967C57.1073 50.0675 58.5063 49.6992 65.8552 45.2598" stroke="black" stroke-width="0.988742" stroke-linecap="round" stroke-linejoin="round"/>
<path d="M27.1013 71.2959C27.608 76.5486 30.5446 77.3297 35.0508 77.74" stroke="black" stroke-width="0.988742" stroke-linecap="round" stroke-linejoin="round"/>
<path d="M73.6836 25.0643C83.0791 19.7251 107.199 19.8141 106.97 27.415" stroke="black" stroke-width="0.988742" stroke-linecap="round" stroke-linejoin="round"/>
<path d="M73.9231 26.9561C75.7275 26.3159 77.9967 24.5608 91.2088 24.2791C98.4909 24.1233 103.113 25.4334 107.619 27.9201C109.303 28.8495 109.671 29.3933 109.004 30.7776" stroke="black" stroke-width="0.988742" stroke-linecap="round" stroke-linejoin="round"/>
<path d="M38.8401 39.466C40.6544 40.4176 49.3282 44.9708 64.0283 44.0661C74.0121 43.4531 73.6982 39.7651 73.7007 37.79" stroke="black" stroke-width="0.988742" stroke-linecap="round" stroke-linejoin="round"/>
<path d="M37.9727 34.2929C34.2996 33.0841 30.6536 34.0284 31.9488 31.5244C32.9351 29.6186 37.6638 30.6123 40.4866 29.2354C47.2447 25.9405 49.5311 23.1868 62.4787 23.2882C68.0503 23.3302 72.4873 27.6436 73.0929 25.4238C73.3005 24.665 74.2299 21.2588 64.6836 20.3046C55.1769 19.353 49.588 21.5282 48.3644 22.0028C41.8239 24.5463 42.1403 26.3211 34.3342 27.9748" stroke="black" stroke-width="0.988742" stroke-linecap="round" stroke-linejoin="round"/>
<path fill-rule="evenodd" clip-rule="evenodd" d="M74.074 36.9644C75.0602 27.2723 88.7593 23.9847 98.8568 27.0992C104.171 28.7381 111.663 30.5771 108.92 35.7285C108.163 37.1498 107.753 38.3363 89.3377 39.8318C84.1641 40.252 79.7469 39.2731 78.422 39.0778C75.8858 38.7046 75.6164 38.8208 74.074 36.9619V36.9644Z" fill="white"/>
<path d="M74.074 36.9644C75.0602 27.2723 88.7593 23.9847 98.8568 27.0992C104.171 28.7381 111.663 30.5771 108.92 35.7285C108.163 37.1498 107.753 38.3363 89.3377 39.8318C84.1641 40.252 79.7469 39.2731 78.422 39.0778C75.8858 38.7046 75.6164 38.8208 74.074 36.9619V36.9644Z" stroke="black" stroke-width="0.988742" stroke-linecap="round" stroke-linejoin="round"/>
<path fill-rule="evenodd" clip-rule="evenodd" d="M38.4497 34.4107C41.0773 30.0009 50.1094 25.7296 56.9565 25.6455C57.3594 25.6406 71.486 26.879 73.5574 28.9108C75.7772 31.0885 75.0257 36.6601 72.3932 38.1284C68.9598 40.0465 58.1207 42.4393 51.3454 40.6299C42.8916 38.3756 42.7235 37.7032 38.4497 34.4107Z" fill="white"/>
<path d="M38.4497 34.4107C41.0773 30.0009 50.1094 25.7296 56.9565 25.6455C57.3594 25.6406 71.486 26.879 73.5575 28.9108C75.7772 31.0885 75.0257 36.6601 72.3932 38.1284C68.9598 40.0465 58.1207 42.4393 51.3454 40.6299C42.8916 38.3756 42.7235 37.7032 38.4497 34.4107Z" stroke="black" stroke-width="0.988742" stroke-linecap="round" stroke-linejoin="round"/>
<path fill-rule="evenodd" clip-rule="evenodd" d="M90.0273 39.1987C87.5085 38.9392 82.3844 38.7118 84.001 31.4816C85.7609 23.6087 98.9854 26.8938 97.0919 34.9397C96.9411 35.5824 96.2935 37.1075 94.7511 38.163C92.6104 39.6288 90.5291 39.2407 90.0249 39.1987H90.0273Z" fill="black"/>
<mask id="mask0_5330_42839" style="mask-type:luminance" maskUnits="userSpaceOnUse" x="83" y="26" width="15" height="14">
<path d="M90.0276 39.1997C87.5088 38.9401 82.3846 38.7127 84.0012 31.4826C85.7612 23.6097 98.9856 26.8948 97.0922 34.9407C96.9414 35.5834 96.2937 37.1085 94.7513 38.164C92.6107 39.6298 90.5294 39.2417 90.0251 39.1997H90.0276Z" fill="white"/>
</mask>
<g mask="url(#mask0_5330_42839)">
<path d="M88.7298 30.7162C89.3782 30.7162 89.9039 30.1585 89.9039 29.4704C89.9039 28.7824 89.3782 28.2246 88.7298 28.2246C88.0813 28.2246 87.5557 28.7824 87.5557 29.4704C87.5557 30.1585 88.0813 30.7162 88.7298 30.7162Z" fill="white"/>
<path fill-rule="evenodd" clip-rule="evenodd" d="M92.9616 29.96C93.8787 29.96 94.6227 30.7163 94.6227 31.6482C94.6227 32.5801 93.8787 33.334 92.9616 33.334C92.0446 33.334 91.3005 32.5777 91.3005 31.6482C91.3005 30.7188 92.0446 29.96 92.9616 29.96Z" fill="white"/>
<path d="M89.1102 34.2208C89.6959 34.2208 90.1707 33.704 90.1707 33.0665C90.1707 32.4289 89.6959 31.9121 89.1102 31.9121C88.5246 31.9121 88.0498 32.4289 88.0498 33.0665C88.0498 33.704 88.5246 34.2208 89.1102 34.2208Z" fill="white"/>
</g>
<path fill-rule="evenodd" clip-rule="evenodd" d="M54.8082 40.256C51.9285 39.9643 46.0653 39.7097 47.9142 31.5848C49.9288 22.7405 65.059 26.4309 62.8936 35.4705C62.7206 36.1923 61.9791 37.9053 60.2166 39.0918C57.767 40.7405 55.3841 40.3005 54.8082 40.256Z" fill="black"/>
<mask id="mask1_5330_42839" style="mask-type:luminance" maskUnits="userSpaceOnUse" x="47" y="26" width="17" height="15">
<path d="M54.8084 40.257C51.9287 39.9653 46.0655 39.7107 47.9144 31.5857C49.929 22.7414 65.0592 26.4319 62.8939 35.4715C62.7209 36.1933 61.9793 37.9063 60.2169 39.0928C57.7673 40.7415 55.3844 40.3015 54.8084 40.257Z" fill="white"/>
</mask>
<g mask="url(#mask1_5330_42839)">
<path d="M53.3251 30.7278C54.0664 30.7278 54.6673 30.1014 54.6673 29.3288C54.6673 28.5561 54.0664 27.9297 53.3251 27.9297C52.5838 27.9297 51.9829 28.5561 51.9829 29.3288C51.9829 30.1014 52.5838 30.7278 53.3251 30.7278Z" fill="white"/>
<path fill-rule="evenodd" clip-rule="evenodd" d="M58.1675 29.877C59.2155 29.877 60.0683 30.7273 60.0683 31.7729C60.0683 32.8185 59.2155 33.6688 58.1675 33.6688C57.1194 33.6688 56.2666 32.8209 56.2666 31.7729C56.2666 30.7248 57.1169 29.877 58.1675 29.877Z" fill="white"/>
<path fill-rule="evenodd" clip-rule="evenodd" d="M53.7603 32.0732C54.4302 32.0732 54.974 32.6541 54.974 33.3685C54.974 34.0829 54.4302 34.6637 53.7603 34.6637C53.0904 34.6637 52.5466 34.0829 52.5466 33.3685C52.5466 32.6541 53.0904 32.0732 53.7603 32.0732Z" fill="white"/>
</g>
</g>
<defs>
<clipPath id="clip0_5330_42839">
<rect width="110" height="88.4207" fill="white"/>
</clipPath>
</defs>
</svg>
