<svg width="174" height="175" viewBox="0 0 174 175" fill="none" xmlns="http://www.w3.org/2000/svg">
<g clip-path="url(#clip0_5166_109262)">
<path fill-rule="evenodd" clip-rule="evenodd" d="M24.3419 77.1455C23.1947 68.6754 24.8856 66.3623 26.3219 61.5159C26.5859 60.6202 22.0947 55.1138 21.6736 54.5984C24.433 54.8435 24.3293 55.1295 26.9128 56.0504C26.7148 53.5172 26.5042 53.5927 25.6493 51.2198C28.2171 52.3952 28.0945 52.5398 30.4297 54.1741C30.7691 53.7372 31.1023 53.8692 32.4034 48.9443C34.7794 51.3078 34.8014 52.6435 35.87 55.1641C38.5572 54.9756 40.2544 53.7341 41.323 53.2501C40.9144 55.953 38.9124 58.9545 37.7306 61.1073C40.8012 61.1325 40.7447 61.0162 43.7587 60.771C41.895 63.9548 39.6289 64.6777 38.5132 66.0291C37.4761 67.2863 38.5572 71.1709 38.6892 71.8466L24.3388 77.1424L24.3419 77.1455Z" fill="#498D36"/>
<path d="M24.3419 77.1455C23.1947 68.6754 24.8856 66.3623 26.3219 61.5159C26.5859 60.6202 22.0947 55.1138 21.6736 54.5984C24.433 54.8435 24.3293 55.1296 26.9128 56.0504C26.7148 53.5172 26.5042 53.5927 25.6493 51.2198C28.2171 52.3952 28.0945 52.5398 30.4297 54.1741C30.7691 53.7372 31.1023 53.8692 32.4034 48.9443C34.7794 51.3078 34.8014 52.6435 35.87 55.1641C38.5572 54.9756 40.2544 53.7341 41.323 53.2501C40.9144 55.953 38.9124 58.9545 37.7306 61.1073C40.8012 61.1325 40.7447 61.0162 43.7587 60.771C41.895 63.9548 39.6289 64.6777 38.5132 66.0291C37.4761 67.2863 38.5572 71.1709 38.6892 71.8466L24.3388 77.1424L24.3419 77.1455Z" stroke="black" stroke-width="0.628579" stroke-linecap="round" stroke-linejoin="round"/>
<path fill-rule="evenodd" clip-rule="evenodd" d="M153.964 174.151C153.964 174.151 154.241 155.925 152.672 152.861C151.104 149.796 150.428 147.518 146.729 144.956C143.027 142.395 73.7229 99.7457 71.4129 99.6451C71.4129 99.6451 57.9833 100.748 55.073 101.493L39.1165 70.457L22.8489 76.3657L27.9875 97.4262C27.9875 97.4262 26.7052 105.123 29.339 109.737C31.9727 114.351 40.2794 131.696 41.0619 140.298C41.0619 140.298 32.617 161.438 32.2367 174.015L153.958 174.151H153.964Z" fill="#0558FE"/>
<path d="M153.964 174.151C153.964 174.151 154.241 155.925 152.672 152.861C151.104 149.796 150.428 147.518 146.729 144.956C143.027 142.395 73.7229 99.7457 71.4129 99.6451C71.4129 99.6451 57.9833 100.748 55.073 101.493L39.1165 70.457L22.8489 76.3657L27.9875 97.4262C27.9875 97.4262 26.7052 105.123 29.339 109.737C31.9727 114.351 40.2794 131.696 41.0619 140.298C41.0619 140.298 32.617 161.438 32.2367 174.015L153.958 174.151H153.964Z" stroke="black" stroke-width="0.628579" stroke-linecap="round" stroke-linejoin="round"/>
<path fill-rule="evenodd" clip-rule="evenodd" d="M59.4356 63.3671C59.4356 63.3671 58.609 61.4594 61.0353 60.1708C61.0353 60.1708 55.3216 54.0296 58.0276 50.7295C58.0276 50.7295 58.8416 49.8558 60.1993 49.4221L69.9832 36.2848C69.9832 36.2848 76.511 29.9424 83.6673 31.6773L89.3622 33.9402C89.3622 33.9402 91.7131 27.7424 97.5432 27.2364C97.5432 27.2364 108.339 25.995 125.917 38.048C125.917 38.048 133.712 43.9818 137.291 51.1475C137.291 51.1475 150.334 47.9261 162.897 56.899C162.897 56.899 173.749 64.1843 172.935 74.0624C172.935 74.0624 172.793 82.2151 168.808 91.9769C168.808 91.9769 175.98 96.5906 172.815 112.362C172.815 112.362 170.471 127.454 160.09 144.29C160.09 144.29 156.485 148.115 149.615 148.238C149.615 148.238 148.288 151.657 143.866 151.412C143.866 151.412 113.211 148.555 93.6712 133.064C93.6712 133.064 71.8186 120.213 71.6615 100.293C71.6615 100.293 66.218 87.2562 66.6234 80.4267L59.4293 63.3734L59.4356 63.3671Z" fill="#498D36"/>
<path d="M169.509 92.2632C182.398 106.293 161.359 142.21 161.359 142.21C154.847 153.16 137.627 145.636 137.627 145.636C125.345 141.78 105.419 130.321 96.1755 124.802C92.8189 122.79 89.6949 120.411 86.8631 117.711C72.7861 104.316 68.8669 98.3479 66.0854 80.4365" stroke="black" stroke-width="0.628579" stroke-linecap="round" stroke-linejoin="round"/>
<path d="M71.5007 99.6836C71.7522 102.698 71.8747 110.454 78.9997 119.54C86.2598 128.799 94.5539 133.803 96.7979 135.167C96.7979 135.167 127.837 152.028 144.3 151.287C144.3 151.287 147.816 151.645 149.708 148.301" stroke="black" stroke-width="0.628579" stroke-linecap="round" stroke-linejoin="round"/>
<path d="M167.972 97.7815C167.972 97.7815 168.494 92.8849 170.024 88.5854C171.558 84.2859 176.115 70.2529 169.559 63.5931C169.559 63.5931 159.207 47.5518 137.835 51.185C137.835 51.185 129.063 51.8261 123.409 58.6902C123.409 58.6902 113.418 59.6142 109.049 64.8849" stroke="black" stroke-width="0.628579" stroke-linecap="round" stroke-linejoin="round"/>
<path d="M137.42 51.3741C136.351 49.4506 130.367 35.9487 106.421 28.2267C94.9622 24.5306 92.2059 29.2355 89.2861 33.9373" stroke="black" stroke-width="0.628579" stroke-linecap="round" stroke-linejoin="round"/>
<path d="M123.698 58.7215C116.797 52.4923 118.289 51.5055 89.5823 34.0027C82.429 29.6435 75.5775 31.0358 69.8135 36.2499" stroke="black" stroke-width="0.628579" stroke-linecap="round" stroke-linejoin="round"/>
<path d="M123.647 58.7402C125.514 59.4945 126.454 59.8717 146.144 70.0358C156.538 75.4007 158.766 80.3382 160.388 83.4559" stroke="black" stroke-width="0.628579" stroke-linecap="round" stroke-linejoin="round"/>
<path d="M101.456 84.3584C106.394 90.6505 105.985 90.9176 111.378 96.7571" stroke="black" stroke-width="0.628579" stroke-linecap="round" stroke-linejoin="round"/>
<path d="M104.595 76.8467C103.168 85.2068 113.76 95.1006 134.368 101.192" stroke="black" stroke-width="0.628579" stroke-linecap="round" stroke-linejoin="round"/>
<path d="M59.2715 62.8516C59.5386 61.0161 59.5575 60.8684 60.8335 60.1016" stroke="black" stroke-width="0.628579" stroke-linecap="round" stroke-linejoin="round"/>
<path d="M74.7384 70.7338C63.0122 62.7383 60.4068 59.7368 58.5116 56.2105C55.837 51.2353 58.2539 50.3773 59.2628 49.9121" stroke="black" stroke-width="0.628579" stroke-linecap="round" stroke-linejoin="round"/>
<path fill-rule="evenodd" clip-rule="evenodd" d="M60.878 72.8496C60.1049 72.4128 50.6228 67.0541 55.7991 62.9872C59.8377 59.8129 59.5517 67.1641 68.2576 70.4139C77.0828 73.7076 79.3771 72.903 92.3824 86.8103C101.748 96.8268 114.332 101.997 116.476 102.877C128.875 107.971 122.34 119.924 115.882 118.026C93.1556 111.347 93.5924 88.2089 65.6175 80.3046C58.7597 78.3685 60.614 73.5128 60.8812 72.8496H60.878Z" fill="#E9585D"/>
<path d="M60.878 72.8496C60.1049 72.4128 50.6228 67.0541 55.7991 62.9872C59.8377 59.8129 59.5517 67.1641 68.2576 70.4139C77.0828 73.7076 79.3771 72.903 92.3824 86.8103C101.748 96.8268 114.332 101.997 116.476 102.877C128.875 107.971 122.34 119.924 115.882 118.026C93.1556 111.347 93.5924 88.2089 65.6175 80.3046C58.7597 78.3685 60.614 73.5128 60.8812 72.8496H60.878Z" stroke="black" stroke-width="0.628579" stroke-linecap="round" stroke-linejoin="round"/>
<path d="M60.9158 72.6699C80.5966 85.6721 83.9438 80.9043 92.7973 91.5053C100.089 100.233 100.221 102.901 114.628 110.551" stroke="black" stroke-width="0.628579" stroke-linecap="round" stroke-linejoin="round"/>
<path fill-rule="evenodd" clip-rule="evenodd" d="M66.0073 38.6194C66.0073 38.6194 57.7572 41.6555 59.4669 49.8867C59.4669 49.8867 60.5261 57.4077 78.1765 67.9898C78.1765 67.9898 92.8884 79.3985 105.278 76.4819C105.278 76.4819 110.253 74.5239 108.776 71.0761C107.299 67.6315 75.3825 37.4251 66.0073 38.6194Z" fill="white"/>
<mask id="mask0_5166_109262" style="mask-type:luminance" maskUnits="userSpaceOnUse" x="59" y="38" width="51" height="39">
<path d="M66.0058 38.6204C66.0058 38.6204 57.7557 41.6565 59.4654 49.8877C59.4654 49.8877 60.5246 57.4086 78.1751 67.9908C78.1751 67.9908 92.887 79.3995 105.276 76.4828C105.276 76.4828 110.251 74.5248 108.774 71.0771C107.297 67.6325 75.381 37.4261 66.0058 38.6204Z" fill="white"/>
</mask>
<g mask="url(#mask0_5166_109262)">
<path fill-rule="evenodd" clip-rule="evenodd" d="M83.8172 48.1073C85.7375 53.3874 81.4097 66.1664 65.9593 53.3088C60.4058 48.6887 62.6938 43.0158 66.4747 40.5989C71.4939 37.3932 81.8812 46.561 83.8172 48.1104V48.1073Z" fill="black"/>
<mask id="mask1_5166_109262" style="mask-type:luminance" maskUnits="userSpaceOnUse" x="62" y="39" width="23" height="20">
<path d="M83.816 48.1073C85.7363 53.3874 81.4085 66.1664 65.958 53.3088C60.4045 48.6887 62.6926 43.0158 66.4735 40.5989C71.4927 37.3932 81.8799 46.561 83.816 48.1104V48.1073Z" fill="white"/>
</mask>
<g mask="url(#mask1_5166_109262)">
<path fill-rule="evenodd" clip-rule="evenodd" d="M70.8428 48.0356C72.0403 48.7805 72.4017 50.3708 71.6474 51.5839C70.8931 52.7971 69.3091 53.1805 68.1085 52.4356C66.9111 51.6908 66.5496 50.1005 67.3039 48.8873C68.0582 47.6742 69.6422 47.2907 70.8428 48.0356Z" fill="white"/>
<path fill-rule="evenodd" clip-rule="evenodd" d="M76.4275 46.6465C77.4113 46.6465 78.2096 47.4699 78.2096 48.4851C78.2096 49.5002 77.4113 50.3237 76.4275 50.3237C75.4438 50.3237 74.6455 49.5002 74.6455 48.4851C74.6455 47.4699 75.4438 46.6465 76.4275 46.6465Z" fill="white"/>
</g>
</g>
<path d="M66.0073 38.6194C66.0073 38.6194 57.7572 41.6555 59.4669 49.8867C59.4669 49.8867 60.5261 57.4077 78.1765 67.9898C78.1765 67.9898 92.8884 79.3985 105.278 76.4819C105.278 76.4819 110.253 74.5239 108.776 71.0761C107.299 67.6315 75.3825 37.4251 66.0073 38.6194Z" stroke="black" stroke-width="0.628579" stroke-linecap="round" stroke-linejoin="round"/>
<path fill-rule="evenodd" clip-rule="evenodd" d="M105.997 67.3271C98.1401 66.2805 94.3121 60.8716 89.956 56.0473C85.5151 51.1255 80.9265 47.4106 64.596 39.4245C64.4483 31.737 76.8659 39.1416 77.7208 39.6571C96.5498 50.9589 98.753 59.8942 106.001 67.3271H105.997Z" fill="#498D36"/>
<path d="M105.997 67.3271C98.1401 66.2805 94.3121 60.8716 89.956 56.0473C85.5151 51.1255 80.9265 47.4106 64.596 39.4245C64.4483 31.737 76.8659 39.1416 77.7208 39.6571C96.5498 50.9589 98.753 59.8942 106.001 67.3271H105.997Z" stroke="black" stroke-width="0.628579" stroke-linecap="round" stroke-linejoin="round"/>
<path fill-rule="evenodd" clip-rule="evenodd" d="M105.988 78.5786C105.479 77.3843 102.71 73.3268 105.438 68.1253C106.022 67.0096 108.864 61.5976 121.146 66.9625C141.807 75.992 145.01 81.9541 154.467 90.1947C145.211 92.1936 136.059 92.8662 125.98 89.8993C112.085 85.8104 107.188 79.9835 105.991 78.5755L105.988 78.5786Z" fill="white"/>
<mask id="mask2_5166_109262" style="mask-type:luminance" maskUnits="userSpaceOnUse" x="104" y="64" width="51" height="28">
<path d="M105.989 78.5786C105.48 77.3843 102.711 73.3268 105.439 68.1253C106.023 67.0096 108.865 61.5976 121.147 66.9625C141.808 75.992 145.011 81.9541 154.468 90.1947C145.212 92.1936 136.06 92.8662 125.981 89.8993C112.086 85.8104 107.189 79.9835 105.992 78.5755L105.989 78.5786Z" fill="white"/>
</mask>
<g mask="url(#mask2_5166_109262)">
<path fill-rule="evenodd" clip-rule="evenodd" d="M107.758 65.6836C102.968 73.2392 109.757 77.3124 119.295 81.2724C128.338 85.025 133.209 73.4843 129.211 70.7751C128.661 70.4011 118.271 65.9382 117.152 65.5988C111.683 63.9425 108.421 65.3442 107.758 65.6836Z" fill="black"/>
<mask id="mask3_5166_109262" style="mask-type:luminance" maskUnits="userSpaceOnUse" x="106" y="64" width="25" height="19">
<path d="M107.758 65.6836C102.968 73.2392 109.757 77.3124 119.295 81.2724C128.338 85.025 133.209 73.4843 129.211 70.7751C128.661 70.4011 118.271 65.9382 117.152 65.5988C111.683 63.9425 108.421 65.3442 107.758 65.6836Z" fill="white"/>
</mask>
<g mask="url(#mask3_5166_109262)">
<path fill-rule="evenodd" clip-rule="evenodd" d="M113.711 71.624C114.692 71.624 115.487 72.3877 115.487 73.3275C115.487 74.2672 114.692 75.0309 113.711 75.0309C112.73 75.0309 111.935 74.2672 111.935 73.3275C111.935 72.3877 112.73 71.624 113.711 71.624Z" fill="white"/>
<path fill-rule="evenodd" clip-rule="evenodd" d="M125.333 71.6523C126.82 71.6523 128.03 72.6958 128.03 73.9781C128.03 75.2604 126.82 76.3038 125.333 76.3038C123.847 76.3038 122.637 75.2604 122.637 73.9781C122.637 72.6958 123.844 71.6523 125.333 71.6523Z" fill="white"/>
<path d="M121.993 80.3202C122.869 80.3202 123.58 79.6406 123.58 78.8022C123.58 77.9638 122.869 77.2842 121.993 77.2842C121.116 77.2842 120.406 77.9638 120.406 78.8022C120.406 79.6406 121.116 80.3202 121.993 80.3202Z" fill="white"/>
</g>
</g>
<path d="M105.988 78.5786C105.479 77.3843 102.71 73.3268 105.438 68.1253C106.022 67.0096 108.864 61.5976 121.146 66.9625C141.807 75.992 145.01 81.9541 154.467 90.1947C145.211 92.1936 136.059 92.8662 125.98 89.8993C112.085 85.8104 107.188 79.9835 105.991 78.5755L105.988 78.5786Z" stroke="black" stroke-width="0.628579" stroke-linecap="round" stroke-linejoin="round"/>
<path fill-rule="evenodd" clip-rule="evenodd" d="M93.454 126.536C90.3897 118.167 88.8308 115.989 84.2265 111.592C87.2311 111.733 87.2185 111.608 90.1351 112.409C87.0582 108.515 86.8131 108.829 83.4502 105.928C87.14 105.378 87.6931 105.715 91.5651 107.031C90.616 104.363 90.5469 103.046 87.3254 97.7474C92.2974 99.8594 95.9023 104.222 97.0526 105.41C98.5581 101.393 98.3035 101.362 99.9347 97.4551C100.736 99.4822 100.997 99.4382 101.94 107.896C104.665 106.236 104.599 106.217 107.242 104.445C105.815 111.278 105.073 111.582 108.134 117.865C108.556 118.729 111.736 121.765 106.246 124.449C104.372 125.364 96.6064 127.287 93.454 126.533V126.536Z" fill="#498D36"/>
<path d="M93.454 126.536C90.3897 118.167 88.8308 115.989 84.2265 111.592C87.2311 111.733 87.2185 111.608 90.1351 112.409C87.0582 108.515 86.8131 108.829 83.4502 105.928C87.14 105.378 87.6931 105.715 91.5651 107.031C90.616 104.363 90.5469 103.046 87.3254 97.7474C92.2974 99.8594 95.9023 104.222 97.0526 105.41C98.5581 101.393 98.3035 101.362 99.9347 97.4551C100.736 99.4822 100.997 99.4382 101.94 107.896C104.665 106.236 104.599 106.217 107.242 104.445C105.815 111.278 105.073 111.582 108.134 117.865C108.556 118.729 111.736 121.765 106.246 124.449C104.372 125.364 96.6064 127.287 93.454 126.533V126.536Z" stroke="black" stroke-width="0.628579" stroke-linecap="round" stroke-linejoin="round"/>
<path fill-rule="evenodd" clip-rule="evenodd" d="M139.315 153.496L111.472 119.088C111.472 119.088 92.9821 124.607 91.5144 126.609L109.665 156.887" fill="#0558FE"/>
<path d="M139.315 153.496L111.472 119.088C111.472 119.088 92.9821 124.607 91.5144 126.609L109.665 156.887" stroke="black" stroke-width="0.628579" stroke-linecap="round" stroke-linejoin="round"/>
<path fill-rule="evenodd" clip-rule="evenodd" d="M7.77907 31.9476C7.71307 31.9507 7.65021 31.9538 7.58421 31.9538C3.57388 31.9538 0.314697 24.9861 0.314697 16.4028C0.314697 7.81957 3.47016 1.06864 7.39564 0.858061V0.848633H12.7417V5.45297C14.046 8.26272 14.8506 12.1348 14.8506 16.4028C14.8506 20.6709 14.046 24.5398 12.7417 27.3527V31.9476H7.77593H7.77907Z" fill="#DBA012"/>
<path d="M7.77907 31.9476C7.71307 31.9507 7.65021 31.9538 7.58421 31.9538C3.57388 31.9538 0.314697 24.9861 0.314697 16.4028C0.314697 7.81957 3.47016 1.06864 7.39564 0.858061V0.848633H12.7417V5.45297C14.046 8.26272 14.8506 12.1348 14.8506 16.4028C14.8506 20.6709 14.046 24.5398 12.7417 27.3527V31.9476H7.77593H7.77907Z" stroke="black" stroke-width="0.628579" stroke-linecap="round" stroke-linejoin="round"/>
<path d="M12.4866 31.9536C16.5014 31.9536 19.7561 24.9912 19.7561 16.4026C19.7561 7.814 16.5014 0.851562 12.4866 0.851562C8.47171 0.851562 5.21704 7.814 5.21704 16.4026C5.21704 24.9912 8.47171 31.9536 12.4866 31.9536Z" fill="#FFDB22"/>
<path d="M12.4866 31.9536C16.5014 31.9536 19.7561 24.9912 19.7561 16.4026C19.7561 7.814 16.5014 0.851562 12.4866 0.851562C8.47171 0.851562 5.21704 7.814 5.21704 16.4026C5.21704 24.9912 8.47171 31.9536 12.4866 31.9536Z" stroke="black" stroke-width="0.628579" stroke-linecap="round" stroke-linejoin="round"/>
</g>
<defs>
<clipPath id="clip0_5166_109262">
<rect width="174" height="173.931" fill="white" transform="translate(0 0.53418)"/>
</clipPath>
</defs>
</svg>
