<svg width="102" height="97" viewBox="0 0 102 97" fill="none" xmlns="http://www.w3.org/2000/svg">
<g clip-path="url(#clip0_5330_42878)">
<path fill-rule="evenodd" clip-rule="evenodd" d="M1.33936 75.4173L1.36892 96.1439L81.1914 96.0871C81.1914 96.0871 79.9566 90.5904 73.332 86.4401L69.0975 83.154L68.0583 80.9094L5.45556 73.457C5.45556 73.457 2.39229 75.0376 1.34163 75.4173H1.33936Z" fill="#0558FE"/>
<path d="M1.33936 75.4173L1.36892 96.1439L81.1914 96.0871C81.1914 96.0871 79.9566 90.5904 73.332 86.4401L69.0975 83.154L68.0583 80.9094L5.45556 73.457C5.45556 73.457 2.39229 75.0376 1.34163 75.4173H1.33936Z" stroke="black" stroke-width="0.909658" stroke-linecap="round" stroke-linejoin="round"/>
<path fill-rule="evenodd" clip-rule="evenodd" d="M16.3466 22.8093C16.3466 22.8093 21.352 1.63018 40.0227 0.472638C40.0227 0.472638 52.5783 0.179273 57.1357 6.8175C57.1357 6.8175 69.7503 -0.496148 77.1072 3.11292C77.1072 3.11292 85.4692 5.57809 86.1287 15.2409C86.1287 15.2409 93.6448 17.9062 94.8979 20.8535C94.8979 20.8535 98.1544 21.4903 98.1635 24.8196C98.1635 24.8196 102.355 27.0165 100.417 29.1724L99.2915 34.4757C99.2915 34.4757 98.1681 36.6202 96.2419 37.7072C96.2419 37.7072 93.6766 43.0196 88.5189 44.2136C88.5189 44.2136 95.5619 51.7046 95.3368 57.5833C95.3368 57.5833 87.3386 70.1889 84.7984 72.488C84.7984 72.488 74.0894 82.1622 67.126 81.903C67.126 81.903 65.1839 86.0988 60.9585 86.167C60.9585 86.167 30.9011 88.1933 19.3348 82.8377C19.3348 82.8377 3.38622 79.5629 5.08728 74.1459C5.08728 74.1459 -0.56625 65.8452 0.693627 51.6477" fill="#48A92B"/>
<path fill-rule="evenodd" clip-rule="evenodd" d="M0.695801 51.6444C0.695801 51.6444 2.09213 28.8598 16.3465 22.8105L0.695801 51.6444Z" fill="#48A92B"/>
<path d="M15.4846 31.4496C15.5756 26.4419 14.7182 22.0938 20.8857 12.5651C30.2643 -1.92805 43.0746 0.421144 46.222 0.973761C59.5235 3.31386 60.0306 13.6112 60.5218 16.0946" stroke="black" stroke-width="0.909658" stroke-linecap="round" stroke-linejoin="round"/>
<path d="M57.8975 6.41305C63.2872 3.90694 70.6941 -0.402563 80.0181 4.58464C85.1736 7.34318 85.899 14.1361 86.0014 15.098" stroke="black" stroke-width="0.909658" stroke-linecap="round" stroke-linejoin="round"/>
<path d="M60.8447 15.1918C81.6463 11.8124 92.5031 16.3561 94.8796 21.0727" stroke="black" stroke-width="0.909658" stroke-linecap="round" stroke-linejoin="round"/>
<path d="M31.2309 15.5686C38.0624 11.1295 45.4124 6.44927 59.8692 15.8233C60.3399 16.128 60.108 16.4123 65.4204 20.1078C68.2017 22.0431 68.2562 24.7652 65.2657 24.2786C57.1561 22.9527 53.0217 18.3158 41.3235 25.6885C32.4794 31.2648 30.1097 27.1463 29.1227 29.9003C28.918 30.4734 28.3813 32.4064 36.334 32.3541" stroke="black" stroke-width="0.909658" stroke-linecap="round" stroke-linejoin="round"/>
<path d="M32.0974 25.5318C40.4003 24.5039 39.2883 21.054 46.9135 19.8282C54.5569 18.6002 63.2009 19.6895 64.6041 19.8669" stroke="black" stroke-width="0.909658" stroke-linecap="round" stroke-linejoin="round"/>
<path d="M67.8174 23.0894C77.5189 20.2672 81.8739 19.2984 89.3467 20.1717C95.9622 20.9449 98.3933 22.1024 98.2773 25.2589" stroke="black" stroke-width="0.909658" stroke-linecap="round" stroke-linejoin="round"/>
<path d="M68.502 25.1518C78.1443 23.0437 83.4158 21.2084 95.2596 24.3035C101.691 25.9841 101.286 27.3373 100.654 28.936" stroke="black" stroke-width="0.909658" stroke-linecap="round" stroke-linejoin="round"/>
<path d="M99.237 34.8242C98.034 37.1757 97.2494 36.5162 95.7553 38.6721C90.5157 46.2268 84.0253 45.7219 76.1431 45.6673" stroke="black" stroke-width="0.909658" stroke-linecap="round" stroke-linejoin="round"/>
<path d="M70.7258 43.4844C73.2706 44.5146 74.6214 44.6783 80.466 48.2896" stroke="black" stroke-width="0.909658" stroke-linecap="round" stroke-linejoin="round"/>
<path d="M68.5632 34.6445C69.6502 38.9017 66.6757 38.2422 62.5049 40.7483C61.6452 41.2646 61.4065 41.4101 49.9721 40.8075C43.9842 40.4914 37.1481 37.4326 36.0952 36.9619" stroke="black" stroke-width="0.909658" stroke-linecap="round" stroke-linejoin="round"/>
<path d="M48.8875 47.7002C55.4052 45.8922 56.7287 45.1849 61.9547 42.249" stroke="black" stroke-width="0.909658" stroke-linecap="round" stroke-linejoin="round"/>
<path d="M24.6836 67.7314C26.6917 72.3889 27.4217 73.062 31.9245 73.8876" stroke="black" stroke-width="0.909658" stroke-linecap="round" stroke-linejoin="round"/>
<path d="M16.076 22.8369C-4.6688 33.5322 -1.52593 71.0829 7.04988 75.5994C7.42284 75.795 26.9327 84.7187 52.6169 83.4224C68.8862 82.6015 74.3532 81.9966 84.3618 73.2479" stroke="black" stroke-width="0.909658" stroke-linecap="round" stroke-linejoin="round"/>
<path d="M88.2642 44.5195C89.3421 45.6702 95.1526 50.3937 95.2094 57.9552" stroke="black" stroke-width="0.909658" stroke-linecap="round" stroke-linejoin="round"/>
<path d="M5.18723 73.7734C4.42766 75.4631 3.30651 77.4507 12.5941 80.8096C27.4079 86.1698 30.5599 86.6315 50.3995 86.7202C62.0841 86.7725 64.7267 85.69 66.8985 82.4607" stroke="black" stroke-width="0.909658" stroke-linecap="round" stroke-linejoin="round"/>
<path fill-rule="evenodd" clip-rule="evenodd" d="M91.9277 65.8043C92.3575 65.5427 97.0059 63.6984 97.0832 60.3486C97.2242 54.0219 89.7764 63.0867 76.4203 62.8501C61.4792 62.5863 52.7419 60.5191 50.7293 60.0438C45.7921 58.8772 30.2961 54.2493 27.3966 63.3095C26.753 65.3244 27.5398 68.7629 32.9273 68.4764C47.0679 67.7191 47.8593 72.5448 73.8619 72.4539C79.3585 72.4357 88.6984 74.5529 92.2211 70.5845C93.8676 68.7311 92.1438 66.1044 91.9255 65.8043H91.9277Z" fill="#E9585D"/>
<path d="M91.9277 65.8043C92.3575 65.5427 97.0059 63.6984 97.0832 60.3486C97.2242 54.0219 89.7764 63.0867 76.4203 62.8501C61.4792 62.5863 52.7419 60.5191 50.7293 60.0438C45.7921 58.8772 30.2961 54.2493 27.3966 63.3095C26.753 65.3244 27.5398 68.7629 32.9273 68.4764C47.0679 67.7191 47.8593 72.5448 73.8619 72.4539C79.3585 72.4357 88.6984 74.5529 92.2211 70.5845C93.8676 68.7311 92.1438 66.1044 91.9255 65.8043H91.9277Z" stroke="black" stroke-width="0.909658" stroke-linecap="round" stroke-linejoin="round"/>
<path d="M34.4397 63.3965C38.2375 63.3374 39.8067 62.173 54.7183 64.9111C67.3079 67.2239 78.3785 68.8226 91.9347 65.8185" stroke="black" stroke-width="0.909658" stroke-linecap="round" stroke-linejoin="round"/>
<path fill-rule="evenodd" clip-rule="evenodd" d="M70.0278 29.6839C71.7311 29.2336 74.8058 27.7372 88.8259 26.8662C101.713 26.0634 103.772 31.0029 99.594 34.2117C98.9117 34.7348 88.8077 38.503 78.3694 37.2659C77.2277 37.1294 63.1212 36.8975 70.0278 29.6862V29.6839Z" fill="white"/>
<mask id="mask0_5330_42878" style="mask-type:luminance" maskUnits="userSpaceOnUse" x="68" y="26" width="34" height="12">
<path d="M70.0278 29.6849C71.7311 29.2346 74.8058 27.7382 88.8259 26.8672C101.713 26.0644 103.772 31.0039 99.594 34.2127C98.9117 34.7357 88.8077 38.504 78.3694 37.2669C77.2277 37.1304 63.1212 36.8984 70.0278 29.6871V29.6849Z" fill="white"/>
</mask>
<g mask="url(#mask0_5330_42878)">
<path fill-rule="evenodd" clip-rule="evenodd" d="M79.7567 37.0506C77.6963 25.2341 94.882 24.3813 94.9321 34.6309C94.9321 35.0721 95.421 36.2069 92.003 36.4957C80.7414 37.444 81.4759 37.3144 79.759 37.0506H79.7567Z" fill="black"/>
<mask id="mask1_5330_42878" style="mask-type:luminance" maskUnits="userSpaceOnUse" x="79" y="27" width="16" height="11">
<path d="M79.7567 37.0506C77.6963 25.2341 94.882 24.3813 94.9321 34.6309C94.9321 35.0721 95.421 36.2069 92.003 36.4957C80.7414 37.444 81.4759 37.3144 79.759 37.0506H79.7567Z" fill="white"/>
</mask>
<g mask="url(#mask1_5330_42878)">
<path fill-rule="evenodd" clip-rule="evenodd" d="M85.2897 29.4307C86.0106 29.4307 86.5951 30.0128 86.5951 30.7315C86.5951 31.4501 86.0106 32.0323 85.2897 32.0323C84.5688 32.0323 83.9844 31.4501 83.9844 30.7315C83.9844 30.0128 84.5688 29.4307 85.2897 29.4307Z" fill="white"/>
<path fill-rule="evenodd" clip-rule="evenodd" d="M89.7834 31.7725C90.6703 31.7725 91.3912 32.5525 91.3912 33.5122C91.3912 34.4719 90.6703 35.2519 89.7834 35.2519C88.8964 35.2519 88.1755 34.4719 88.1755 33.5122C88.1755 32.5525 88.8964 31.7725 89.7834 31.7725Z" fill="white"/>
<path fill-rule="evenodd" clip-rule="evenodd" d="M84.7804 33.6221C85.3193 33.6221 85.7583 34.0701 85.7583 34.6204C85.7583 35.1708 85.3193 35.6188 84.7804 35.6188C84.2414 35.6188 83.8025 35.1708 83.8025 34.6204C83.8025 34.0701 84.2391 33.6221 84.7804 33.6221Z" fill="white"/>
</g>
</g>
<path d="M70.0278 29.6839C71.7311 29.2336 74.8058 27.7372 88.8259 26.8662C101.713 26.0634 103.772 31.0029 99.594 34.2117C98.9117 34.7348 88.8077 38.503 78.3694 37.2659C77.2277 37.1294 63.1212 36.8975 70.0278 29.6862V29.6839Z" stroke="black" stroke-width="0.909658" stroke-linecap="round" stroke-linejoin="round"/>
<path fill-rule="evenodd" clip-rule="evenodd" d="M36.3089 32.1042C47.6023 31.6266 58.4204 26.1686 68.2516 27.1488C72.1813 27.5399 69.4432 34.0667 67.0872 35.5472C63.0324 38.0965 50.4655 38.3694 50.1676 38.3649C43.1132 38.2262 37.1572 32.8524 36.3066 32.1042H36.3089Z" fill="white"/>
<mask id="mask2_5330_42878" style="mask-type:luminance" maskUnits="userSpaceOnUse" x="36" y="27" width="35" height="12">
<path d="M36.3089 32.1042C47.6023 31.6266 58.4204 26.1686 68.2516 27.1488C72.1813 27.5399 69.4432 34.0667 67.0872 35.5472C63.0324 38.0965 50.4655 38.3694 50.1676 38.3649C43.1132 38.2262 37.1572 32.8524 36.3066 32.1042H36.3089Z" fill="white"/>
</mask>
<g mask="url(#mask2_5330_42878)">
<path fill-rule="evenodd" clip-rule="evenodd" d="M48.3734 38.1074C46.313 27.2552 63.4987 26.4706 63.5488 35.8856C63.5488 36.2904 64.0377 37.3342 60.6197 37.598C49.3581 38.469 50.0926 38.3485 48.3757 38.1074H48.3734Z" fill="black"/>
<mask id="mask3_5330_42878" style="mask-type:luminance" maskUnits="userSpaceOnUse" x="48" y="29" width="16" height="10">
<path d="M48.3734 38.1074C46.313 27.2552 63.4987 26.4706 63.5488 35.8856C63.5488 36.2904 64.0377 37.3342 60.6197 37.598C49.3581 38.469 50.0926 38.3485 48.3757 38.1074H48.3734Z" fill="white"/>
</mask>
<g mask="url(#mask3_5330_42878)">
<path fill-rule="evenodd" clip-rule="evenodd" d="M53.904 31.1074C54.6249 31.1074 55.2094 31.6418 55.2094 32.3013C55.2094 32.9609 54.6249 33.4953 53.904 33.4953C53.1831 33.4953 52.5986 32.9609 52.5986 32.3013C52.5986 31.6418 53.1831 31.1074 53.904 31.1074Z" fill="white"/>
<path fill-rule="evenodd" clip-rule="evenodd" d="M58.3976 33.2607C59.2845 33.2607 60.0054 33.9771 60.0054 34.8572C60.0054 35.7373 59.2845 36.4536 58.3976 36.4536C57.5107 36.4536 56.7898 35.7373 56.7898 34.8572C56.7898 33.9771 57.5107 33.2607 58.3976 33.2607Z" fill="white"/>
<path fill-rule="evenodd" clip-rule="evenodd" d="M53.3944 34.958C53.9334 34.958 54.3723 35.3696 54.3723 35.8768C54.3723 36.3839 53.9356 36.7955 53.3944 36.7955C52.8531 36.7955 52.4165 36.3839 52.4165 35.8768C52.4165 35.3696 52.8531 34.958 53.3944 34.958Z" fill="white"/>
</g>
</g>
<path d="M36.3089 32.1042C47.6023 31.6266 58.4204 26.1686 68.2516 27.1488C72.1813 27.5399 69.4432 34.0667 67.0872 35.5472C63.0324 38.0965 50.4655 38.3694 50.1676 38.3649C43.1132 38.2262 37.1572 32.8524 36.3066 32.1042H36.3089Z" stroke="black" stroke-width="0.909658" stroke-linecap="round" stroke-linejoin="round"/>
</g>
<defs>
<clipPath id="clip0_5330_42878">
<rect width="102" height="96.5602" fill="white" transform="translate(0 0.0390625)"/>
</clipPath>
</defs>
</svg>
