<svg width="151" height="239" viewBox="0 0 151 239" fill="none" xmlns="http://www.w3.org/2000/svg">
<g clip-path="url(#clip0_5166_109183)">
<path d="M58.4926 138.283H8.72949V264.384H58.4926V138.283Z" fill="#3DC326" stroke="black" stroke-width="1.44702" stroke-miterlimit="10"/>
<path d="M139.552 138.464H58.4465V264.387H139.552V138.464Z" fill="#24771F" stroke="black" stroke-width="1.44702" stroke-miterlimit="10"/>
<path fill-rule="evenodd" clip-rule="evenodd" d="M117.448 114.758L3.65219 116.37C3.65219 116.37 -1.52604 135.912 9.24101 138.523L106.883 138.109C106.883 138.109 123.291 133.501 117.448 114.761V114.758Z" fill="#5D8F3B"/>
<path d="M117.448 114.758L3.65219 116.37C3.65219 116.37 -1.52604 135.912 9.24101 138.523L106.883 138.109C106.883 138.109 123.291 133.501 117.448 114.761V114.758Z" stroke="black" stroke-width="1.66407" stroke-linecap="round" stroke-linejoin="round"/>
<path fill-rule="evenodd" clip-rule="evenodd" d="M52.5393 135.142C52.5393 135.142 58.5755 143.464 56.4276 147.776C54.2797 152.087 48.5346 156.741 46.8708 157.559C45.207 158.377 42.2778 157.047 41.5945 159.793C40.9143 162.538 42.3973 183.842 42.3973 183.842C42.3973 183.842 53.2073 187.078 52.671 173.051L61.8601 163.871C61.8601 163.871 77.2447 159.321 80.3976 149.461C83.5505 139.601 81.9419 132.881 79.6254 130.09" fill="#5D8F3B"/>
<path d="M52.5393 135.142C52.5393 135.142 58.5755 143.464 56.4276 147.776C54.2797 152.087 48.5346 156.741 46.8708 157.559C45.207 158.377 42.2778 157.047 41.5945 159.793C40.9143 162.538 42.3973 183.842 42.3973 183.842C42.3973 183.842 53.2073 187.078 52.671 173.051L61.8601 163.871C61.8601 163.871 77.2447 159.321 80.3976 149.461C83.5505 139.601 81.9419 132.881 79.6254 130.09" stroke="black" stroke-width="1.66407" stroke-linecap="round" stroke-linejoin="round"/>
<path fill-rule="evenodd" clip-rule="evenodd" d="M100.246 138.038C100.246 138.038 110.664 140.149 112.227 144.681C113.792 149.21 112.99 156.337 112.374 158.016C111.758 159.695 108.666 160.639 110.162 163.078C111.657 165.517 128.175 180.025 128.175 180.025C128.175 180.025 138.372 175.331 127.817 165.492L127.835 152.835C127.835 152.835 135.71 139.506 130.856 130.286C126 121.067 119.96 117.237 116.253 116.719" fill="#5D8F3B"/>
<path d="M100.246 138.038C100.246 138.038 110.664 140.149 112.227 144.681C113.792 149.21 112.99 156.337 112.374 158.016C111.758 159.695 108.666 160.639 110.162 163.078C111.657 165.517 128.175 180.025 128.175 180.025C128.175 180.025 138.372 175.331 127.817 165.492L127.835 152.835C127.835 152.835 135.71 139.506 130.856 130.286C126 121.067 119.96 117.237 116.253 116.719" stroke="black" stroke-width="1.66407" stroke-linecap="round" stroke-linejoin="round"/>
<path fill-rule="evenodd" clip-rule="evenodd" d="M135.679 55.8794C137.217 56.4217 138.47 57.5677 139.144 59.0537C139.819 60.5398 139.855 62.2373 139.246 63.7509C134.898 74.567 127.225 93.656 123.481 102.968C122.271 105.98 118.879 107.475 115.839 106.338C114.326 105.774 113.106 104.622 112.454 103.142C111.801 101.665 111.773 99.9863 112.377 98.488C116.192 88.9956 123.852 69.9434 128.135 59.2835C129.33 56.3114 132.652 54.81 135.673 55.8733C135.673 55.8733 135.676 55.8733 135.679 55.8733V55.8794Z" fill="#0558FE"/>
<path d="M135.679 55.8794C137.217 56.4217 138.47 57.5677 139.144 59.0537C139.819 60.5398 139.855 62.2373 139.246 63.7509C134.898 74.567 127.225 93.656 123.481 102.968C122.271 105.98 118.879 107.475 115.839 106.338C114.326 105.774 113.106 104.622 112.454 103.142C111.801 101.665 111.773 99.9863 112.377 98.488C116.192 88.9956 123.852 69.9434 128.135 59.2835C129.33 56.3114 132.652 54.81 135.673 55.8733C135.673 55.8733 135.676 55.8733 135.679 55.8733V55.8794Z" stroke="black" stroke-width="1.67492" stroke-linecap="round" stroke-linejoin="round"/>
<path fill-rule="evenodd" clip-rule="evenodd" d="M127.942 59.9017C120.555 45.8531 126.306 40.1356 126.664 40.0406C129.324 39.3328 130.249 46.1717 130.332 46.7815C130.688 34.3629 135.921 33.8114 136.996 35.5364C138.253 37.5526 136.264 45.3506 136.053 46.1779C136.669 44.128 138.259 37.0256 141.173 36.7406C142.135 36.6487 145.564 36.7713 141.525 48.8191C145.416 37.3258 148.811 40.6136 149.286 41.3336C152.583 46.3372 145.897 58.5045 138.338 64.1546C136.644 65.4201 129.873 63.3947 127.942 59.9017Z" fill="#5D8F3B"/>
<path d="M127.942 59.9017C120.555 45.8531 126.306 40.1356 126.664 40.0406C129.324 39.3328 130.249 46.1717 130.332 46.7815C130.688 34.3629 135.921 33.8114 136.996 35.5364C138.253 37.5526 136.264 45.3506 136.053 46.1779C136.669 44.128 138.259 37.0256 141.173 36.7406C142.135 36.6487 145.564 36.7713 141.525 48.8191C145.416 37.3258 148.811 40.6136 149.286 41.3336C152.583 46.3372 145.897 58.5045 138.338 64.1546C136.644 65.4201 129.873 63.3947 127.942 59.9017Z" stroke="black" stroke-width="1.44702" stroke-linecap="round" stroke-linejoin="round"/>
<path fill-rule="evenodd" clip-rule="evenodd" d="M111.311 80.6859C111.311 80.6859 121.226 84.7059 125.117 95.62C125.117 95.62 129.094 107.631 125.022 111.939C125.022 111.939 104.052 126.68 54.4726 127.56C54.4726 127.56 14.4715 128.991 1.87829 116.106C1.87829 116.106 -2.53699 98.7209 5.1078 84.4945C6.77464 81.3814 9.75595 79.1876 13.2245 78.5196C26.9085 75.8968 67.9085 69.8116 111.311 80.6859Z" fill="#0558FE"/>
<path d="M111.311 80.6859C111.311 80.6859 121.226 84.7059 125.117 95.62C125.117 95.62 129.094 107.631 125.022 111.939C125.022 111.939 104.052 126.68 54.4726 127.56C54.4726 127.56 14.4715 128.991 1.87829 116.106C1.87829 116.106 -2.53699 98.7209 5.1078 84.4945C6.77464 81.3814 9.75595 79.1876 13.2245 78.5196C26.9085 75.8968 67.9085 69.8116 111.311 80.6859Z" stroke="black" stroke-width="1.44702" stroke-linecap="round" stroke-linejoin="round"/>
<path fill-rule="evenodd" clip-rule="evenodd" d="M112.129 13.1361C124.091 16.9937 123.864 36.5086 121.122 42.079C118.352 47.6985 113.403 50.3581 113.403 50.3581L113.437 68.9201C116.985 75.6058 113.357 82.2088 113.357 82.2088C105.553 92.7461 74.3092 98.9262 74.3092 98.9262C28.0666 101.981 8.59769 82.0924 8.59769 82.0924C1.39412 71.8064 7.61107 51.8686 7.61107 51.8686C15.2528 22.4017 24.163 22.9349 24.163 22.9349C37.2741 -0.471362 56.7216 -2.39865 66.9769 3.86732C80.1155 11.8982 84.2643 -0.891136 97.8747 0.760384C108.099 2.00439 110.719 12.6795 112.132 13.1361H112.129Z" fill="#5D8F3B"/>
<path d="M112.129 13.1361C124.091 16.9937 123.864 36.5086 121.122 42.079C118.352 47.6985 113.403 50.3581 113.403 50.3581L113.437 68.9201C116.985 75.6058 113.357 82.2088 113.357 82.2088C105.553 92.7461 74.3092 98.9262 74.3092 98.9262C28.0666 101.981 8.59769 82.0924 8.59769 82.0924C1.39412 71.8064 7.61107 51.8686 7.61107 51.8686C15.2528 22.4017 24.163 22.9349 24.163 22.9349C37.2741 -0.471362 56.7216 -2.39865 66.9769 3.86732C80.1155 11.8982 84.2643 -0.891136 97.8747 0.760384C108.099 2.00439 110.719 12.6795 112.132 13.1361H112.129Z" stroke="black" stroke-width="1.44702" stroke-linecap="round" stroke-linejoin="round"/>
<path d="M18.51 36.827C21.0225 29.222 21.7395 27.8463 24.4757 22.6221" stroke="black" stroke-width="1.44702" stroke-linecap="round" stroke-linejoin="round"/>
<path d="M43.6536 16.9753C47.407 13.7642 57.3069 5.97229 72.7313 13.3474" stroke="black" stroke-width="1.44702" stroke-linecap="round" stroke-linejoin="round"/>
<path d="M41.6708 34.3571C36.0514 34.5195 34.5469 30.1747 38.0338 27.8369C51.4022 18.8684 52.5788 15.8564 65.7971 15.5071C70.2431 15.3876 84.3897 17.7715 83.2254 27.6806" stroke="black" stroke-width="1.44702" stroke-linecap="round" stroke-linejoin="round"/>
<path fill-rule="evenodd" clip-rule="evenodd" d="M121.581 25.9741C121.21 25.1805 120.46 18.7031 103.525 19.7388C95.5736 20.226 85.5787 24.0622 83.728 28.1925C78.1698 40.5865 96.456 43.2952 103.902 41.325C105.317 40.9512 115.517 37.9913 119.185 34.0663C122.721 30.2822 121.823 27.5582 121.581 25.9772V25.9741Z" fill="white"/>
<path d="M121.581 25.9741C121.21 25.1805 120.46 18.7031 103.525 19.7388C95.5736 20.226 85.5787 24.0622 83.728 28.1925C78.1698 40.5865 96.456 43.2952 103.902 41.325C105.317 40.9512 115.517 37.9913 119.185 34.0663C122.721 30.2822 121.823 27.5582 121.581 25.9772V25.9741Z" stroke="black" stroke-width="1.44702" stroke-linecap="round" stroke-linejoin="round"/>
<path d="M82.7722 23.3843C85.441 18.8311 88.2936 15.381 95.9292 13.6039C106.35 11.1802 109.693 12.4855 112.037 13.1749" stroke="black" stroke-width="1.44702" stroke-linecap="round" stroke-linejoin="round"/>
<path d="M80.0574 14.8118C84.2275 10.0349 89.7888 5.37452 100.436 8.13829" stroke="black" stroke-width="1.44702" stroke-linecap="round" stroke-linejoin="round"/>
<path fill-rule="evenodd" clip-rule="evenodd" d="M42.3298 35.9905C41.6343 34.964 41.8488 33.5729 42.8201 32.8008C48.844 27.9136 67.2834 13.5341 79.8858 23.7128C90.2515 32.0869 74.4073 42.3759 65.0252 43.577C61.33 44.052 46.7788 42.5261 42.3298 35.9874V35.9905Z" fill="white"/>
<path d="M42.3298 35.9905C41.6343 34.964 41.8488 33.5729 42.8201 32.8008C48.844 27.9136 67.2834 13.5341 79.8858 23.7128C90.2515 32.0869 74.4073 42.3759 65.0252 43.577C61.33 44.052 46.7788 42.5261 42.3298 35.9874V35.9905Z" stroke="black" stroke-width="1.44702" stroke-linecap="round" stroke-linejoin="round"/>
<path fill-rule="evenodd" clip-rule="evenodd" d="M63.6493 23.415C68.227 23.415 71.9437 27.9345 71.9437 33.4988C71.9437 39.0631 68.227 43.5826 63.6493 43.5826C59.0717 43.5826 55.355 39.0631 55.355 33.4988C55.355 27.9345 59.0717 23.415 63.6493 23.415Z" fill="black"/>
<mask id="mask0_5166_109183" style="mask-type:luminance" maskUnits="userSpaceOnUse" x="55" y="23" width="17" height="21">
<path d="M63.6493 23.415C68.227 23.415 71.9437 27.9345 71.9437 33.4988C71.9437 39.0631 68.227 43.5826 63.6493 43.5826C59.0717 43.5826 55.355 39.0631 55.355 33.4988C55.355 27.9345 59.0717 23.415 63.6493 23.415Z" fill="white"/>
</mask>
<g mask="url(#mask0_5166_109183)">
<path fill-rule="evenodd" clip-rule="evenodd" d="M61.9549 25.7373C63.012 25.7373 63.87 26.8005 63.87 28.1119C63.87 29.4233 63.012 30.4866 61.9549 30.4866C60.8978 30.4866 60.043 29.4233 60.043 28.1119C60.043 26.8005 60.9009 25.7373 61.9549 25.7373Z" fill="white"/>
<path fill-rule="evenodd" clip-rule="evenodd" d="M64.8321 30.3213C65.7942 30.3213 66.5755 31.216 66.5755 32.3221C66.5755 33.4282 65.7942 34.3229 64.8321 34.3229C63.87 34.3229 63.0886 33.4282 63.0886 32.3221C63.0886 31.216 63.87 30.3213 64.8321 30.3213Z" fill="white"/>
<path d="M67.8442 30.8667C68.9882 30.8667 69.9155 29.8022 69.9155 28.489C69.9155 27.1759 68.9882 26.1113 67.8442 26.1113C66.7003 26.1113 65.7729 27.1759 65.7729 28.489C65.7729 29.8022 66.7003 30.8667 67.8442 30.8667Z" fill="white"/>
</g>
<path fill-rule="evenodd" clip-rule="evenodd" d="M101.984 21.5342C106.561 21.5342 110.278 26.0536 110.278 31.618C110.278 37.1823 106.561 41.7017 101.984 41.7017C97.4059 41.7017 93.6892 37.1823 93.6892 31.618C93.6892 26.0536 97.4059 21.5342 101.984 21.5342Z" fill="black"/>
<mask id="mask1_5166_109183" style="mask-type:luminance" maskUnits="userSpaceOnUse" x="93" y="21" width="18" height="21">
<path d="M101.984 21.5342C106.561 21.5342 110.278 26.0536 110.278 31.618C110.278 37.1823 106.561 41.7017 101.984 41.7017C97.4059 41.7017 93.6892 37.1823 93.6892 31.618C93.6892 26.0536 97.4059 21.5342 101.984 21.5342Z" fill="white"/>
</mask>
<g mask="url(#mask1_5166_109183)">
<path fill-rule="evenodd" clip-rule="evenodd" d="M100.292 23.8564C101.349 23.8564 102.204 24.9197 102.204 26.2311C102.204 27.5425 101.346 28.6057 100.292 28.6057C99.2383 28.6057 98.3804 27.5425 98.3804 26.2311C98.3804 24.9197 99.2383 23.8564 100.292 23.8564Z" fill="white"/>
<path fill-rule="evenodd" clip-rule="evenodd" d="M103.17 28.4404C104.132 28.4404 104.913 29.3351 104.913 30.4413C104.913 31.5474 104.132 32.4421 103.17 32.4421C102.207 32.4421 101.423 31.5474 101.423 30.4413C101.423 29.3351 102.204 28.4404 103.17 28.4404Z" fill="white"/>
<path d="M106.182 28.9859C107.326 28.9859 108.253 27.9213 108.253 26.6082C108.253 25.295 107.326 24.2305 106.182 24.2305C105.038 24.2305 104.11 25.295 104.11 26.6082C104.11 27.9213 105.038 28.9859 106.182 28.9859Z" fill="white"/>
</g>
<path fill-rule="evenodd" clip-rule="evenodd" d="M115.429 51.9358C117.013 51.4364 122.047 50.8236 123.355 45.8966C123.607 44.9498 124.976 38.7114 111.623 45.1367C100.838 50.3241 88.0054 58.1436 63.4624 51.8255C50.287 48.4336 43.2459 43.1175 40.5985 52.9807C37.3139 65.2215 65.9688 93.0063 97.3753 82.2208C101.803 80.7011 119.246 74.7109 119.066 60.4324C119.032 57.5951 118.438 56.2592 115.426 51.9358H115.429Z" fill="#E9585D"/>
<path d="M115.429 51.9358C117.013 51.4364 122.047 50.8236 123.355 45.8966C123.607 44.9498 124.976 38.7114 111.623 45.1367C100.838 50.3241 88.0054 58.1436 63.4624 51.8255C50.287 48.4336 43.2459 43.1175 40.5985 52.9807C37.3139 65.2215 65.9688 93.0063 97.3753 82.2208C101.803 80.7011 119.246 74.7109 119.066 60.4324C119.032 57.5951 118.437 56.2592 115.426 51.9358H115.429Z" stroke="black" stroke-width="1.44702" stroke-linecap="round" stroke-linejoin="round"/>
<path fill-rule="evenodd" clip-rule="evenodd" d="M108.47 53.6204C87.2946 59.102 77.7133 60.4103 56.2681 54.3405C51.3288 52.9433 47.2138 52.0516 46.5367 56.8591C45.6389 63.2139 67.7735 84.6102 92.7149 77.7253C112.337 72.308 114.66 61.3112 110.048 55.514C109.536 54.8706 108.982 54.2669 108.47 53.6235V53.6204Z" fill="#832122"/>
<path fill-rule="evenodd" clip-rule="evenodd" d="M61.1491 72.9763C72.1398 65.4571 82.2726 73.2183 91.86 71.6465C95.1538 71.1072 103.62 64.8688 88.033 57.9287C88.033 57.9287 68.6284 59.0165 59.0257 55.0792C59.0257 55.0792 51.7976 51.8252 48.1024 54.1569C48.1024 54.1569 44.2049 55.5694 48.9633 62.4482C52.4104 66.6582 56.7736 69.8234 61.1491 72.9732V72.9763Z" fill="#B3383B"/>
<path d="M115.888 51.6602C89.7948 58.5665 79.9072 61.0331 56.2681 54.3443C51.3288 52.9471 47.2138 52.0554 46.5367 56.8629C45.6389 63.2177 67.7735 84.6139 92.7149 77.729C112.337 72.3118 114.66 61.315 110.048 55.5178C109.536 54.8743 108.982 54.2707 108.47 53.6273" stroke="black" stroke-width="1.44702" stroke-linecap="round" stroke-linejoin="round"/>
<path d="M61.1492 72.9762C72.1399 65.4571 82.2727 73.2183 91.8601 71.6464C95.1539 71.1072 103.62 64.8688 88.0331 57.9287" stroke="black" stroke-width="1.44702" stroke-linecap="round" stroke-linejoin="round"/>
<path fill-rule="evenodd" clip-rule="evenodd" d="M47.9157 115.763L30.7417 77.1989L41.7876 66.6279L56.4306 102.857" fill="#0558FE"/>
<path d="M47.9157 115.763L30.7417 77.1989L41.7876 66.6279L56.4306 102.857" stroke="black" stroke-width="1.44702" stroke-linecap="round" stroke-linejoin="round"/>
<path fill-rule="evenodd" clip-rule="evenodd" d="M31.0083 76.9723C28.7133 75.9122 23.1919 74.3955 19.9777 67.293C18.3507 63.7019 18.4641 55.1808 27.3559 60.4847C22.6649 57.0346 21.712 57.7822 19.371 52.4293C18.0719 49.4633 19.9777 46.9937 22.4627 46.8926C26.1487 46.7455 30.4537 53.4068 30.9409 54.1574C22.0337 41.2701 29.9481 41.0556 30.9286 41.3559C35.1018 42.6336 35.7545 50.7931 35.828 51.7062C34.6698 40.4826 41.1564 44.7294 42.3177 46.8129C45.0937 51.7981 43.5157 59.2162 42.0817 65.6354C41.7171 67.2654 39.0575 68.7423 31.0144 76.9723H31.0083Z" fill="#5D8F3B"/>
<path d="M31.0083 76.9723C28.7133 75.9122 23.1919 74.3955 19.9777 67.293C18.3507 63.7019 18.4641 55.1808 27.3559 60.4847C22.6649 57.0346 21.712 57.7822 19.371 52.4293C18.0719 49.4633 19.9777 46.9937 22.4627 46.8926C26.1487 46.7455 30.4537 53.4068 30.9409 54.1574C22.0337 41.2701 29.9481 41.0556 30.9286 41.3559C35.1018 42.6336 35.7545 50.7931 35.828 51.7062C34.6698 40.4826 41.1564 44.7294 42.3177 46.8129C45.0937 51.7981 43.5157 59.2162 42.0817 65.6354C41.7171 67.2654 39.0575 68.7423 31.0144 76.9723H31.0083Z" stroke="black" stroke-width="1.44702" stroke-linecap="round" stroke-linejoin="round"/>
<path fill-rule="evenodd" clip-rule="evenodd" d="M36.2446 30.95C36.2446 30.95 23.8169 31.9703 14.2969 40.3842L14.3949 31.3667C14.3949 31.3667 26.887 21.9877 36.3733 20.4189L84.3838 20.183L126.496 19.8857L126.282 37.3018L120.359 43.2368L90.9286 43.77L85.4654 37.5438H84.1418V37.7614L77.3365 43.7516L43.5309 44.2909L36.1741 36.9249L36.2477 30.9531L36.2446 30.95Z" fill="white"/>
<mask id="mask2_5166_109183" style="mask-type:luminance" maskUnits="userSpaceOnUse" x="14" y="19" width="113" height="26">
<path d="M36.2446 30.95C36.2446 30.95 23.8169 31.9703 14.2969 40.3842L14.3949 31.3667C14.3949 31.3667 26.887 21.9877 36.3733 20.4189L84.3838 20.183L126.496 19.8857L126.282 37.3018L120.359 43.2368L90.9286 43.77L85.4654 37.5438H84.1418V37.7614L77.3365 43.7516L43.5309 44.2909L36.1741 36.9249L36.2477 30.9531L36.2446 30.95Z" fill="white"/>
</mask>
<g mask="url(#mask2_5166_109183)">
<path fill-rule="evenodd" clip-rule="evenodd" d="M77.634 26.0264L77.5023 35.338L74.5026 37.9792L46.5187 38.4266L42.8694 34.7742L42.9736 26.1949L77.634 26.0264Z" fill="#0020FF"/>
<path d="M77.634 26.0264L77.5023 35.338L74.5026 37.9792L46.5187 38.4266L42.8694 34.7742L42.9736 26.1949L77.634 26.0264Z" stroke="black" stroke-width="1.44702" stroke-linecap="round" stroke-linejoin="round"/>
<path fill-rule="evenodd" clip-rule="evenodd" d="M120.62 25.6494L120.506 34.8875L117.893 37.5073L93.5334 37.9516L90.356 34.3268L90.4448 25.8179L120.62 25.6494Z" fill="#FF0032"/>
<path d="M120.62 25.6494L120.506 34.8875L117.893 37.5073L93.5334 37.9516L90.356 34.3268L90.4448 25.8179L120.62 25.6494Z" stroke="black" stroke-width="1.44702" stroke-linecap="round" stroke-linejoin="round"/>
</g>
<path d="M36.2446 30.95C36.2446 30.95 23.8169 31.9703 14.2969 40.3842L14.3949 31.3667C14.3949 31.3667 26.887 21.9877 36.3733 20.4189L84.3838 20.183L126.496 19.8857L126.282 37.3018L120.359 43.2368L90.9286 43.77L85.4654 37.5438H84.1418V37.7614L77.3365 43.7516L43.5309 44.2909L36.1741 36.9249L36.2477 30.9531L36.2446 30.95Z" stroke="black" stroke-width="1.44702" stroke-linecap="round" stroke-linejoin="round"/>
</g>
<defs>
<clipPath id="clip0_5166_109183">
<rect width="150.763" height="265" fill="white"/>
</clipPath>
</defs>
</svg>
