<svg width="103" height="97" viewBox="0 0 103 97" fill="none" xmlns="http://www.w3.org/2000/svg">
<g clip-path="url(#clip0_5330_42929)">
<path fill-rule="evenodd" clip-rule="evenodd" d="M1.34326 75.5929L1.37291 96.3785L81.4229 96.3215C81.4229 96.3215 80.1846 90.8092 73.5411 86.6471L69.2946 83.3516L68.2523 81.1006L5.4712 73.627C5.4712 73.627 2.39919 75.212 1.34554 75.5929H1.34326Z" fill="#0558FE"/>
<path d="M1.34326 75.5929L1.37291 96.3785L81.4229 96.3215C81.4229 96.3215 80.1846 90.8092 73.5411 86.6471L69.2946 83.3516L68.2523 81.1006L5.4712 73.627C5.4712 73.627 2.39919 75.212 1.34554 75.5929H1.34326Z" stroke="black" stroke-width="0.912251" stroke-linecap="round" stroke-linejoin="round"/>
<path fill-rule="evenodd" clip-rule="evenodd" d="M16.3932 22.8359C16.3932 22.8359 21.4128 1.59637 40.1368 0.435534C40.1368 0.435534 52.7281 0.141332 57.2985 6.79849C57.2985 6.79849 69.9492 -0.536013 77.327 3.08334C77.327 3.08334 85.7129 5.55554 86.3742 15.2459C86.3742 15.2459 93.9094 17.9188 95.1684 20.8745C95.1684 20.8745 98.4342 21.5131 98.4433 24.8497C98.4433 24.8497 102.647 27.0527 100.703 29.2148L99.5745 34.5332C99.5745 34.5332 98.4479 36.6838 96.5162 37.774C96.5162 37.774 93.9436 43.1015 88.7712 44.2989C88.7712 44.2989 95.8343 51.8112 95.6085 57.7067C95.6085 57.7067 87.5875 70.3482 85.0401 72.6539C85.0401 72.6539 74.3006 82.3557 67.3173 82.0957C67.3173 82.0957 65.3697 86.3035 61.1323 86.3719C61.1323 86.3719 30.9892 88.4039 19.3899 83.033C19.3899 83.033 3.3936 79.7489 5.10179 74.3165C5.10179 74.3165 -0.567854 65.9922 0.695614 51.7542" fill="#48A92B"/>
<path fill-rule="evenodd" clip-rule="evenodd" d="M0.697998 51.751C0.697998 51.751 2.0983 28.9014 16.3933 22.835L0.697998 51.751Z" fill="#48A92B"/>
<path d="M15.5286 31.4997C15.6198 26.4778 14.76 22.1172 20.9451 12.5614C30.3504 -1.97304 43.1971 0.38285 46.3535 0.937042C59.6929 3.28381 60.1992 13.6105 60.6941 16.1009" stroke="black" stroke-width="0.912251" stroke-linecap="round" stroke-linejoin="round"/>
<path d="M58.0627 6.39259C63.4678 3.87934 70.8958 -0.44245 80.2464 4.55897C85.4166 7.32537 86.1441 14.1376 86.2467 15.1023" stroke="black" stroke-width="0.912251" stroke-linecap="round" stroke-linejoin="round"/>
<path d="M61.0183 15.1961C81.8792 11.8071 92.7669 16.3637 95.1502 21.0938" stroke="black" stroke-width="0.912251" stroke-linecap="round" stroke-linejoin="round"/>
<path d="M31.3196 15.5746C38.1707 11.1228 45.5416 6.43155 60.0396 15.83C60.5117 16.1356 60.2791 16.4207 65.6066 20.1267C68.3958 22.0675 68.4505 24.7997 65.4515 24.3094C57.3188 22.9798 53.1726 18.3296 41.4411 25.7234C32.5717 31.3155 30.1953 27.1853 29.2055 29.9471C29.0002 30.5218 28.462 32.4604 36.4374 32.4079" stroke="black" stroke-width="0.912251" stroke-linecap="round" stroke-linejoin="round"/>
<path d="M32.189 25.5653C40.5155 24.5345 39.4003 21.0747 47.0473 19.8455C54.7124 18.614 63.3811 19.7064 64.7883 19.8843" stroke="black" stroke-width="0.912251" stroke-linecap="round" stroke-linejoin="round"/>
<path d="M68.0107 23.1162C77.7399 20.2859 82.1073 19.3144 89.6014 20.1901C96.2358 20.9655 98.6738 22.1264 98.5575 25.2919" stroke="black" stroke-width="0.912251" stroke-linecap="round" stroke-linejoin="round"/>
<path d="M68.6973 25.1853C78.3671 23.0711 83.6536 21.2307 95.5311 24.3346C101.983 26.02 101.575 27.377 100.943 28.9802" stroke="black" stroke-width="0.912251" stroke-linecap="round" stroke-linejoin="round"/>
<path d="M99.5196 34.8848C98.3132 37.2429 97.5264 36.5816 96.028 38.7436C90.7734 46.3176 84.2645 45.8135 76.3599 45.7565" stroke="black" stroke-width="0.912251" stroke-linecap="round" stroke-linejoin="round"/>
<path d="M70.9272 43.5693C73.4793 44.6025 74.834 44.7667 80.6952 48.3883" stroke="black" stroke-width="0.912251" stroke-linecap="round" stroke-linejoin="round"/>
<path d="M68.7585 34.7041C69.8487 38.9734 66.8656 38.3121 62.6829 40.8253C61.8209 41.343 61.5814 41.489 50.1144 40.8846C44.1095 40.5676 37.2539 37.5002 36.198 37.0281" stroke="black" stroke-width="0.912251" stroke-linecap="round" stroke-linejoin="round"/>
<path d="M49.0266 47.7967C55.5629 45.9814 56.8902 45.2744 62.1334 42.3301" stroke="black" stroke-width="0.912251" stroke-linecap="round" stroke-linejoin="round"/>
<path d="M24.7542 67.8848C26.7679 72.5555 27.5 73.2306 32.0157 74.0584" stroke="black" stroke-width="0.912251" stroke-linecap="round" stroke-linejoin="round"/>
<path d="M16.122 22.8633C-4.68194 33.5891 -1.53011 71.2468 7.07014 75.7761C7.44416 75.9723 27.0097 84.9215 52.7671 83.6215C69.0827 82.7982 74.5653 82.1915 84.6024 73.418" stroke="black" stroke-width="0.912251" stroke-linecap="round" stroke-linejoin="round"/>
<path d="M88.5156 44.6064C89.5966 45.7604 95.4236 50.4973 95.4807 58.0804" stroke="black" stroke-width="0.912251" stroke-linecap="round" stroke-linejoin="round"/>
<path d="M5.20205 73.9443C4.44032 75.6388 3.31597 77.6298 12.6301 81.0006C27.4861 86.376 30.647 86.839 50.5432 86.9279C62.2611 86.9804 64.9112 85.8948 67.0892 82.6563" stroke="black" stroke-width="0.912251" stroke-linecap="round" stroke-linejoin="round"/>
<path fill-rule="evenodd" clip-rule="evenodd" d="M92.1898 65.9534C92.6209 65.6911 97.2825 63.8416 97.36 60.4822C97.5014 54.1375 90.0324 63.2281 76.6382 62.9909C61.6545 62.7263 53.1136 61.8939 51.0952 61.4172C46.144 60.2473 31.1009 47.0265 28.1931 56.1102C27.5477 58.1286 33.5845 65.4289 38.8323 67.4267C52.646 72.6927 48.5021 72.6334 74.0953 73.703C79.6031 73.9333 88.9559 74.7247 92.4886 70.745C94.1398 68.8863 92.4111 66.2522 92.1921 65.9511L92.1898 65.9534Z" fill="#E9585D"/>
<path d="M92.1898 65.9534C92.6209 65.6911 97.2825 63.8416 97.36 60.4822C97.5014 54.1375 90.0324 63.2281 76.6382 62.9909C61.6545 62.7263 53.1136 61.8939 51.0952 61.4172C46.144 60.2473 31.1009 47.0265 28.1931 56.1102C27.5477 58.1286 33.5845 65.4289 38.8323 67.4267C52.646 72.6927 48.5021 72.6334 74.0953 73.703C79.6031 73.9333 88.9559 74.7247 92.4886 70.745C94.1398 68.8863 92.4111 66.2522 92.1921 65.9511L92.1898 65.9534Z" stroke="black" stroke-width="0.912251" stroke-linecap="round" stroke-linejoin="round"/>
<path d="M31.8147 57.1342C35.6233 57.0749 38.6976 64.1357 53.6517 66.8838C66.2773 69.2032 78.5995 68.9797 92.1943 65.967" stroke="black" stroke-width="0.912251" stroke-linecap="round" stroke-linejoin="round"/>
<path fill-rule="evenodd" clip-rule="evenodd" d="M70.2273 29.7302C71.9355 29.2787 75.0189 27.778 89.079 26.9045C102.003 26.0995 104.067 31.053 99.8777 34.271C99.1935 34.7955 89.0607 38.5745 78.5926 37.3339C77.4478 37.1993 63.301 36.9644 70.2273 29.7325V29.7302Z" fill="white"/>
<mask id="mask0_5330_42929" style="mask-type:luminance" maskUnits="userSpaceOnUse" x="68" y="26" width="34" height="12">
<path d="M70.2273 29.7302C71.9355 29.2787 75.0189 27.778 89.079 26.9045C102.003 26.0995 104.067 31.053 99.8777 34.271C99.1935 34.7955 89.0607 38.5745 78.5926 37.3339C77.4478 37.1993 63.301 36.9644 70.2273 29.7325V29.7302Z" fill="white"/>
</mask>
<g mask="url(#mask0_5330_42929)">
<path fill-rule="evenodd" clip-rule="evenodd" d="M97.3666 23.0586C100.475 23.0586 103 25.6175 103 28.7716C103 31.9257 100.475 34.4845 97.3666 34.4845C94.2581 34.4845 91.7312 31.9257 91.7312 28.7716C91.7312 25.6175 94.2559 23.0586 97.3666 23.0586Z" fill="black"/>
<mask id="mask1_5330_42929" style="mask-type:luminance" maskUnits="userSpaceOnUse" x="91" y="23" width="12" height="12">
<path d="M97.3669 23.0586C100.475 23.0586 103 25.6175 103 28.7716C103 31.9257 100.475 34.4845 97.3669 34.4845C94.2584 34.4845 91.7314 31.9257 91.7314 28.7716C91.7314 25.6175 94.2561 23.0586 97.3669 23.0586Z" fill="white"/>
</mask>
<g mask="url(#mask1_5330_42929)">
<path fill-rule="evenodd" clip-rule="evenodd" d="M94.4226 27.0674C95.1456 27.0674 95.7317 27.6033 95.7317 28.2647C95.7317 28.9261 95.1456 29.462 94.4226 29.462C93.6996 29.462 93.1135 28.9261 93.1135 28.2647C93.1135 27.6033 93.6996 27.0674 94.4226 27.0674Z" fill="white"/>
<path fill-rule="evenodd" clip-rule="evenodd" d="M96.455 30.5889C96.9955 30.5889 97.4357 31.0017 97.4357 31.5102C97.4357 32.0188 96.9978 32.4316 96.455 32.4316C95.9122 32.4316 95.4744 32.0188 95.4744 31.5102C95.4744 31.0017 95.9145 30.5889 96.455 30.5889Z" fill="white"/>
</g>
</g>
<path d="M70.2273 29.7302C71.9355 29.2787 75.0189 27.778 89.079 26.9045C102.003 26.0995 104.067 31.053 99.8777 34.271C99.1935 34.7955 89.0607 38.5745 78.5926 37.3339C77.4478 37.1993 63.301 36.9644 70.2273 29.7325V29.7302Z" stroke="black" stroke-width="0.912251" stroke-linecap="round" stroke-linejoin="round"/>
<path fill-rule="evenodd" clip-rule="evenodd" d="M36.4124 32.1567C47.738 31.6778 58.587 26.2043 68.4461 27.1872C72.3871 27.5795 69.6412 34.1249 67.2785 35.6096C63.2121 38.1662 50.6093 38.4398 50.3106 38.4353C43.2361 38.2962 37.2631 32.907 36.4102 32.1567H36.4124Z" fill="white"/>
<mask id="mask2_5330_42929" style="mask-type:luminance" maskUnits="userSpaceOnUse" x="36" y="27" width="35" height="12">
<path d="M36.4122 32.1577C47.7378 31.6787 58.5867 26.2052 68.4459 27.1882C72.3868 27.5805 69.6409 34.1259 67.2782 35.6106C63.2119 38.1671 50.6091 38.4408 50.3103 38.4363C43.2358 38.2971 37.2629 32.908 36.4099 32.1577H36.4122Z" fill="white"/>
</mask>
<g mask="url(#mask2_5330_42929)">
<path d="M66.2657 35.3781C69.3768 35.3781 71.8989 32.8203 71.8989 29.6651C71.8989 26.5099 69.3768 23.9521 66.2657 23.9521C63.1546 23.9521 60.6326 26.5099 60.6326 29.6651C60.6326 32.8203 63.1546 35.3781 66.2657 35.3781Z" fill="black"/>
<mask id="mask3_5330_42929" style="mask-type:luminance" maskUnits="userSpaceOnUse" x="60" y="23" width="12" height="13">
<path d="M66.266 35.3781C69.3771 35.3781 71.8991 32.8203 71.8991 29.6651C71.8991 26.5099 69.3771 23.9521 66.266 23.9521C63.1549 23.9521 60.6328 26.5099 60.6328 29.6651C60.6328 32.8203 63.1549 35.3781 66.266 35.3781Z" fill="white"/>
</mask>
<g mask="url(#mask3_5330_42929)">
<path d="M63.324 30.3536C64.047 30.3536 64.633 29.8176 64.633 29.1563C64.633 28.495 64.047 27.959 63.324 27.959C62.601 27.959 62.0149 28.495 62.0149 29.1563C62.0149 29.8176 62.601 30.3536 63.324 30.3536Z" fill="white"/>
<path fill-rule="evenodd" clip-rule="evenodd" d="M65.3537 31.4824C65.8942 31.4824 66.3344 31.8952 66.3344 32.4038C66.3344 32.9124 65.8965 33.3252 65.3537 33.3252C64.8109 33.3252 64.373 32.9124 64.373 32.4038C64.373 31.8952 64.8132 31.4824 65.3537 31.4824Z" fill="white"/>
</g>
</g>
<path d="M36.4124 32.1567C47.738 31.6778 58.587 26.2043 68.4461 27.1872C72.3871 27.5795 69.6412 34.1249 67.2785 35.6096C63.2121 38.1662 50.6093 38.4398 50.3106 38.4353C43.2361 38.2962 37.2631 32.907 36.4102 32.1567H36.4124Z" stroke="black" stroke-width="0.912251" stroke-linecap="round" stroke-linejoin="round"/>
</g>
<defs>
<clipPath id="clip0_5330_42929">
<rect width="103" height="96.8355" fill="white"/>
</clipPath>
</defs>
</svg>
