<svg width="52" height="52" viewBox="0 0 52 52" fill="none" xmlns="http://www.w3.org/2000/svg">
<path d="M26 1C12.1929 1 1 12.1929 1 26C1 39.8071 12.1929 51 26 51C39.8071 51 51 39.8071 51 26C51 12.1929 39.8071 1 26 1Z" fill="#010101"/>
<path d="M26 1C12.1929 1 1 12.1929 1 26C1 39.8071 12.1929 51 26 51C39.8071 51 51 39.8071 51 26C51 12.1929 39.8071 1 26 1Z" stroke="white" stroke-width="2"/>
<path fill-rule="evenodd" clip-rule="evenodd" d="M11.2798 27.6437C11.2798 27.6437 7.43379 26.0521 7.70322 24.505C7.70322 24.505 7.84031 23.7574 8.51763 23.6911C8.51763 23.6911 10.9106 21.6206 11.6585 21.3322L11.4373 20.873C11.4373 20.873 9.30624 19.9962 9.6829 18.402C9.6829 18.402 8.07988 16.3854 10.3928 14.0852C10.3928 14.0852 10.1166 12.521 12.9527 12.3809C12.9527 12.3809 16.6338 11.3736 19.5589 11.7297C19.5589 11.7297 21.751 9.77049 25.1186 11.3443C25.1186 11.3443 27.6853 12.6734 28.497 13.503C28.497 13.503 32.5826 11.5677 35.887 13.0233C35.887 13.0233 43.0891 15.0474 42.7334 23.3071C42.7334 23.3071 42.8827 23.9508 43.4236 24.6048C43.4236 24.6048 47.1774 28.9578 43.1006 36.8895C43.1006 36.8895 40.7653 39.1767 33.1588 40.9254C33.1588 40.9254 16.3563 43.3581 9.29334 33.3517C9.29334 33.3517 6.60853 31.4561 7.76294 29.6514C7.76294 29.6514 9.30895 27.9279 11.2791 27.6416L11.2798 27.6437Z" fill="#48A92B"/>
<path fill-rule="evenodd" clip-rule="evenodd" d="M11.4055 27.6305C10.1826 27.1351 6.25781 25.1376 8.1608 23.7278C8.74378 23.296 9.52289 24.9162 11.4985 25.9549C18.4297 29.5992 24.2521 29.5138 25.3909 29.4967C29.6359 29.4346 29.6244 29.4585 33.8471 29.1469C37.4237 28.8831 38.8041 31.3637 36.3398 33.2511C34.5305 34.6369 29.3373 36.5503 27.621 36.7506C25.813 36.9617 21.1594 37.5023 18.9768 37.0601C13.3499 35.9196 3.71348 31.9363 9.16523 28.443C9.85137 28.0036 11.2067 27.6647 11.4048 27.6305H11.4055Z" fill="#B38E40"/>
<path fill-rule="evenodd" clip-rule="evenodd" d="M13.1848 28.6406C13.1848 28.6406 10.0561 29.7709 9.66992 30.6135C9.66992 30.6135 12.4192 33.8485 20.6671 34.879C20.6671 34.879 31.9439 34.7758 34.6646 32.056C34.6646 32.056 35.4709 31.6289 33.4553 31.605C33.4553 31.605 20.5789 32.3499 13.1841 28.6406H13.1848Z" fill="#D48DB5"/>
<path fill-rule="evenodd" clip-rule="evenodd" d="M17.9302 34.3201L20.1848 34.8189C20.9374 34.8647 24.1618 34.8866 28.6084 34.2442C33.055 33.6019 34.8142 31.8921 34.8142 31.8921C34.9553 31.5347 32.8155 31.6249 32.8155 31.6249C27.6623 31.9577 16.9869 30.2261 16.9869 30.2261C16.6007 30.4529 15.3207 31.0427 15.5114 31.7397C15.6825 32.3663 17.0323 33.4877 17.9302 34.3201Z" fill="#C93322"/>
<path fill-rule="evenodd" clip-rule="evenodd" d="M18.017 34.4074C17.4869 34.2291 21.0927 33.0195 24.575 32.9115C27.9737 32.8056 28.4549 33.6913 28.9184 34.1402C28.9184 34.1402 22.2858 35.0013 20.7113 34.8482C20.7113 34.8482 18.412 34.54 18.0163 34.4067L18.017 34.4074Z" fill="#CB89AF"/>
<path fill-rule="evenodd" clip-rule="evenodd" d="M21.0453 21.2415C20.8702 20.9224 19.8298 19.8775 20.7141 17.7557C21.7287 15.3216 24.1529 15.3879 27.8184 16.3015C31.7615 17.2842 32.3153 19.2215 35.7616 20.3251C36.1606 20.4529 37.6184 21.6406 34.9322 21.8921C33.1215 22.0616 31.7126 23.8567 27.5205 23.9155C26.0288 23.9367 24.7719 23.3572 22.9327 22.7087C21.7226 22.2823 21.1464 21.3967 21.0446 21.2415H21.0453Z" fill="white"/>
<path fill-rule="evenodd" clip-rule="evenodd" d="M20.4904 19.7086C20.4904 19.7086 12.9918 21.4115 9.68331 18.4027C9.68331 18.4027 8.14545 15.944 10.5629 13.8741C10.5629 13.8741 15.7601 12.4165 21.465 16.4257C21.465 16.4257 20.2285 17.5047 20.4904 19.7086Z" fill="white"/>
<path d="M11.4055 27.6305C10.1826 27.1351 6.25781 25.1376 8.1608 23.7278C8.74378 23.296 9.52289 24.9162 11.4985 25.9549C18.4297 29.5992 24.2521 29.5138 25.3909 29.4967C29.6359 29.4346 29.6244 29.4585 33.8471 29.1469C37.4237 28.8831 38.8041 31.3637 36.3398 33.2511C34.5305 34.6369 29.3373 36.5503 27.621 36.7506C25.813 36.9617 21.1594 37.5023 18.9768 37.0601C13.3499 35.9196 3.71348 31.9363 9.16523 28.443C9.85137 28.0036 11.2067 27.6647 11.4048 27.6305H11.4055Z" stroke="black" stroke-width="0.499583" stroke-linecap="round" stroke-linejoin="round"/>
<path d="M13.1848 28.6406C13.1848 28.6406 10.0561 29.7709 9.66992 30.6135C9.66992 30.6135 12.4192 33.8485 20.6671 34.879C20.6671 34.879 31.9439 34.7758 34.6646 32.056C34.6646 32.056 35.4709 31.6289 33.4553 31.605C33.4553 31.605 20.5789 32.3499 13.1841 28.6406H13.1848Z" stroke="black" stroke-width="0.499583" stroke-linecap="round" stroke-linejoin="round"/>
<path fill-rule="evenodd" clip-rule="evenodd" d="M11.3103 31.9114C11.3103 31.9114 10.3731 31.0934 10.8644 30.5522C11.3565 30.0103 13.2846 29.2244 13.951 29.057L12.9242 28.6572C12.9242 28.6572 10.3581 29.7157 9.7168 30.5522C9.7168 30.5522 10.2842 31.3941 11.3103 31.9114Z" fill="black"/>
<path fill-rule="evenodd" clip-rule="evenodd" d="M9.24644 33.6981C4.9654 30.6913 7.91354 27.9989 9.05099 27.6722C9.65908 27.4973 9.67944 27.5759 10.2346 27.2766C10.4531 27.159 11.184 27.6046 11.2058 27.6155C10.0208 28.087 8.49516 28.2982 8.1884 30.3011C7.88368 32.2897 8.98923 32.9566 10.1294 33.8306C9.67672 33.8587 9.68351 33.8498 9.24712 33.6981H9.24644Z" fill="black"/>
<path d="M16.9859 30.2261C16.5997 30.4529 15.3198 31.0427 15.5105 31.7397C15.6815 32.3663 17.0314 33.4877 17.9292 34.3201" stroke="black" stroke-width="0.499583" stroke-linecap="round" stroke-linejoin="round"/>
<path d="M18.0171 34.4074C18.5281 34.2263 21.0928 33.0195 24.5751 32.9115C27.9739 32.8056 28.455 33.6913 28.9186 34.1402" stroke="black" stroke-width="0.499583" stroke-linecap="round" stroke-linejoin="round"/>
<path d="M38.2373 29.1211C38.3045 29.2926 38.6031 30.0573 39.1162 31.2477" stroke="black" stroke-width="0.499583" stroke-linecap="round" stroke-linejoin="round"/>
<path d="M8.60596 23.6195C8.86792 23.3318 10.4418 21.6016 12.8856 21.0439" stroke="black" stroke-width="0.499583" stroke-linecap="round" stroke-linejoin="round"/>
<path d="M11.9932 21.3286C13.2813 22.2101 13.8059 22.7192 16.4439 23.1293" stroke="black" stroke-width="0.499583" stroke-linecap="round" stroke-linejoin="round"/>
<path fill-rule="evenodd" clip-rule="evenodd" d="M9.72363 18.5552C9.72363 18.5552 11.6022 19.9192 14.872 20.0688C18.1418 20.2191 20.2892 19.803 20.2892 19.803L20.6617 20.6907C20.6617 20.6907 17.1612 22.5262 16.5497 23.0469C16.5497 23.0469 13.2738 22.436 11.8947 21.2045C11.8947 21.2045 9.78403 20.5314 9.72363 18.5552Z" fill="black"/>
<path d="M11.647 20.9394C11.2947 20.7727 10.3154 20.377 9.88377 19.5987C9.54104 18.9796 9.70868 18.4807 9.73922 18.3892" stroke="black" stroke-width="0.499583" stroke-linecap="round" stroke-linejoin="round"/>
<path fill-rule="evenodd" clip-rule="evenodd" d="M20.8667 20.6828C20.8728 20.7047 20.881 20.7259 20.8844 20.7484C20.8878 20.7682 20.9075 20.8837 20.8294 20.9979C20.7914 21.0532 20.7453 21.0833 20.7364 21.0887C20.6869 21.1209 20.6842 21.1147 20.4494 21.2015C17.5263 22.2853 15.3695 24.1823 15.0261 24.4823C15.0207 24.4871 14.9908 24.513 14.944 24.511C14.9297 24.511 14.9155 24.5076 14.9019 24.5014C14.8958 24.4987 14.8598 24.4823 14.8442 24.4386C14.8286 24.3962 14.8442 24.3593 14.8476 24.3531C14.8537 24.3395 14.8632 24.3279 14.8727 24.3162C14.8775 24.3101 14.9969 24.1932 15.0078 24.1823C15.6525 23.5495 17.6634 21.6853 20.3978 20.5045C20.4066 20.5011 20.4337 20.4888 20.4337 20.4888C20.4555 20.4826 20.4765 20.4744 20.4989 20.471C20.5186 20.4676 20.6326 20.4478 20.7459 20.527C20.8009 20.5653 20.8308 20.6124 20.8362 20.6213L20.8667 20.6821V20.6828Z" fill="black"/>
<path fill-rule="evenodd" clip-rule="evenodd" d="M11.3422 21.5077C10.9126 21.7435 11.3313 21.0451 11.1284 20.605C11.1284 20.605 16.0617 21.3505 18.3291 21.1243C18.3488 21.4257 12.2184 21.2986 11.3422 21.5077Z" fill="black"/>
<path d="M20.1457 19.772C20.1457 19.772 12.5555 21.1906 9.76752 18.4415C9.76752 18.4415 8.12378 16.3204 10.4686 13.9341C10.4686 13.9341 16.2922 12.4457 21.3592 16.3709" stroke="black" stroke-width="0.499583" stroke-linecap="round" stroke-linejoin="round"/>
<path d="M10.4647 13.9064C10.4647 13.9064 10.0263 12.58 12.916 12.3203C12.916 12.3203 19.1218 12.7146 22.3563 15.966" stroke="black" stroke-width="0.499583" stroke-linecap="round" stroke-linejoin="round"/>
<path d="M13.0903 12.3105C13.0903 12.3105 16.9004 11.3586 19.3368 11.7235C19.3368 11.7235 21.818 9.8231 25.1388 11.3367C25.1388 11.3367 27.6451 12.4485 28.3821 13.4422" stroke="black" stroke-width="0.499583" stroke-linecap="round" stroke-linejoin="round"/>
<path d="M22.0254 15.4222C23.8198 14.3712 26.0872 14.7423 28.3248 15.2432C30.8338 15.8042 33.5159 17.6937 35.5669 19.0187" stroke="black" stroke-width="0.499583" stroke-linecap="round" stroke-linejoin="round"/>
<path d="M23.682 14.7534C26.3764 13.8651 26.4232 14.025 28.4829 13.6368C29.4338 13.4578 31.7562 11.4111 36.6236 13.289C38.7458 14.1077 41.2467 16.8055 42.0577 18.6274C43.5447 21.9663 42.3461 23.3323 42.9522 24.0279C43.8168 25.0222 45.1565 26.0821 44.8226 31.9959C44.8049 32.3082 44.2844 36.3024 42.6061 37.445C42.5034 37.5151 41.7957 37.8636 40.4832 38.4905C40.4832 38.4905 30.9859 44.0947 17.8645 39.3809C17.8645 39.3809 11.7232 37.7791 8.97119 32.9088" stroke="black" stroke-width="0.499583" stroke-linecap="round" stroke-linejoin="round"/>
<path fill-rule="evenodd" clip-rule="evenodd" d="M22.5713 23.5376L24.8672 25.108C27.6355 27.279 34.8491 26.0523 34.7011 25.6464C29.8154 25.8651 25.6301 25.3239 22.5713 23.5383V23.5376Z" fill="black"/>
<path fill-rule="evenodd" clip-rule="evenodd" d="M20.2002 11.737C20.2002 11.737 24.0096 9.94868 27.9798 13.6019L28.554 13.6299C28.554 13.6299 26.2648 11.0462 23.3214 10.8097C23.3214 10.8097 21.3139 10.5015 19.7998 11.5819L20.2002 11.737Z" fill="black"/>
<path fill-rule="evenodd" clip-rule="evenodd" d="M29.9526 13.1366C29.9526 13.1366 33.1091 12.4622 36.0328 13.4694C36.0328 13.4694 41.7065 15.4416 42.3451 21.5364C42.3451 21.5364 42.1931 23.1505 42.1965 23.2865C42.1999 23.4225 42.7035 23.9296 42.7035 23.9296C42.7035 23.9296 42.7856 23.1663 42.8155 22.8225C42.8453 22.4788 42.8616 20.2511 42.4001 19.2677C41.9386 18.2844 39.6841 14.2956 36.2385 13.0321C36.2385 13.0321 32.4766 11.6729 29.9526 13.1373V13.1366Z" fill="black"/>
<path fill-rule="evenodd" clip-rule="evenodd" d="M20.325 37.2855C20.325 37.2855 20.3508 38.6549 21.8683 39.3478C23.3852 40.0414 29.2984 41.8154 34.0701 40.6612C34.0701 40.6612 24.6617 42.1783 20.5891 40.2266C20.5891 40.2266 19.6599 37.4611 18.8374 37.0312L20.3257 37.2855H20.325Z" fill="black"/>
<path fill-rule="evenodd" clip-rule="evenodd" d="M18.3959 30.496C18.3959 30.496 16.5472 31.0092 16.1794 31.4404C16.1794 31.4404 15.9242 31.7704 16.5126 32.3232C17.101 32.8761 18.5181 33.8328 19.1662 33.8136L17.8625 34.4376L15.7763 32.2501C15.7763 32.2501 15.1614 31.4369 15.8876 30.8759C16.6137 30.3155 17.1614 30.0894 17.1614 30.0894L18.3959 30.496Z" fill="black"/>
<path fill-rule="evenodd" clip-rule="evenodd" d="M24.4648 32.788C24.4648 32.788 27.7727 32.3404 28.7187 32.911C29.6648 33.4823 30.2661 33.7536 30.2661 33.7536L28.9827 34.1951C28.9827 34.1951 27.8677 32.7573 24.735 32.7552" fill="black"/>
<path fill-rule="evenodd" clip-rule="evenodd" d="M20.9218 21.3052C22.1224 23.6854 27.4581 24.4289 27.4581 24.4289C29.2083 24.528 34.4687 23.1312 34.4687 23.1312C34.4687 23.1312 28.4062 26.0935 23.9534 24.5047C22.9944 24.1624 22.1095 23.6095 21.3765 22.7704C21.3765 22.7704 20.3856 20.2413 20.9218 21.3052Z" fill="black"/>
<path fill-rule="evenodd" clip-rule="evenodd" d="M17.6354 13.1631C17.6354 13.1631 16.8529 12.4408 16.1607 12.3171C16.1607 12.3171 18.1322 11.6166 23.075 13.4152L19.9986 11.4287L19.4007 11.7574C19.4007 11.7574 16.4016 11.2271 13.6768 12.3C13.6768 12.3 17.0029 12.8098 17.6348 13.1631H17.6354Z" fill="black"/>
<path fill-rule="evenodd" clip-rule="evenodd" d="M25.7295 14.1682C25.7295 14.1682 31.6746 14.2427 35.5675 15.895C35.5675 15.895 37.216 16.5784 38.728 18.0155C38.728 18.0155 37.3429 16.2401 34.4042 15.0511C34.4042 15.0511 30.6492 13.6051 29.1785 13.3687L28.134 13.6044L25.7295 14.1682Z" fill="black"/>
<path d="M21.0453 21.2415C20.8702 20.9224 19.8298 19.8775 20.7141 17.7557C21.7287 15.3216 24.1529 15.3879 27.8184 16.3015C31.7615 17.2842 32.3153 19.2215 35.7616 20.3251C36.1606 20.4529 37.6184 21.6406 34.9322 21.8921C33.1215 22.0616 31.7126 23.8567 27.5205 23.9155C26.0288 23.9367 24.7719 23.3572 22.9327 22.7087C21.7226 22.2823 21.1464 21.3967 21.0446 21.2415H21.0453Z" stroke="black" stroke-width="0.499583" stroke-linecap="round" stroke-linejoin="round"/>
<path fill-rule="evenodd" clip-rule="evenodd" d="M13.8059 14.8847C12.7472 15.5359 11.8676 15.7573 12.6868 18.1703C12.8693 18.7074 14.9881 19.3662 15.8399 18.5154C16.3319 18.0247 16.9413 17.4821 15.9871 15.6173C15.5623 14.787 14.6074 14.4501 13.8052 14.8847H13.8059Z" fill="black"/>
<path fill-rule="evenodd" clip-rule="evenodd" d="M25.1702 17.6046C24.9727 17.7536 23.6324 18.767 23.9893 20.3517C24.4183 22.2549 28.0553 23.366 28.8249 21.059C29.118 20.1809 27.9026 16.3575 25.1702 17.6046Z" fill="black"/>
<path fill-rule="evenodd" clip-rule="evenodd" d="M25.6536 19.2056C23.7323 19.6313 25.5681 21.08 26.2074 20.7841C26.8168 20.5026 27.131 19.2418 25.6536 19.2056Z" fill="white"/>
<path fill-rule="evenodd" clip-rule="evenodd" d="M13.1163 16.7978C13.0715 16.9543 12.7566 17.5153 13.8235 17.8802C14.8157 18.2192 14.8761 17.3786 14.6698 17.0739C14.4363 16.7281 13.7386 16.1903 13.1163 16.7978Z" fill="white"/>
<path d="M11.3667 27.6177C12.475 28.1739 12.2144 28.2019 13.3464 28.7001" stroke="black" stroke-width="0.499583" stroke-linecap="round" stroke-linejoin="round"/>
</svg>
