<svg width="305" height="268" viewBox="0 0 305 268" fill="none" xmlns="http://www.w3.org/2000/svg">
<g clip-path="url(#clip0_5166_108103)">
<path fill-rule="evenodd" clip-rule="evenodd" d="M162.342 62.062L162.255 61.7623C162.267 61.8497 162.305 61.9496 162.342 62.062ZM145.431 121.252C145.219 121.252 144.981 121.239 144.981 121.239C145.831 121.189 144.694 121.314 144.694 121.314L145.431 121.252ZM31.4368 147.905C28.4768 147.63 24.9796 147.318 24.9921 147.318C9.2675 146.618 5.84531 138.013 5.84531 138.013C5.84531 138.013 5.84531 137.988 5.83282 137.988C4.0218 134.216 4.34654 131.206 5.15837 128.97C6.04514 126.522 7.69379 124.924 8.70546 124.137C10.454 122.188 12.5648 120.602 14.8254 119.178C16.3242 116.943 19.6965 111.272 20.4833 109.961L23.5683 102.879C23.5683 102.879 23.5933 102.829 23.5933 102.816L24.7673 100.968L26.3035 99.5816L28.2519 98.5824C29.0763 98.2827 29.9755 98.0953 30.8873 98.0204C33.4102 97.8081 36.058 98.5075 36.6451 98.6824C37.0822 98.0579 37.5568 97.3334 37.6692 97.0712C38.0439 96.1844 40.0797 91.6006 40.8541 89.8645C41.1039 88.1409 41.8283 83.8694 43.4145 78.6236C44.8883 73.7775 47.2738 68.1196 49.8967 62.8239C49.9342 62.7615 49.9591 62.699 49.9966 62.6366C49.9966 62.6366 57.4405 49.2099 67.5572 41.6411C67.9694 41.2039 68.7812 40.3172 69.3433 39.5428C70.7296 37.6069 77.2118 32.4111 85.3302 33.4477C85.3676 33.4477 85.4051 33.4477 85.4426 33.4602C85.4426 33.4602 91.063 34.2596 94.5976 39.1806C95.5468 38.9683 96.5834 38.7809 97.6451 38.6685C101.092 38.3313 104.714 38.9308 107.412 40.9791C107.499 41.0416 111.671 43.9267 112.958 51.0959C114.469 52.5572 116.542 54.9553 117.791 58.0902L118.703 59.1519L119.802 61.5999L119.864 62.3618L119.889 62.3993L120.326 63.6108L120.564 65.0596L120.289 67.7449L119.714 69.0564V69.0938L119.727 69.7183L119.365 71.5169L118.953 72.591L118.928 72.6784C118.928 72.6784 118.903 72.7783 118.89 72.8283V72.7908C118.89 72.7908 118.89 72.8158 118.89 72.8408C118.815 73.153 118.703 73.4528 118.578 73.7526C118.578 73.7526 118.266 74.452 117.679 75.3013L118.316 76.6752L118.428 77.6244L118.728 78.2114L119.19 81.1216C119.165 82.8452 118.728 85.2183 116.455 87.7787V87.9286L116.042 89.852C115.655 91.0136 114.956 92.3375 113.582 93.6115L113.182 95.2102L111.821 97.4833C111.409 97.9829 110.072 99.2694 108.399 100.831C108.674 100.806 108.948 100.781 109.211 100.768C109.56 100.518 109.898 100.269 110.097 100.119L111.409 99.3818L113.132 98.8822C114.044 98.6948 115.168 98.5699 116.092 98.5075L116.455 98.2827C116.692 98.1078 116.942 97.9579 117.204 97.833L120.564 96.1594C121.713 95.1477 123.724 93.599 125.635 93.1743L127.695 93.0369L128.083 93.1244C128.208 92.6497 128.32 92.2376 128.432 91.9503C129.294 89.6647 131.767 85.9177 135.164 84.981L137.238 84.6312H137.737C137.812 84.4439 137.9 84.244 137.999 84.0692C138.636 82.8702 139.298 81.9459 139.736 81.3589C139.973 80.8718 140.31 80.2473 140.722 79.6728L141.696 78.5237L142.746 77.6744L144.919 76.7751L146.892 76.7127L148.254 77.0374L149.765 77.7493L149.89 77.8367C155.71 77.1998 171.659 75.4637 171.659 75.4637C171.722 75.4137 171.784 75.3513 171.847 75.3013L171.647 75.1139L170.66 73.6027L170.023 71.8166L169.773 69.481C169.773 69.3686 169.773 69.2687 169.773 69.1688C168.824 68.8565 167.925 68.5568 167.151 68.1571C166.351 67.7449 165.627 67.2578 165.015 66.6958L163.653 65.172L162.779 63.5608L162.579 62.8614C161.892 62.3243 159.794 60.6257 158.882 59.5266L157.933 58.1527L157.171 56.3666L156.884 54.9678L156.859 53.494C156.934 52.5073 157.196 51.3457 157.871 50.0343C155.785 48.9352 153.874 47.7237 152.488 46.2998C149.89 43.6395 148.541 40.3921 149.415 36.2205C149.103 35.521 148.378 33.8349 147.916 32.6858C146.817 29.9131 146.193 26.8156 146.967 23.6931C147.654 20.9204 149.415 17.9103 153.562 15.2125C154.436 12.8145 158.145 4.83342 169.761 0.849151C176.181 -1.36156 182.825 1.46116 186.422 3.5095C188.333 2.69765 190.357 1.94826 192.405 1.56107C196.339 0.824172 200.336 1.2863 204.108 4.22142C207.355 6.74437 208.317 8.98006 208.741 10.866C208.954 11.8028 209.016 13.3515 209.029 13.9385C212.826 19.3966 214.812 22.3942 214.849 26.1661C214.874 28.4143 214.212 31.0747 212.389 34.7966C213.263 37.994 213.737 41.2414 212.876 44.6137C212.039 47.861 209.978 51.3957 205.257 55.0552C205.669 56.1418 205.981 57.3658 206.044 58.7647C206.156 61.2252 205.594 64.2852 203.184 68.0572C199.599 73.7151 193.654 74.7767 189.607 74.7517C189.195 75.5386 188.67 76.1131 187.396 77.1498C186.735 77.6869 186.784 78.0366 186.572 78.4862C186.31 79.0608 185.973 79.6977 185.448 80.4721L185.536 80.9592C185.66 83.8943 184.424 90.6389 180.864 94.3484C180.04 95.2102 178.928 95.7472 177.742 95.8846L165.689 97.1961C165.527 98.7448 165.24 100.531 165.24 100.531C165.127 101.218 164.865 101.867 164.49 102.442C164.49 102.442 162.767 105.265 159.07 106.763L158.857 107.563L157.783 109.436L156.434 110.81L156.022 111.06L155.635 112.584C155.061 114.007 153.462 115.669 152.65 116.443L152.225 117.555L151.463 118.754L150.289 119.89L148.766 120.714L147.154 121.102L146.742 121.127L145.793 121.277C145.793 121.277 145.643 121.277 145.468 121.277C145.006 121.339 140.485 121.938 137.05 121.102C136.751 121.027 136.463 120.952 136.176 120.852C135.751 121.152 135.277 121.376 134.777 121.539L134.203 121.889C133.203 122.351 132.054 122.613 131.38 122.738L124.873 124.699C124.873 124.699 125.335 124.474 125.422 124.411L122.849 125.348C121.126 125.773 117.978 126.422 116.192 126.785C116.005 126.959 115.793 127.159 115.568 127.384C114.294 128.633 111.734 130.094 108.024 131.393L107.724 134.104L110.272 150.378C110.272 150.378 110.285 150.465 110.297 150.515L111.234 157.822L111.808 159.146C111.808 159.146 111.821 159.183 111.833 159.208C111.833 159.208 113.832 164.067 114.406 166.677C114.469 166.952 114.531 167.277 114.619 167.626C115.306 170.025 115.88 172.26 116.205 173.534C117.554 175.283 120.501 179.18 121.888 181.703C123.262 184.188 126.834 187.823 127.521 188.347L129.182 190.108C130.356 191.694 132.029 194.68 132.029 194.68C132.941 196.316 132.879 198.314 131.88 199.888C130.88 201.462 129.082 202.361 127.221 202.223C126.247 202.148 119.902 199.663 119.902 199.663C119.602 199.538 119.315 199.376 119.053 199.201C119.053 199.201 118.628 198.914 118.003 198.514C117.579 198.314 117.042 198.052 116.442 197.777C117.192 199.176 117.916 200.475 118.141 200.787C118.703 201.561 123.736 206.982 124.96 208.518C126.884 210.941 128.994 213.739 128.407 218.935C128.245 220.446 127.508 222.457 126.396 224.48C124.723 227.553 122.25 230.775 121.663 231.537L117.004 238.407C116.829 238.669 116.617 238.919 116.405 239.143C116.405 239.143 113.257 242.278 112.171 243.565C112.121 243.765 111.958 244.364 111.883 244.664L111.109 246.837C110.759 247.524 109.997 249.598 109.735 250.309C109.685 250.509 109.635 250.734 109.573 250.984C111.996 251.571 113.445 251.571 114.868 251.758C116.967 252.033 119.04 252.52 122.437 254.431C123.961 255.28 124.96 256.23 125.66 257.129L126.734 258.915L127.296 260.826L127.371 262.55L126.959 264.635L125.797 266.883L124.436 268.22L122.512 269.057C121.688 269.269 119.964 269.481 117.654 269.594C110.222 269.944 95.2595 269.719 88.9272 269.357C86.4917 269.219 84.918 268.882 84.5308 268.72L82.5949 267.545L81.3209 266.097L80.4467 264.41C80.1719 263.711 79.9596 262.924 79.8222 262.087C79.4849 260.027 79.6473 257.666 80.072 256.042L80.1344 255.88L79.7597 254.718L79.8097 252.046L80.8089 249.11C80.8089 249.11 80.8089 249.098 80.8214 249.085L85.7548 240.118C86.2919 238.469 88.0904 232.986 89.739 229.052C91.0754 225.854 94.5226 222.382 97.133 220.059C97.083 219.784 97.058 219.522 97.0331 219.247C91.5625 216.924 84.3185 212.952 84.3185 212.952L70.9919 205.508C70.5797 205.646 70.0926 205.82 69.5931 206.02C65.2341 207.794 60.7378 213.152 57.9651 217.036C54.8052 221.47 46.2622 235.646 45.1256 237.87C43.7018 240.617 40.1922 244.539 37.1322 247.025C35.2587 248.536 34.247 252.245 33.7599 253.519C32.9731 255.568 31.5492 258.528 30.7499 259.752C30.1879 260.614 28.7265 262.599 28.1645 263.811C28.1395 264.098 27.7898 267.346 27.6275 268.395L27.0404 270.306L26.1786 271.63C28.152 273.715 29.3136 276.276 29.4135 277.775C29.5384 279.898 29.4634 282.908 27.7024 285.044L26.291 286.343C25.8289 286.68 25.2419 287.03 24.58 287.379C22.694 288.366 20.1336 289.29 20.1336 289.29C20.0587 289.315 19.9962 289.34 19.9213 289.365C19.9213 289.365 13.6639 291.251 9.19256 290.764L7.444 290.402L5.82033 289.69L4.44645 288.691L3.39731 287.542C1.28654 284.757 1.44891 280.622 1.4614 280.323V280.672C1.47389 278.362 2.04842 275.202 2.49805 273.016C2.32319 272.529 2.23577 272.017 2.22328 271.48C2.22328 271.48 2.08589 266.271 2.08589 266.259C2.01095 264.473 2.53552 261.95 3.50972 259.315C5.14588 254.868 7.90612 249.922 8.33077 249.185L15.3875 235.621L21.2951 221.008L27.2777 202.398C26.7657 202.823 26.341 203.198 26.0288 203.497C25.1795 206.108 23.5433 212.952 23.5433 212.952C23.1936 214.401 22.2194 215.613 20.8955 216.287C19.5716 216.961 18.0103 217.011 16.6365 216.437C-0.574431 209.168 9.79304e-05 199.738 9.79304e-05 199.738C-0.0123918 199.276 0.0250775 198.814 0.137485 198.364C0.811933 195.591 7.26914 184.113 7.91861 182.977C10.0044 179.155 26.903 156.111 28.3519 154.137C29.7257 151.977 30.7124 149.828 31.4118 147.892L31.4368 147.905ZM213.762 75.7759C213.85 75.8384 213.912 75.8883 213.937 75.9008C214.012 75.9383 214.075 75.9633 214.15 76.0007L214.225 75.9008L213.762 75.7759ZM210.69 56.8787C210.777 56.7413 210.865 56.6164 210.952 56.4915L210.752 56.8288C210.752 56.8288 210.74 56.8288 210.727 56.8538C210.715 56.8538 210.702 56.8787 210.69 56.8912V56.8787ZM210.69 56.8787C209.766 58.365 212.838 55.0927 212.838 55.0927L211.227 56.3417C211.527 55.9545 211.851 55.5798 212.214 55.2051C215.036 52.2575 217.784 50.5963 219.708 49.6971C221.394 46.2873 225.315 40.9167 233.221 41.2539C233.521 41.2664 233.821 41.3039 234.121 41.3788C234.121 41.3788 237.968 42.2531 240.94 43.3772C241.028 43.4146 241.115 43.4396 241.202 43.4771C244.287 41.6036 249.645 39.8301 257.826 41.791C257.851 41.791 257.876 41.8035 257.901 41.8159C257.901 41.8159 266.169 43.5271 274.225 56.554C277.635 58.2526 284.404 63.0862 286.615 75.1889C286.628 75.2763 286.64 75.3762 286.653 75.4762C286.653 75.4762 287.602 83.2698 286.29 89.8395C285.916 91.7005 285.354 93.4616 284.604 95.0228L285.291 95.4475C285.891 95.8097 286.39 96.2968 286.778 96.8463C288.838 97.1336 291.099 97.5333 292.061 98.0079C293.26 98.5949 295.108 99.4942 296.857 101.592C298.43 103.478 300.029 106.439 300.554 111.497C301.328 118.978 302.64 129.333 302.327 135.89C302.327 136.739 302.227 140.099 301.066 143.646C300.054 146.756 298.243 149.928 295.321 152.089C295.296 152.102 295.283 152.114 295.258 152.127C295.258 152.127 293.01 153.763 289.575 154.812C289.688 156.123 289.862 157.56 290.162 158.859C291.099 162.88 293.959 173.247 293.959 173.247C294.034 173.534 294.097 173.821 294.122 174.121C294.122 174.121 294.459 179.13 294.209 180.366L293.659 181.902L292.598 183.376C291.661 184.363 288.976 185.712 288.976 185.712C288.976 185.712 289.126 185.637 289.188 185.599C289.013 185.712 288.564 185.899 288.014 186.124C287.789 187.873 287.115 189.896 285.578 191.982L283.93 196.128C284.23 198.676 285.366 204.222 285.279 206.732C285.204 208.818 285.141 213.439 285.841 216.012C286.603 218.872 289.775 226.928 289.775 226.928C289.775 226.928 289.775 226.928 289.775 226.941C289.775 226.941 292.211 233.71 291.898 237.345C291.711 239.606 291.948 243.028 292.685 245.226C293.572 247.861 297.669 256.429 297.669 256.429C298.093 257.316 298.243 258.303 298.118 259.265C298.118 259.265 297.956 260.451 297.494 261.925C299.804 265.297 304.013 271.805 304.713 275.014C306.037 281.035 302.552 284.757 301.303 285.856C299.792 287.492 294.971 292.288 289.763 292.937C284.579 293.587 279.384 291.064 277.772 290.19C273.613 288.429 272.04 285.856 271.315 283.92L270.766 281.297L270.928 279.024L270.791 280.173C270.791 277.65 271.515 273.753 272.14 270.843L268.93 267.708V267.87C268.93 267.87 268.805 267.058 268.555 266.084C268.38 265.385 268.343 265.06 267.781 264.573C265.27 262.437 263.109 261.5 262.285 257.216C261.773 254.556 261.323 250.959 261.099 250.035C260.924 249.31 260.674 247.574 259.625 245.751C257.989 242.89 256.777 240.33 256.053 237.158C255.553 234.972 254.392 230.301 251.956 227.353C251.844 227.216 251.731 227.066 251.631 226.916C251.631 226.916 248.197 221.508 247.422 218.473C246.723 215.687 245.961 208.044 246.136 204.372C246.223 202.423 245.836 198.514 245.536 195.966L239.204 197.602L228.201 201.974C228.051 202.036 227.913 202.086 227.763 202.123L221.156 204.072C221.156 204.072 220.157 204.422 219.046 204.809C219.046 204.834 219.058 204.859 219.071 204.884C219.995 207.694 221.481 209.742 222.343 211.279C223.142 212.69 223.592 213.939 223.742 214.951C223.904 216.087 224.191 219.822 224.279 221.021C225.515 222.519 227.738 225.18 228.3 226.604C229.025 228.452 229.974 236.608 226.964 242.678C226.664 243.29 226.252 243.815 225.753 244.252C226.902 247.924 228.001 251.071 228.113 253.432C228.151 254.131 228.113 254.806 228.026 255.43L227.439 257.616L226.652 259.065L225.565 260.351C223.842 262.012 220.644 263.424 214.849 263.149C196.464 262.287 186.01 263.024 180.14 263.186C176.868 263.274 174.694 263.124 173.271 262.724L171.185 261.825L169.236 260.064L168.437 258.74L167.975 257.441C167.75 256.567 167.625 255.505 167.65 254.181C167.738 249.622 170.373 246.5 174.807 244.627C178.716 242.978 184.474 242.466 189.108 241.741C190.981 241.454 192.492 241.217 193.729 240.979C193.229 239.743 192.542 237.807 192.392 236.358C192.317 235.659 191.893 234.16 191.768 233.698C190.706 232.312 189.32 229.764 188.97 227.578C188.783 226.416 187.072 221.833 186.622 220.658L182.063 211.466C181.214 210.267 178.978 206.945 177.842 203.385C176.493 199.126 176.83 194.717 179.803 191.595C184.212 186.973 191.88 182.814 192.867 182.29L208.167 173.672C208.267 173.609 208.379 173.559 208.479 173.509L214.1 170.849C213.6 169.487 213.138 167.839 212.813 165.903C212.788 165.765 212.776 165.641 212.763 165.503C212.763 165.503 212.039 156.935 213.712 149.703C214.974 144.245 216.36 140.561 217.309 138.338L213.775 138.912C213.613 138.937 213.45 138.95 213.3 138.962C213.3 138.962 205.082 139.437 201.16 138.6C200.486 138.463 199.886 138.275 199.387 138.075L199.187 137.975C198.9 138.038 198.612 138.075 198.325 138.1C197.988 139.087 197.476 140.024 196.889 140.848C196.402 141.523 195.865 142.11 195.327 142.597L193.292 143.996C192.967 144.145 192.63 144.27 192.28 144.358C192.28 144.358 190.456 144.782 188.77 144.608L186.859 144.158L185.273 143.284L184.087 142.047L182.5 141.61L180.727 140.536L179.328 138.987L178.441 137.239C178.291 136.826 178.192 136.414 178.154 135.977C177.967 135.94 177.779 135.902 177.592 135.865C176.83 135.677 176.081 135.415 175.381 135.078L173.783 134.054L172.521 132.767L171.572 131.169L171.097 129.72L170.935 128.046V127.921C170.448 127.834 169.986 127.721 169.574 127.546L168.45 126.972L167.288 126.048L166.214 124.499L165.452 122.625L165.29 121.326L165.402 119.803L165.777 118.454L166.426 117.142L167.575 115.843L167.101 114.495C166.876 112.996 167.325 111.472 168.337 110.348C168.337 110.348 171.46 106.963 174.095 105.577C177.23 103.916 183.387 102.517 188.471 105.852C188.583 105.926 188.695 106.001 188.795 106.076L193.117 108.462C193.192 108.462 193.254 108.437 193.329 108.437C193.329 108.437 199.374 107.837 201.135 108C202.297 108.112 203.995 108.837 204.695 109.161C207.218 108.812 214.961 107.525 214.961 107.525C215.024 107.525 215.086 107.5 215.149 107.5L229.874 105.639L231.098 105.314L231.223 105.015C229.287 104.265 226.689 103.104 224.416 101.592C223.08 101.655 221.331 101.617 219.608 101.193C216.697 100.493 213.975 98.8447 212.438 95.8097L211.789 94.4982L211.427 93.0744V92.2875L210.553 91.4757L209.553 89.9769L209.079 88.7404L208.854 87.3915C208.854 87.2666 208.841 87.1417 208.841 87.0168L209.166 85.0559L210.34 82.8702L210.915 82.2956C211.339 80.7094 212.139 78.6611 213.637 76.6127L212.663 75.2014C211.976 74.7268 211.04 74.0398 210.403 73.3404L209.166 71.3795C208.142 69.9182 207.343 67.9448 207.143 65.834C206.843 62.6865 207.78 59.3517 210.627 56.9162L210.69 56.8787Z" fill="white"/>
<path fill-rule="evenodd" clip-rule="evenodd" d="M45.7625 91.2513C45.7625 91.2513 46.3245 86.4302 48.2479 80.0853C49.6468 75.4765 51.9199 70.1059 54.4179 65.0725C54.4179 65.0725 61.3996 52.3828 70.8794 45.4634C70.8794 45.4634 72.4656 43.8397 73.4273 42.5033C74.389 41.1544 78.9852 37.7571 84.6431 38.494C84.6431 38.494 90.3634 39.3683 91.8996 45.3385C91.8996 45.3385 100.068 41.7664 104.327 45.0512C104.327 45.0512 107.624 47.5367 108.149 53.6817C108.149 53.6817 112.27 56.5544 113.457 61.288C113.457 61.288 115.093 61.6627 114.943 64.0983C114.943 64.0983 116.255 65.3223 114.781 67.7203L113.944 71.6297C113.944 71.6297 113.245 73.1534 112.071 73.8029L111.196 74.9894C111.196 74.9894 113.632 76.8504 113.532 79.0986L111.121 85.8182L108.511 91.0015C108.511 91.0015 109.21 92.6751 107.912 94.2363C106.613 95.7976 95.5342 105.74 95.5342 105.74L92.9987 108.325L77.7487 109.299C77.7487 109.299 50.6335 98.3455 45.7625 91.2513Z" fill="#389739"/>
<path fill-rule="evenodd" clip-rule="evenodd" d="M46.9364 96.1969C46.9364 96.1969 45.2003 93.7489 45.6999 91.5757C45.6999 91.5757 53.2687 97.7582 54.118 98.1329C54.9673 98.4951 64.6594 103.816 64.6594 103.816L77.7487 109.286L65.6461 110.298L52.1821 99.7441L46.9364 96.1845V96.1969Z" fill="#92ACBD"/>
<path fill-rule="evenodd" clip-rule="evenodd" d="M45.7624 91.251C45.7624 91.251 42.7774 97.9705 42.3152 99.0571C41.8531 100.144 39.53 103.953 38.356 104.066C37.1819 104.166 35.2211 103.566 35.2211 103.566C35.2211 103.566 29.6131 101.78 28.2018 104.915L24.9919 112.284C24.9919 112.284 19.0968 122.213 18.3099 122.988C16.0118 124.362 13.8386 125.885 12.1525 127.896C12.1525 127.896 7.85598 130.457 10.4039 135.79C10.4039 135.79 13.3015 141.748 25.3167 142.247L35.9205 143.221C35.9205 143.221 37.107 142.547 38.1936 141.31C38.1936 141.31 37.6066 149.192 32.5482 157.035C32.5482 157.035 14.4506 181.59 12.3898 185.425C12.3898 185.425 5.73272 196.89 5.08325 199.563C5.08325 199.563 5.30807 206.133 18.5222 211.653C18.5222 211.653 20.9203 201.799 21.6072 200.537C21.6072 200.537 28.0145 193.755 35.6707 192.556L25.9911 222.644L19.9211 237.657L12.702 251.521C12.702 251.521 6.84431 261.725 7.08161 265.972L7.219 271.255C7.219 271.255 8.99255 271.505 10.1166 271.155C11.2532 270.805 15.5871 269.019 16.4614 269.019C17.3357 269.019 20.9577 269.132 20.9577 269.132C20.9577 269.132 22.3066 268.882 22.5315 267.496C22.7563 266.097 22.7688 263.174 23.3932 261.775C24.0052 260.376 25.7538 257.903 26.4283 256.879C27.1027 255.843 28.2767 253.332 28.9512 251.609C29.6256 249.885 31.3367 245.039 33.8722 242.99C36.4076 240.942 39.3677 237.745 40.5417 235.459C41.7157 233.186 50.5085 218.585 53.7683 214.014C57.0282 209.443 62.4862 203.335 67.607 201.249C72.7278 199.151 72.3032 200.388 72.3032 200.388L86.7288 208.443C86.7288 208.443 98.082 214.763 102.354 215.738C102.354 215.738 101.117 219.572 103.303 221.42C103.303 221.42 96.246 226.454 94.3601 230.95C92.4741 235.447 90.3883 242.066 90.3883 242.066L85.2176 251.471C85.2176 251.471 83.3816 254.856 86.6164 255.955C86.6164 255.955 90.226 257.266 95.3842 256.679C100.53 256.092 101.317 255.48 102.778 254.057C104.239 252.633 104.827 248.786 104.827 248.786C104.827 248.786 106.05 245.439 106.55 244.464C107.05 243.503 107.012 241.754 108.049 240.48C109.086 239.206 112.757 235.509 112.757 235.509L117.516 228.502C117.516 228.502 122.949 221.683 123.324 218.323C123.699 214.963 122.187 213.202 120.951 211.641C119.714 210.08 114.593 204.547 114.019 203.76C113.444 202.973 109.835 196.203 109.835 196.203C109.835 196.203 106.538 191.645 105.876 191.22C105.214 190.808 100.205 186.074 100.205 186.074C100.205 186.074 113.12 190.595 115.243 191.245C117.366 191.894 121.888 194.967 121.888 194.967C121.888 194.967 126.808 197.078 127.57 197.14C127.57 197.14 125.272 193.019 124.41 192.369C123.549 191.707 119.102 187.223 117.404 184.138C115.705 181.053 111.484 175.782 111.484 175.782C111.484 175.782 108.536 163.417 106.363 160.02L105.226 151.14L102.616 134.516C102.616 134.516 102.141 127.946 105.376 126.897C108.611 125.848 110.909 124.786 111.958 123.75C113.007 122.713 113.869 122.039 113.869 122.039C113.869 122.039 122.187 120.39 122.737 120.053C123.286 119.715 130.168 117.767 130.168 117.767C130.168 117.767 132.279 117.505 132.903 116.605C133.515 115.706 130.605 99.6941 130.605 99.6941C130.605 99.6941 128.332 97.8082 126.721 98.1579C125.11 98.5076 123.424 100.431 123.424 100.431L119.477 102.404C119.477 102.404 117.828 103.616 117.241 103.566C116.654 103.516 113.694 103.816 113.145 104.228C112.595 104.64 111.034 105.777 111.034 105.777C111.034 105.777 108.049 105.914 107.187 106.114C106.325 106.326 103.902 106.763 103.203 107.101C102.503 107.438 100.505 108.362 100.03 108.712C99.5558 109.074 97.57 110.46 97.57 110.46L94.6224 113.296L65.2964 110.186L52.5069 99.7191C52.5069 99.7191 47.0239 96.8215 46.4743 95.2103C46.4743 95.2103 45.8249 91.9504 45.7624 91.251Z" fill="#484C5C"/>
<path fill-rule="evenodd" clip-rule="evenodd" d="M42.028 173.11L35.6582 192.544C35.6582 192.544 24.5923 195.342 21.1077 201.324C21.1077 201.324 27.39 182.053 42.0155 173.11H42.028Z" fill="#2F2F2F"/>
<path fill-rule="evenodd" clip-rule="evenodd" d="M101.429 142.522C101.429 142.522 103.128 147.593 103.353 149.329C103.577 151.065 105.026 156.348 105.026 156.348L107.1 161.144C107.1 161.144 108.898 165.428 109.398 167.739C109.897 170.05 111.259 176.395 111.259 176.395C111.259 176.395 114.231 183.127 115.018 184.738C115.805 186.349 121.425 194.517 121.425 194.517C121.425 194.517 105.076 186.549 100.293 185.737C100.293 185.737 96.833 181.091 96.3584 179.392C96.3584 179.392 98.1569 176.819 98.7939 173.709C99.4434 170.599 100.755 161.656 100.755 161.656C100.755 161.656 101.804 143.134 101.404 142.534L101.429 142.522Z" fill="#2F2F2F"/>
<path fill-rule="evenodd" clip-rule="evenodd" d="M43.302 171.998C43.302 171.998 54.2555 183.451 69.9552 184.413C69.9552 184.413 88.4525 187.011 96.1961 179.579C96.1961 179.579 98.4193 177.031 98.794 173.572L101.729 142.147C101.729 142.147 93.6982 133.279 93.4359 129.994L92.0995 120.427L68.344 122.588C68.344 122.588 69.1059 134.441 68.0192 144.295C68.0192 144.295 66.6953 159.508 59.139 163.592C59.139 163.592 45.5002 169.712 43.302 171.998Z" fill="#91ABBC"/>
<path fill-rule="evenodd" clip-rule="evenodd" d="M66.0333 122.626L63.3605 128.346C63.3605 128.346 66.6703 128.309 68.2565 127.684C69.8427 127.06 71.0292 122.064 71.0292 122.064L66.0208 122.638L66.0333 122.626ZM51.5452 120.228C51.5452 120.228 51.5701 114.82 55.6668 110.885C55.6668 110.885 58.1647 107.725 60.0132 108.162C61.8742 108.6 63.348 110.473 63.348 110.473L88.2776 108.849L91.962 106.014L93.0362 108.675H94.0853C94.0853 108.675 95.4842 113.196 92.599 119.953L73.4272 121.939C73.4272 121.939 72.6654 128.833 69.6928 130.032L61.3621 130.994C61.3621 130.994 56.9657 131.893 54.9424 128.596C52.919 125.299 51.5452 120.253 51.5452 120.253V120.228Z" fill="#59788C"/>
<path fill-rule="evenodd" clip-rule="evenodd" d="M153.549 94.3109C152.313 95.9346 153.075 97.0962 153.749 98.3826C154.424 99.6566 156.522 100.768 156.522 100.768C158.333 99.9438 158.82 95.9221 158.845 95.1477C158.87 94.3859 158.208 94.0861 157.309 93.9737C156.409 93.8613 153.549 94.3109 153.549 94.3109ZM141.909 91.4757C141.909 91.4757 141.671 87.9536 142.471 86.4673C143.27 84.981 144.082 84.0442 144.082 84.0442C144.082 84.0442 145.019 81.6087 146.168 81.7711C147.317 81.9334 148.329 83.145 148.329 83.145L173.908 80.3597C173.908 80.3597 176.505 77.1998 177.842 77.8368C179.191 78.4738 178.454 79.8601 178.454 79.8601C178.454 79.8601 179.59 79.6603 180.19 80.1849C180.789 80.7094 180.352 87.4914 177.155 90.8137L161.78 92.4874C161.78 92.4874 160.656 94.3859 160.656 95.6348C160.656 96.8838 160.181 99.6691 160.181 99.6691C160.181 99.6691 158.308 102.567 154.286 102.567L150.514 103.141L145.955 111.834L144.657 116.231C144.657 116.231 137.125 117.43 135.527 114.432C135.527 114.432 134.265 112.321 134.702 110.198C135.139 108.075 139.798 97.2086 139.798 97.2086L141.884 91.4882L141.909 91.4757Z" fill="#59788C"/>
<path fill-rule="evenodd" clip-rule="evenodd" d="M79.5972 121.352C79.5972 121.352 80.459 155.137 79.4973 170.524L85.38 180.616L89.9138 169.762C89.9138 169.762 88.44 133.117 85.1427 121.089" fill="#E52D4E"/>
<path fill-rule="evenodd" clip-rule="evenodd" d="M38.4061 125.536C38.4061 125.536 35.8457 129.583 36.8448 133.879C37.844 138.176 39.6176 139.362 39.6176 139.362C39.6176 139.362 33.8723 141.71 30.5 138.763C30.5 138.763 26.7781 132.905 34.2969 125.661C34.2969 125.661 36.7824 124.711 38.3936 125.536H38.4061Z" fill="#92ACBD"/>
<path fill-rule="evenodd" clip-rule="evenodd" d="M130.505 99.8066L126.396 101.53C126.396 101.53 124.41 105.627 124.698 111.347C124.698 111.347 124.336 114.12 125.31 114.957C126.284 115.794 129.319 117.58 130.093 117.642C130.855 117.705 132.316 117.03 132.854 116.556C132.854 116.556 128.195 112.958 127.495 111.035C127.495 111.035 125.297 107.063 126.771 104.778C128.245 102.492 130.518 99.8066 130.518 99.8066H130.505Z" fill="#92ACBD"/>
<path fill-rule="evenodd" clip-rule="evenodd" d="M113.544 79.1108C113.544 79.1108 115.843 82.1334 111.134 85.8304C111.134 85.8304 112.745 88.9528 108.199 91.176C108.199 91.176 103.478 92.9746 92.774 90.564C92.774 90.564 78.136 85.1059 73.0527 79.2232C73.0527 79.2232 68.7562 75.3888 70.6546 73.7651C70.6546 73.7651 74.4765 74.3646 77.2867 75.776C80.0969 77.1749 92.0371 82.1209 92.0371 82.1209C92.0371 82.1209 103.49 86.28 107.987 84.4315C107.987 84.4315 112.508 82.1334 113.544 79.1108Z" fill="#0F6C13"/>
<path fill-rule="evenodd" clip-rule="evenodd" d="M77.4117 59.7517C77.4117 59.7517 81.3334 65.4346 87.0288 67.8327C87.0288 67.8327 92.899 69.6562 97.158 68.732C97.158 68.732 98.6068 65.3847 95.2595 63.1865L89.9764 61.4379C89.9764 61.4379 78.798 59.7892 77.3992 59.7393L77.4117 59.7517Z" fill="white"/>
<path fill-rule="evenodd" clip-rule="evenodd" d="M100.305 69.2936C100.305 69.2936 99.2062 68.2195 100.917 66.9081C102.628 65.5966 105.651 64.5225 107.2 64.5974C108.748 64.6724 113.232 65.3718 113.982 66.8456C113.982 66.8456 115.43 70.143 113.719 71.3795C113.719 71.3795 107.062 74.0023 100.305 69.2936Z" fill="white"/>
<path fill-rule="evenodd" clip-rule="evenodd" d="M40.192 139.762C40.192 139.762 36.595 137.376 36.595 131.893C36.595 131.893 37.132 127.247 38.4934 125.723C38.4934 125.723 42.003 124.886 43.277 124.137C44.551 123.387 47.6734 121.077 47.6734 121.077C47.6734 121.077 49.934 119.191 50.8957 119.903C51.8575 120.615 52.9191 122.676 52.9191 122.676C52.9191 122.676 55.9166 123.875 57.2281 123.662C58.5395 123.45 64.8468 122.9 64.8468 122.9C64.8468 122.9 68.0942 122.563 68.0942 123.662C68.0942 124.761 66.5829 126.635 66.1582 126.947C65.7336 127.259 65.0966 128.433 63.348 128.458C61.5995 128.483 57.9774 128.009 57.9774 128.009L56.5536 127.459C56.5536 127.459 57.0407 129.47 57.8151 130.007L62.736 130.744C62.736 130.744 65.5587 130.731 65.4089 131.668C65.259 132.617 63.7977 134.678 63.7977 134.678L61.7244 135.54C61.7244 135.54 62.1365 137.726 59.801 138.7C57.4654 139.674 55.6668 139.612 55.6668 139.612C55.6668 139.612 57.7776 140.586 55.5919 141.398C53.4062 142.21 43.252 140.948 40.217 139.774L40.192 139.762Z" fill="#389739"/>
<path fill-rule="evenodd" clip-rule="evenodd" d="M132.379 116.156C132.379 116.156 129.669 115.007 127.845 111.522C126.022 108.037 126.484 105.352 127.296 103.891C128.108 102.429 130.88 99.7815 130.88 99.7815L132.092 98.8947C132.092 98.8947 132.716 94.9604 133.178 93.7614C133.628 92.5499 134.727 90.3891 136.513 89.8895C138.299 89.3899 139.823 90.0144 140.373 90.3891C140.922 90.7638 143.882 91.8005 143.882 91.8005L146.967 93.5241C146.967 93.5241 149.265 94.2735 149.665 94.8605C150.065 95.4475 150.826 95.6599 150.002 96.7964C149.178 97.9455 149.627 98.0454 147.629 98.52C145.356 99.0571 146.03 99.1445 144.082 98.0954C142.134 97.0462 141.547 96.6216 140.597 96.7715C139.648 96.9213 139.511 96.734 139.511 96.734L135.339 108.05L134.79 112.221L134.627 114.207L133.241 116.668L132.379 116.181V116.156Z" fill="#389739"/>
<path fill-rule="evenodd" clip-rule="evenodd" d="M155.31 99.157C155.31 99.157 151.663 98.7573 152.138 96.5092C152.612 94.2735 153.699 94.6107 155.423 94.5483C157.146 94.4858 158.133 95.9971 157.683 97.0837C157.683 97.0837 156.759 98.9072 155.31 99.1445V99.157Z" fill="#389739"/>
<path fill-rule="evenodd" clip-rule="evenodd" d="M180.852 78.0869C180.077 73.4906 178.629 74.1401 175.993 72.2791C173.758 70.7179 175.431 66.4713 175.606 66.0092C172.271 64.2606 167.85 64.2731 167.25 60.8759C166.663 57.566 156.322 56.1422 165.989 48.2361C160.144 45.5882 152.7 43.0278 154.498 36.633C155.435 33.2982 145.893 25.2922 157.359 18.785C158.682 18.0356 158.558 10.0171 171.36 5.62064C178.054 3.3225 184.973 8.49331 185.935 9.21772C190.469 7.21934 196.014 4.37165 200.948 8.20604C205.631 11.8281 202.796 13.9264 204.595 16.4993C209.753 23.9308 211.876 25.0924 206.88 34.2474C208.741 40.1676 210.453 46.1628 198.7 53.3195C199.861 55.6801 202.946 58.8275 198.825 65.3222C194.89 71.5172 186.747 69.369 186.347 69.3315C185.323 71.6171 185.735 71.8794 184.112 73.2034C181.789 75.1018 182.638 75.7013 180.827 78.1119L180.852 78.0869Z" fill="#CBCBCB"/>
<path d="M180.852 78.0869C180.077 73.4906 178.629 74.1401 175.993 72.2791C173.758 70.7179 175.431 66.4713 175.606 66.0092C172.271 64.2606 167.85 64.2731 167.25 60.8758C166.663 57.566 156.322 56.1422 165.989 48.2361C160.144 45.5882 152.7 43.0278 154.498 36.633C155.435 33.2982 145.893 25.2922 157.359 18.785C158.682 18.0356 158.558 10.0171 171.36 5.62064C178.054 3.3225 184.973 8.49331 185.935 9.21772C190.469 7.21934 196.014 4.37165 200.948 8.20604C205.631 11.8281 202.796 13.9264 204.595 16.4993C209.753 23.9308 211.876 25.0924 206.88 34.2474C208.741 40.1676 210.453 46.1628 198.7 53.3195C199.861 55.6801 202.946 58.8275 198.825 65.3222C194.89 71.5172 186.747 69.369 186.347 69.3315C185.323 71.6171 185.735 71.8794 184.112 73.2034C181.789 75.1018 182.638 75.7013 180.827 78.1119L180.852 78.0869Z" stroke="black" stroke-width="0.62" stroke-linecap="round" stroke-linejoin="round"/>
<path d="M188.283 55.8545C193.629 54.4931 194.028 53.2941 194.74 49.6221" stroke="black" stroke-width="0.62" stroke-linecap="round" stroke-linejoin="round"/>
<path d="M166.026 42.0659C166.201 43.3898 166.264 49.1102 172.596 49.6598" stroke="black" stroke-width="0.62" stroke-linecap="round" stroke-linejoin="round"/>
<path d="M190.257 16.4865C196.127 14.3882 200.573 17.5106 200.673 24.4175" stroke="black" stroke-width="0.62" stroke-linecap="round" stroke-linejoin="round"/>
<path fill-rule="evenodd" clip-rule="evenodd" d="M143.345 105.564C143.345 105.564 140.672 103.279 142.571 101.605C144.469 99.9315 147.816 100.731 147.816 100.731C147.816 100.731 153.874 101.942 154.186 103.166C154.498 104.39 154.798 107.313 150.477 107.775C150.477 107.775 151.313 109.624 150.901 110.66C150.489 111.697 148.99 112.896 148.99 112.896L147.766 113.046C147.766 113.046 148.441 115.831 146.592 116.031C144.744 116.231 141.471 115.257 141.471 115.257C141.471 115.257 138.511 114.32 138.599 113.071C138.686 111.822 139.298 111.235 139.298 111.235L142.92 110.948C142.92 110.948 138.424 107.788 139.286 106.376C139.286 106.376 140.497 104.69 143.357 105.564H143.345Z" fill="#389739"/>
<path d="M45.4004 91.8628C48.7976 70.7924 60.3631 52.4198 69.5181 46.2248C72.1285 44.4637 71.9786 44.3388 74.0269 41.8908C77.7614 37.4319 92.0996 34.8715 92.7116 49.1974" stroke="black" stroke-width="0.62" stroke-linecap="round" stroke-linejoin="round"/>
<path d="M92.3743 45.4382C106.6 38.7062 107.899 51.7706 108.286 53.9813" stroke="black" stroke-width="0.62" stroke-linecap="round" stroke-linejoin="round"/>
<path d="M77.5864 48.6607C79.7222 47.9863 84.5058 46.1128 91.2877 48.7856C96.5584 50.859 98.4194 58.228 98.6816 59.2147" stroke="black" stroke-width="0.62" stroke-linecap="round" stroke-linejoin="round"/>
<path d="M95.9963 52.1327C100.917 50.8837 109.036 50.0968 113.882 61.3627" stroke="black" stroke-width="0.62" stroke-linecap="round" stroke-linejoin="round"/>
<path d="M84.3809 54.9307C98.1945 55.1055 102.416 60.9133 98.7691 65.7844" stroke="black" stroke-width="0.62" stroke-linecap="round" stroke-linejoin="round"/>
<path d="M103.478 62.4245C110.335 58.815 115.893 61.3629 114.993 64.2855" stroke="black" stroke-width="0.62" stroke-linecap="round" stroke-linejoin="round"/>
<path d="M106.213 61.2256C107.062 61.338 118.166 62.8618 115.081 67.1833" stroke="black" stroke-width="0.62" stroke-linecap="round" stroke-linejoin="round"/>
<path d="M104.09 63.8607C111.783 62.0871 115.668 66.4086 114.768 68.8816" stroke="black" stroke-width="0.62" stroke-linecap="round" stroke-linejoin="round"/>
<path d="M74.6514 59.4019C74.9886 58.4401 76.5623 53.8189 87.0162 56.1545C90.4134 56.9164 96.3336 60.4135 99.0689 67.2955" stroke="black" stroke-width="0.62" stroke-linecap="round" stroke-linejoin="round"/>
<path d="M108.661 73.5528C111.471 73.7777 113.469 73.6777 114.106 71.3921" stroke="black" stroke-width="0.62" stroke-linecap="round" stroke-linejoin="round"/>
<path d="M108.336 74.9393C111.009 75.3015 111.259 75.2765 112.483 73.5029" stroke="black" stroke-width="0.62" stroke-linecap="round" stroke-linejoin="round"/>
<path d="M106.251 74.0402C103.765 73.628 103.69 73.8279 101.579 72.4165C103.603 74.5023 104.514 75.4515 105.002 78.2992" stroke="black" stroke-width="0.62" stroke-linecap="round" stroke-linejoin="round"/>
<path d="M82.9819 74.5643C85.3425 74.7142 89.9887 75.3387 93.8855 72.2412" stroke="black" stroke-width="0.62" stroke-linecap="round" stroke-linejoin="round"/>
<path d="M74.7888 59.4146C88.7524 60.8884 90.5259 61.6377 93.9231 62.4621" stroke="black" stroke-width="0.62" stroke-linecap="round" stroke-linejoin="round"/>
<path d="M76.0876 59.3518C87.4658 52.9944 93.923 62.4118 94.1229 62.6991" stroke="black" stroke-width="0.62" stroke-linecap="round" stroke-linejoin="round"/>
<path d="M77.3617 60.2886C82.9321 66.3587 87.316 70.0557 97.2329 68.9191C98.6318 68.7567 98.6068 73.3655 92.5492 72.054C92.4119 72.0291 86.3793 70.3679 83.4067 68.7317C82.8697 68.432 79.6348 66.7084 76.1377 62.5368" stroke="black" stroke-width="0.62" stroke-linecap="round" stroke-linejoin="round"/>
<path d="M114.081 71.1425C116.929 65.5845 108.474 64.5228 105.938 64.6977C103.453 64.8726 98.1446 67.4455 100.605 69.5438C100.867 69.7686 107.237 74.0027 114.069 71.1425H114.081Z" stroke="black" stroke-width="0.62" stroke-linecap="round" stroke-linejoin="round"/>
<path d="M93.6233 62.4868C95.0097 63.1613 97.9822 63.9232 97.2203 68.8317" stroke="black" stroke-width="0.62" stroke-linecap="round" stroke-linejoin="round"/>
<path d="M69.7554 69.344C71.0043 68.8444 71.429 68.782 73.0776 69.5189" stroke="black" stroke-width="0.62" stroke-linecap="round" stroke-linejoin="round"/>
<path d="M67.3198 73.3279C69.6804 71.2796 70.4797 71.1547 73.2525 71.7167" stroke="black" stroke-width="0.62" stroke-linecap="round" stroke-linejoin="round"/>
<path d="M111.584 74.7396C113.02 76.8754 115.43 79.2484 109.585 83.6199C102.316 89.053 80.4216 76.6006 72.0784 73.8153C69.2557 72.8786 70.0301 75.6888 70.9543 76.8629C72.0035 78.1868 76.6996 84.1195 88.2027 88.978C92.5991 90.839 98.1071 91.5385 98.9813 91.6509C104.477 92.3503 104.514 92.2254 108.474 91.1513C108.736 94.8358 107.287 94.3362 100.23 101.73C99.0313 102.992 97.3577 104.003 96.7457 104.553C96.396 104.865 95.6091 105.59 92.5616 108.625" stroke="black" stroke-width="0.62" stroke-linecap="round" stroke-linejoin="round"/>
<path d="M113.307 79.0361C113.557 79.3734 115.955 81.8089 111.046 85.8181C111.708 87.8915 111.421 89.2529 108.286 91.0889" stroke="black" stroke-width="0.62" stroke-linecap="round" stroke-linejoin="round"/>
<path d="M75.9253 78.0117C79.1601 80.7595 79.1227 80.9219 88.2527 84.5689C94.4601 87.0419 104.502 89.1027 111.071 85.8179" stroke="black" stroke-width="0.62" stroke-linecap="round" stroke-linejoin="round"/>
<path fill-rule="evenodd" clip-rule="evenodd" d="M86.1168 67.5079C86.1168 67.5079 84.7804 63.5236 88.2526 61.3379C88.2526 61.3379 93.1861 62.2247 94.6474 62.999C94.6474 62.999 96.9205 65.9966 94.2851 68.9192C94.2851 68.9192 89.8138 69.3564 86.1168 67.4954V67.5079Z" fill="black"/>
<path d="M86.1168 67.5079C86.1168 67.5079 84.7804 63.5236 88.2526 61.3379C88.2526 61.3379 93.1861 62.2247 94.6474 62.999C94.6474 62.999 96.9205 65.9966 94.2851 68.9192C94.2851 68.9192 89.8138 69.3564 86.1168 67.4954V67.5079Z" stroke="black" stroke-width="0.62" stroke-linecap="round" stroke-linejoin="round"/>
<path fill-rule="evenodd" clip-rule="evenodd" d="M107.687 71.9419C107.687 71.9419 105.801 70.8428 106.45 67.6704C106.45 67.6704 107.025 65.597 108.986 65.085C108.986 65.085 112.233 65.6595 113.27 66.6837C113.27 66.6837 114.519 69.4689 112.957 71.4298C111.471 71.9919 109.735 72.1792 107.674 71.9294L107.687 71.9419Z" fill="black"/>
<path d="M107.687 71.9419C107.687 71.9419 105.801 70.8428 106.45 67.6704C106.45 67.6704 107.025 65.597 108.986 65.085C108.986 65.085 112.233 65.6595 113.27 66.6837C113.27 66.6837 114.519 69.4689 112.957 71.4298C111.471 71.9919 109.735 72.1792 107.674 71.9294L107.687 71.9419Z" stroke="black" stroke-width="0.62" stroke-linecap="round" stroke-linejoin="round"/>
<path fill-rule="evenodd" clip-rule="evenodd" d="M111.584 67.083C112.208 67.083 112.708 67.5826 112.708 68.2071C112.708 68.8316 112.208 69.3312 111.584 69.3312C110.959 69.3312 110.459 68.8316 110.459 68.2071C110.459 67.5826 110.959 67.083 111.584 67.083Z" fill="white"/>
<path d="M111.584 67.083C112.208 67.083 112.708 67.5826 112.708 68.2071C112.708 68.8316 112.208 69.3312 111.584 69.3312C110.959 69.3312 110.459 68.8316 110.459 68.2071C110.459 67.5826 110.959 67.083 111.584 67.083Z" stroke="black" stroke-width="0.62" stroke-linecap="round" stroke-linejoin="round"/>
<path fill-rule="evenodd" clip-rule="evenodd" d="M108.973 66.8583C109.323 66.7834 109.66 66.9957 109.735 67.3329C109.81 67.6701 109.598 68.0199 109.248 68.0948C108.898 68.1697 108.561 67.9574 108.486 67.6202C108.411 67.283 108.624 66.9332 108.973 66.8583Z" fill="white"/>
<path d="M108.973 66.8583C109.323 66.7834 109.66 66.9957 109.735 67.3329C109.81 67.6701 109.598 68.0199 109.248 68.0948C108.898 68.1697 108.561 67.9574 108.486 67.6202C108.411 67.283 108.624 66.9332 108.973 66.8583Z" stroke="black" stroke-width="0.62" stroke-linecap="round" stroke-linejoin="round"/>
<path fill-rule="evenodd" clip-rule="evenodd" d="M109.011 68.894C109.31 68.894 109.56 69.1314 109.56 69.4311C109.56 69.7309 109.31 69.9682 109.011 69.9682C108.711 69.9682 108.461 69.7309 108.461 69.4311C108.461 69.1314 108.711 68.894 109.011 68.894Z" fill="white"/>
<path d="M109.011 68.894C109.31 68.894 109.56 69.1314 109.56 69.4311C109.56 69.7309 109.31 69.9682 109.011 69.9682C108.711 69.9682 108.461 69.7309 108.461 69.4311C108.461 69.1314 108.711 68.894 109.011 68.894Z" stroke="black" stroke-width="0.62" stroke-linecap="round" stroke-linejoin="round"/>
<path fill-rule="evenodd" clip-rule="evenodd" d="M92.9863 64.0356C93.7607 64.0356 94.3976 64.6601 94.3976 65.4345C94.3976 66.2089 93.7607 66.8334 92.9863 66.8334C92.2119 66.8334 91.575 66.2089 91.575 65.4345C91.575 64.6601 92.2119 64.0356 92.9863 64.0356Z" fill="white"/>
<path d="M92.9863 64.0356C93.7607 64.0356 94.3976 64.6601 94.3976 65.4345C94.3976 66.2089 93.7607 66.8334 92.9863 66.8334C92.2119 66.8334 91.575 66.2089 91.575 65.4345C91.575 64.6601 92.2119 64.0356 92.9863 64.0356Z" stroke="black" stroke-width="0.62" stroke-linecap="round" stroke-linejoin="round"/>
<path fill-rule="evenodd" clip-rule="evenodd" d="M89.5267 65.6216C89.8889 65.6216 90.1761 65.9088 90.1761 66.2711C90.1761 66.6333 89.8889 66.9205 89.5267 66.9205C89.1645 66.9205 88.8772 66.6333 88.8772 66.2711C88.8772 65.9088 89.1645 65.6216 89.5267 65.6216Z" fill="white"/>
<path d="M89.5267 65.6216C89.8889 65.6216 90.1761 65.9088 90.1761 66.2711C90.1761 66.6333 89.8889 66.9205 89.5267 66.9205C89.1645 66.9205 88.8772 66.6333 88.8772 66.2711C88.8772 65.9088 89.1645 65.6216 89.5267 65.6216Z" stroke="black" stroke-width="0.62" stroke-linecap="round" stroke-linejoin="round"/>
<path fill-rule="evenodd" clip-rule="evenodd" d="M89.814 63.3986C90.2136 63.1988 90.6758 63.3237 90.8631 63.6734C91.0505 64.0356 90.8756 64.4852 90.4884 64.6851C90.0887 64.8849 89.6266 64.76 89.4393 64.4103C89.2519 64.0481 89.4268 63.5984 89.814 63.3861V63.3986Z" fill="white"/>
<path d="M89.814 63.3986C90.2136 63.1988 90.6758 63.3237 90.8631 63.6734C91.0505 64.0356 90.8756 64.4852 90.4884 64.6851C90.0887 64.8849 89.6266 64.76 89.4393 64.4103C89.2519 64.0481 89.4268 63.5984 89.814 63.3861V63.3986Z" stroke="black" stroke-width="0.62" stroke-linecap="round" stroke-linejoin="round"/>
<path d="M45.55 91.6758C45.6375 96.4094 47.5984 96.6218 51.8699 99.457C53.0064 100.219 52.6442 100.668 65.2214 110.123" stroke="black" stroke-width="0.62" stroke-linecap="round" stroke-linejoin="round"/>
<path d="M45.6501 91.3511C53.756 97.8708 53.6561 97.9457 54.9925 98.6701C69.8428 106.689 70.0302 106.276 77.3991 109.162" stroke="black" stroke-width="0.62" stroke-linecap="round" stroke-linejoin="round"/>
<path d="M45.6874 91.4761C44.8132 93.6368 42.54 100.132 38.7806 103.504C36.8322 105.252 30.2751 99.1823 27.2276 106.889C25.1917 112.034 25.4166 112.159 18.185 122.726C16.7861 124.762 3.82175 129.595 12.2648 137.601C16.3865 141.498 21.757 141.798 22.6563 141.848C28.3017 142.16 28.2392 142.31 33.8097 143.059C36.7822 143.459 37.4817 142.147 39.2552 139.65" stroke="black" stroke-width="0.62" stroke-linecap="round" stroke-linejoin="round"/>
<path d="M35.5709 143.109C34.3344 142.447 27.515 139.812 30.0004 132.18C32.7232 123.8 37.5318 125.111 38.3686 125.336" stroke="black" stroke-width="0.62" stroke-linecap="round" stroke-linejoin="round"/>
<path d="M25.1294 122.888C30.5624 123.063 30.4375 121.939 35.8206 121.826C38.7432 121.764 39.3303 122.813 40.0672 124.999" stroke="black" stroke-width="0.62" stroke-linecap="round" stroke-linejoin="round"/>
<path d="M35.446 111.535C42.178 118.679 43.3021 119.603 42.5028 124.337" stroke="black" stroke-width="0.62" stroke-linecap="round" stroke-linejoin="round"/>
<path d="M42.0781 115.731C43.1772 119.853 43.2022 120.077 42.79 123.862" stroke="black" stroke-width="0.62" stroke-linecap="round" stroke-linejoin="round"/>
<path d="M42.3528 99.1821C50.3213 107.463 50.4961 107.863 53.4562 114.145" stroke="black" stroke-width="0.62" stroke-linecap="round" stroke-linejoin="round"/>
<path d="M30.1003 138.75C33.2103 140.336 34.3718 140.723 40.0297 139.424" stroke="black" stroke-width="0.62" stroke-linecap="round" stroke-linejoin="round"/>
<path d="M38.3311 125.473C38.0439 125.985 36.1329 129.333 36.5701 132.542C37.5318 139.549 39.043 139.249 45.8999 140.936C46.5869 141.11 52.1948 142.484 54.7177 141.66C58.8643 140.324 54.7177 139.537 54.5553 139.512C55.1923 139.487 63.0484 139.224 61.4746 135.64" stroke="black" stroke-width="0.62" stroke-linecap="round" stroke-linejoin="round"/>
<path d="M55.8292 135.215C58.1523 135.39 63.6978 136.864 65.1841 132.655C66.0708 130.169 64.1724 131.194 60.0633 130.694C57.4404 130.369 57.4404 130.02 56.3663 127.584C57.0033 127.734 64.1599 130.207 67.4947 125.648C71.0792 120.752 60.8127 123.75 54.8176 123.5C50.9832 123.338 52.2821 118.666 49.1222 120.053C46.0498 121.389 46.9115 123.587 38.0063 125.885" stroke="black" stroke-width="0.62" stroke-linecap="round" stroke-linejoin="round"/>
<path d="M38.4059 141.223C36.2202 160.645 17.0859 171.449 5.50787 198.714C3.19727 204.147 17.5855 211.591 18.6471 211.741C20.3457 211.978 17.8228 184.376 52.0073 166.715C56.4911 164.392 70.2673 163.817 68.2814 130.319" stroke="black" stroke-width="0.62" stroke-linecap="round" stroke-linejoin="round"/>
<path d="M61.7994 137.751C63.6979 148.805 64.0101 149.954 61.5247 157.785" stroke="black" stroke-width="0.62" stroke-linecap="round" stroke-linejoin="round"/>
<path d="M21.5198 200.7C26.3533 195.666 27.9395 194.655 35.5458 192.594" stroke="black" stroke-width="0.62" stroke-linecap="round" stroke-linejoin="round"/>
<path d="M41.641 173.747C40.6418 177.106 25.0671 225.63 24.48 226.866C18.3975 239.693 19.6965 240.318 12.1527 252.383C7.24417 260.226 7.13177 264.885 7.0943 266.047C7.00687 269.432 6.75707 271.567 7.59389 271.53C11.6406 271.342 15.7247 268.645 18.5724 269.119C25.0671 270.181 21.1453 264.498 24.3177 259.752C28.152 254.007 28.177 254.044 30.575 247.599C32.3486 242.828 36.77 241.866 40.417 235.434C42.4278 231.887 56.4788 204.322 68.8187 200.787C78.2859 198.077 80.2219 198.714 86.6166 192.644" stroke="black" stroke-width="0.62" stroke-linecap="round" stroke-linejoin="round"/>
<path d="M71.7036 200.1C74.7012 200.924 76.3248 202.286 89.1393 209.73C98.3942 215.1 98.744 214.201 108.673 217.998" stroke="black" stroke-width="0.62" stroke-linecap="round" stroke-linejoin="round"/>
<path d="M102.416 216.475C101.504 219.097 101.692 219.597 103.353 221.558C94.5349 228.59 94.8097 229.127 91.5749 239.156C88.5274 248.636 79.6846 254.918 88.7896 256.654C91.7747 257.217 101.392 256.654 102.778 254.219C104.09 251.908 104.102 249.148 105.526 246.325C107.025 243.353 106.638 243.203 108.336 240.33C109.747 237.957 112.645 236.171 114.956 232.287C120.901 222.307 127.895 218.71 119.852 210.604C113.17 203.885 113.832 203.423 109.123 195.254C105.201 188.447 100.83 189.347 96.3834 179.629" stroke="black" stroke-width="0.62" stroke-linecap="round" stroke-linejoin="round"/>
<path fill-rule="evenodd" clip-rule="evenodd" d="M86.0795 256.055C84.5682 255.031 83.7439 262.9 86.3418 263.924C87.8905 264.536 119.789 265.123 121.538 263.924C121.625 263.861 123.849 261.014 119.889 258.79C113.432 255.168 113.382 258.091 103.165 254.244C103.165 254.244 99.7808 256.805 93.6358 256.78C93.6358 256.78 87.7281 257.167 86.067 256.043L86.0795 256.055Z" fill="#2E2F2F"/>
<path d="M86.0795 256.055C84.5682 255.031 83.7439 262.9 86.3418 263.924C87.8905 264.536 119.789 265.123 121.538 263.924C121.625 263.861 123.849 261.014 119.889 258.79C113.432 255.168 113.382 258.091 103.165 254.244C103.165 254.244 99.7808 256.805 93.6358 256.78C93.6358 256.78 87.7281 257.167 86.067 256.043L86.0795 256.055Z" stroke="black" stroke-width="0.62" stroke-linecap="round" stroke-linejoin="round"/>
<path d="M43.4768 172.385C50.3836 178.081 60.6128 187.76 85.1302 184.026C97.2078 182.177 97.9072 177.781 98.769 173.709C99.2686 171.299 102.316 156.935 101.492 142.31" stroke="black" stroke-width="0.62" stroke-linecap="round" stroke-linejoin="round"/>
<path d="M92.0745 120.29C92.6865 133.442 94.6848 132.955 100.43 140.424C103.652 144.62 102.741 150.316 104.901 155.861C108.411 164.866 109.036 164.604 110.959 174.096C113.057 184.451 120.564 193.506 121.763 194.967" stroke="black" stroke-width="0.62" stroke-linecap="round" stroke-linejoin="round"/>
<path d="M99.5185 136.739C99.3562 128.071 98.6442 128.196 97.7325 122.663C96.6334 116.081 100.33 109.062 100.892 108" stroke="black" stroke-width="0.62" stroke-linecap="round" stroke-linejoin="round"/>
<path d="M94.9097 106.938C96.296 108.762 96.296 108.725 97.7448 110.511" stroke="black" stroke-width="0.62" stroke-linecap="round" stroke-linejoin="round"/>
<path d="M94.9473 112.946C105.626 102.592 108.711 107.613 111.009 105.677C113.27 103.766 113.345 103.803 116.292 103.591C119.34 103.366 118.753 101.905 123.074 100.406" stroke="black" stroke-width="0.62" stroke-linecap="round" stroke-linejoin="round"/>
<path d="M122.25 102.48C125.385 95.323 130.056 98.995 130.618 99.4321C123.349 97.1215 124.735 113.371 124.923 114.02C125.41 115.794 132.504 121.239 134.64 113.621" stroke="black" stroke-width="0.62" stroke-linecap="round" stroke-linejoin="round"/>
<path d="M106.738 160.52C106.325 158.209 106.126 156.461 105.489 151.702C103.778 139 99.8183 128.921 105.726 126.947C108.811 125.911 109.723 126.123 112.333 123.25C114.656 120.69 115.68 122.788 130.893 117.63" stroke="black" stroke-width="0.62" stroke-linecap="round" stroke-linejoin="round"/>
<path d="M128.12 112.147C126.821 109.586 124.111 105.552 130.643 99.769" stroke="black" stroke-width="0.62" stroke-linecap="round" stroke-linejoin="round"/>
<path d="M128.282 112.259C129.032 113.37 129.456 114.332 130.743 115.231C132.117 116.181 132.816 116.443 133.003 116.518" stroke="black" stroke-width="0.62" stroke-linecap="round" stroke-linejoin="round"/>
<path d="M126.022 101.73C127.233 100.868 127.146 100.631 132.067 99.2695" stroke="black" stroke-width="0.62" stroke-linecap="round" stroke-linejoin="round"/>
<path d="M100.405 185.974C101.617 186.199 104.127 186.661 114.793 191.257C120.426 193.68 122.6 196.503 127.483 197.165C125.347 192.594 122.412 191.482 119.914 188.185C119.177 187.211 119.602 186.923 111.284 175.558" stroke="black" stroke-width="0.62" stroke-linecap="round" stroke-linejoin="round"/>
<path d="M133.041 111.397C128.132 103.753 132.179 102.305 132.229 97.7333C132.292 91.913 136.413 88.4409 138.899 89.7648C139.348 90.0021 140.884 91.3135 142.121 91.4509C146.043 91.8756 145.556 93.1121 149.165 94.5859C152.15 95.8099 148.154 100.544 143.545 97.7708C140.185 95.7474 139.86 97.3586 135.951 96.9465" stroke="black" stroke-width="0.62" stroke-linecap="round" stroke-linejoin="round"/>
<path d="M146.492 93.7617C146.33 94.0115 144.507 96.9716 148.953 96.5844" stroke="black" stroke-width="0.62" stroke-linecap="round" stroke-linejoin="round"/>
<path d="M143.008 105.202C140.31 102.18 142.945 100.119 146.43 100.693C152.363 101.655 154.398 101.568 154.261 104.653C154.011 110.348 145.243 105.977 145.181 105.952C140.372 104.378 139.124 106.276 139.086 106.551C138.861 108.5 142.546 110.785 142.945 110.998" stroke="black" stroke-width="0.62" stroke-linecap="round" stroke-linejoin="round"/>
<path d="M140.822 106.614C140.847 106.764 141.009 107.875 141.809 108.25C143.22 108.912 143.22 108.287 144.107 106.988" stroke="black" stroke-width="0.62" stroke-linecap="round" stroke-linejoin="round"/>
<path d="M149.752 107.663C151.288 109.249 151.663 109.511 150.464 111.385C148.903 113.833 147.479 112.846 146.83 112.521" stroke="black" stroke-width="0.62" stroke-linecap="round" stroke-linejoin="round"/>
<path d="M139.76 96.9839C134.19 108.724 130.268 118.342 144.519 116.193" stroke="black" stroke-width="0.62" stroke-linecap="round" stroke-linejoin="round"/>
<path d="M141.684 91.2262C141.959 86.6799 142.146 86.9172 144.482 82.9829C145.818 80.7472 146.73 82.0461 148.041 83.0953" stroke="black" stroke-width="0.62" stroke-linecap="round" stroke-linejoin="round"/>
<path d="M145.693 83.5074L179.428 79.8229C179.428 79.8229 180.777 79.6355 180.54 81.6714C180.29 83.7072 179.278 90.4018 176.405 90.7765L162.005 92.5376C162.005 92.5376 161.568 92.3003 161.031 93.7616C160.493 95.2229 160.094 99.6069 160.094 99.6069C160.094 99.6069 158.87 102.717 153.487 102.43" stroke="black" stroke-width="0.62" stroke-linecap="round" stroke-linejoin="round"/>
<path d="M147.517 113.058C142.895 109.011 136.576 111.16 138.761 113.595C139.436 114.345 143.945 116.618 145.855 116.118C148.303 115.481 147.579 113.345 147.504 113.058H147.517Z" stroke="black" stroke-width="0.62" stroke-linecap="round" stroke-linejoin="round"/>
<path d="M79.5972 121.352C79.5972 121.352 80.459 155.137 79.4973 170.524L85.38 180.616L89.9138 169.762C89.9138 169.762 88.44 133.117 85.1427 121.089" stroke="black" stroke-width="0.62" stroke-linecap="round" stroke-linejoin="round"/>
<path d="M51.1707 120.24C51.1707 120.24 52.1074 114.108 55.9542 110.785L94.1979 108.687C94.1979 108.687 94.8474 113.133 93.6109 116.818L92.7241 119.99L65.5464 122.476" stroke="black" stroke-width="0.62" stroke-linecap="round" stroke-linejoin="round"/>
<path d="M56.7659 119.515L93.5732 116.893" stroke="black" stroke-width="0.62" stroke-linecap="round" stroke-linejoin="round"/>
<path d="M73.4148 121.964C73.4148 121.964 72.553 128.971 69.5555 130.045L62.811 130.769" stroke="black" stroke-width="0.62" stroke-linecap="round" stroke-linejoin="round"/>
<path d="M62.2864 128.521C68.7061 128.596 69.3431 127.884 70.8169 122.213" stroke="black" stroke-width="0.62" stroke-linecap="round" stroke-linejoin="round"/>
<path d="M90.3635 109.811C89.5891 114.108 89.1395 117.03 89.0396 117.655" stroke="black" stroke-width="0.62" stroke-linecap="round" stroke-linejoin="round"/>
<path d="M88.4524 108.624C88.7397 108.399 91.6623 106.051 92.2368 106.076C92.6864 106.089 92.7863 108.862 92.7988 109.111" stroke="black" stroke-width="0.62" stroke-linecap="round" stroke-linejoin="round"/>
<path d="M56.3914 110.373C59.6387 105.665 62.1242 109.174 63.2732 110.548" stroke="black" stroke-width="0.62" stroke-linecap="round" stroke-linejoin="round"/>
<path d="M150.377 92.5251L162.03 91.1138" stroke="black" stroke-width="0.62" stroke-linecap="round" stroke-linejoin="round"/>
<path d="M164.028 89.2527L178.853 87.7539" stroke="black" stroke-width="0.62" stroke-linecap="round" stroke-linejoin="round"/>
<path d="M150.502 96.2845C152.3 94.0363 152.613 93.824 157.783 93.9739C159.644 94.0238 158.683 100.281 156.01 101.018C155.023 101.293 149.228 101.718 150.489 96.2845H150.502Z" stroke="black" stroke-width="0.62" stroke-linecap="round" stroke-linejoin="round"/>
<path d="M156.297 94.7233C150.427 93.924 151.951 98.1331 153.112 98.6826C155.822 99.9816 160.456 96.7092 155.847 94.4985" stroke="black" stroke-width="0.62" stroke-linecap="round" stroke-linejoin="round"/>
<path d="M153.687 95.1729C154.199 97.0963 154.124 97.0963 155.248 98.7574" stroke="black" stroke-width="0.62" stroke-linecap="round" stroke-linejoin="round"/>
<path d="M153.986 99.1196C155.01 100.156 154.986 100.144 156.21 100.893" stroke="black" stroke-width="0.62" stroke-linecap="round" stroke-linejoin="round"/>
<path d="M152.488 94.5356L152.587 95.1601" stroke="black" stroke-width="0.62" stroke-linecap="round" stroke-linejoin="round"/>
<path d="M149.452 83.6948C149.24 84.6316 149.015 85.5683 148.803 86.5175" stroke="black" stroke-width="0.62" stroke-linecap="round" stroke-linejoin="round"/>
<path d="M151.776 83.2202C151.438 84.4692 151.101 85.7307 150.764 86.9797" stroke="black" stroke-width="0.62" stroke-linecap="round" stroke-linejoin="round"/>
<path d="M155.885 82.9077C155.41 84.6938 155.448 84.6563 154.96 86.4299" stroke="black" stroke-width="0.62" stroke-linecap="round" stroke-linejoin="round"/>
<path d="M177.654 80.2974C175.981 83.22 175.781 85.0185 175.519 85.8554" stroke="black" stroke-width="0.62" stroke-linecap="round" stroke-linejoin="round"/>
<path d="M175.656 88.3535C175.419 89.1279 175.169 89.9148 174.919 90.6891" stroke="black" stroke-width="0.62" stroke-linecap="round" stroke-linejoin="round"/>
<path fill-rule="evenodd" clip-rule="evenodd" d="M179.565 80.9218C180.14 81.0591 180.315 82.3456 179.953 83.7944C179.59 85.2308 178.841 86.2924 178.279 86.155C177.704 86.0176 177.53 84.7312 177.892 83.2823C178.254 81.8335 179.003 80.7844 179.565 80.9218Z" fill="black"/>
<path d="M179.565 80.9218C180.14 81.0591 180.315 82.3456 179.953 83.7944C179.59 85.2308 178.841 86.2924 178.279 86.155C177.704 86.0176 177.53 84.7312 177.892 83.2823C178.254 81.8335 179.003 80.7844 179.565 80.9218Z" stroke="black" stroke-width="0.62" stroke-linecap="round" stroke-linejoin="round"/>
<path d="M173.907 80.1976C175.843 78.2742 178.554 75.9386 178.454 79.8854" stroke="black" stroke-width="0.62" stroke-linecap="round" stroke-linejoin="round"/>
<path fill-rule="evenodd" clip-rule="evenodd" d="M200.548 132.78C200.548 132.78 201.085 129.258 200.411 126.984C199.736 124.699 196.889 118.816 196.889 118.816L193.941 113.458C193.941 113.458 199.199 112.883 200.735 113.033C202.272 113.183 203.058 114.47 204.944 114.232C206.83 113.995 215.86 112.509 215.86 112.509L230.923 110.61L234.645 109.624L229.324 121.651L225.59 131.818L213.038 133.854C213.038 133.854 201.66 134.603 200.548 132.78Z" fill="#7393A8"/>
<path fill-rule="evenodd" clip-rule="evenodd" d="M194.316 114.132C194.316 114.132 195.889 124.774 195.939 125.91C195.989 127.047 196.364 133.03 196.364 133.03C196.364 133.03 199.349 133.454 200.236 131.606C200.236 131.606 200.598 128.696 200.298 126.835C199.999 124.974 194.316 114.132 194.316 114.132Z" fill="#EED0B4"/>
<path fill-rule="evenodd" clip-rule="evenodd" d="M237.43 103.466C237.43 103.466 243.45 104.865 246.723 104.403C250.007 103.941 259.762 103.691 260.361 103.441C260.961 103.191 271.153 100.281 272.064 100.106C272.976 99.9316 278.534 97.8833 278.534 97.8833C278.534 97.8833 268.18 104.853 266.869 106.152C265.557 107.463 252.63 117.63 246.186 131.244C239.741 144.858 241.165 148.193 241.177 152.139C241.177 156.086 242.688 164.829 243.001 165.566C243.3 166.303 244.649 171.723 244.649 171.723C244.649 171.723 227.226 170.449 223.966 168.176C223.966 168.176 225.228 133.592 225.577 132.305C225.927 131.019 237.43 103.441 237.43 103.441V103.466Z" fill="#EED0B4"/>
<path fill-rule="evenodd" clip-rule="evenodd" d="M245.012 104.49C245.012 104.49 243.963 109.474 241.165 109.598L233.421 131.131L229.612 144.658C229.612 144.658 225.89 157.959 225.615 165.141C225.615 165.141 224.628 170.074 220.732 172.535C220.732 172.535 218.733 170.087 217.884 165.029C217.884 165.029 217.209 157.322 218.721 150.815C220.232 144.308 221.906 140.536 222.692 138.837C223.467 137.151 227.501 129.307 227.501 129.307L238.542 108.599C238.542 108.599 237.256 105.677 238.242 103.591C238.242 103.591 243.813 104.665 244.999 104.503L245.012 104.49Z" fill="#7393A8"/>
<path fill-rule="evenodd" clip-rule="evenodd" d="M245.699 131.768C245.699 131.768 251.681 121.327 254.441 118.566C257.202 115.806 269.467 104.153 269.467 104.153L279.196 97.6333L282.606 99.7441C282.606 99.7441 282.568 100.918 282.344 101.43C282.344 101.43 288.251 101.792 289.8 102.554C291.349 103.316 294.721 104.715 295.47 112.009C296.22 119.303 297.544 129.408 297.219 135.752C297.219 135.752 297.356 144.233 292.273 147.992C292.273 147.992 288.851 150.453 284.317 150.603C284.317 150.603 284.255 155.936 285.204 160.008C286.153 164.079 289.051 174.596 289.051 174.596C289.051 174.596 289.413 178.38 289.213 179.317C289.026 180.254 287.002 180.928 286.503 181.241C286.003 181.553 282.693 182.652 282.693 182.652C282.693 182.652 283.955 185.887 281.182 189.309C281.182 189.309 278.597 194.093 278.834 196.366C279.059 198.639 280.27 204.085 280.183 206.52C280.095 208.943 280.108 214.301 280.92 217.299C281.719 220.296 285.029 228.752 285.029 228.752C285.029 228.752 287.077 234.035 286.827 236.883C286.59 239.731 286.927 244.052 287.852 246.812C288.788 249.585 293.06 258.578 293.06 258.578C293.06 258.578 292.585 262.15 290.812 263.549C289.026 264.948 283.18 269.444 274.013 267.558C274.013 267.558 274 266.784 273.488 264.81C272.989 262.837 272.677 262.05 271.078 260.689C269.479 259.327 267.806 258.965 267.268 256.23C266.744 253.494 266.269 249.797 266.044 248.836C265.82 247.874 265.42 245.613 264.046 243.215C262.672 240.817 261.623 238.681 261.011 236.009C260.399 233.336 258.85 227.703 255.89 224.106C255.89 224.106 252.993 219.709 252.368 217.211C251.744 214.726 251.082 207.881 251.232 204.597C251.381 201.312 250.295 192.869 250.295 192.869C250.295 192.869 248.471 190.371 246.523 190.446L237.63 192.744L226.34 197.228L219.608 199.213L213.687 201.287C213.687 201.287 212.751 201.874 214.249 206.458C215.748 211.041 218.458 213.902 218.721 215.675C218.983 217.449 218.958 222.457 219.695 223.406C220.444 224.368 223.03 227.066 223.579 228.452C224.129 229.826 224.653 235.896 222.418 240.418L202.384 241.229L198.85 239.993C198.85 239.993 197.651 237.495 197.476 235.846C197.313 234.198 196.614 231.475 195.989 230.8C195.352 230.126 194.266 228.315 194.029 226.791C193.791 225.267 191.318 218.61 191.318 218.61L186.46 208.818C186.46 208.818 179.291 199.538 183.525 195.104C187.759 190.67 195.365 186.736 195.365 186.736L210.715 178.093L223.979 171.811L228.35 169.687L244.337 172.085C244.337 172.085 240.99 157.285 241.24 150.878L245.661 131.793L245.699 131.768Z" fill="#7393A8"/>
<path fill-rule="evenodd" clip-rule="evenodd" d="M248.871 132.305C248.871 132.305 253.592 135.852 253.005 140.948L251.431 149.092C251.431 149.092 254.079 151.627 258.701 150.278C258.701 150.278 259.025 146.331 258.863 143.946C258.688 141.573 254.404 132.318 254.054 131.881C253.692 131.431 248.896 132.305 248.896 132.305H248.871Z" fill="#EED0B4"/>
<path fill-rule="evenodd" clip-rule="evenodd" d="M215.561 85.3308C215.561 85.3308 215.836 79.2982 222.018 75.9259C222.018 75.9259 218.034 74.5021 217.309 72.9658C216.585 71.4296 216.148 71.3172 216.148 71.3172C216.148 71.3172 214.162 70.1931 213.837 69.3188C213.513 68.4445 211.901 62.8615 215.873 58.7024C219.857 54.5433 223.542 53.6565 223.542 53.6565C223.542 53.6565 225.478 46.0002 232.984 46.3249C232.984 46.3249 240.053 47.9236 241.814 49.5098C241.814 49.5098 246.136 44.2016 256.64 46.7246C256.64 46.7246 263.771 48.5606 270.716 60.5884C270.716 60.5884 279.271 63.2237 281.607 76.0883C281.607 76.0883 283.355 90.1894 278.459 95.0979C278.459 95.0979 280.12 96.4718 277.523 97.7832C277.523 97.7832 259.213 107.238 237.63 103.341C237.63 103.341 236.344 103.254 235.557 101.081C235.557 101.081 228.688 99.2071 225.34 95.7224L215.561 85.3308Z" fill="#5E914C"/>
<path fill-rule="evenodd" clip-rule="evenodd" d="M225.815 96.3221C225.815 96.3221 218.821 97.6585 216.897 93.1622C216.897 93.1622 215.636 91.9881 217.672 89.5151C217.672 89.5151 214.137 89.1529 213.987 86.9797C213.987 86.9797 213.987 84.8189 217.085 85.5558L223.604 87.804C223.604 87.804 225.802 87.9664 226.727 87.6167C227.651 87.2795 235.832 87.5667 236.993 87.3169C238.142 87.0796 243.35 86.7798 244.899 85.9805C246.46 85.1936 253.305 83.2827 254.429 83.2452C255.553 83.2078 261.511 83.3701 263.559 88.8282C263.559 88.8282 265.557 92.2879 261.223 94.6735C261.223 94.6735 259.562 95.1106 257.751 93.437C255.953 91.7633 255.765 91.8507 253.08 92.0756C250.395 92.3004 244.55 94.4861 243.838 94.3862C243.126 94.2863 238.642 94.8483 236.918 94.661C235.195 94.4736 228.313 94.3862 227.526 94.561C226.739 94.7359 224.841 95.3729 224.841 95.3729L225.802 96.2971L225.815 96.3221Z" fill="#98A13D"/>
<path fill-rule="evenodd" clip-rule="evenodd" d="M193.679 113.545C193.679 113.545 196.177 119.853 196.077 130.994L192.23 133.617C192.23 133.617 193.941 133.454 193.829 135.303C193.716 137.151 192.205 138.875 191.168 139.387C191.168 139.387 187.284 140.324 188.058 137.613L188.933 135.665C188.933 135.665 184.599 138.962 183.275 135.44C183.275 135.44 183.137 133.042 182.888 132.443C182.65 131.843 182.151 131.044 182.151 131.044C182.151 131.044 177.405 131.693 176.268 129.058C176.268 129.058 175.768 127.996 176.443 126.397C177.117 124.799 177.492 123.737 176.093 122.788C176.093 122.788 171.484 123.825 170.685 122.051C170.685 122.051 169.673 120.49 171.697 118.804C173.72 117.105 180.015 113.745 180.015 113.745C180.015 113.745 172.371 114.919 172.184 113.708C172.184 113.708 174.532 111.097 176.543 110.036C178.554 108.974 182.5 107.925 185.76 110.073C185.76 110.073 190.794 113.983 193.704 113.57L193.679 113.545Z" fill="#5E914C"/>
<path fill-rule="evenodd" clip-rule="evenodd" d="M248.634 132.218C248.634 132.218 252.955 135.041 252.693 141.136L251.107 149.367L248.596 149.891L243.525 150.503L239.728 152.327C239.728 152.327 236.856 154.263 235.607 152.264C235.607 152.264 235.27 150.516 237.655 148.292C237.655 148.292 232.222 151.003 231.148 148.605C231.148 148.605 230.461 147.118 235.419 144.096C235.419 144.096 230.474 146.706 229.487 144.471C229.487 144.471 229.512 141.46 232.447 138.663C232.447 138.663 227.826 141.898 225.702 144.633C225.702 144.633 223.954 147.281 222.03 145.095C222.03 145.095 221.556 142.947 224.641 139.612C224.641 139.612 231.26 131.144 236.968 129.82C236.968 129.82 240.99 129.795 243.013 130.469C245.037 131.144 248.646 132.218 248.646 132.218H248.634Z" fill="#5E914C"/>
<path fill-rule="evenodd" clip-rule="evenodd" d="M234.832 66.2587L252.443 57.3159C252.443 57.3159 258.276 60.3634 257.676 65.9214C257.676 65.9214 253.155 74.1648 236.518 69.581L235.145 68.8815C235.145 68.8815 223.741 72.1914 215.323 69.6309C215.323 69.6309 212.501 62.8614 214.999 59.5516C214.999 59.5516 217.184 58.49 218.233 58.9896C219.283 59.4892 221.331 60.9255 221.93 61.1503C222.53 61.3751 231.76 63.998 232.722 64.7724C233.683 65.5467 234.832 66.2587 234.832 66.2587Z" fill="white"/>
<path fill-rule="evenodd" clip-rule="evenodd" d="M277.96 268.258C277.96 268.258 275.886 276.126 275.874 280.123C275.874 280.123 275.074 283.583 279.958 285.531C279.958 285.531 284.542 288.404 289.138 287.829C293.734 287.255 297.793 282.109 297.793 282.109C297.793 282.109 300.604 279.961 299.742 276.051C298.88 272.142 291.898 262.787 291.898 262.787C291.898 262.787 288.938 265.572 286.915 266.234C284.879 266.896 277.947 268.258 277.947 268.258H277.96Z" fill="#2E2F2F"/>
<path fill-rule="evenodd" clip-rule="evenodd" d="M201.685 241.192L219.545 240.967C222.23 251.409 227.726 258.628 215.124 258.028C177.205 256.242 172.634 261.188 172.771 254.244C172.896 248.112 182.875 247.824 189.932 246.725C199.736 245.201 200.236 244.927 201.685 241.18V241.192Z" fill="#2E2F2F"/>
<path d="M234.733 109.399C226.702 112.322 226.415 110.86 206.106 114.058C202.459 114.632 202.634 112.796 198.975 113.008C191.993 113.421 191.618 114.083 185.798 110.161C179.703 106.052 172.783 112.234 172.246 113.595C172.009 114.208 172.459 114.882 180.44 113.633C178.729 114.495 166.988 119.291 171.272 122.626C173.196 124.124 178.516 122.039 179.64 120.253C179.94 119.778 179.865 116.855 172.559 119.89" stroke="black" stroke-width="0.62" stroke-linecap="round" stroke-linejoin="round"/>
<path d="M176.143 122.825C179.103 125.023 173.982 127.122 176.755 129.869C179.653 132.742 185.323 130.044 187.396 127.097C187.783 126.547 188.158 121.514 179.053 126.148" stroke="black" stroke-width="0.62" stroke-linecap="round" stroke-linejoin="round"/>
<path d="M185.76 121.002C190.094 122.288 191.081 121.864 194.453 120.127" stroke="black" stroke-width="0.62" stroke-linecap="round" stroke-linejoin="round"/>
<path d="M181.838 131.044C184.411 132.58 181.639 137.488 186.135 137.014C188.183 136.802 193.004 132.38 189.807 131.081C185.598 129.37 183.662 135.04 183.45 135.652" stroke="black" stroke-width="0.62" stroke-linecap="round" stroke-linejoin="round"/>
<path d="M190.544 133.642C190.244 134.016 185.411 139.986 190.269 139.612C192.58 139.437 194.228 136.065 193.941 134.866C193.279 132.08 189.157 135.215 188.833 135.465" stroke="black" stroke-width="0.62" stroke-linecap="round" stroke-linejoin="round"/>
<path d="M192.218 133.667C193.479 132.842 194.728 132.03 195.989 131.206" stroke="black" stroke-width="0.62" stroke-linecap="round" stroke-linejoin="round"/>
<path d="M193.841 113.695C195.702 118.204 195.927 122.925 196.289 132.955C200.785 133.104 200.761 131.568 200.273 127.122C199.849 123.312 194.366 114.395 193.729 113.358" stroke="black" stroke-width="0.62" stroke-linecap="round" stroke-linejoin="round"/>
<path d="M200.673 130.444C200.511 132.143 199.499 133.404 202.746 133.779C211.739 134.828 223.991 132.006 225.802 131.593" stroke="black" stroke-width="0.62" stroke-linecap="round" stroke-linejoin="round"/>
<path d="M237.243 103.891C231.111 117.854 228.026 125.023 225.203 133.629" stroke="black" stroke-width="0.62" stroke-linecap="round" stroke-linejoin="round"/>
<path d="M238.03 104.091C237.868 106.014 237.218 108.887 241.452 109.349C243.301 109.549 245.012 104.978 245.187 104.515" stroke="black" stroke-width="0.62" stroke-linecap="round" stroke-linejoin="round"/>
<path d="M238.117 107.7C236.669 109.012 235.232 110.311 233.783 111.622" stroke="black" stroke-width="0.62" stroke-linecap="round" stroke-linejoin="round"/>
<path d="M238.642 108.287C233.409 120.277 222.692 136.327 220.756 143.521C215.398 163.455 217.684 165.741 220.219 173.16C228.925 165.978 224.179 162.543 229.474 144.52" stroke="black" stroke-width="0.62" stroke-linecap="round" stroke-linejoin="round"/>
<path d="M233.309 131.231C235.632 124.611 239.828 112.671 241.003 109.236" stroke="black" stroke-width="0.62" stroke-linecap="round" stroke-linejoin="round"/>
<path d="M224.866 168.576C224.866 168.576 238.517 172.173 244 171.711" stroke="black" stroke-width="0.62" stroke-linecap="round" stroke-linejoin="round"/>
<path d="M227.976 169.825C218.833 174.146 207.143 177.756 185.223 193.493C175.931 200.163 189.482 207.394 194.278 227.503C194.753 229.501 196.452 231.35 197.064 233.586C198.313 238.182 196.864 241.204 203.708 241.342C208.304 241.442 216.06 240.717 222.155 240.605C222.58 239.793 225.041 235.159 223.879 229.239C223.479 227.216 219.42 225.942 219.333 221.146C219.133 210.317 214.137 210.542 213.188 202.198C212.988 200.475 221.106 198.776 221.843 198.626C229.175 197.09 247.66 187.023 249.845 191.832C251.744 196.028 249.883 217.224 254.879 222.944C262.71 231.912 258.725 233.973 264.621 244.876C267.393 250.01 265.17 256.542 269.791 259.839C275.687 264.061 272.264 266.696 274.55 267.908C274.625 267.945 286.228 269.931 292.76 261.625C295.383 258.291 285.778 251.409 286.827 236.646C287.414 228.315 280.033 226.379 279.983 206.52C279.971 198.676 276.823 197.59 281.032 189.996C282.831 186.736 282.918 186.686 282.768 182.502" stroke="black" stroke-width="0.62" stroke-linecap="round" stroke-linejoin="round"/>
<path d="M219.545 240.955C222.23 251.396 227.726 258.615 215.124 258.016C177.205 256.23 172.634 261.176 172.771 254.231C172.896 248.099 182.875 247.812 189.932 246.712C199.736 245.189 200.236 244.914 201.685 241.167" stroke="black" stroke-width="0.62" stroke-linecap="round" stroke-linejoin="round"/>
<path d="M277.697 268.295C275.612 279.011 274 282.871 279.171 285.306C287.489 289.228 290.849 289.49 298.356 281.534C303.164 276.438 296.257 269.731 291.524 262.487" stroke="black" stroke-width="0.62" stroke-linecap="round" stroke-linejoin="round"/>
<path d="M241.302 151.49C242.689 169.25 243.713 169.038 249.146 185.749C259.025 188.385 285.054 182.677 288.289 180.441C292.148 177.768 283.53 162.281 284.042 150.478" stroke="black" stroke-width="0.62" stroke-linecap="round" stroke-linejoin="round"/>
<path d="M245.574 104.853C244.899 111.197 244.512 112.771 245.386 112.821C249.321 113.083 256.102 108.65 262.31 106.139C268.742 103.541 272.926 102.517 278.409 97.6709" stroke="black" stroke-width="0.62" stroke-linecap="round" stroke-linejoin="round"/>
<path d="M245.911 131.418C253.417 119.516 253.455 118.604 263.721 109.037C270.84 102.417 271.253 103.029 279.221 97.396C281.095 98.7449 283.48 99.7191 282.194 101.38C281.732 101.98 275.637 108.587 274.75 108.974C274.138 109.249 273.438 109.561 266.569 110.56C268.605 113.458 268.717 114.033 266.207 116.555C264.97 117.792 264.208 118.267 249.533 132.018" stroke="black" stroke-width="0.62" stroke-linecap="round" stroke-linejoin="round"/>
<path d="M282.631 101.43C294.521 101.717 294.896 106.414 296.02 116.393C296.732 122.788 299.917 141.71 293.222 147.143C286.29 152.751 282.893 149.704 258.713 150.341C258.938 141.235 258.363 140.374 253.792 131.843C259.562 128.034 268.03 128.895 285.316 126.223" stroke="black" stroke-width="0.62" stroke-linecap="round" stroke-linejoin="round"/>
<path d="M277.135 111.997C275.774 118.716 275.462 120.777 276.486 127.347" stroke="black" stroke-width="0.62" stroke-linecap="round" stroke-linejoin="round"/>
<path d="M248.609 132.268C250.47 132.106 251.906 132.068 253.754 131.906" stroke="black" stroke-width="0.62" stroke-linecap="round" stroke-linejoin="round"/>
<path d="M248.721 132.443C251.232 134.941 255.041 137.226 251.257 149.254C252.955 150.241 254.004 151.053 258.863 150.366" stroke="black" stroke-width="0.62" stroke-linecap="round" stroke-linejoin="round"/>
<path d="M248.671 132.38C241.577 130.482 237.643 127.397 231.66 132.48C225.141 138.025 219.832 144.708 222.618 145.807C225.765 147.043 224.541 143.696 232.997 138.15C232.609 138.662 227.089 144.383 230.574 145.432C232.085 145.894 236.319 143.534 236.781 143.271C236.269 143.583 230.898 146.868 231.073 148.255C231.448 151.227 237.368 148.317 237.855 148.08C237.455 148.579 233.833 151.927 236.481 153.038C238.38 153.85 241.165 151.427 241.977 151.115C246.585 149.329 246.873 150.703 251.606 149.154" stroke="black" stroke-width="0.62" stroke-linecap="round" stroke-linejoin="round"/>
<path d="M263.534 96.6341C265.895 96.5217 266.519 96.3344 267.218 94.1611" stroke="black" stroke-width="0.62" stroke-linecap="round" stroke-linejoin="round"/>
<path d="M235.27 101.18C236.269 102.504 235.956 106.151 258.725 103.391C267.168 102.367 273.226 99.7815 276.523 98.2452C278.372 97.3834 278.884 97.4084 278.609 95.3726" stroke="black" stroke-width="0.62" stroke-linecap="round" stroke-linejoin="round"/>
<path d="M235.295 101.205C245.961 102.916 277.26 98.2077 279.596 94.0736C284.08 86.155 283.193 66.1712 271.028 60.4883" stroke="black" stroke-width="0.62" stroke-linecap="round" stroke-linejoin="round"/>
<path d="M271.215 65.2098C271.015 60.5386 271.128 60.3762 268.118 56.342C263.184 49.7224 257.951 44.9762 248.996 46.0379C240.553 47.0246 239.953 53.6442 239.716 54.5934" stroke="black" stroke-width="0.62" stroke-linecap="round" stroke-linejoin="round"/>
<path d="M241.814 49.4099C239.566 47.474 227.751 41.8535 223.442 53.3567" stroke="black" stroke-width="0.62" stroke-linecap="round" stroke-linejoin="round"/>
<path d="M238.542 60.9255C246.098 56.5041 245.848 55.1802 249.695 55.8171" stroke="black" stroke-width="0.62" stroke-linecap="round" stroke-linejoin="round"/>
<path d="M239.866 61.3505C244.487 59.0898 249.483 56.2671 251.931 55.2304C253.667 54.4935 255.278 56.1921 256.315 57.0789" stroke="black" stroke-width="0.62" stroke-linecap="round" stroke-linejoin="round"/>
<path d="M263.434 57.1411C262.797 59.3144 262.859 59.4517 261.023 60.6383" stroke="black" stroke-width="0.62" stroke-linecap="round" stroke-linejoin="round"/>
<path d="M264.933 57.416C265.083 59.3395 265.195 59.3644 266.694 60.576" stroke="black" stroke-width="0.62" stroke-linecap="round" stroke-linejoin="round"/>
<path d="M262.185 63.0616C264.546 61.5253 264.77 61.3255 267.031 62.537" stroke="black" stroke-width="0.62" stroke-linecap="round" stroke-linejoin="round"/>
<path d="M239.017 72.9907C243.463 77.1124 243.713 77.0749 249.745 77.5995" stroke="black" stroke-width="0.62" stroke-linecap="round" stroke-linejoin="round"/>
<path d="M225.115 78.474C226.552 77.1876 228.5 74.9769 233.421 74.877" stroke="black" stroke-width="0.62" stroke-linecap="round" stroke-linejoin="round"/>
<path d="M215.698 84.6312C216.135 83.1948 216.847 78.686 221.931 75.8633" stroke="black" stroke-width="0.62" stroke-linecap="round" stroke-linejoin="round"/>
<path d="M235.27 68.707C236.568 72.6538 248.846 73.7904 258.401 69.8561" stroke="black" stroke-width="0.62" stroke-linecap="round" stroke-linejoin="round"/>
<path d="M223.379 53.6689C214.811 57.316 207.817 65.7217 215.673 70.9424C216.298 71.3546 217.522 73.99 219.995 75.0516C223.092 76.388 225.915 76.0758 228.1 76.1632" stroke="black" stroke-width="0.62" stroke-linecap="round" stroke-linejoin="round"/>
<path d="M235.457 68.6567C233.896 69.2063 231.76 70.5177 224.678 70.3803C216.91 70.2305 216.96 70.0306 215.111 69.556" stroke="black" stroke-width="0.62" stroke-linecap="round" stroke-linejoin="round"/>
<path d="M215.936 58.7898C219.42 58.2027 218.946 60.2511 224.479 61.8872C233.596 64.5851 234.483 65.3719 235.507 68.8191" stroke="black" stroke-width="0.62" stroke-linecap="round" stroke-linejoin="round"/>
<path d="M217.646 57.2412C223.979 58.178 227.264 59.6393 230.748 61.5252" stroke="black" stroke-width="0.62" stroke-linecap="round" stroke-linejoin="round"/>
<path d="M223.829 56.417C228.987 58.6527 229.05 58.4279 233.896 61.3005" stroke="black" stroke-width="0.62" stroke-linecap="round" stroke-linejoin="round"/>
<path d="M223.392 53.9315C228.746 53.8232 234.25 54.2062 239.903 55.0805" stroke="black" stroke-width="0.62" stroke-linecap="round" stroke-linejoin="round"/>
<path d="M236.094 60.2885C236.231 59.077 235.894 57.4658 241.952 53.9311C244.55 52.4074 252.431 47.5113 261.785 55.305" stroke="black" stroke-width="0.62" stroke-linecap="round" stroke-linejoin="round"/>
<path d="M234.758 66.2589C236.169 65.522 251.581 57.5035 252.481 57.3162C253.68 57.0664 260.774 63.9857 256.44 67.4704C252.818 70.3681 249.108 70.7927 247.222 70.9051C240.266 71.3173 236.856 69.4938 235.132 68.9692" stroke="black" stroke-width="0.62" stroke-linecap="round" stroke-linejoin="round"/>
<path d="M235.47 101.23C233.409 100.406 229.612 99.2693 224.841 95.5848C232.31 92.9994 235.395 96.7839 248.209 93.3117C255.591 91.3133 255.915 91.8753 258.326 94.1235C261.473 97.0586 268.293 90.2017 259.987 84.6437C253.68 80.4221 247.048 87.6912 235.432 87.3165C226.839 87.0418 225.365 88.4906 222.792 87.5663C221.181 86.9918 214.449 83.8818 214.075 86.5921C213.85 88.1908 214.05 90.439 233.746 90.6763C245.299 90.8137 254.854 83.4447 259.612 90.7887" stroke="black" stroke-width="0.62" stroke-linecap="round" stroke-linejoin="round"/>
<path d="M217.572 89.6025C217.309 89.8898 215.236 92.113 217.422 94.4486C220.032 97.2588 224.066 96.5469 225.927 96.397" stroke="black" stroke-width="0.62" stroke-linecap="round" stroke-linejoin="round"/>
<path fill-rule="evenodd" clip-rule="evenodd" d="M214.549 60.3137C219.445 58.5401 223.167 64.2979 221.681 69.5312C221.531 70.0433 221.281 70.9675 214.949 69.6436C212.638 69.1565 210.365 63.0489 214.537 60.3261L214.549 60.3137Z" fill="black"/>
<path d="M214.549 60.3137C219.445 58.5401 223.167 64.2979 221.681 69.5312C221.531 70.0433 221.281 70.9675 214.949 69.6436C212.638 69.1565 210.365 63.0489 214.537 60.3261L214.549 60.3137Z" stroke="black" stroke-width="0.62" stroke-linecap="round" stroke-linejoin="round"/>
<path fill-rule="evenodd" clip-rule="evenodd" d="M234.845 66.3212C235.07 67.795 235.245 68.9066 237.293 69.4686C245.536 71.7418 245.786 70.5802 246.136 69.7684C246.435 69.0565 247.122 64.9723 243.888 62.5118C242.639 61.5626 241.902 62.9614 234.845 66.3212Z" fill="black"/>
<path d="M234.845 66.3212C235.07 67.795 235.245 68.9066 237.293 69.4686C245.536 71.7418 245.786 70.5802 246.136 69.7684C246.435 69.0565 247.122 64.9723 243.888 62.5118C242.639 61.5626 241.902 62.9614 234.845 66.3212Z" stroke="black" stroke-width="0.62" stroke-linecap="round" stroke-linejoin="round"/>
<path fill-rule="evenodd" clip-rule="evenodd" d="M242.514 64.0981C243.238 64.0981 243.838 64.6602 243.838 65.3346C243.838 66.0091 243.251 66.5711 242.514 66.5711C241.777 66.5711 241.19 66.0216 241.19 65.3346C241.19 64.6477 241.777 64.0981 242.514 64.0981Z" fill="white"/>
<path fill-rule="evenodd" clip-rule="evenodd" d="M243.088 67.7949C243.538 67.7949 243.913 68.1946 243.913 68.6692C243.913 69.1438 243.538 69.5435 243.088 69.5435C242.639 69.5435 242.264 69.1438 242.264 68.6692C242.264 68.1946 242.639 67.7949 243.088 67.7949Z" fill="white"/>
<path fill-rule="evenodd" clip-rule="evenodd" d="M239.316 66.3213C239.853 66.3213 240.278 66.721 240.278 67.2206C240.278 67.7202 239.841 68.1198 239.316 68.1198C238.792 68.1198 238.354 67.7202 238.354 67.2206C238.354 66.721 238.792 66.3213 239.316 66.3213Z" fill="white"/>
<path fill-rule="evenodd" clip-rule="evenodd" d="M217.472 61.5249C218.321 61.5249 219.008 62.1994 219.008 63.0237C219.008 63.848 218.321 64.5225 217.472 64.5225C216.622 64.5225 215.936 63.848 215.936 63.0237C215.936 62.1994 216.622 61.5249 217.472 61.5249Z" fill="white"/>
<path fill-rule="evenodd" clip-rule="evenodd" d="M218.246 66.1841C218.833 66.1841 219.308 66.6587 219.308 67.2457C219.308 67.8327 218.833 68.3074 218.246 68.3074C217.659 68.3074 217.185 67.8327 217.185 67.2457C217.185 66.6587 217.659 66.1841 218.246 66.1841Z" fill="white"/>
<path fill-rule="evenodd" clip-rule="evenodd" d="M215.149 65.2969C215.623 65.2969 216.023 65.6591 216.023 66.1212C216.023 66.5833 215.636 66.9455 215.149 66.9455C214.662 66.9455 214.274 66.5833 214.274 66.1212C214.274 65.6591 214.662 65.2969 215.149 65.2969Z" fill="white"/>
</g>
<defs>
<clipPath id="clip0_5166_108103">
<rect width="305" height="293" fill="white"/>
</clipPath>
</defs>
</svg>
