<svg width="140" height="120" viewBox="0 0 140 120" fill="none" xmlns="http://www.w3.org/2000/svg">
<path d="M26.6816 31.5C27.8816 19.9 22.8483 7 20.1816 2C28.9817 6 42.1816 23.3333 47.6816 31.5C67.6816 12.3 99.3483 25.8333 112.682 35C125.182 35 139.182 43.5 138.682 68.5C138.282 88.5 126.848 97.1667 121.182 99C119.182 135.5 64.6816 111 60.1816 113.5C55.6816 116 20.1816 122 6.18165 106.5C-5.01833 94.1 4.51499 77.3333 10.6817 70.5C12.6816 72.5 15.1816 74.9 9.18159 68.5C3.18159 62.1 2.01494 54.5 2.18162 51.5C1.78162 35.9 18.3483 31.6667 26.6816 31.5Z" fill="white" stroke="black"/>
<path d="M24.925 54.11C24.7343 54.11 24.5693 54.033 24.43 53.879C24.298 53.7177 24.232 53.4573 24.232 53.098C24.232 52.614 24.2027 52.185 24.144 51.811C24.0853 51.437 24.0157 51.0887 23.935 50.766C23.8617 50.4433 23.792 50.1317 23.726 49.831C23.6673 49.523 23.638 49.204 23.638 48.874C23.638 48.346 23.7297 47.884 23.913 47.488C24.1037 47.0847 24.4043 46.773 24.815 46.553C25.2257 46.3257 25.7647 46.212 26.432 46.212C26.9233 46.212 27.3707 46.311 27.774 46.509C28.1847 46.707 28.511 46.993 28.753 47.367C28.995 47.7337 29.116 48.1847 29.116 48.72C29.116 49.094 29.0353 49.457 28.874 49.809C28.7127 50.1537 28.489 50.4617 28.203 50.733C27.9243 50.997 27.5907 51.206 27.202 51.36C26.8207 51.514 26.4063 51.591 25.959 51.591C25.673 51.591 25.4163 51.547 25.189 51.459C24.9617 51.371 24.782 51.2573 24.65 51.118C24.518 50.9713 24.452 50.821 24.452 50.667C24.452 50.5277 24.4887 50.4213 24.562 50.348C24.6427 50.2747 24.738 50.238 24.848 50.238C24.9507 50.238 25.0423 50.2563 25.123 50.293C25.2037 50.3223 25.3027 50.3553 25.42 50.392C25.5373 50.4213 25.7023 50.436 25.915 50.436C26.3037 50.436 26.6447 50.3553 26.938 50.194C27.2387 50.0327 27.477 49.82 27.653 49.556C27.829 49.292 27.917 49.0133 27.917 48.72C27.917 48.4267 27.8473 48.1847 27.708 47.994C27.5687 47.796 27.3853 47.6493 27.158 47.554C26.9307 47.4587 26.6887 47.411 26.432 47.411C25.8967 47.411 25.497 47.5393 25.233 47.796C24.969 48.0453 24.837 48.4047 24.837 48.874C24.837 49.1893 24.8663 49.5047 24.925 49.82C24.991 50.1353 25.0643 50.469 25.145 50.821C25.233 51.1657 25.3063 51.5507 25.365 51.976C25.431 52.394 25.464 52.8707 25.464 53.406C25.464 53.6187 25.4237 53.791 25.343 53.923C25.2697 54.0477 25.1303 54.11 24.925 54.11ZM32.1975 54.11C31.7649 54.11 31.3909 54.0513 31.0755 53.934C30.7602 53.8167 30.4999 53.648 30.2945 53.428C30.0892 53.208 29.9352 52.9513 29.8325 52.658C29.7372 52.3647 29.6895 52.042 29.6895 51.69C29.6895 51.3087 29.7592 50.9273 29.8985 50.546C30.0452 50.1573 30.2505 49.8053 30.5145 49.49C30.7785 49.1673 31.0939 48.9107 31.4605 48.72C31.8345 48.522 32.2489 48.423 32.7035 48.423C33.0775 48.423 33.4002 48.489 33.6715 48.621C33.9502 48.7457 34.1665 48.9363 34.3205 49.193C34.4745 49.4497 34.5515 49.7723 34.5515 50.161C34.5515 50.4617 34.4819 50.7293 34.3425 50.964C34.2032 51.1913 34.0052 51.382 33.7485 51.536C33.4992 51.69 33.2095 51.8073 32.8795 51.888C32.5495 51.9613 32.1902 51.998 31.8015 51.998C31.3762 51.998 31.0682 51.9357 30.8775 51.811C30.6942 51.679 30.6025 51.5323 30.6025 51.371C30.6025 51.283 30.6245 51.217 30.6685 51.173C30.7125 51.1217 30.7895 51.096 30.8995 51.096C30.9802 51.096 31.0792 51.1107 31.1965 51.14C31.3139 51.162 31.4789 51.173 31.6915 51.173C32.0215 51.173 32.3149 51.1327 32.5715 51.052C32.8282 50.964 33.0335 50.8467 33.1875 50.7C33.3415 50.546 33.4185 50.3737 33.4185 50.183C33.4185 49.963 33.3635 49.798 33.2535 49.688C33.1435 49.578 32.9602 49.523 32.7035 49.523C32.4322 49.523 32.1865 49.589 31.9665 49.721C31.7465 49.8457 31.5522 50.018 31.3835 50.238C31.2222 50.458 31.0975 50.7073 31.0095 50.986C30.9215 51.2647 30.8775 51.5543 30.8775 51.855C30.8775 52.0823 30.9179 52.2877 30.9985 52.471C31.0792 52.6543 31.2075 52.7973 31.3835 52.9C31.5669 53.0027 31.8125 53.054 32.1205 53.054C32.5312 53.054 32.8722 53.01 33.1435 52.922C33.4149 52.834 33.6422 52.735 33.8255 52.625C34.0089 52.5077 34.1629 52.405 34.2875 52.317C34.4195 52.229 34.5442 52.185 34.6615 52.185C34.7715 52.185 34.8485 52.2217 34.8925 52.295C34.9439 52.361 34.9695 52.4673 34.9695 52.614C34.9695 52.7753 34.8962 52.944 34.7495 53.12C34.6102 53.296 34.4122 53.4573 34.1555 53.604C33.9062 53.7507 33.6129 53.8717 33.2755 53.967C32.9455 54.0623 32.5862 54.11 32.1975 54.11ZM38.9047 54.11C38.5307 54.11 38.1934 54.0513 37.8927 53.934C37.592 53.8093 37.3537 53.6517 37.1777 53.461C37.0017 53.2703 36.9137 53.065 36.9137 52.845C36.9137 52.7423 36.943 52.6543 37.0017 52.581C37.0677 52.5003 37.152 52.46 37.2547 52.46C37.3427 52.46 37.4234 52.4857 37.4967 52.537C37.5774 52.581 37.6654 52.636 37.7607 52.702C37.8634 52.7607 37.9917 52.8157 38.1457 52.867C38.2997 52.911 38.5014 52.933 38.7507 52.933C39.132 52.933 39.44 52.8413 39.6747 52.658C39.9094 52.4673 40.0267 52.1483 40.0267 51.701C40.0267 51.3783 39.9644 51.0923 39.8397 50.843C39.715 50.5863 39.5427 50.3663 39.3227 50.183C39.11 49.9997 38.868 49.8603 38.5967 49.765C38.3254 49.6623 38.043 49.611 37.7497 49.611C37.603 49.611 37.46 49.6293 37.3207 49.666C37.1887 49.6953 37.0604 49.71 36.9357 49.71C36.8257 49.71 36.723 49.6843 36.6277 49.633C36.5397 49.5817 36.4664 49.512 36.4077 49.424C36.3564 49.3287 36.3307 49.2297 36.3307 49.127C36.3307 48.8777 36.4444 48.698 36.6717 48.588C36.899 48.4707 37.2547 48.412 37.7387 48.412C38.23 48.412 38.6884 48.4927 39.1137 48.654C39.5464 48.808 39.924 49.0353 40.2467 49.336C40.5694 49.6293 40.8224 49.9887 41.0057 50.414C41.189 50.8393 41.2807 51.3197 41.2807 51.855C41.2807 52.1777 41.222 52.4747 41.1047 52.746C40.9947 53.0173 40.8334 53.2557 40.6207 53.461C40.4154 53.6663 40.166 53.8277 39.8727 53.945C39.5867 54.055 39.264 54.11 38.9047 54.11ZM36.9027 56.871C36.7927 56.871 36.69 56.8453 36.5947 56.794C36.5067 56.75 36.4334 56.6767 36.3747 56.574C36.3234 56.4787 36.2977 56.354 36.2977 56.2C36.2977 56.0753 36.3124 55.9617 36.3417 55.859C36.371 55.7563 36.4004 55.639 36.4297 55.507C36.4664 55.3823 36.4994 55.2247 36.5287 55.034C36.558 54.8507 36.5727 54.6123 36.5727 54.319C36.5727 53.7837 36.525 53.2557 36.4297 52.735C36.3417 52.207 36.2464 51.679 36.1437 51.151C36.0484 50.623 35.9934 50.084 35.9787 49.534C35.9714 49.358 36.008 49.2223 36.0887 49.127C36.1767 49.0317 36.2904 48.984 36.4297 48.984C36.5837 48.984 36.7194 49.028 36.8367 49.116C36.9614 49.1967 37.0604 49.3067 37.1337 49.446C37.2144 49.578 37.2547 49.7247 37.2547 49.886C37.2547 50.3187 37.284 50.7293 37.3427 51.118C37.4014 51.5067 37.4674 51.888 37.5407 52.262C37.614 52.6287 37.68 52.9953 37.7387 53.362C37.7974 53.7287 37.8267 54.11 37.8267 54.506C37.8267 54.8433 37.8084 55.155 37.7717 55.441C37.7424 55.7343 37.691 55.9873 37.6177 56.2C37.5517 56.4127 37.46 56.5777 37.3427 56.695C37.2254 56.8123 37.0787 56.871 36.9027 56.871ZM44.8956 54.11C44.3163 54.11 43.8396 54.0073 43.4656 53.802C43.0989 53.5893 42.8276 53.3033 42.6516 52.944C42.4756 52.5773 42.3876 52.1593 42.3876 51.69C42.3876 51.3087 42.4573 50.9273 42.5966 50.546C42.7433 50.1573 42.9486 49.8053 43.2126 49.49C43.4766 49.1673 43.7919 48.9107 44.1586 48.72C44.5326 48.522 44.9469 48.423 45.4016 48.423C45.7756 48.423 46.0983 48.489 46.3696 48.621C46.6483 48.7457 46.8646 48.9363 47.0186 49.193C47.1726 49.4497 47.2496 49.7723 47.2496 50.161C47.2496 50.5643 47.1286 50.9017 46.8866 51.173C46.6446 51.4443 46.3146 51.6497 45.8966 51.789C45.4786 51.9283 45.0129 51.998 44.4996 51.998C44.0743 51.998 43.7663 51.9357 43.5756 51.811C43.3923 51.679 43.3006 51.5323 43.3006 51.371C43.3006 51.283 43.3226 51.217 43.3666 51.173C43.4106 51.1217 43.4876 51.096 43.5976 51.096C43.6783 51.096 43.7773 51.1107 43.8946 51.14C44.0119 51.162 44.1769 51.173 44.3896 51.173C44.7196 51.173 45.0129 51.1327 45.2696 51.052C45.5263 50.964 45.7316 50.8467 45.8856 50.7C46.0396 50.546 46.1166 50.3737 46.1166 50.183C46.1166 49.963 46.0616 49.798 45.9516 49.688C45.8416 49.578 45.6583 49.523 45.4016 49.523C45.1303 49.523 44.8846 49.589 44.6646 49.721C44.4446 49.8457 44.2503 50.018 44.0816 50.238C43.9203 50.458 43.7956 50.7073 43.7076 50.986C43.6196 51.2647 43.5756 51.5543 43.5756 51.855C43.5756 52.0823 43.6159 52.2877 43.6966 52.471C43.7773 52.6543 43.9056 52.7973 44.0816 52.9C44.2649 53.0027 44.5106 53.054 44.8186 53.054C45.2293 53.054 45.5703 53.01 45.8416 52.922C46.1129 52.834 46.3403 52.735 46.5236 52.625C46.7069 52.5077 46.8609 52.405 46.9856 52.317C47.1176 52.229 47.2423 52.185 47.3596 52.185C47.4696 52.185 47.5466 52.2217 47.5906 52.295C47.6419 52.361 47.6676 52.4673 47.6676 52.614C47.6676 52.7753 47.5943 52.944 47.4476 53.12C47.3083 53.296 47.1103 53.4573 46.8536 53.604C46.6043 53.7507 46.3109 53.8717 45.9736 53.967C45.6436 54.0623 45.2843 54.11 44.8956 54.11ZM51.0254 54.11C50.8641 54.11 50.7211 54.0623 50.5964 53.967C50.4791 53.8717 50.3508 53.725 50.2114 53.527C50.1088 53.3583 49.9951 53.131 49.8704 52.845C49.7458 52.559 49.6211 52.2547 49.4964 51.932C49.3791 51.602 49.2618 51.294 49.1444 51.008C48.9978 50.6193 48.8694 50.3113 48.7594 50.084C48.6494 49.8567 48.5541 49.677 48.4734 49.545C48.4001 49.4057 48.3451 49.2883 48.3084 49.193C48.2718 49.0903 48.2534 48.9767 48.2534 48.852C48.2534 48.7347 48.2901 48.6357 48.3634 48.555C48.4441 48.467 48.5761 48.423 48.7594 48.423C48.9721 48.423 49.1518 48.4853 49.2984 48.61C49.4451 48.7273 49.5698 48.8887 49.6724 49.094C49.7824 49.2993 49.8851 49.5303 49.9804 49.787C50.1051 50.095 50.2261 50.425 50.3434 50.777C50.4681 51.129 50.5964 51.4737 50.7284 51.811C50.8678 52.141 51.0144 52.4453 51.1684 52.724L50.7724 52.702C50.9631 52.3133 51.1318 51.9393 51.2784 51.58C51.4251 51.2207 51.5718 50.876 51.7184 50.546C51.8651 50.216 52.0228 49.9007 52.1914 49.6C52.3601 49.2993 52.5618 49.0097 52.7964 48.731C52.8918 48.6283 52.9834 48.5513 53.0714 48.5C53.1594 48.4487 53.2658 48.423 53.3904 48.423C53.4931 48.423 53.5848 48.4523 53.6654 48.511C53.7461 48.5697 53.8084 48.643 53.8524 48.731C53.8964 48.8117 53.9184 48.9033 53.9184 49.006C53.9184 49.116 53.9001 49.2187 53.8634 49.314C53.8341 49.4093 53.7901 49.4973 53.7314 49.578C53.4748 49.908 53.2548 50.227 53.0714 50.535C52.8954 50.843 52.7341 51.1547 52.5874 51.47C52.4481 51.778 52.3014 52.1117 52.1474 52.471C51.9934 52.823 51.8174 53.219 51.6194 53.659C51.5388 53.8277 51.4544 53.945 51.3664 54.011C51.2858 54.077 51.1721 54.11 51.0254 54.11ZM57.0243 54.11C56.445 54.11 55.9683 54.0073 55.5943 53.802C55.2276 53.5893 54.9563 53.3033 54.7803 52.944C54.6043 52.5773 54.5163 52.1593 54.5163 51.69C54.5163 51.3087 54.586 50.9273 54.7253 50.546C54.872 50.1573 55.0773 49.8053 55.3413 49.49C55.6053 49.1673 55.9206 48.9107 56.2873 48.72C56.6613 48.522 57.0756 48.423 57.5303 48.423C58.0876 48.423 58.535 48.5697 58.8723 48.863C59.2096 49.149 59.3783 49.5817 59.3783 50.161C59.3783 50.5643 59.2573 50.9017 59.0153 51.173C58.7733 51.4443 58.4433 51.6497 58.0253 51.789C57.6073 51.9283 57.1416 51.998 56.6283 51.998C56.203 51.998 55.895 51.9357 55.7043 51.811C55.521 51.679 55.4293 51.5323 55.4293 51.371C55.4293 51.283 55.4513 51.217 55.4953 51.173C55.5393 51.1217 55.6163 51.096 55.7263 51.096C55.807 51.096 55.906 51.1107 56.0233 51.14C56.1406 51.162 56.3056 51.173 56.5183 51.173C56.8483 51.173 57.1416 51.1327 57.3983 51.052C57.655 50.964 57.8603 50.8467 58.0143 50.7C58.1683 50.546 58.2453 50.3737 58.2453 50.183C58.2453 49.963 58.1903 49.798 58.0803 49.688C57.9703 49.578 57.787 49.523 57.5303 49.523C57.1783 49.523 56.863 49.633 56.5843 49.853C56.313 50.073 56.0966 50.3627 55.9353 50.722C55.7813 51.074 55.7043 51.4517 55.7043 51.855C55.7043 52.0823 55.7446 52.2877 55.8253 52.471C55.906 52.6543 56.0343 52.7973 56.2103 52.9C56.3936 53.0027 56.6393 53.054 56.9473 53.054C57.358 53.054 57.699 53.01 57.9703 52.922C58.2416 52.834 58.469 52.735 58.6523 52.625C58.8356 52.5077 58.9896 52.405 59.1143 52.317C59.2463 52.229 59.371 52.185 59.4883 52.185C59.5983 52.185 59.6753 52.2217 59.7193 52.295C59.7706 52.361 59.7963 52.4673 59.7963 52.614C59.7963 52.7753 59.723 52.944 59.5763 53.12C59.437 53.296 59.239 53.4573 58.9823 53.604C58.733 53.7507 58.4396 53.8717 58.1023 53.967C57.7723 54.0623 57.413 54.11 57.0243 54.11ZM61.8876 54.132C61.7556 54.132 61.6382 54.0917 61.5356 54.011C61.4402 53.9303 61.3632 53.8203 61.3046 53.681C61.2532 53.5343 61.2276 53.3693 61.2276 53.186C61.2276 52.6947 61.2166 52.229 61.1946 51.789C61.1799 51.349 61.1506 50.9457 61.1066 50.579C61.0626 50.2123 61.0039 49.9043 60.9306 49.655C60.8719 49.479 60.8316 49.347 60.8096 49.259C60.7949 49.1637 60.7876 49.0647 60.7876 48.962C60.7876 48.83 60.8279 48.72 60.9086 48.632C60.9892 48.544 61.1176 48.5 61.2936 48.5C61.4476 48.5 61.5869 48.555 61.7116 48.665C61.8362 48.775 61.9426 48.9657 62.0306 49.237C62.1186 49.501 62.1846 49.8677 62.2286 50.337C62.2799 50.8063 62.3019 51.404 62.2946 52.13L61.8436 51.943C61.9242 51.3123 62.0599 50.7733 62.2506 50.326C62.4486 49.8787 62.6759 49.5157 62.9326 49.237C63.1966 48.9583 63.4716 48.753 63.7576 48.621C64.0436 48.489 64.3259 48.423 64.6046 48.423C64.8319 48.423 64.9896 48.4817 65.0776 48.599C65.1729 48.709 65.2206 48.8483 65.2206 49.017C65.2206 49.149 65.1766 49.27 65.0886 49.38C65.0079 49.4827 64.8649 49.5707 64.6596 49.644C64.2782 49.7613 63.9592 49.93 63.7026 50.15C63.4459 50.37 63.2369 50.634 63.0756 50.942C62.9216 51.25 62.8006 51.5947 62.7126 51.976C62.6319 52.3573 62.5732 52.7717 62.5366 53.219C62.5146 53.461 62.4779 53.648 62.4266 53.78C62.3752 53.912 62.3056 54.0037 62.2176 54.055C62.1296 54.1063 62.0196 54.132 61.8876 54.132ZM67.2714 54.11C66.8974 54.11 66.5894 54.0623 66.3474 53.967C66.1054 53.8717 65.9257 53.7507 65.8084 53.604C65.6984 53.4573 65.6434 53.2997 65.6434 53.131C65.6434 53.0063 65.6801 52.9037 65.7534 52.823C65.8341 52.7423 65.9477 52.702 66.0944 52.702C66.1751 52.702 66.2447 52.7167 66.3034 52.746C66.3694 52.7753 66.4391 52.8083 66.5124 52.845C66.5931 52.8817 66.6884 52.9147 66.7984 52.944C66.9157 52.9733 67.0661 52.988 67.2494 52.988C67.7041 52.988 68.0891 52.9367 68.4044 52.834C68.7271 52.724 68.9507 52.5553 69.0754 52.328C69.0167 52.1813 68.8994 52.0677 68.7234 51.987C68.5474 51.9063 68.3384 51.8367 68.0964 51.778C67.8544 51.7193 67.6014 51.657 67.3374 51.591C67.0807 51.5177 66.8387 51.4297 66.6114 51.327C66.3914 51.217 66.2117 51.074 66.0724 50.898C65.9331 50.722 65.8634 50.4947 65.8634 50.216C65.8634 49.93 65.9477 49.6733 66.1164 49.446C66.2851 49.2187 66.5087 49.028 66.7874 48.874C67.0661 48.72 67.3741 48.6027 67.7114 48.522C68.0487 48.4413 68.3861 48.4047 68.7234 48.412C68.9507 48.412 69.1414 48.4487 69.2954 48.522C69.4494 48.5953 69.5631 48.6907 69.6364 48.808C69.7171 48.9253 69.7574 49.0463 69.7574 49.171C69.7574 49.303 69.7207 49.4093 69.6474 49.49C69.5814 49.5707 69.4787 49.611 69.3394 49.611C69.2734 49.611 69.2111 49.6073 69.1524 49.6C69.1011 49.5927 69.0424 49.589 68.9764 49.589C68.9104 49.5817 68.8224 49.578 68.7124 49.578C68.3017 49.578 67.9461 49.6367 67.6454 49.754C67.3447 49.864 67.1211 50.0327 66.9744 50.26C67.0184 50.392 67.1284 50.4983 67.3044 50.579C67.4804 50.6597 67.6894 50.7293 67.9314 50.788C68.1807 50.8467 68.4374 50.909 68.7014 50.975C68.9727 51.041 69.2221 51.129 69.4494 51.239C69.6841 51.3417 69.8747 51.481 70.0214 51.657C70.1681 51.833 70.2414 52.0567 70.2414 52.328C70.2414 52.636 70.1607 52.9037 69.9994 53.131C69.8454 53.3583 69.6291 53.5453 69.3504 53.692C69.0791 53.8313 68.7637 53.934 68.4044 54C68.0524 54.0733 67.6747 54.11 67.2714 54.11ZM73.7242 54.11C73.1448 54.11 72.6682 54.0073 72.2942 53.802C71.9275 53.5893 71.6562 53.3033 71.4802 52.944C71.3042 52.5773 71.2162 52.1593 71.2162 51.69C71.2162 51.3087 71.2858 50.9273 71.4252 50.546C71.5718 50.1573 71.7772 49.8053 72.0412 49.49C72.3052 49.1673 72.6205 48.9107 72.9872 48.72C73.3612 48.522 73.7755 48.423 74.2302 48.423C74.7875 48.423 75.2348 48.5697 75.5722 48.863C75.9095 49.149 76.0782 49.5817 76.0782 50.161C76.0782 50.5643 75.9572 50.9017 75.7152 51.173C75.4732 51.4443 75.1432 51.6497 74.7252 51.789C74.3072 51.9283 73.8415 51.998 73.3282 51.998C72.9028 51.998 72.5948 51.9357 72.4042 51.811C72.2208 51.679 72.1292 51.5323 72.1292 51.371C72.1292 51.283 72.1512 51.217 72.1952 51.173C72.2392 51.1217 72.3162 51.096 72.4262 51.096C72.5068 51.096 72.6058 51.1107 72.7232 51.14C72.8405 51.162 73.0055 51.173 73.2182 51.173C73.5482 51.173 73.8415 51.1327 74.0982 51.052C74.3548 50.964 74.5602 50.8467 74.7142 50.7C74.8682 50.546 74.9452 50.3737 74.9452 50.183C74.9452 49.963 74.8902 49.798 74.7802 49.688C74.6702 49.578 74.4868 49.523 74.2302 49.523C73.8782 49.523 73.5628 49.633 73.2842 49.853C73.0128 50.073 72.7965 50.3627 72.6352 50.722C72.4812 51.074 72.4042 51.4517 72.4042 51.855C72.4042 52.0823 72.4445 52.2877 72.5252 52.471C72.6058 52.6543 72.7342 52.7973 72.9102 52.9C73.0935 53.0027 73.3392 53.054 73.6472 53.054C74.0578 53.054 74.3988 53.01 74.6702 52.922C74.9415 52.834 75.1688 52.735 75.3522 52.625C75.5355 52.5077 75.6895 52.405 75.8142 52.317C75.9462 52.229 76.0708 52.185 76.1882 52.185C76.2982 52.185 76.3752 52.2217 76.4192 52.295C76.4705 52.361 76.4962 52.4673 76.4962 52.614C76.4962 52.7753 76.4228 52.944 76.2762 53.12C76.1368 53.296 75.9388 53.4573 75.6822 53.604C75.4328 53.7507 75.1395 53.8717 74.8022 53.967C74.4722 54.0623 74.1128 54.11 73.7242 54.11ZM82.4906 51.822C82.2486 51.822 82.0432 51.7927 81.8746 51.734C81.7059 51.668 81.5776 51.5837 81.4896 51.481C81.4016 51.3783 81.3576 51.2757 81.3576 51.173C81.3576 51.0923 81.3796 51.0153 81.4236 50.942C81.4749 50.8687 81.5739 50.8173 81.7206 50.788C82.1899 50.7 82.6446 50.634 83.0846 50.59C83.5246 50.5387 83.9719 50.513 84.4266 50.513C84.7419 50.513 84.9912 50.5533 85.1746 50.634C85.3579 50.7147 85.4899 50.81 85.5706 50.92C85.6512 51.03 85.6916 51.129 85.6916 51.217C85.6916 51.349 85.6439 51.4553 85.5486 51.536C85.4532 51.6093 85.3176 51.646 85.1416 51.646C84.5842 51.646 84.1332 51.6607 83.7886 51.69C83.4512 51.7193 83.1799 51.7487 82.9746 51.778C82.7766 51.8073 82.6152 51.822 82.4906 51.822ZM92.2246 54.099C91.6673 54.099 91.2493 54.0073 90.9706 53.824C90.692 53.6333 90.5526 53.406 90.5526 53.142C90.5526 53.01 90.5856 52.911 90.6516 52.845C90.7176 52.7717 90.8203 52.735 90.9596 52.735C91.055 52.735 91.1356 52.746 91.2016 52.768C91.275 52.7827 91.3483 52.801 91.4216 52.823C91.5023 52.845 91.594 52.867 91.6966 52.889C91.8066 52.9037 91.9423 52.911 92.1036 52.911C92.4923 52.911 92.8333 52.8927 93.1266 52.856C93.4273 52.8193 93.684 52.768 93.8966 52.702C94.1166 52.6287 94.3036 52.5443 94.4576 52.449C94.4136 52.2657 94.2926 52.1043 94.0946 51.965C93.8966 51.8257 93.651 51.6937 93.3576 51.569C93.0643 51.4443 92.76 51.316 92.4446 51.184C92.1366 51.0447 91.847 50.8907 91.5756 50.722C91.3043 50.5533 91.0806 50.3517 90.9046 50.117C90.736 49.875 90.6516 49.589 90.6516 49.259C90.6516 48.8923 90.7543 48.5513 90.9596 48.236C91.1723 47.9207 91.4473 47.6383 91.7846 47.389C92.122 47.1323 92.485 46.916 92.8736 46.74C93.2623 46.564 93.64 46.4283 94.0066 46.333C94.3806 46.2377 94.7033 46.19 94.9746 46.19C95.1506 46.19 95.29 46.2193 95.3926 46.278C95.4953 46.3367 95.5686 46.4137 95.6126 46.509C95.6566 46.6043 95.6786 46.7107 95.6786 46.828C95.6786 46.9673 95.6383 47.0847 95.5576 47.18C95.477 47.2753 95.3413 47.3413 95.1506 47.378C94.476 47.5027 93.893 47.6677 93.4016 47.873C92.9176 48.071 92.5436 48.291 92.2796 48.533C92.023 48.7677 91.8946 49.0097 91.8946 49.259C91.8946 49.435 91.9863 49.5927 92.1696 49.732C92.3603 49.864 92.5986 49.996 92.8846 50.128C93.178 50.2527 93.486 50.3847 93.8086 50.524C94.1386 50.656 94.4466 50.81 94.7326 50.986C95.026 51.162 95.2643 51.3673 95.4476 51.602C95.631 51.8293 95.7226 52.1043 95.7226 52.427C95.7226 52.7057 95.6346 52.9513 95.4586 53.164C95.2826 53.3767 95.037 53.5527 94.7216 53.692C94.4063 53.824 94.036 53.9267 93.6106 54C93.1853 54.066 92.7233 54.099 92.2246 54.099ZM99.686 54.132C99.1067 54.132 98.5897 54.011 98.135 53.769C97.6803 53.5197 97.321 53.1823 97.057 52.757C96.8003 52.3243 96.672 51.8293 96.672 51.272C96.672 50.876 96.749 50.5093 96.903 50.172C97.057 49.8347 97.2513 49.5413 97.486 49.292C97.728 49.0353 97.9773 48.8373 98.234 48.698C98.498 48.5587 98.7327 48.489 98.938 48.489C99.0333 48.489 99.1177 48.5037 99.191 48.533C99.2717 48.5623 99.334 48.6063 99.378 48.665C99.422 48.7237 99.444 48.8043 99.444 48.907C99.444 49.0977 99.4037 49.2663 99.323 49.413C99.2497 49.5523 99.0957 49.6733 98.861 49.776C98.6483 49.8933 98.4687 50.029 98.322 50.183C98.1827 50.3297 98.0763 50.4947 98.003 50.678C97.9297 50.854 97.893 51.0483 97.893 51.261C97.893 51.7963 98.0507 52.2253 98.366 52.548C98.6813 52.8707 99.1103 53.032 99.653 53.032C100.108 53.032 100.474 52.867 100.753 52.537C101.032 52.1997 101.171 51.756 101.171 51.206C101.171 50.7073 101.05 50.315 100.808 50.029C100.566 49.7357 100.243 49.589 99.84 49.589C99.6273 49.589 99.455 49.633 99.323 49.721C99.191 49.809 99.0517 49.9263 98.905 50.073C98.795 50.183 98.707 50.2783 98.641 50.359C98.575 50.4397 98.509 50.502 98.443 50.546C98.3843 50.59 98.3037 50.612 98.201 50.612C98.0837 50.612 97.9883 50.5753 97.915 50.502C97.8417 50.4213 97.805 50.282 97.805 50.084C97.805 49.908 97.86 49.7247 97.97 49.534C98.08 49.3433 98.223 49.1673 98.399 49.006C98.5823 48.8447 98.7877 48.7163 99.015 48.621C99.2423 48.5183 99.4733 48.467 99.708 48.467C100.265 48.467 100.742 48.5807 101.138 48.808C101.534 49.028 101.838 49.3433 102.051 49.754C102.264 50.1647 102.37 50.6487 102.37 51.206C102.37 51.756 102.253 52.2547 102.018 52.702C101.783 53.142 101.464 53.4903 101.061 53.747C100.658 54.0037 100.199 54.132 99.686 54.132ZM106.094 54.099C105.551 54.099 105.086 53.9927 104.697 53.78C104.308 53.5673 104.011 53.274 103.806 52.9C103.601 52.5187 103.498 52.0787 103.498 51.58C103.498 51.14 103.586 50.7293 103.762 50.348C103.945 49.9667 104.195 49.633 104.51 49.347C104.825 49.0537 105.185 48.8263 105.588 48.665C105.999 48.5037 106.435 48.423 106.897 48.423C107.073 48.423 107.231 48.4487 107.37 48.5C107.509 48.5513 107.619 48.6357 107.7 48.753C107.788 48.863 107.832 49.0133 107.832 49.204C107.832 49.38 107.792 49.5303 107.711 49.655C107.638 49.7723 107.524 49.831 107.37 49.831C107.282 49.831 107.216 49.8127 107.172 49.776C107.128 49.7393 107.077 49.7063 107.018 49.677C106.967 49.6477 106.879 49.633 106.754 49.633C106.365 49.633 106.017 49.7247 105.709 49.908C105.408 50.084 105.166 50.326 104.983 50.634C104.807 50.9347 104.719 51.2757 104.719 51.657C104.719 51.9063 104.77 52.1263 104.873 52.317C104.976 52.5077 105.13 52.658 105.335 52.768C105.54 52.8707 105.793 52.922 106.094 52.922C106.409 52.922 106.651 52.8853 106.82 52.812C106.989 52.7387 107.117 52.658 107.205 52.57C107.293 52.4747 107.374 52.394 107.447 52.328C107.52 52.2547 107.616 52.218 107.733 52.218C107.858 52.218 107.953 52.2583 108.019 52.339C108.092 52.4197 108.129 52.537 108.129 52.691C108.129 52.9623 108.037 53.2043 107.854 53.417C107.678 53.6297 107.436 53.7983 107.128 53.923C106.827 54.0403 106.483 54.099 106.094 54.099ZM109.996 54.121C109.835 54.121 109.706 54.0843 109.611 54.011C109.516 53.9377 109.442 53.835 109.391 53.703C109.347 53.5637 109.325 53.4023 109.325 53.219C109.325 52.6763 109.321 52.218 109.314 51.844C109.314 51.4627 109.31 51.1327 109.303 50.854C109.303 50.5753 109.299 50.315 109.292 50.073C109.292 49.831 109.292 49.5743 109.292 49.303C109.292 49.1417 109.318 48.9987 109.369 48.874C109.42 48.742 109.497 48.6393 109.6 48.566C109.71 48.4927 109.849 48.456 110.018 48.456C110.216 48.456 110.374 48.522 110.491 48.654C110.608 48.7787 110.671 48.973 110.678 49.237C110.678 49.391 110.674 49.611 110.667 49.897C110.667 50.183 110.66 50.4983 110.645 50.843C110.638 51.1803 110.627 51.525 110.612 51.877C110.605 52.2217 110.597 52.537 110.59 52.823C110.583 53.109 110.579 53.34 110.579 53.516C110.579 53.6847 110.531 53.8277 110.436 53.945C110.341 54.0623 110.194 54.121 109.996 54.121ZM110.095 47.587C109.794 47.587 109.545 47.5027 109.347 47.334C109.149 47.158 109.05 46.949 109.05 46.707C109.05 46.4723 109.131 46.2853 109.292 46.146C109.453 46.0067 109.659 45.937 109.908 45.937C110.113 45.937 110.289 45.9847 110.436 46.08C110.583 46.1753 110.693 46.2963 110.766 46.443C110.847 46.5897 110.887 46.7363 110.887 46.883C110.887 47.0517 110.825 47.213 110.7 47.367C110.583 47.5137 110.381 47.587 110.095 47.587ZM113.712 54.11C113.367 54.11 113.063 54.0367 112.799 53.89C112.542 53.736 112.344 53.5233 112.205 53.252C112.066 52.9807 111.996 52.6617 111.996 52.295C111.996 51.9357 112.051 51.5727 112.161 51.206C112.278 50.832 112.44 50.48 112.645 50.15C112.85 49.82 113.092 49.5267 113.371 49.27C113.65 49.006 113.954 48.8007 114.284 48.654C114.614 48.5 114.962 48.423 115.329 48.423C115.527 48.423 115.696 48.4817 115.835 48.599C115.974 48.7163 116.044 48.8887 116.044 49.116C116.044 49.2113 116.015 49.292 115.956 49.358C115.897 49.424 115.813 49.4643 115.703 49.479C115.204 49.545 114.764 49.7247 114.383 50.018C114.009 50.3113 113.716 50.6633 113.503 51.074C113.298 51.4847 113.195 51.9137 113.195 52.361C113.195 52.5443 113.21 52.713 113.239 52.867C113.268 53.0137 113.334 53.2043 113.437 53.439L112.81 52.559C112.979 52.7203 113.122 52.8267 113.239 52.878C113.364 52.922 113.525 52.944 113.723 52.944C114.156 52.944 114.548 52.6837 114.9 52.163C115.259 51.635 115.52 50.865 115.681 49.853C115.703 49.699 115.762 49.5817 115.857 49.501C115.952 49.413 116.07 49.369 116.209 49.369C116.422 49.369 116.601 49.4423 116.748 49.589C116.895 49.7283 116.994 49.908 117.045 50.128C117.126 50.524 117.21 50.8833 117.298 51.206C117.386 51.5213 117.503 51.8257 117.65 52.119C117.797 52.405 117.998 52.7057 118.255 53.021C118.328 53.1017 118.369 53.2043 118.376 53.329C118.383 53.4463 118.365 53.5637 118.321 53.681C118.277 53.791 118.207 53.8863 118.112 53.967C118.024 54.0403 117.918 54.077 117.793 54.077C117.683 54.077 117.591 54.055 117.518 54.011C117.452 53.967 117.39 53.9083 117.331 53.835C117.184 53.6443 117.049 53.4537 116.924 53.263C116.799 53.065 116.682 52.8487 116.572 52.614C116.469 52.372 116.378 52.0933 116.297 51.778C116.224 51.4553 116.161 51.0777 116.11 50.645L116.539 50.623C116.429 51.2683 116.271 51.8147 116.066 52.262C115.868 52.7093 115.641 53.0687 115.384 53.34C115.127 53.6113 114.856 53.8093 114.57 53.934C114.284 54.0513 113.998 54.11 113.712 54.11ZM120.875 54.121C120.713 54.121 120.552 54.0953 120.391 54.044C120.229 54 120.079 53.912 119.94 53.78C119.8 53.6407 119.676 53.439 119.566 53.175C119.456 52.911 119.368 52.5627 119.302 52.13C119.243 51.6973 119.214 51.1583 119.214 50.513C119.214 49.919 119.225 49.3873 119.247 48.918C119.276 48.4413 119.316 47.9977 119.368 47.587C119.419 47.1763 119.478 46.773 119.544 46.377C119.588 46.1057 119.654 45.915 119.742 45.805C119.837 45.695 119.958 45.64 120.105 45.64C120.303 45.64 120.457 45.717 120.567 45.871C120.677 46.025 120.732 46.2743 120.732 46.619C120.732 46.8317 120.717 47.0627 120.688 47.312C120.658 47.554 120.625 47.8327 120.589 48.148C120.552 48.456 120.519 48.8227 120.49 49.248C120.46 49.666 120.446 50.161 120.446 50.733C120.446 51.1803 120.46 51.5507 120.49 51.844C120.519 52.13 120.556 52.3537 120.6 52.515C120.651 52.6763 120.71 52.79 120.776 52.856C120.849 52.922 120.922 52.955 120.996 52.955C121.084 52.955 121.153 52.9477 121.205 52.933C121.263 52.911 121.311 52.8927 121.348 52.878C121.384 52.8633 121.425 52.856 121.469 52.856C121.63 52.856 121.736 52.9 121.788 52.988C121.846 53.076 121.876 53.186 121.876 53.318C121.876 53.56 121.777 53.7543 121.579 53.901C121.381 54.0477 121.146 54.121 120.875 54.121ZM24.925 69.11C24.7343 69.11 24.5693 69.033 24.43 68.879C24.298 68.7177 24.232 68.4573 24.232 68.098C24.232 67.614 24.2027 67.185 24.144 66.811C24.0853 66.437 24.0157 66.0887 23.935 65.766C23.8617 65.4433 23.792 65.1317 23.726 64.831C23.6673 64.523 23.638 64.204 23.638 63.874C23.638 63.346 23.7297 62.884 23.913 62.488C24.1037 62.0847 24.4043 61.773 24.815 61.553C25.2257 61.3257 25.7647 61.212 26.432 61.212C26.9233 61.212 27.3707 61.311 27.774 61.509C28.1847 61.707 28.511 61.993 28.753 62.367C28.995 62.7337 29.116 63.1847 29.116 63.72C29.116 64.094 29.0353 64.457 28.874 64.809C28.7127 65.1537 28.489 65.4617 28.203 65.733C27.9243 65.997 27.5907 66.206 27.202 66.36C26.8207 66.514 26.4063 66.591 25.959 66.591C25.673 66.591 25.4163 66.547 25.189 66.459C24.9617 66.371 24.782 66.2573 24.65 66.118C24.518 65.9713 24.452 65.821 24.452 65.667C24.452 65.5277 24.4887 65.4213 24.562 65.348C24.6427 65.2747 24.738 65.238 24.848 65.238C24.9507 65.238 25.0423 65.2563 25.123 65.293C25.2037 65.3223 25.3027 65.3553 25.42 65.392C25.5373 65.4213 25.7023 65.436 25.915 65.436C26.3037 65.436 26.6447 65.3553 26.938 65.194C27.2387 65.0327 27.477 64.82 27.653 64.556C27.829 64.292 27.917 64.0133 27.917 63.72C27.917 63.4267 27.8473 63.1847 27.708 62.994C27.5687 62.796 27.3853 62.6493 27.158 62.554C26.9307 62.4587 26.6887 62.411 26.432 62.411C25.8967 62.411 25.497 62.5393 25.233 62.796C24.969 63.0453 24.837 63.4047 24.837 63.874C24.837 64.1893 24.8663 64.5047 24.925 64.82C24.991 65.1353 25.0643 65.469 25.145 65.821C25.233 66.1657 25.3063 66.5507 25.365 66.976C25.431 67.394 25.464 67.8707 25.464 68.406C25.464 68.6187 25.4237 68.791 25.343 68.923C25.2697 69.0477 25.1303 69.11 24.925 69.11ZM32.1975 69.11C31.7649 69.11 31.3909 69.0513 31.0755 68.934C30.7602 68.8167 30.4999 68.648 30.2945 68.428C30.0892 68.208 29.9352 67.9513 29.8325 67.658C29.7372 67.3647 29.6895 67.042 29.6895 66.69C29.6895 66.3087 29.7592 65.9273 29.8985 65.546C30.0452 65.1573 30.2505 64.8053 30.5145 64.49C30.7785 64.1673 31.0939 63.9107 31.4605 63.72C31.8345 63.522 32.2489 63.423 32.7035 63.423C33.0775 63.423 33.4002 63.489 33.6715 63.621C33.9502 63.7457 34.1665 63.9363 34.3205 64.193C34.4745 64.4497 34.5515 64.7723 34.5515 65.161C34.5515 65.4617 34.4819 65.7293 34.3425 65.964C34.2032 66.1913 34.0052 66.382 33.7485 66.536C33.4992 66.69 33.2095 66.8073 32.8795 66.888C32.5495 66.9613 32.1902 66.998 31.8015 66.998C31.3762 66.998 31.0682 66.9357 30.8775 66.811C30.6942 66.679 30.6025 66.5323 30.6025 66.371C30.6025 66.283 30.6245 66.217 30.6685 66.173C30.7125 66.1217 30.7895 66.096 30.8995 66.096C30.9802 66.096 31.0792 66.1107 31.1965 66.14C31.3139 66.162 31.4789 66.173 31.6915 66.173C32.0215 66.173 32.3149 66.1327 32.5715 66.052C32.8282 65.964 33.0335 65.8467 33.1875 65.7C33.3415 65.546 33.4185 65.3737 33.4185 65.183C33.4185 64.963 33.3635 64.798 33.2535 64.688C33.1435 64.578 32.9602 64.523 32.7035 64.523C32.4322 64.523 32.1865 64.589 31.9665 64.721C31.7465 64.8457 31.5522 65.018 31.3835 65.238C31.2222 65.458 31.0975 65.7073 31.0095 65.986C30.9215 66.2647 30.8775 66.5543 30.8775 66.855C30.8775 67.0823 30.9179 67.2877 30.9985 67.471C31.0792 67.6543 31.2075 67.7973 31.3835 67.9C31.5669 68.0027 31.8125 68.054 32.1205 68.054C32.5312 68.054 32.8722 68.01 33.1435 67.922C33.4149 67.834 33.6422 67.735 33.8255 67.625C34.0089 67.5077 34.1629 67.405 34.2875 67.317C34.4195 67.229 34.5442 67.185 34.6615 67.185C34.7715 67.185 34.8485 67.2217 34.8925 67.295C34.9439 67.361 34.9695 67.4673 34.9695 67.614C34.9695 67.7753 34.8962 67.944 34.7495 68.12C34.6102 68.296 34.4122 68.4573 34.1555 68.604C33.9062 68.7507 33.6129 68.8717 33.2755 68.967C32.9455 69.0623 32.5862 69.11 32.1975 69.11ZM38.9047 69.11C38.5307 69.11 38.1934 69.0513 37.8927 68.934C37.592 68.8093 37.3537 68.6517 37.1777 68.461C37.0017 68.2703 36.9137 68.065 36.9137 67.845C36.9137 67.7423 36.943 67.6543 37.0017 67.581C37.0677 67.5003 37.152 67.46 37.2547 67.46C37.3427 67.46 37.4234 67.4857 37.4967 67.537C37.5774 67.581 37.6654 67.636 37.7607 67.702C37.8634 67.7607 37.9917 67.8157 38.1457 67.867C38.2997 67.911 38.5014 67.933 38.7507 67.933C39.132 67.933 39.44 67.8413 39.6747 67.658C39.9094 67.4673 40.0267 67.1483 40.0267 66.701C40.0267 66.3783 39.9644 66.0923 39.8397 65.843C39.715 65.5863 39.5427 65.3663 39.3227 65.183C39.11 64.9997 38.868 64.8603 38.5967 64.765C38.3254 64.6623 38.043 64.611 37.7497 64.611C37.603 64.611 37.46 64.6293 37.3207 64.666C37.1887 64.6953 37.0604 64.71 36.9357 64.71C36.8257 64.71 36.723 64.6843 36.6277 64.633C36.5397 64.5817 36.4664 64.512 36.4077 64.424C36.3564 64.3287 36.3307 64.2297 36.3307 64.127C36.3307 63.8777 36.4444 63.698 36.6717 63.588C36.899 63.4707 37.2547 63.412 37.7387 63.412C38.23 63.412 38.6884 63.4927 39.1137 63.654C39.5464 63.808 39.924 64.0353 40.2467 64.336C40.5694 64.6293 40.8224 64.9887 41.0057 65.414C41.189 65.8393 41.2807 66.3197 41.2807 66.855C41.2807 67.1777 41.222 67.4747 41.1047 67.746C40.9947 68.0173 40.8334 68.2557 40.6207 68.461C40.4154 68.6663 40.166 68.8277 39.8727 68.945C39.5867 69.055 39.264 69.11 38.9047 69.11ZM36.9027 71.871C36.7927 71.871 36.69 71.8453 36.5947 71.794C36.5067 71.75 36.4334 71.6767 36.3747 71.574C36.3234 71.4787 36.2977 71.354 36.2977 71.2C36.2977 71.0753 36.3124 70.9617 36.3417 70.859C36.371 70.7563 36.4004 70.639 36.4297 70.507C36.4664 70.3823 36.4994 70.2247 36.5287 70.034C36.558 69.8507 36.5727 69.6123 36.5727 69.319C36.5727 68.7837 36.525 68.2557 36.4297 67.735C36.3417 67.207 36.2464 66.679 36.1437 66.151C36.0484 65.623 35.9934 65.084 35.9787 64.534C35.9714 64.358 36.008 64.2223 36.0887 64.127C36.1767 64.0317 36.2904 63.984 36.4297 63.984C36.5837 63.984 36.7194 64.028 36.8367 64.116C36.9614 64.1967 37.0604 64.3067 37.1337 64.446C37.2144 64.578 37.2547 64.7247 37.2547 64.886C37.2547 65.3187 37.284 65.7293 37.3427 66.118C37.4014 66.5067 37.4674 66.888 37.5407 67.262C37.614 67.6287 37.68 67.9953 37.7387 68.362C37.7974 68.7287 37.8267 69.11 37.8267 69.506C37.8267 69.8433 37.8084 70.155 37.7717 70.441C37.7424 70.7343 37.691 70.9873 37.6177 71.2C37.5517 71.4127 37.46 71.5777 37.3427 71.695C37.2254 71.8123 37.0787 71.871 36.9027 71.871ZM44.8956 69.11C44.3163 69.11 43.8396 69.0073 43.4656 68.802C43.0989 68.5893 42.8276 68.3033 42.6516 67.944C42.4756 67.5773 42.3876 67.1593 42.3876 66.69C42.3876 66.3087 42.4573 65.9273 42.5966 65.546C42.7433 65.1573 42.9486 64.8053 43.2126 64.49C43.4766 64.1673 43.7919 63.9107 44.1586 63.72C44.5326 63.522 44.9469 63.423 45.4016 63.423C45.7756 63.423 46.0983 63.489 46.3696 63.621C46.6483 63.7457 46.8646 63.9363 47.0186 64.193C47.1726 64.4497 47.2496 64.7723 47.2496 65.161C47.2496 65.5643 47.1286 65.9017 46.8866 66.173C46.6446 66.4443 46.3146 66.6497 45.8966 66.789C45.4786 66.9283 45.0129 66.998 44.4996 66.998C44.0743 66.998 43.7663 66.9357 43.5756 66.811C43.3923 66.679 43.3006 66.5323 43.3006 66.371C43.3006 66.283 43.3226 66.217 43.3666 66.173C43.4106 66.1217 43.4876 66.096 43.5976 66.096C43.6783 66.096 43.7773 66.1107 43.8946 66.14C44.0119 66.162 44.1769 66.173 44.3896 66.173C44.7196 66.173 45.0129 66.1327 45.2696 66.052C45.5263 65.964 45.7316 65.8467 45.8856 65.7C46.0396 65.546 46.1166 65.3737 46.1166 65.183C46.1166 64.963 46.0616 64.798 45.9516 64.688C45.8416 64.578 45.6583 64.523 45.4016 64.523C45.1303 64.523 44.8846 64.589 44.6646 64.721C44.4446 64.8457 44.2503 65.018 44.0816 65.238C43.9203 65.458 43.7956 65.7073 43.7076 65.986C43.6196 66.2647 43.5756 66.5543 43.5756 66.855C43.5756 67.0823 43.6159 67.2877 43.6966 67.471C43.7773 67.6543 43.9056 67.7973 44.0816 67.9C44.2649 68.0027 44.5106 68.054 44.8186 68.054C45.2293 68.054 45.5703 68.01 45.8416 67.922C46.1129 67.834 46.3403 67.735 46.5236 67.625C46.7069 67.5077 46.8609 67.405 46.9856 67.317C47.1176 67.229 47.2423 67.185 47.3596 67.185C47.4696 67.185 47.5466 67.2217 47.5906 67.295C47.6419 67.361 47.6676 67.4673 47.6676 67.614C47.6676 67.7753 47.5943 67.944 47.4476 68.12C47.3083 68.296 47.1103 68.4573 46.8536 68.604C46.6043 68.7507 46.3109 68.8717 45.9736 68.967C45.6436 69.0623 45.2843 69.11 44.8956 69.11ZM51.2848 69.099C50.7421 69.099 50.2838 68.9927 49.9098 68.78C49.5358 68.56 49.2571 68.2373 49.0738 67.812C48.8904 67.3867 48.7988 66.8623 48.7988 66.239C48.7988 65.6743 48.8428 65.1463 48.9308 64.655C49.0261 64.1637 49.1178 63.6907 49.2058 63.236C49.3011 62.7813 49.3488 62.334 49.3488 61.894C49.3488 61.674 49.3818 61.5017 49.4478 61.377C49.5211 61.2523 49.6604 61.19 49.8658 61.19C50.0271 61.19 50.1628 61.234 50.2728 61.322C50.3828 61.4027 50.4634 61.5163 50.5148 61.663C50.5661 61.8023 50.5918 61.96 50.5918 62.136C50.5918 62.51 50.5624 62.8803 50.5038 63.247C50.4451 63.6063 50.3754 63.962 50.2948 64.314C50.2214 64.666 50.1554 65.0107 50.0968 65.348C50.0381 65.6853 50.0088 66.019 50.0088 66.349C50.0088 66.833 50.1078 67.2143 50.3058 67.493C50.5111 67.7717 50.8521 67.911 51.3288 67.911C51.6734 67.911 51.9558 67.8817 52.1758 67.823C52.4031 67.7643 52.5901 67.702 52.7368 67.636C52.8834 67.5627 53.0118 67.5003 53.1218 67.449C53.2318 67.3903 53.3454 67.361 53.4628 67.361C53.5874 67.361 53.6864 67.4087 53.7598 67.504C53.8404 67.592 53.8808 67.702 53.8808 67.834C53.8808 67.9733 53.8478 68.109 53.7818 68.241C53.7158 68.373 53.6168 68.4867 53.4848 68.582C53.1841 68.758 52.8431 68.89 52.4618 68.978C52.0804 69.0587 51.6881 69.099 51.2848 69.099ZM56.2637 69.11C55.9191 69.11 55.6147 69.0367 55.3507 68.89C55.0941 68.736 54.8961 68.5233 54.7567 68.252C54.6174 67.9807 54.5477 67.6617 54.5477 67.295C54.5477 66.9357 54.6027 66.5727 54.7127 66.206C54.8301 65.832 54.9914 65.48 55.1967 65.15C55.4021 64.82 55.6441 64.5267 55.9227 64.27C56.2014 64.006 56.5057 63.8007 56.8357 63.654C57.1657 63.5 57.5141 63.423 57.8807 63.423C58.0787 63.423 58.2474 63.4817 58.3867 63.599C58.5261 63.7163 58.5957 63.8887 58.5957 64.116C58.5957 64.2113 58.5664 64.292 58.5077 64.358C58.4491 64.424 58.3647 64.4643 58.2547 64.479C57.7561 64.545 57.3161 64.7247 56.9347 65.018C56.5607 65.3113 56.2674 65.6633 56.0547 66.074C55.8494 66.4847 55.7467 66.9137 55.7467 67.361C55.7467 67.5443 55.7614 67.713 55.7907 67.867C55.8201 68.0137 55.8861 68.2043 55.9887 68.439L55.3617 67.559C55.5304 67.7203 55.6734 67.8267 55.7907 67.878C55.9154 67.922 56.0767 67.944 56.2747 67.944C56.7074 67.944 57.0997 67.6837 57.4517 67.163C57.8111 66.635 58.0714 65.865 58.2327 64.853C58.2547 64.699 58.3134 64.5817 58.4087 64.501C58.5041 64.413 58.6214 64.369 58.7607 64.369C58.9734 64.369 59.1531 64.4423 59.2997 64.589C59.4464 64.7283 59.5454 64.908 59.5967 65.128C59.6774 65.524 59.7617 65.8833 59.8497 66.206C59.9377 66.5213 60.0551 66.8257 60.2017 67.119C60.3484 67.405 60.5501 67.7057 60.8067 68.021C60.8801 68.1017 60.9204 68.2043 60.9277 68.329C60.9351 68.4463 60.9167 68.5637 60.8727 68.681C60.8287 68.791 60.7591 68.8863 60.6637 68.967C60.5757 69.0403 60.4694 69.077 60.3447 69.077C60.2347 69.077 60.1431 69.055 60.0697 69.011C60.0037 68.967 59.9414 68.9083 59.8827 68.835C59.7361 68.6443 59.6004 68.4537 59.4757 68.263C59.3511 68.065 59.2337 67.8487 59.1237 67.614C59.0211 67.372 58.9294 67.0933 58.8487 66.778C58.7754 66.4553 58.7131 66.0777 58.6617 65.645L59.0907 65.623C58.9441 66.4883 58.7167 67.1777 58.4087 67.691C58.1081 68.197 57.7707 68.56 57.3967 68.78C57.0227 69 56.6451 69.11 56.2637 69.11ZM64.2998 69.11C63.8231 69.11 63.4088 69.011 63.0568 68.813C62.7121 68.615 62.4261 68.3547 62.1988 68.032C61.9788 67.702 61.8138 67.3353 61.7038 66.932C61.5938 66.5287 61.5388 66.1253 61.5388 65.722C61.5388 65.37 61.5644 65.0473 61.6158 64.754C61.6744 64.4533 61.7588 64.1637 61.8688 63.885C61.9128 63.7677 61.9751 63.676 62.0558 63.61C62.1364 63.544 62.2464 63.511 62.3858 63.511C62.5618 63.511 62.7084 63.5697 62.8258 63.687C62.9431 63.8043 63.0018 63.9583 63.0018 64.149C63.0018 64.2663 62.9871 64.3763 62.9578 64.479C62.9358 64.5743 62.9064 64.6807 62.8698 64.798C62.8404 64.9153 62.8111 65.051 62.7818 65.205C62.7598 65.3517 62.7488 65.535 62.7488 65.755C62.7488 66.195 62.8111 66.58 62.9358 66.91C63.0604 67.24 63.2364 67.4967 63.4638 67.68C63.6984 67.8633 63.9734 67.955 64.2888 67.955C64.5748 67.955 64.8168 67.8487 65.0148 67.636C65.2128 67.416 65.3631 67.1007 65.4658 66.69C65.5684 66.2793 65.6198 65.7917 65.6198 65.227C65.6198 65.0363 65.6124 64.875 65.5978 64.743C65.5904 64.611 65.5794 64.4937 65.5648 64.391C65.5574 64.281 65.5538 64.1673 65.5538 64.05C65.5538 63.874 65.5868 63.7383 65.6528 63.643C65.7188 63.5477 65.8361 63.5 66.0048 63.5C66.1734 63.5 66.3164 63.5513 66.4338 63.654C66.5511 63.7493 66.6391 63.9143 66.6978 64.149C66.7638 64.3763 66.7968 64.6917 66.7968 65.095C66.7968 65.997 66.6941 66.745 66.4888 67.339C66.2834 67.9257 65.9938 68.3693 65.6198 68.67C65.2458 68.9633 64.8058 69.11 64.2998 69.11ZM73.3785 69.099C73.1292 69.099 72.9092 68.9927 72.7185 68.78C72.5352 68.56 72.3922 68.219 72.2895 67.757C72.1869 67.2877 72.1355 66.679 72.1355 65.931C72.1355 65.6377 72.1282 65.403 72.1135 65.227C72.1062 65.0437 72.0842 64.897 72.0475 64.787C72.0182 64.677 71.9742 64.589 71.9155 64.523C71.8642 64.4497 71.7945 64.3763 71.7065 64.303C71.8679 64.2957 72.0035 64.314 72.1135 64.358C72.2235 64.3947 72.3079 64.4643 72.3665 64.567C72.4252 64.6623 72.4509 64.8053 72.4435 64.996C72.3335 64.8347 72.2419 64.7283 72.1685 64.677C72.0952 64.6257 72.0072 64.6 71.9045 64.6C71.7579 64.6 71.5892 64.688 71.3985 64.864C71.2152 65.04 71.0209 65.293 70.8155 65.623C70.6175 65.9457 70.4232 66.3343 70.2325 66.789C70.0419 67.2363 69.8695 67.7277 69.7155 68.263C69.6349 68.5783 69.5432 68.7983 69.4405 68.923C69.3379 69.0403 69.1985 69.099 69.0225 69.099C68.7219 69.099 68.4982 68.934 68.3515 68.604C68.2049 68.274 68.1315 67.8523 68.1315 67.339C68.1315 66.9723 68.1462 66.6533 68.1755 66.382C68.2122 66.1033 68.2489 65.8467 68.2855 65.612C68.3295 65.37 68.3662 65.1243 68.3955 64.875C68.4322 64.6183 68.4505 64.3287 68.4505 64.006C68.4505 63.83 68.4909 63.698 68.5715 63.61C68.6595 63.5147 68.7879 63.467 68.9565 63.467C69.1472 63.467 69.2939 63.533 69.3965 63.665C69.5065 63.797 69.5615 64.0133 69.5615 64.314C69.5615 64.5413 69.5432 64.7613 69.5065 64.974C69.4699 65.1793 69.4295 65.403 69.3855 65.645C69.3489 65.8797 69.3159 66.1583 69.2865 66.481C69.2572 66.8037 69.2499 67.1923 69.2645 67.647L69.0005 67.449C69.2499 66.569 69.5395 65.832 69.8695 65.238C70.1995 64.6367 70.5479 64.1857 70.9145 63.885C71.2812 63.577 71.6405 63.423 71.9925 63.423C72.2785 63.423 72.5132 63.4927 72.6965 63.632C72.8872 63.764 73.0302 63.9583 73.1255 64.215C73.2209 64.4643 73.2685 64.765 73.2685 65.117C73.2685 65.667 73.2759 66.14 73.2905 66.536C73.3052 66.9247 73.3455 67.2437 73.4115 67.493C73.4849 67.7423 73.5949 67.933 73.7415 68.065C73.8295 68.1383 73.8919 68.2153 73.9285 68.296C73.9652 68.3767 73.9835 68.4757 73.9835 68.593C73.9835 68.725 73.9322 68.8423 73.8295 68.945C73.7342 69.0477 73.5839 69.099 73.3785 69.099ZM77.4208 69.099C76.8781 69.099 76.4124 68.9927 76.0238 68.78C75.6351 68.5673 75.3381 68.274 75.1328 67.9C74.9274 67.5187 74.8248 67.0787 74.8248 66.58C74.8248 66.14 74.9128 65.7293 75.0888 65.348C75.2721 64.9667 75.5214 64.633 75.8368 64.347C76.1521 64.0537 76.5114 63.8263 76.9148 63.665C77.3254 63.5037 77.7618 63.423 78.2238 63.423C78.3998 63.423 78.5574 63.4487 78.6968 63.5C78.8361 63.5513 78.9461 63.6357 79.0268 63.753C79.1148 63.863 79.1588 64.0133 79.1588 64.204C79.1588 64.38 79.1184 64.5303 79.0378 64.655C78.9644 64.7723 78.8508 64.831 78.6968 64.831C78.6088 64.831 78.5428 64.8127 78.4988 64.776C78.4548 64.7393 78.4034 64.7063 78.3448 64.677C78.2934 64.6477 78.2054 64.633 78.0808 64.633C77.6921 64.633 77.3438 64.7247 77.0358 64.908C76.7351 65.084 76.4931 65.326 76.3098 65.634C76.1338 65.9347 76.0458 66.2757 76.0458 66.657C76.0458 66.9063 76.0971 67.1263 76.1998 67.317C76.3024 67.5077 76.4564 67.658 76.6618 67.768C76.8671 67.8707 77.1201 67.922 77.4208 67.922C77.7361 67.922 77.9781 67.8853 78.1468 67.812C78.3154 67.7387 78.4438 67.658 78.5318 67.57C78.6198 67.4747 78.7004 67.394 78.7738 67.328C78.8471 67.2547 78.9424 67.218 79.0598 67.218C79.1844 67.218 79.2798 67.2583 79.3458 67.339C79.4191 67.4197 79.4558 67.537 79.4558 67.691C79.4558 67.9623 79.3641 68.2043 79.1808 68.417C79.0048 68.6297 78.7628 68.7983 78.4548 68.923C78.1541 69.0403 77.8094 69.099 77.4208 69.099ZM81.3423 69.088C81.1809 69.088 81.0416 69.0403 80.9243 68.945C80.8069 68.8423 80.7153 68.6957 80.6493 68.505C80.5833 68.307 80.5503 68.065 80.5503 67.779C80.5503 67.0383 80.5869 66.3747 80.6603 65.788C80.7409 65.194 80.8253 64.655 80.9133 64.171C81.0013 63.687 81.0599 63.2433 81.0893 62.84C81.1113 62.598 81.1149 62.3817 81.1003 62.191C81.0929 61.993 81.0856 61.8133 81.0783 61.652C81.0709 61.4833 81.0709 61.3257 81.0783 61.179C81.0856 61.0397 81.1296 60.915 81.2103 60.805C81.2909 60.695 81.4229 60.64 81.6063 60.64C81.7896 60.64 81.9399 60.706 82.0573 60.838C82.1746 60.9627 82.2553 61.168 82.2993 61.454C82.3506 61.74 82.3579 62.1323 82.3213 62.631C82.2846 63.0343 82.2223 63.478 82.1343 63.962C82.0536 64.446 81.9766 64.9703 81.9033 65.535C81.8373 66.0923 81.8079 66.701 81.8153 67.361L81.5293 67.009C81.8666 66.129 82.1856 65.425 82.4863 64.897C82.7943 64.369 83.0913 63.9877 83.3773 63.753C83.6706 63.5183 83.9676 63.401 84.2683 63.401C84.6129 63.401 84.8806 63.5073 85.0713 63.72C85.2619 63.9253 85.4049 64.226 85.5003 64.622C85.5956 65.018 85.6689 65.4947 85.7203 66.052C85.7716 66.4993 85.8229 66.855 85.8743 67.119C85.9256 67.383 85.9806 67.592 86.0393 67.746C86.1053 67.9 86.1713 68.0357 86.2373 68.153C86.2739 68.219 86.3033 68.2887 86.3253 68.362C86.3473 68.4353 86.3583 68.5087 86.3583 68.582C86.3583 68.736 86.3069 68.8643 86.2043 68.967C86.1016 69.0697 85.9623 69.121 85.7863 69.121C85.5736 69.121 85.3866 69.0257 85.2253 68.835C85.0639 68.637 84.9319 68.3767 84.8293 68.054C84.7339 67.724 84.6679 67.3683 84.6313 66.987C84.5873 66.5323 84.5433 66.1657 84.4993 65.887C84.4553 65.601 84.4076 65.37 84.3563 65.194C84.3049 65.0107 84.2389 64.8493 84.1583 64.71C84.0189 64.7393 83.8246 64.9153 83.5753 65.238C83.3333 65.5533 83.0693 65.997 82.7833 66.569C82.5046 67.141 82.2259 67.8303 81.9473 68.637C81.8813 68.8203 81.8006 68.9413 81.7053 69C81.6099 69.0587 81.4889 69.088 81.3423 69.088ZM90.2232 69.11C89.8492 69.11 89.5119 69.0513 89.2112 68.934C88.9106 68.8093 88.6722 68.6517 88.4962 68.461C88.3202 68.2703 88.2322 68.065 88.2322 67.845C88.2322 67.7423 88.2616 67.6543 88.3202 67.581C88.3862 67.5003 88.4706 67.46 88.5732 67.46C88.6612 67.46 88.7419 67.4857 88.8152 67.537C88.8959 67.581 88.9839 67.636 89.0792 67.702C89.1819 67.7607 89.3102 67.8157 89.4642 67.867C89.6182 67.911 89.8199 67.933 90.0692 67.933C90.4506 67.933 90.7586 67.8413 90.9932 67.658C91.2279 67.4673 91.3452 67.1483 91.3452 66.701C91.3452 66.3783 91.2829 66.0923 91.1582 65.843C91.0336 65.5863 90.8612 65.3663 90.6412 65.183C90.4286 64.9997 90.1866 64.8603 89.9152 64.765C89.6439 64.6623 89.3616 64.611 89.0682 64.611C88.9216 64.611 88.7786 64.6293 88.6392 64.666C88.5072 64.6953 88.3789 64.71 88.2542 64.71C88.1442 64.71 88.0416 64.6843 87.9462 64.633C87.8582 64.5817 87.7849 64.512 87.7262 64.424C87.6749 64.3287 87.6492 64.2297 87.6492 64.127C87.6492 63.8777 87.7629 63.698 87.9902 63.588C88.2176 63.4707 88.5732 63.412 89.0572 63.412C89.5486 63.412 90.0069 63.4927 90.4322 63.654C90.8649 63.808 91.2426 64.0353 91.5652 64.336C91.8879 64.6293 92.1409 64.9887 92.3242 65.414C92.5076 65.8393 92.5992 66.3197 92.5992 66.855C92.5992 67.1777 92.5406 67.4747 92.4232 67.746C92.3132 68.0173 92.1519 68.2557 91.9392 68.461C91.7339 68.6663 91.4846 68.8277 91.1912 68.945C90.9052 69.055 90.5826 69.11 90.2232 69.11ZM88.2212 71.871C88.1112 71.871 88.0086 71.8453 87.9132 71.794C87.8252 71.75 87.7519 71.6767 87.6932 71.574C87.6419 71.4787 87.6162 71.354 87.6162 71.2C87.6162 71.0753 87.6309 70.9617 87.6602 70.859C87.6896 70.7563 87.7189 70.639 87.7482 70.507C87.7849 70.3823 87.8179 70.2247 87.8472 70.034C87.8766 69.8507 87.8912 69.6123 87.8912 69.319C87.8912 68.9157 87.8619 68.5197 87.8032 68.131C87.7519 67.735 87.6859 67.3427 87.6052 66.954C87.5319 66.558 87.4622 66.1583 87.3962 65.755C87.3376 65.3517 87.3046 64.9447 87.2972 64.534C87.2899 64.4093 87.3046 64.3067 87.3412 64.226C87.3779 64.1453 87.4292 64.0867 87.4952 64.05C87.5686 64.006 87.6529 63.984 87.7482 63.984C87.9022 63.984 88.0379 64.028 88.1552 64.116C88.2799 64.1967 88.3789 64.3067 88.4522 64.446C88.5329 64.578 88.5732 64.7247 88.5732 64.886C88.5732 65.3187 88.6026 65.7293 88.6612 66.118C88.7199 66.5067 88.7859 66.888 88.8592 67.262C88.9326 67.6287 88.9986 67.9953 89.0572 68.362C89.1159 68.7287 89.1452 69.11 89.1452 69.506C89.1452 69.8433 89.1269 70.155 89.0902 70.441C89.0609 70.7343 89.0096 70.9873 88.9362 71.2C88.8702 71.4127 88.7786 71.5777 88.6612 71.695C88.5439 71.8123 88.3972 71.871 88.2212 71.871ZM95.3999 69.11C95.0552 69.11 94.7509 69.0367 94.4869 68.89C94.2302 68.736 94.0322 68.5233 93.8929 68.252C93.7535 67.9807 93.6839 67.6617 93.6839 67.295C93.6839 66.9357 93.7389 66.5727 93.8489 66.206C93.9662 65.832 94.1275 65.48 94.3329 65.15C94.5382 64.82 94.7802 64.5267 95.0589 64.27C95.3375 64.006 95.6419 63.8007 95.9719 63.654C96.3019 63.5 96.6502 63.423 97.0169 63.423C97.2149 63.423 97.3835 63.4817 97.5229 63.599C97.6622 63.7163 97.7319 63.8887 97.7319 64.116C97.7319 64.2113 97.7025 64.292 97.6439 64.358C97.5852 64.424 97.5009 64.4643 97.3909 64.479C96.8922 64.545 96.4522 64.7247 96.0709 65.018C95.6969 65.3113 95.4035 65.6633 95.1909 66.074C94.9855 66.4847 94.8829 66.9137 94.8829 67.361C94.8829 67.5443 94.8975 67.713 94.9269 67.867C94.9562 68.0137 95.0222 68.2043 95.1249 68.439L94.4979 67.559C94.6665 67.7203 94.8095 67.8267 94.9269 67.878C95.0515 67.922 95.2129 67.944 95.4109 67.944C95.8435 67.944 96.2359 67.6837 96.5879 67.163C96.9472 66.635 97.2075 65.865 97.3689 64.853C97.3909 64.699 97.4495 64.5817 97.5449 64.501C97.6402 64.413 97.7575 64.369 97.8969 64.369C98.1095 64.369 98.2892 64.4423 98.4359 64.589C98.5825 64.7283 98.6815 64.908 98.7329 65.128C98.8135 65.524 98.8979 65.8833 98.9859 66.206C99.0739 66.5213 99.1912 66.8257 99.3379 67.119C99.4845 67.405 99.6862 67.7057 99.9429 68.021C100.016 68.1017 100.057 68.2043 100.064 68.329C100.071 68.4463 100.053 68.5637 100.009 68.681C99.9649 68.791 99.8952 68.8863 99.7999 68.967C99.7119 69.0403 99.6055 69.077 99.4809 69.077C99.3709 69.077 99.2792 69.055 99.2059 69.011C99.1399 68.967 99.0775 68.9083 99.0189 68.835C98.8722 68.6443 98.7365 68.4537 98.6119 68.263C98.4872 68.065 98.3699 67.8487 98.2599 67.614C98.1572 67.372 98.0655 67.0933 97.9849 66.778C97.9115 66.4553 97.8492 66.0777 97.7979 65.645L98.2269 65.623C98.0802 66.4883 97.8529 67.1777 97.5449 67.691C97.2442 68.197 96.9069 68.56 96.5329 68.78C96.1589 69 95.7812 69.11 95.3999 69.11ZM103.224 69.099C102.857 69.099 102.52 69.0147 102.212 68.846C101.904 68.6773 101.64 68.4463 101.42 68.153C101.2 67.8597 101.027 67.5223 100.903 67.141C100.785 66.7597 100.727 66.3563 100.727 65.931C100.727 65.425 100.829 64.985 101.035 64.611C101.247 64.2297 101.541 63.9363 101.915 63.731C102.296 63.5183 102.736 63.412 103.235 63.412C103.609 63.412 103.931 63.467 104.203 63.577C104.474 63.6797 104.683 63.8263 104.83 64.017C104.976 64.2003 105.05 64.4203 105.05 64.677C105.05 64.787 105.02 64.8787 104.962 64.952C104.91 65.018 104.844 65.051 104.764 65.051C104.676 65.051 104.599 65.029 104.533 64.985C104.467 64.941 104.393 64.8897 104.313 64.831C104.232 64.7723 104.122 64.721 103.983 64.677C103.851 64.633 103.667 64.611 103.433 64.611C102.971 64.611 102.611 64.7283 102.355 64.963C102.098 65.1977 101.97 65.5203 101.97 65.931C101.97 66.283 102.028 66.6093 102.146 66.91C102.263 67.2033 102.413 67.4417 102.597 67.625C102.78 67.8083 102.967 67.9 103.158 67.9C103.539 67.9 103.876 67.647 104.17 67.141C104.463 66.6277 104.694 65.8833 104.863 64.908C105.039 63.9327 105.127 62.7483 105.127 61.355C105.127 61.0983 105.174 60.915 105.27 60.805C105.372 60.695 105.504 60.64 105.666 60.64C105.893 60.64 106.069 60.7463 106.194 60.959C106.326 61.1643 106.384 61.465 106.37 61.861C106.355 62.3817 106.326 62.8437 106.282 63.247C106.245 63.6503 106.205 64.0427 106.161 64.424C106.124 64.798 106.106 65.216 106.106 65.678C106.106 66.14 106.135 66.5177 106.194 66.811C106.252 67.1043 106.326 67.339 106.414 67.515C106.502 67.691 106.586 67.834 106.667 67.944C106.755 68.0467 106.828 68.142 106.887 68.23C106.953 68.318 106.986 68.4243 106.986 68.549C106.986 68.7177 106.931 68.8607 106.821 68.978C106.711 69.088 106.553 69.143 106.348 69.143C106.157 69.143 105.977 69.0623 105.809 68.901C105.64 68.7397 105.49 68.5197 105.358 68.241C105.233 67.9623 105.138 67.647 105.072 67.295C105.006 66.9357 104.976 66.5617 104.984 66.173L105.633 65.986C105.479 66.7413 105.27 67.35 105.006 67.812C104.749 68.2667 104.463 68.5967 104.148 68.802C103.84 69 103.532 69.099 103.224 69.099ZM25.299 84.132C24.9103 84.132 24.5877 84.0807 24.331 83.978C24.0817 83.8753 23.891 83.7397 23.759 83.571C23.6343 83.395 23.572 83.1933 23.572 82.966C23.572 82.8047 23.6123 82.6727 23.693 82.57C23.781 82.46 23.9093 82.405 24.078 82.405C24.1807 82.405 24.2577 82.4343 24.309 82.493C24.3677 82.5517 24.4263 82.6177 24.485 82.691C24.5437 82.757 24.6243 82.8193 24.727 82.878C24.8297 82.9293 24.98 82.955 25.178 82.955C25.5373 82.955 25.8783 82.9183 26.201 82.845C26.531 82.7717 26.8243 82.669 27.081 82.537C27.345 82.3977 27.554 82.229 27.708 82.031C27.862 81.8257 27.939 81.5983 27.939 81.349C27.939 81.1657 27.873 81.0117 27.741 80.887C27.6163 80.7623 27.433 80.656 27.191 80.568C26.949 80.48 26.6447 80.403 26.278 80.337C25.706 80.2197 25.2477 80.1097 24.903 80.007C24.5657 79.9043 24.309 79.7943 24.133 79.677C23.9643 79.5523 23.8543 79.4057 23.803 79.237C23.7517 79.0683 23.726 78.863 23.726 78.621C23.726 78.4157 23.748 78.1737 23.792 77.895C23.8433 77.609 23.9277 77.2863 24.045 76.927C24.111 76.707 24.1953 76.5493 24.298 76.454C24.4007 76.3513 24.5437 76.3 24.727 76.3C25.1157 76.3 25.4493 76.2927 25.728 76.278C26.014 76.256 26.2743 76.234 26.509 76.212C26.751 76.19 26.9893 76.1717 27.224 76.157C27.466 76.135 27.73 76.124 28.016 76.124C28.3827 76.124 28.6467 76.201 28.808 76.355C28.9693 76.5017 29.05 76.674 29.05 76.872C29.0427 77.0113 28.9877 77.1213 28.885 77.202C28.7897 77.2753 28.654 77.312 28.478 77.312C28.1187 77.312 27.7923 77.323 27.499 77.345C27.213 77.3597 26.9307 77.3817 26.652 77.411C26.3733 77.433 26.0727 77.4513 25.75 77.466C25.4273 77.4807 25.0497 77.4843 24.617 77.477L25.343 77.059C25.189 77.4037 25.0827 77.697 25.024 77.939C24.9727 78.1737 24.947 78.3753 24.947 78.544C24.947 78.6173 24.958 78.6833 24.98 78.742C25.002 78.8007 25.0643 78.8557 25.167 78.907C25.2697 78.9583 25.431 79.0133 25.651 79.072C25.8783 79.1307 26.19 79.1967 26.586 79.27C27.2973 79.402 27.8363 79.5633 28.203 79.754C28.577 79.9447 28.8337 80.1683 28.973 80.425C29.1123 80.6743 29.182 80.9677 29.182 81.305C29.182 81.8403 29.0207 82.3207 28.698 82.746C28.3753 83.1713 27.9243 83.5087 27.345 83.758C26.773 84.0073 26.091 84.132 25.299 84.132ZM35.3166 84.077C35.0746 84.077 34.7996 84.0257 34.4916 83.923C34.1836 83.813 33.8682 83.67 33.5456 83.494C33.2302 83.3107 32.9369 83.109 32.6656 82.889C32.4016 82.6617 32.1889 82.427 32.0276 82.185C31.8662 81.943 31.7856 81.7083 31.7856 81.481C31.7856 81.217 31.8662 80.9457 32.0276 80.667C32.1962 80.381 32.4126 80.106 32.6766 79.842C32.9406 79.5707 33.2229 79.3287 33.5236 79.116C33.8316 78.896 34.1286 78.7237 34.4146 78.599C34.7006 78.4743 34.9389 78.412 35.1296 78.412C35.3276 78.412 35.4852 78.4597 35.6026 78.555C35.7199 78.6503 35.7786 78.786 35.7786 78.962C35.7786 79.1233 35.7309 79.259 35.6356 79.369C35.5402 79.4717 35.3716 79.5633 35.1296 79.644C34.8582 79.7393 34.5979 79.864 34.3486 80.018C34.1066 80.1647 33.8866 80.3223 33.6886 80.491C33.4979 80.6597 33.3476 80.821 33.2376 80.975C33.1276 81.129 33.0726 81.2537 33.0726 81.349C33.0726 81.459 33.1422 81.6057 33.2816 81.789C33.4282 81.965 33.6556 82.1483 33.9636 82.339C34.2716 82.5297 34.6676 82.6947 35.1516 82.834C35.4449 82.9147 35.6392 83.021 35.7346 83.153C35.8299 83.2777 35.8776 83.4097 35.8776 83.549C35.8776 83.7103 35.8299 83.8387 35.7346 83.934C35.6466 84.0293 35.5072 84.077 35.3166 84.077ZM31.3236 84.11C31.1916 84.11 31.0632 84.0697 30.9386 83.989C30.8212 83.9083 30.7259 83.7617 30.6526 83.549C30.5792 83.329 30.5426 83.021 30.5426 82.625C30.5426 82.3317 30.5682 81.9467 30.6196 81.47C30.6782 80.9933 30.7406 80.4617 30.8066 79.875C30.8799 79.2883 30.9459 78.6907 31.0046 78.082C31.0412 77.752 31.0632 77.488 31.0706 77.29C31.0852 77.0847 31.0926 76.9197 31.0926 76.795C31.0926 76.6703 31.0926 76.564 31.0926 76.476C31.0926 76.3807 31.0999 76.2817 31.1146 76.179C31.1219 76.0103 31.1732 75.882 31.2686 75.794C31.3639 75.6987 31.4922 75.651 31.6536 75.651C31.8296 75.651 31.9689 75.7207 32.0716 75.86C32.1742 75.9993 32.2402 76.2413 32.2696 76.586C32.2989 76.9233 32.2842 77.3963 32.2256 78.005C32.1742 78.4377 32.1229 78.8227 32.0716 79.16C32.0276 79.4973 31.9836 79.8017 31.9396 80.073C31.9029 80.337 31.8699 80.5863 31.8406 80.821C31.8112 81.0557 31.7856 81.2867 31.7636 81.514C31.7489 81.7413 31.7416 81.9797 31.7416 82.229C31.7416 82.493 31.7489 82.7277 31.7636 82.933C31.7856 83.131 31.7966 83.3327 31.7966 83.538C31.7966 83.736 31.7562 83.8827 31.6756 83.978C31.5949 84.066 31.4776 84.11 31.3236 84.11ZM41.6924 84.077C41.4504 84.077 41.1754 84.0257 40.8674 83.923C40.5594 83.813 40.2441 83.67 39.9214 83.494C39.6061 83.3107 39.3128 83.109 39.0414 82.889C38.7774 82.6617 38.5648 82.427 38.4034 82.185C38.2421 81.943 38.1614 81.7083 38.1614 81.481C38.1614 81.217 38.2421 80.9457 38.4034 80.667C38.5721 80.381 38.7884 80.106 39.0524 79.842C39.3164 79.5707 39.5988 79.3287 39.8994 79.116C40.2074 78.896 40.5044 78.7237 40.7904 78.599C41.0764 78.4743 41.3148 78.412 41.5054 78.412C41.7034 78.412 41.8611 78.4597 41.9784 78.555C42.0958 78.6503 42.1544 78.786 42.1544 78.962C42.1544 79.1233 42.1068 79.259 42.0114 79.369C41.9161 79.4717 41.7474 79.5633 41.5054 79.644C41.2341 79.7393 40.9738 79.864 40.7244 80.018C40.4824 80.1647 40.2624 80.3223 40.0644 80.491C39.8738 80.6597 39.7234 80.821 39.6134 80.975C39.5034 81.129 39.4484 81.2537 39.4484 81.349C39.4484 81.459 39.5181 81.6057 39.6574 81.789C39.8041 81.965 40.0314 82.1483 40.3394 82.339C40.6474 82.5297 41.0434 82.6947 41.5274 82.834C41.8208 82.9147 42.0151 83.021 42.1104 83.153C42.2058 83.2777 42.2534 83.4097 42.2534 83.549C42.2534 83.7103 42.2058 83.8387 42.1104 83.934C42.0224 84.0293 41.8831 84.077 41.6924 84.077ZM37.6994 84.11C37.5674 84.11 37.4391 84.0697 37.3144 83.989C37.1971 83.9083 37.1018 83.7617 37.0284 83.549C36.9551 83.329 36.9184 83.021 36.9184 82.625C36.9184 82.3317 36.9441 81.9467 36.9954 81.47C37.0541 80.9933 37.1164 80.4617 37.1824 79.875C37.2558 79.2883 37.3218 78.6907 37.3804 78.082C37.4171 77.752 37.4391 77.488 37.4464 77.29C37.4611 77.0847 37.4684 76.9197 37.4684 76.795C37.4684 76.6703 37.4684 76.564 37.4684 76.476C37.4684 76.3807 37.4758 76.2817 37.4904 76.179C37.4978 76.0103 37.5491 75.882 37.6444 75.794C37.7398 75.6987 37.8681 75.651 38.0294 75.651C38.2054 75.651 38.3448 75.7207 38.4474 75.86C38.5501 75.9993 38.6161 76.2413 38.6454 76.586C38.6748 76.9233 38.6601 77.3963 38.6014 78.005C38.5501 78.4377 38.4988 78.8227 38.4474 79.16C38.4034 79.4973 38.3594 79.8017 38.3154 80.073C38.2788 80.337 38.2458 80.5863 38.2164 80.821C38.1871 81.0557 38.1614 81.2867 38.1394 81.514C38.1248 81.7413 38.1174 81.9797 38.1174 82.229C38.1174 82.493 38.1248 82.7277 38.1394 82.933C38.1614 83.131 38.1724 83.3327 38.1724 83.538C38.1724 83.736 38.1321 83.8827 38.0514 83.978C37.9708 84.066 37.8534 84.11 37.6994 84.11ZM44.2126 81.305C44.0073 81.3343 43.8496 81.2903 43.7396 81.173C43.6296 81.0557 43.5746 80.9163 43.5746 80.755C43.582 80.5863 43.6296 80.4433 43.7176 80.326C43.813 80.2087 44.022 80.1207 44.3446 80.062C44.8066 79.9667 45.2833 79.8897 45.7746 79.831C46.2733 79.765 46.7683 79.7137 47.2596 79.677C47.751 79.6403 48.2166 79.622 48.6566 79.622C48.9206 79.622 49.1296 79.6843 49.2836 79.809C49.4376 79.9263 49.5146 80.0767 49.5146 80.26C49.5146 80.3993 49.4743 80.5093 49.3936 80.59C49.3203 80.6633 49.1846 80.7 48.9866 80.7C48.3413 80.7147 47.7803 80.7477 47.3036 80.799C46.8343 80.843 46.42 80.898 46.0606 80.964C45.7013 81.0227 45.375 81.085 45.0816 81.151C44.7883 81.2097 44.4986 81.261 44.2126 81.305ZM46.5556 83.615C46.409 83.615 46.2806 83.5563 46.1706 83.439C46.068 83.3143 46.0056 83.1053 45.9836 82.812C45.947 82.3573 45.9323 81.91 45.9396 81.47C45.947 81.03 45.9616 80.601 45.9836 80.183C46.013 79.765 46.035 79.369 46.0496 78.995C46.0716 78.6137 46.079 78.258 46.0716 77.928C46.0716 77.7667 46.1046 77.631 46.1706 77.521C46.244 77.411 46.365 77.356 46.5336 77.356C46.739 77.356 46.9113 77.4367 47.0506 77.598C47.19 77.752 47.2596 78.0013 47.2596 78.346C47.2596 78.6833 47.2486 79.061 47.2266 79.479C47.212 79.897 47.1936 80.3223 47.1716 80.755C47.1496 81.1803 47.1313 81.5873 47.1166 81.976C47.102 82.3573 47.0946 82.68 47.0946 82.944C47.0946 83.186 47.0396 83.3583 46.9296 83.461C46.827 83.5637 46.7023 83.615 46.5556 83.615ZM57.4016 84.099C56.8589 84.099 56.3932 83.9927 56.0046 83.78C55.6159 83.5673 55.3189 83.274 55.1136 82.9C54.9082 82.5187 54.8056 82.0787 54.8056 81.58C54.8056 81.14 54.8936 80.7293 55.0696 80.348C55.2529 79.9667 55.5022 79.633 55.8176 79.347C56.1329 79.0537 56.4922 78.8263 56.8956 78.665C57.3062 78.5037 57.7426 78.423 58.2046 78.423C58.3806 78.423 58.5382 78.4487 58.6776 78.5C58.8169 78.5513 58.9269 78.6357 59.0076 78.753C59.0956 78.863 59.1396 79.0133 59.1396 79.204C59.1396 79.38 59.0992 79.5303 59.0186 79.655C58.9452 79.7723 58.8316 79.831 58.6776 79.831C58.5896 79.831 58.5236 79.8127 58.4796 79.776C58.4356 79.7393 58.3842 79.7063 58.3256 79.677C58.2742 79.6477 58.1862 79.633 58.0616 79.633C57.6729 79.633 57.3246 79.7247 57.0166 79.908C56.7159 80.084 56.4739 80.326 56.2906 80.634C56.1146 80.9347 56.0266 81.2757 56.0266 81.657C56.0266 81.9063 56.0779 82.1263 56.1806 82.317C56.2832 82.5077 56.4372 82.658 56.6426 82.768C56.8479 82.8707 57.1009 82.922 57.4016 82.922C57.7169 82.922 57.9589 82.8853 58.1276 82.812C58.2962 82.7387 58.4246 82.658 58.5126 82.57C58.6006 82.4747 58.6812 82.394 58.7546 82.328C58.8279 82.2547 58.9232 82.218 59.0406 82.218C59.1652 82.218 59.2606 82.2583 59.3266 82.339C59.3999 82.4197 59.4366 82.537 59.4366 82.691C59.4366 82.9623 59.3449 83.2043 59.1616 83.417C58.9856 83.6297 58.7436 83.7983 58.4356 83.923C58.1349 84.0403 57.7902 84.099 57.4016 84.099ZM63.3156 84.132C62.7363 84.132 62.2193 84.011 61.7646 83.769C61.3099 83.5197 60.9506 83.1823 60.6866 82.757C60.4299 82.3243 60.3016 81.8293 60.3016 81.272C60.3016 80.876 60.3786 80.5093 60.5326 80.172C60.6866 79.8347 60.8809 79.5413 61.1156 79.292C61.3576 79.0353 61.6069 78.8373 61.8636 78.698C62.1276 78.5587 62.3623 78.489 62.5676 78.489C62.6629 78.489 62.7473 78.5037 62.8206 78.533C62.9013 78.5623 62.9636 78.6063 63.0076 78.665C63.0516 78.7237 63.0736 78.8043 63.0736 78.907C63.0736 79.0977 63.0333 79.2663 62.9526 79.413C62.8793 79.5523 62.7253 79.6733 62.4906 79.776C62.2779 79.8933 62.0983 80.029 61.9516 80.183C61.8123 80.3297 61.7059 80.4947 61.6326 80.678C61.5593 80.854 61.5226 81.0483 61.5226 81.261C61.5226 81.7963 61.6803 82.2253 61.9956 82.548C62.3109 82.8707 62.7399 83.032 63.2826 83.032C63.7373 83.032 64.1039 82.867 64.3826 82.537C64.6613 82.1997 64.8006 81.756 64.8006 81.206C64.8006 80.7073 64.6796 80.315 64.4376 80.029C64.1956 79.7357 63.8729 79.589 63.4696 79.589C63.2569 79.589 63.0846 79.633 62.9526 79.721C62.8206 79.809 62.6813 79.9263 62.5346 80.073C62.4246 80.183 62.3366 80.2783 62.2706 80.359C62.2046 80.4397 62.1386 80.502 62.0726 80.546C62.0139 80.59 61.9333 80.612 61.8306 80.612C61.7133 80.612 61.6179 80.5753 61.5446 80.502C61.4713 80.4213 61.4346 80.282 61.4346 80.084C61.4346 79.908 61.4896 79.7247 61.5996 79.534C61.7096 79.3433 61.8526 79.1673 62.0286 79.006C62.2119 78.8447 62.4173 78.7163 62.6446 78.621C62.8719 78.5183 63.1029 78.467 63.3376 78.467C63.8949 78.467 64.3716 78.5807 64.7676 78.808C65.1636 79.028 65.4679 79.3433 65.6806 79.754C65.8933 80.1647 65.9996 80.6487 65.9996 81.206C65.9996 81.756 65.8823 82.2547 65.6476 82.702C65.4129 83.142 65.0939 83.4903 64.6906 83.747C64.2873 84.0037 63.8289 84.132 63.3156 84.132ZM68.0741 84.099C67.8835 84.099 67.7368 84.022 67.6341 83.868C67.5315 83.714 67.4581 83.516 67.4141 83.274C67.3701 83.0247 67.3481 82.7643 67.3481 82.493C67.3481 82.1337 67.3628 81.767 67.3921 81.393C67.4288 81.019 67.4471 80.656 67.4471 80.304C67.4471 80.1133 67.4325 79.9373 67.4031 79.776C67.3738 79.6073 67.3591 79.446 67.3591 79.292C67.3591 79.1747 67.3995 79.0757 67.4801 78.995C67.5681 78.907 67.6855 78.863 67.8321 78.863C68.0081 78.863 68.1438 78.9143 68.2391 79.017C68.3418 79.1197 68.4151 79.2627 68.4591 79.446C68.5105 79.6293 68.5398 79.8383 68.5471 80.073L68.3161 80.271C68.4261 79.8603 68.5545 79.5193 68.7011 79.248C68.8478 78.9767 69.0165 78.7713 69.2071 78.632C69.3978 78.4927 69.6068 78.423 69.8341 78.423C70.1055 78.423 70.3291 78.522 70.5051 78.72C70.6811 78.918 70.8278 79.1967 70.9451 79.556C71.0625 79.9153 71.1578 80.3407 71.2311 80.832C71.3045 81.272 71.3705 81.6203 71.4291 81.877C71.4878 82.1263 71.5428 82.328 71.5941 82.482L71.2861 82.405C71.4841 81.5983 71.7151 80.898 71.9791 80.304C72.2431 79.71 72.5255 79.248 72.8261 78.918C73.1268 78.588 73.4275 78.423 73.7281 78.423C74.2195 78.423 74.5751 78.6467 74.7951 79.094C75.0225 79.534 75.1838 80.2087 75.2791 81.118C75.3231 81.5947 75.3781 81.9687 75.4441 82.24C75.5175 82.5113 75.5835 82.724 75.6421 82.878C75.7081 83.0247 75.7595 83.1493 75.7961 83.252C75.8401 83.3473 75.8621 83.461 75.8621 83.593C75.8621 83.7543 75.8071 83.879 75.6971 83.967C75.5871 84.055 75.4441 84.099 75.2681 84.099C75.0921 84.099 74.9345 84.0257 74.7951 83.879C74.6558 83.725 74.5348 83.483 74.4321 83.153C74.3368 82.823 74.2561 82.394 74.1901 81.866C74.1315 81.4333 74.0801 81.0813 74.0361 80.81C73.9995 80.5387 73.9591 80.326 73.9151 80.172C73.8711 80.0107 73.8198 79.8787 73.7611 79.776C73.7098 79.6733 73.6438 79.5707 73.5631 79.468H73.8381C73.5375 79.7613 73.2808 80.106 73.0681 80.502C72.8628 80.8907 72.6795 81.3417 72.5181 81.855C72.3641 82.361 72.1991 82.9257 72.0231 83.549C71.9791 83.7323 71.9021 83.8717 71.7921 83.967C71.6821 84.055 71.5538 84.099 71.4071 84.099C71.0918 84.099 70.8535 83.9193 70.6921 83.56C70.5308 83.2007 70.4025 82.6873 70.3071 82.02C70.2411 81.536 70.1751 81.1327 70.1091 80.81C70.0431 80.48 69.9661 80.205 69.8781 79.985C69.7975 79.7577 69.6875 79.567 69.5481 79.413L69.8451 79.534C69.6325 79.7393 69.4528 79.9887 69.3061 80.282C69.1595 80.5753 69.0385 80.9017 68.9431 81.261C68.8478 81.613 68.7708 81.9797 68.7121 82.361C68.6608 82.7423 68.6205 83.1273 68.5911 83.516C68.5765 83.7213 68.5215 83.8717 68.4261 83.967C68.3381 84.055 68.2208 84.099 68.0741 84.099ZM77.7371 84.099C77.5465 84.099 77.3998 84.022 77.2971 83.868C77.1945 83.714 77.1211 83.516 77.0771 83.274C77.0331 83.0247 77.0111 82.7643 77.0111 82.493C77.0111 82.1337 77.0258 81.767 77.0551 81.393C77.0918 81.019 77.1101 80.656 77.1101 80.304C77.1101 80.1133 77.0955 79.9373 77.0661 79.776C77.0368 79.6073 77.0221 79.446 77.0221 79.292C77.0221 79.1747 77.0625 79.0757 77.1431 78.995C77.2311 78.907 77.3485 78.863 77.4951 78.863C77.6711 78.863 77.8068 78.9143 77.9021 79.017C78.0048 79.1197 78.0781 79.2627 78.1221 79.446C78.1735 79.6293 78.2028 79.8383 78.2101 80.073L77.9791 80.271C78.0891 79.8603 78.2175 79.5193 78.3641 79.248C78.5108 78.9767 78.6795 78.7713 78.8701 78.632C79.0608 78.4927 79.2698 78.423 79.4971 78.423C79.7685 78.423 79.9921 78.522 80.1681 78.72C80.3441 78.918 80.4908 79.1967 80.6081 79.556C80.7255 79.9153 80.8208 80.3407 80.8941 80.832C80.9675 81.272 81.0335 81.6203 81.0921 81.877C81.1508 82.1263 81.2058 82.328 81.2571 82.482L80.9491 82.405C81.1471 81.5983 81.3781 80.898 81.6421 80.304C81.9061 79.71 82.1885 79.248 82.4891 78.918C82.7898 78.588 83.0905 78.423 83.3911 78.423C83.8825 78.423 84.2381 78.6467 84.4581 79.094C84.6855 79.534 84.8468 80.2087 84.9421 81.118C84.9861 81.5947 85.0411 81.9687 85.1071 82.24C85.1805 82.5113 85.2465 82.724 85.3051 82.878C85.3711 83.0247 85.4225 83.1493 85.4591 83.252C85.5031 83.3473 85.5251 83.461 85.5251 83.593C85.5251 83.7543 85.4701 83.879 85.3601 83.967C85.2501 84.055 85.1071 84.099 84.9311 84.099C84.7551 84.099 84.5975 84.0257 84.4581 83.879C84.3188 83.725 84.1978 83.483 84.0951 83.153C83.9998 82.823 83.9191 82.394 83.8531 81.866C83.7945 81.4333 83.7431 81.0813 83.6991 80.81C83.6625 80.5387 83.6221 80.326 83.5781 80.172C83.5341 80.0107 83.4828 79.8787 83.4241 79.776C83.3728 79.6733 83.3068 79.5707 83.2261 79.468H83.5011C83.2005 79.7613 82.9438 80.106 82.7311 80.502C82.5258 80.8907 82.3425 81.3417 82.1811 81.855C82.0271 82.361 81.8621 82.9257 81.6861 83.549C81.6421 83.7323 81.5651 83.8717 81.4551 83.967C81.3451 84.055 81.2168 84.099 81.0701 84.099C80.8648 84.099 80.6888 84.0183 80.5421 83.857C80.4028 83.6957 80.2891 83.461 80.2011 83.153C80.1131 82.8377 80.0361 82.46 79.9701 82.02C79.9041 81.536 79.8381 81.1327 79.7721 80.81C79.7061 80.48 79.6291 80.205 79.5411 79.985C79.4605 79.7577 79.3505 79.567 79.2111 79.413L79.5081 79.534C79.2955 79.7393 79.1158 79.9887 78.9691 80.282C78.8225 80.5753 78.7015 80.9017 78.6061 81.261C78.5108 81.613 78.4338 81.9797 78.3751 82.361C78.3238 82.7423 78.2835 83.1273 78.2541 83.516C78.2395 83.7213 78.1845 83.8717 78.0891 83.967C78.0011 84.055 77.8838 84.099 77.7371 84.099ZM89.1745 84.11C88.6978 84.11 88.2835 84.011 87.9315 83.813C87.5868 83.615 87.3008 83.3547 87.0735 83.032C86.8535 82.702 86.6885 82.3353 86.5785 81.932C86.4685 81.5287 86.4135 81.1253 86.4135 80.722C86.4135 80.37 86.4391 80.0473 86.4905 79.754C86.5491 79.4533 86.6335 79.1637 86.7435 78.885C86.7875 78.7677 86.8498 78.676 86.9305 78.61C87.0111 78.544 87.1211 78.511 87.2605 78.511C87.4365 78.511 87.5831 78.5697 87.7005 78.687C87.8178 78.8043 87.8765 78.9583 87.8765 79.149C87.8765 79.2663 87.8618 79.3763 87.8325 79.479C87.8105 79.5743 87.7811 79.6807 87.7445 79.798C87.7151 79.9153 87.6858 80.051 87.6565 80.205C87.6345 80.3517 87.6235 80.535 87.6235 80.755C87.6235 81.085 87.6565 81.3857 87.7225 81.657C87.7958 81.9283 87.8985 82.163 88.0305 82.361C88.1698 82.5517 88.3348 82.6983 88.5255 82.801C88.7161 82.9037 88.9288 82.955 89.1635 82.955C89.4495 82.955 89.6915 82.8487 89.8895 82.636C90.0875 82.416 90.2378 82.1007 90.3405 81.69C90.4431 81.2793 90.4945 80.7917 90.4945 80.227C90.4945 80.0363 90.4871 79.875 90.4725 79.743C90.4651 79.611 90.4541 79.4937 90.4395 79.391C90.4321 79.281 90.4285 79.1673 90.4285 79.05C90.4285 78.874 90.4615 78.7383 90.5275 78.643C90.5935 78.5477 90.7108 78.5 90.8795 78.5C91.0481 78.5 91.1911 78.5513 91.3085 78.654C91.4258 78.7493 91.5138 78.9143 91.5725 79.149C91.6385 79.3763 91.6715 79.6917 91.6715 80.095C91.6715 80.997 91.5688 81.745 91.3635 82.339C91.1581 82.9257 90.8685 83.3693 90.4945 83.67C90.1205 83.9633 89.6805 84.11 89.1745 84.11ZM98.2532 84.099C98.0039 84.099 97.7839 83.9927 97.5932 83.78C97.4099 83.56 97.2669 83.219 97.1642 82.757C97.0616 82.2877 97.0102 81.679 97.0102 80.931C97.0102 80.6377 97.0029 80.403 96.9882 80.227C96.9809 80.0437 96.9589 79.897 96.9222 79.787C96.8929 79.677 96.8489 79.589 96.7902 79.523C96.7389 79.4497 96.6692 79.3763 96.5812 79.303C96.7426 79.2957 96.8782 79.314 96.9882 79.358C97.0982 79.3947 97.1826 79.4643 97.2412 79.567C97.2999 79.6623 97.3256 79.8053 97.3182 79.996C97.2082 79.8347 97.1166 79.7283 97.0432 79.677C96.9699 79.6257 96.8819 79.6 96.7792 79.6C96.6326 79.6 96.4639 79.688 96.2732 79.864C96.0899 80.04 95.8956 80.293 95.6902 80.623C95.4922 80.9457 95.2979 81.3343 95.1072 81.789C94.9166 82.2363 94.7442 82.7277 94.5902 83.263C94.5096 83.5783 94.4179 83.7983 94.3152 83.923C94.2126 84.0403 94.0732 84.099 93.8972 84.099C93.5966 84.099 93.3729 83.934 93.2262 83.604C93.0796 83.274 93.0062 82.8523 93.0062 82.339C93.0062 81.9723 93.0209 81.6533 93.0502 81.382C93.0869 81.1033 93.1236 80.8467 93.1602 80.612C93.2042 80.37 93.2409 80.1243 93.2702 79.875C93.3069 79.6183 93.3252 79.3287 93.3252 79.006C93.3252 78.83 93.3656 78.698 93.4462 78.61C93.5342 78.5147 93.6626 78.467 93.8312 78.467C94.0219 78.467 94.1686 78.533 94.2712 78.665C94.3812 78.797 94.4362 79.0133 94.4362 79.314C94.4362 79.5413 94.4179 79.7613 94.3812 79.974C94.3446 80.1793 94.3042 80.403 94.2602 80.645C94.2236 80.8797 94.1906 81.1583 94.1612 81.481C94.1319 81.8037 94.1246 82.1923 94.1392 82.647L93.8752 82.449C94.1246 81.569 94.4142 80.832 94.7442 80.238C95.0742 79.6367 95.4226 79.1857 95.7892 78.885C96.1559 78.577 96.5152 78.423 96.8672 78.423C97.2999 78.423 97.6189 78.577 97.8242 78.885C98.0369 79.1857 98.1432 79.5963 98.1432 80.117C98.1432 80.667 98.1506 81.14 98.1652 81.536C98.1799 81.9247 98.2202 82.2437 98.2862 82.493C98.3596 82.7423 98.4696 82.933 98.6162 83.065C98.7042 83.1383 98.7666 83.2153 98.8032 83.296C98.8399 83.3767 98.8582 83.4757 98.8582 83.593C98.8582 83.725 98.8069 83.8423 98.7042 83.945C98.6089 84.0477 98.4586 84.099 98.2532 84.099ZM100.735 84.121C100.573 84.121 100.445 84.0843 100.35 84.011C100.254 83.9377 100.181 83.835 100.13 83.703C100.086 83.5637 100.064 83.4023 100.064 83.219C100.064 82.6763 100.06 82.218 100.053 81.844C100.053 81.4627 100.049 81.1327 100.042 80.854C100.042 80.5753 100.038 80.315 100.031 80.073C100.031 79.831 100.031 79.5743 100.031 79.303C100.031 79.1417 100.056 78.9987 100.108 78.874C100.159 78.742 100.236 78.6393 100.339 78.566C100.449 78.4927 100.588 78.456 100.757 78.456C100.955 78.456 101.112 78.522 101.23 78.654C101.347 78.7787 101.409 78.973 101.417 79.237C101.417 79.391 101.413 79.611 101.406 79.897C101.406 80.183 101.398 80.4983 101.384 80.843C101.376 81.1803 101.365 81.525 101.351 81.877C101.343 82.2217 101.336 82.537 101.329 82.823C101.321 83.109 101.318 83.34 101.318 83.516C101.318 83.6847 101.27 83.8277 101.175 83.945C101.079 84.0623 100.933 84.121 100.735 84.121ZM100.834 77.587C100.533 77.587 100.284 77.5027 100.086 77.334C99.8878 77.158 99.7888 76.949 99.7888 76.707C99.7888 76.4723 99.8694 76.2853 100.031 76.146C100.192 76.0067 100.397 75.937 100.647 75.937C100.852 75.937 101.028 75.9847 101.175 76.08C101.321 76.1753 101.431 76.2963 101.505 76.443C101.585 76.5897 101.626 76.7363 101.626 76.883C101.626 77.0517 101.563 77.213 101.439 77.367C101.321 77.5137 101.12 77.587 100.834 77.587ZM105.406 84.143C104.82 84.143 104.347 84.0073 103.987 83.736C103.628 83.4573 103.368 83.0723 103.206 82.581C103.052 82.0823 102.975 81.5067 102.975 80.854C102.975 80.4653 102.994 80.1207 103.03 79.82C103.074 79.512 103.118 79.2187 103.162 78.94C103.214 78.6613 103.25 78.3753 103.272 78.082C103.294 77.7447 103.305 77.4733 103.305 77.268C103.305 77.0627 103.313 76.8683 103.327 76.685C103.335 76.553 103.375 76.4393 103.448 76.344C103.529 76.2413 103.661 76.19 103.844 76.19C104.108 76.19 104.295 76.3257 104.405 76.597C104.515 76.8683 104.548 77.2937 104.504 77.873C104.475 78.137 104.442 78.3827 104.405 78.61C104.369 78.83 104.332 79.05 104.295 79.27C104.266 79.4827 104.24 79.7137 104.218 79.963C104.196 80.205 104.185 80.4837 104.185 80.799C104.185 81.3343 104.233 81.7597 104.328 82.075C104.431 82.3903 104.578 82.6177 104.768 82.757C104.966 82.889 105.212 82.955 105.505 82.955C105.681 82.955 105.817 82.9367 105.912 82.9C106.015 82.8633 106.103 82.8303 106.176 82.801C106.25 82.7643 106.334 82.746 106.429 82.746C106.561 82.746 106.66 82.7863 106.726 82.867C106.792 82.9477 106.825 83.0613 106.825 83.208C106.825 83.4573 106.708 83.6773 106.473 83.868C106.246 84.0513 105.89 84.143 105.406 84.143ZM104.13 80.007C103.896 80.1097 103.716 80.1133 103.591 80.018C103.467 79.9227 103.404 79.787 103.404 79.611C103.404 79.435 103.441 79.281 103.514 79.149C103.595 79.0097 103.789 78.885 104.097 78.775C104.288 78.7017 104.49 78.6393 104.702 78.588C104.915 78.5367 105.131 78.4963 105.351 78.467C105.579 78.4377 105.791 78.423 105.989 78.423C106.18 78.423 106.334 78.4487 106.451 78.5C106.569 78.5513 106.657 78.6247 106.715 78.72C106.774 78.808 106.803 78.918 106.803 79.05C106.803 79.1893 106.759 79.2957 106.671 79.369C106.591 79.4423 106.47 79.4863 106.308 79.501C105.993 79.523 105.711 79.556 105.461 79.6C105.219 79.644 104.992 79.699 104.779 79.765C104.574 79.831 104.358 79.9117 104.13 80.007ZM110.422 86.871C109.923 86.871 109.502 86.8233 109.157 86.728C108.82 86.6327 108.567 86.5007 108.398 86.332C108.229 86.1707 108.145 85.9763 108.145 85.749C108.145 85.4337 108.306 85.276 108.629 85.276C108.732 85.276 108.823 85.2943 108.904 85.331C108.992 85.3677 109.091 85.4117 109.201 85.463C109.318 85.5143 109.469 85.5583 109.652 85.595C109.843 85.6317 110.088 85.65 110.389 85.65C110.712 85.65 110.965 85.584 111.148 85.452C111.331 85.3273 111.463 85.144 111.544 84.902C111.625 84.66 111.665 84.3777 111.665 84.055C111.665 83.8203 111.658 83.6003 111.643 83.395C111.628 83.1823 111.61 82.9623 111.588 82.735C111.573 82.5077 111.555 82.251 111.533 81.965C111.518 81.679 111.507 81.3453 111.5 80.964L111.929 81.305C111.79 81.7597 111.632 82.13 111.456 82.416C111.28 82.6947 111.097 82.9147 110.906 83.076C110.715 83.23 110.528 83.3363 110.345 83.395C110.169 83.4463 110 83.472 109.839 83.472C109.186 83.472 108.669 83.2153 108.288 82.702C107.914 82.1887 107.727 81.3637 107.727 80.227C107.727 79.721 107.756 79.3397 107.815 79.083C107.874 78.819 107.954 78.643 108.057 78.555C108.167 78.467 108.288 78.423 108.42 78.423C108.655 78.423 108.823 78.4963 108.926 78.643C109.029 78.7823 109.073 79.0023 109.058 79.303C109.043 79.699 109.032 80.0767 109.025 80.436C109.025 80.788 109.047 81.1033 109.091 81.382C109.135 81.6607 109.208 81.8807 109.311 82.042C109.421 82.196 109.575 82.273 109.773 82.273C110.066 82.273 110.323 82.1263 110.543 81.833C110.77 81.5397 110.954 81.1473 111.093 80.656C111.24 80.1573 111.346 79.6037 111.412 78.995C111.434 78.775 111.478 78.6283 111.544 78.555C111.61 78.4743 111.724 78.434 111.885 78.434C112.017 78.434 112.142 78.4707 112.259 78.544C112.384 78.6173 112.475 78.742 112.534 78.918C112.6 79.0867 112.618 79.314 112.589 79.6C112.552 79.974 112.538 80.3003 112.545 80.579C112.552 80.8577 112.571 81.1217 112.6 81.371C112.629 81.613 112.662 81.8623 112.699 82.119C112.736 82.3683 112.769 82.647 112.798 82.955C112.827 83.263 112.842 83.6297 112.842 84.055C112.842 84.7077 112.736 85.2393 112.523 85.65C112.318 86.068 112.032 86.376 111.665 86.574C111.306 86.772 110.891 86.871 110.422 86.871ZM26.344 98.483C26.344 98.6883 26.3 98.8497 26.212 98.967C26.124 99.077 25.992 99.132 25.816 99.132C25.6107 99.132 25.4457 99.0697 25.321 98.945C25.2037 98.813 25.145 98.626 25.145 98.384C25.145 97.7387 25.1597 97.0677 25.189 96.371C25.2257 95.667 25.2807 94.974 25.354 94.292C25.4273 93.6027 25.5117 92.9537 25.607 92.345L25.915 92.565C25.673 92.7557 25.453 92.906 25.255 93.016C25.057 93.1187 24.8773 93.192 24.716 93.236C24.5547 93.28 24.408 93.302 24.276 93.302C24.0487 93.302 23.8727 93.2397 23.748 93.115C23.6233 92.9903 23.561 92.8363 23.561 92.653C23.561 92.5283 23.6013 92.4257 23.682 92.345C23.7627 92.2643 23.8873 92.2093 24.056 92.18C24.32 92.136 24.5693 92.048 24.804 91.916C25.0387 91.784 25.288 91.619 25.552 91.421C25.6547 91.3403 25.7573 91.2817 25.86 91.245C25.9627 91.201 26.069 91.179 26.179 91.179C26.3403 91.179 26.476 91.223 26.586 91.311C26.7033 91.3917 26.7877 91.498 26.839 91.63C26.8977 91.762 26.9087 91.9123 26.872 92.081C26.8133 92.3817 26.751 92.763 26.685 93.225C26.6263 93.687 26.5677 94.204 26.509 94.776C26.4577 95.3407 26.4173 95.942 26.388 96.58C26.3587 97.2107 26.344 97.845 26.344 98.483ZM30.9293 99.121C30.4086 99.121 29.9393 99.011 29.5213 98.791C29.1033 98.571 28.7733 98.23 28.5313 97.768C28.2966 97.2987 28.1793 96.6973 28.1793 95.964C28.1793 95.3773 28.2599 94.8457 28.4213 94.369C28.5826 93.885 28.7879 93.4707 29.0373 93.126C29.2866 92.774 29.5396 92.5063 29.7963 92.323C30.0529 92.1323 30.2693 92.037 30.4453 92.037C30.6066 92.037 30.7203 92.0663 30.7863 92.125C30.8596 92.1837 30.8963 92.2937 30.8963 92.455C30.8963 92.5797 30.8706 92.6933 30.8193 92.796C30.7679 92.8913 30.6909 92.9867 30.5883 93.082C30.3463 93.28 30.1336 93.5293 29.9503 93.83C29.7669 94.1233 29.6239 94.4497 29.5213 94.809C29.4259 95.1683 29.3783 95.5533 29.3783 95.964C29.3783 96.338 29.4333 96.6753 29.5433 96.976C29.6533 97.2693 29.8219 97.504 30.0493 97.68C30.2766 97.8487 30.5773 97.933 30.9513 97.933C31.3473 97.933 31.7139 97.801 32.0513 97.537C32.3959 97.2657 32.6709 96.866 32.8763 96.338C33.0889 95.81 33.1953 95.1683 33.1953 94.413C33.1953 94.0243 33.1476 93.676 33.0523 93.368C32.9643 93.0527 32.8213 92.807 32.6233 92.631C32.4253 92.455 32.1649 92.367 31.8423 92.367C31.5636 92.367 31.3069 92.411 31.0723 92.499C30.8449 92.587 30.6359 92.7117 30.4453 92.873C30.2546 93.0343 30.0713 93.225 29.8953 93.445C29.8366 93.5183 29.7633 93.5807 29.6753 93.632C29.5873 93.6833 29.4809 93.709 29.3563 93.709C29.2023 93.709 29.0703 93.6503 28.9603 93.533C28.8503 93.4157 28.7953 93.2763 28.7953 93.115C28.7953 92.9463 28.8686 92.7557 29.0153 92.543C29.1619 92.323 29.3709 92.1103 29.6423 91.905C29.9136 91.6923 30.2363 91.52 30.6103 91.388C30.9843 91.2487 31.3949 91.179 31.8423 91.179C32.4216 91.179 32.8983 91.311 33.2723 91.575C33.6536 91.839 33.9359 92.213 34.1193 92.697C34.3099 93.1737 34.4053 93.7457 34.4053 94.413C34.4053 95.205 34.3026 95.898 34.0973 96.492C33.8993 97.0787 33.6316 97.5663 33.2943 97.955C32.9643 98.3437 32.5939 98.637 32.1833 98.835C31.7726 99.0257 31.3546 99.121 30.9293 99.121ZM40.6719 99.077C40.4299 99.077 40.1549 99.0257 39.8469 98.923C39.5389 98.813 39.2236 98.67 38.9009 98.494C38.5856 98.3107 38.2923 98.109 38.0209 97.889C37.7569 97.6617 37.5443 97.427 37.3829 97.185C37.2216 96.943 37.1409 96.7083 37.1409 96.481C37.1409 96.217 37.2216 95.9457 37.3829 95.667C37.5516 95.381 37.7679 95.106 38.0319 94.842C38.2959 94.5707 38.5783 94.3287 38.8789 94.116C39.1869 93.896 39.4839 93.7237 39.7699 93.599C40.0559 93.4743 40.2943 93.412 40.4849 93.412C40.6829 93.412 40.8406 93.4597 40.9579 93.555C41.0753 93.6503 41.1339 93.786 41.1339 93.962C41.1339 94.1233 41.0863 94.259 40.9909 94.369C40.8956 94.4717 40.7269 94.5633 40.4849 94.644C40.2136 94.7393 39.9533 94.864 39.7039 95.018C39.4619 95.1647 39.2419 95.3223 39.0439 95.491C38.8533 95.6597 38.7029 95.821 38.5929 95.975C38.4829 96.129 38.4279 96.2537 38.4279 96.349C38.4279 96.459 38.4976 96.6057 38.6369 96.789C38.7836 96.965 39.0109 97.1483 39.3189 97.339C39.6269 97.5297 40.0229 97.6947 40.5069 97.834C40.8003 97.9147 40.9946 98.021 41.0899 98.153C41.1853 98.2777 41.2329 98.4097 41.2329 98.549C41.2329 98.7103 41.1853 98.8387 41.0899 98.934C41.0019 99.0293 40.8626 99.077 40.6719 99.077ZM36.6789 99.11C36.5469 99.11 36.4186 99.0697 36.2939 98.989C36.1766 98.9083 36.0813 98.7617 36.0079 98.549C35.9346 98.329 35.8979 98.021 35.8979 97.625C35.8979 97.3317 35.9236 96.9467 35.9749 96.47C36.0336 95.9933 36.0959 95.4617 36.1619 94.875C36.2353 94.2883 36.3013 93.6907 36.3599 93.082C36.3966 92.752 36.4186 92.488 36.4259 92.29C36.4406 92.0847 36.4479 91.9197 36.4479 91.795C36.4479 91.6703 36.4479 91.564 36.4479 91.476C36.4479 91.3807 36.4553 91.2817 36.4699 91.179C36.4773 91.0103 36.5286 90.882 36.6239 90.794C36.7193 90.6987 36.8476 90.651 37.0089 90.651C37.1849 90.651 37.3243 90.7207 37.4269 90.86C37.5296 90.9993 37.5956 91.2413 37.6249 91.586C37.6543 91.9233 37.6396 92.3963 37.5809 93.005C37.5296 93.4377 37.4783 93.8227 37.4269 94.16C37.3829 94.4973 37.3389 94.8017 37.2949 95.073C37.2583 95.337 37.2253 95.5863 37.1959 95.821C37.1666 96.0557 37.1409 96.2867 37.1189 96.514C37.1043 96.7413 37.0969 96.9797 37.0969 97.229C37.0969 97.493 37.1043 97.7277 37.1189 97.933C37.1409 98.131 37.1519 98.3327 37.1519 98.538C37.1519 98.736 37.1116 98.8827 37.0309 98.978C36.9503 99.066 36.8329 99.11 36.6789 99.11ZM47.0478 99.077C46.8058 99.077 46.5308 99.0257 46.2228 98.923C45.9148 98.813 45.5995 98.67 45.2768 98.494C44.9615 98.3107 44.6681 98.109 44.3968 97.889C44.1328 97.6617 43.9201 97.427 43.7588 97.185C43.5975 96.943 43.5168 96.7083 43.5168 96.481C43.5168 96.217 43.5975 95.9457 43.7588 95.667C43.9275 95.381 44.1438 95.106 44.4078 94.842C44.6718 94.5707 44.9541 94.3287 45.2548 94.116C45.5628 93.896 45.8598 93.7237 46.1458 93.599C46.4318 93.4743 46.6701 93.412 46.8608 93.412C47.0588 93.412 47.2165 93.4597 47.3338 93.555C47.4511 93.6503 47.5098 93.786 47.5098 93.962C47.5098 94.1233 47.4621 94.259 47.3668 94.369C47.2715 94.4717 47.1028 94.5633 46.8608 94.644C46.5895 94.7393 46.3291 94.864 46.0798 95.018C45.8378 95.1647 45.6178 95.3223 45.4198 95.491C45.2291 95.6597 45.0788 95.821 44.9688 95.975C44.8588 96.129 44.8038 96.2537 44.8038 96.349C44.8038 96.459 44.8735 96.6057 45.0128 96.789C45.1595 96.965 45.3868 97.1483 45.6948 97.339C46.0028 97.5297 46.3988 97.6947 46.8828 97.834C47.1761 97.9147 47.3705 98.021 47.4658 98.153C47.5611 98.2777 47.6088 98.4097 47.6088 98.549C47.6088 98.7103 47.5611 98.8387 47.4658 98.934C47.3778 99.0293 47.2385 99.077 47.0478 99.077ZM43.0548 99.11C42.9228 99.11 42.7945 99.0697 42.6698 98.989C42.5525 98.9083 42.4571 98.7617 42.3838 98.549C42.3105 98.329 42.2738 98.021 42.2738 97.625C42.2738 97.3317 42.2995 96.9467 42.3508 96.47C42.4095 95.9933 42.4718 95.4617 42.5378 94.875C42.6111 94.2883 42.6771 93.6907 42.7358 93.082C42.7725 92.752 42.7945 92.488 42.8018 92.29C42.8165 92.0847 42.8238 91.9197 42.8238 91.795C42.8238 91.6703 42.8238 91.564 42.8238 91.476C42.8238 91.3807 42.8311 91.2817 42.8458 91.179C42.8531 91.0103 42.9045 90.882 42.9998 90.794C43.0951 90.6987 43.2235 90.651 43.3848 90.651C43.5608 90.651 43.7001 90.7207 43.8028 90.86C43.9055 90.9993 43.9715 91.2413 44.0008 91.586C44.0301 91.9233 44.0155 92.3963 43.9568 93.005C43.9055 93.4377 43.8541 93.8227 43.8028 94.16C43.7588 94.4973 43.7148 94.8017 43.6708 95.073C43.6341 95.337 43.6011 95.5863 43.5718 95.821C43.5425 96.0557 43.5168 96.2867 43.4948 96.514C43.4801 96.7413 43.4728 96.9797 43.4728 97.229C43.4728 97.493 43.4801 97.7277 43.4948 97.933C43.5168 98.131 43.5278 98.3327 43.5278 98.538C43.5278 98.736 43.4875 98.8827 43.4068 98.978C43.3261 99.066 43.2088 99.11 43.0548 99.11ZM49.568 96.305C49.3627 96.3343 49.205 96.2903 49.095 96.173C48.985 96.0557 48.93 95.9163 48.93 95.755C48.9373 95.5863 48.985 95.4433 49.073 95.326C49.1683 95.2087 49.3773 95.1207 49.7 95.062C50.162 94.9667 50.6387 94.8897 51.13 94.831C51.6287 94.765 52.1237 94.7137 52.615 94.677C53.1063 94.6403 53.572 94.622 54.012 94.622C54.276 94.622 54.485 94.6843 54.639 94.809C54.793 94.9263 54.87 95.0767 54.87 95.26C54.87 95.3993 54.8297 95.5093 54.749 95.59C54.6757 95.6633 54.54 95.7 54.342 95.7C53.6967 95.7147 53.1357 95.7477 52.659 95.799C52.1897 95.843 51.7753 95.898 51.416 95.964C51.0567 96.0227 50.7303 96.085 50.437 96.151C50.1437 96.2097 49.854 96.261 49.568 96.305ZM51.911 98.615C51.7643 98.615 51.636 98.5563 51.526 98.439C51.4233 98.3143 51.361 98.1053 51.339 97.812C51.3023 97.3573 51.2877 96.91 51.295 96.47C51.3023 96.03 51.317 95.601 51.339 95.183C51.3683 94.765 51.3903 94.369 51.405 93.995C51.427 93.6137 51.4343 93.258 51.427 92.928C51.427 92.7667 51.46 92.631 51.526 92.521C51.5993 92.411 51.7203 92.356 51.889 92.356C52.0943 92.356 52.2667 92.4367 52.406 92.598C52.5453 92.752 52.615 93.0013 52.615 93.346C52.615 93.6833 52.604 94.061 52.582 94.479C52.5673 94.897 52.549 95.3223 52.527 95.755C52.505 96.1803 52.4867 96.5873 52.472 96.976C52.4573 97.3573 52.45 97.68 52.45 97.944C52.45 98.186 52.395 98.3583 52.285 98.461C52.1823 98.5637 52.0577 98.615 51.911 98.615ZM63.0869 99.11C62.7129 99.11 62.3756 99.0513 62.0749 98.934C61.7743 98.8093 61.5359 98.6517 61.3599 98.461C61.1839 98.2703 61.0959 98.065 61.0959 97.845C61.0959 97.7423 61.1253 97.6543 61.1839 97.581C61.2499 97.5003 61.3343 97.46 61.4369 97.46C61.5249 97.46 61.6056 97.4857 61.6789 97.537C61.7596 97.581 61.8476 97.636 61.9429 97.702C62.0456 97.7607 62.1739 97.8157 62.3279 97.867C62.4819 97.911 62.6836 97.933 62.9329 97.933C63.3143 97.933 63.6223 97.8413 63.8569 97.658C64.0916 97.4673 64.2089 97.1483 64.2089 96.701C64.2089 96.3783 64.1466 96.0923 64.0219 95.843C63.8973 95.5863 63.7249 95.3663 63.5049 95.183C63.2923 94.9997 63.0503 94.8603 62.7789 94.765C62.5076 94.6623 62.2253 94.611 61.9319 94.611C61.7853 94.611 61.6423 94.6293 61.5029 94.666C61.3709 94.6953 61.2426 94.71 61.1179 94.71C61.0079 94.71 60.9053 94.6843 60.8099 94.633C60.7219 94.5817 60.6486 94.512 60.5899 94.424C60.5386 94.3287 60.5129 94.2297 60.5129 94.127C60.5129 93.8777 60.6266 93.698 60.8539 93.588C61.0813 93.4707 61.4369 93.412 61.9209 93.412C62.4123 93.412 62.8706 93.4927 63.2959 93.654C63.7286 93.808 64.1063 94.0353 64.4289 94.336C64.7516 94.6293 65.0046 94.9887 65.1879 95.414C65.3713 95.8393 65.4629 96.3197 65.4629 96.855C65.4629 97.1777 65.4043 97.4747 65.2869 97.746C65.1769 98.0173 65.0156 98.2557 64.8029 98.461C64.5976 98.6663 64.3483 98.8277 64.0549 98.945C63.7689 99.055 63.4463 99.11 63.0869 99.11ZM61.0849 101.871C60.9749 101.871 60.8723 101.845 60.7769 101.794C60.6889 101.75 60.6156 101.677 60.5569 101.574C60.5056 101.479 60.4799 101.354 60.4799 101.2C60.4799 101.075 60.4946 100.962 60.5239 100.859C60.5533 100.756 60.5826 100.639 60.6119 100.507C60.6486 100.382 60.6816 100.225 60.7109 100.034C60.7403 99.8507 60.7549 99.6123 60.7549 99.319C60.7549 98.7837 60.7073 98.2557 60.6119 97.735C60.5239 97.207 60.4286 96.679 60.3259 96.151C60.2306 95.623 60.1756 95.084 60.1609 94.534C60.1536 94.358 60.1903 94.2223 60.2709 94.127C60.3589 94.0317 60.4726 93.984 60.6119 93.984C60.7659 93.984 60.9016 94.028 61.0189 94.116C61.1436 94.1967 61.2426 94.3067 61.3159 94.446C61.3966 94.578 61.4369 94.7247 61.4369 94.886C61.4369 95.3187 61.4663 95.7293 61.5249 96.118C61.5836 96.5067 61.6496 96.888 61.7229 97.262C61.7963 97.6287 61.8623 97.9953 61.9209 98.362C61.9796 98.7287 62.0089 99.11 62.0089 99.506C62.0089 99.8433 61.9906 100.155 61.9539 100.441C61.9246 100.734 61.8733 100.987 61.7999 101.2C61.7339 101.413 61.6423 101.578 61.5249 101.695C61.4076 101.812 61.2609 101.871 61.0849 101.871ZM68.3308 99.121C68.1695 99.121 68.0082 99.0953 67.8468 99.044C67.6855 99 67.5352 98.912 67.3958 98.78C67.2565 98.6407 67.1318 98.439 67.0218 98.175C66.9118 97.911 66.8238 97.5627 66.7578 97.13C66.6992 96.6973 66.6698 96.1583 66.6698 95.513C66.6698 94.919 66.6808 94.3873 66.7028 93.918C66.7322 93.4413 66.7725 92.9977 66.8238 92.587C66.8752 92.1763 66.9338 91.773 66.9998 91.377C67.0438 91.1057 67.1098 90.915 67.1978 90.805C67.2932 90.695 67.4142 90.64 67.5608 90.64C67.7588 90.64 67.9128 90.717 68.0228 90.871C68.1328 91.025 68.1878 91.2743 68.1878 91.619C68.1878 91.8317 68.1732 92.0627 68.1438 92.312C68.1145 92.554 68.0815 92.8327 68.0448 93.148C68.0082 93.456 67.9752 93.8227 67.9458 94.248C67.9165 94.666 67.9018 95.161 67.9018 95.733C67.9018 96.1803 67.9165 96.5507 67.9458 96.844C67.9752 97.13 68.0118 97.3537 68.0558 97.515C68.1072 97.6763 68.1658 97.79 68.2318 97.856C68.3052 97.922 68.3785 97.955 68.4518 97.955C68.5398 97.955 68.6095 97.9477 68.6608 97.933C68.7195 97.911 68.7672 97.8927 68.8038 97.878C68.8405 97.8633 68.8808 97.856 68.9248 97.856C69.0862 97.856 69.1925 97.9 69.2438 97.988C69.3025 98.076 69.3318 98.186 69.3318 98.318C69.3318 98.4793 69.2842 98.6223 69.1888 98.747C69.1008 98.8643 68.9798 98.956 68.8258 99.022C68.6792 99.088 68.5142 99.121 68.3308 99.121ZM71.6638 99.11C71.3192 99.11 71.0148 99.0367 70.7508 98.89C70.4942 98.736 70.2962 98.5233 70.1568 98.252C70.0175 97.9807 69.9478 97.6617 69.9478 97.295C69.9478 96.9357 70.0028 96.5727 70.1128 96.206C70.2302 95.832 70.3915 95.48 70.5968 95.15C70.8022 94.82 71.0442 94.5267 71.3228 94.27C71.6015 94.006 71.9058 93.8007 72.2358 93.654C72.5658 93.5 72.9142 93.423 73.2808 93.423C73.4788 93.423 73.6475 93.4817 73.7868 93.599C73.9262 93.7163 73.9958 93.8887 73.9958 94.116C73.9958 94.2113 73.9665 94.292 73.9078 94.358C73.8492 94.424 73.7648 94.4643 73.6548 94.479C73.1562 94.545 72.7162 94.7247 72.3348 95.018C71.9608 95.3113 71.6675 95.6633 71.4548 96.074C71.2495 96.4847 71.1468 96.9137 71.1468 97.361C71.1468 97.5443 71.1615 97.713 71.1908 97.867C71.2202 98.0137 71.2862 98.2043 71.3888 98.439L70.7618 97.559C70.9305 97.7203 71.0735 97.8267 71.1908 97.878C71.3155 97.922 71.4768 97.944 71.6748 97.944C72.1075 97.944 72.4998 97.6837 72.8518 97.163C73.2112 96.635 73.4715 95.865 73.6328 94.853C73.6548 94.699 73.7135 94.5817 73.8088 94.501C73.9042 94.413 74.0215 94.369 74.1608 94.369C74.3735 94.369 74.5532 94.4423 74.6998 94.589C74.8465 94.7283 74.9455 94.908 74.9968 95.128C75.0775 95.524 75.1618 95.8833 75.2498 96.206C75.3378 96.5213 75.4552 96.8257 75.6018 97.119C75.7485 97.405 75.9502 97.7057 76.2068 98.021C76.2802 98.1017 76.3205 98.2043 76.3278 98.329C76.3352 98.4463 76.3168 98.5637 76.2728 98.681C76.2288 98.791 76.1592 98.8863 76.0638 98.967C75.9758 99.0403 75.8695 99.077 75.7448 99.077C75.6348 99.077 75.5432 99.055 75.4698 99.011C75.4038 98.967 75.3415 98.9083 75.2828 98.835C75.1362 98.6443 75.0005 98.4537 74.8758 98.263C74.7512 98.065 74.6338 97.8487 74.5238 97.614C74.4212 97.372 74.3295 97.0933 74.2488 96.778C74.1755 96.4553 74.1132 96.0777 74.0618 95.645L74.4908 95.623C74.3442 96.4883 74.1168 97.1777 73.8088 97.691C73.5082 98.197 73.1708 98.56 72.7968 98.78C72.4228 99 72.0452 99.11 71.6638 99.11ZM79.6441 101.871C79.1454 101.871 78.7237 101.823 78.3791 101.728C78.0417 101.633 77.7887 101.501 77.6201 101.332C77.4514 101.171 77.3671 100.976 77.3671 100.749C77.3671 100.602 77.4074 100.485 77.4881 100.397C77.5687 100.316 77.6897 100.276 77.8511 100.276C77.9537 100.276 78.0454 100.294 78.1261 100.331C78.2141 100.368 78.3131 100.412 78.4231 100.463C78.5404 100.514 78.6907 100.558 78.8741 100.595C79.0647 100.632 79.3104 100.65 79.6111 100.65C79.9337 100.65 80.1867 100.584 80.3701 100.452C80.5534 100.327 80.6854 100.144 80.7661 99.902C80.8467 99.66 80.8871 99.3777 80.8871 99.055C80.8871 98.8203 80.8797 98.6003 80.8651 98.395C80.8504 98.1823 80.8321 97.9623 80.8101 97.735C80.7954 97.5077 80.7771 97.251 80.7551 96.965C80.7404 96.679 80.7294 96.3453 80.7221 95.964L81.1511 96.305C81.0117 96.7597 80.8541 97.13 80.6781 97.416C80.5021 97.6947 80.3187 97.9147 80.1281 98.076C79.9374 98.23 79.7504 98.3363 79.5671 98.395C79.3911 98.4463 79.2224 98.472 79.0611 98.472C78.4084 98.472 77.8914 98.2153 77.5101 97.702C77.1361 97.1887 76.9491 96.3637 76.9491 95.227C76.9491 94.721 76.9784 94.3397 77.0371 94.083C77.0957 93.819 77.1764 93.643 77.2791 93.555C77.3891 93.467 77.5101 93.423 77.6421 93.423C77.8034 93.423 77.9317 93.456 78.0271 93.522C78.1224 93.5807 78.1921 93.676 78.2361 93.808C78.2801 93.94 78.2947 94.105 78.2801 94.303C78.2654 94.699 78.2544 95.0767 78.2471 95.436C78.2471 95.788 78.2691 96.1033 78.3131 96.382C78.3571 96.6607 78.4304 96.8807 78.5331 97.042C78.6431 97.196 78.7971 97.273 78.9951 97.273C79.2884 97.273 79.5451 97.1263 79.7651 96.833C79.9924 96.5397 80.1757 96.1473 80.3151 95.656C80.4617 95.1573 80.5681 94.6037 80.6341 93.995C80.6561 93.775 80.7001 93.6283 80.7661 93.555C80.8321 93.4743 80.9457 93.434 81.1071 93.434C81.2391 93.434 81.3637 93.4707 81.4811 93.544C81.6057 93.6173 81.6974 93.742 81.7561 93.918C81.8221 94.0867 81.8404 94.314 81.8111 94.6C81.7744 94.974 81.7597 95.3003 81.7671 95.579C81.7744 95.8577 81.7927 96.1217 81.8221 96.371C81.8514 96.613 81.8844 96.8623 81.9211 97.119C81.9577 97.3683 81.9907 97.647 82.0201 97.955C82.0494 98.263 82.0641 98.6297 82.0641 99.055C82.0641 99.539 82.0017 99.957 81.8771 100.309C81.7597 100.668 81.5911 100.962 81.3711 101.189C81.1584 101.424 80.9054 101.596 80.6121 101.706C80.3187 101.816 79.9961 101.871 79.6441 101.871ZM85.8099 99.11C85.3772 99.11 85.0032 99.0513 84.6879 98.934C84.3726 98.8167 84.1122 98.648 83.9069 98.428C83.7016 98.208 83.5476 97.9513 83.4449 97.658C83.3496 97.3647 83.3019 97.042 83.3019 96.69C83.3019 96.3087 83.3716 95.9273 83.5109 95.546C83.6576 95.1573 83.8629 94.8053 84.1269 94.49C84.3909 94.1673 84.7062 93.9107 85.0729 93.72C85.4469 93.522 85.8612 93.423 86.3159 93.423C86.6899 93.423 87.0126 93.489 87.2839 93.621C87.5626 93.7457 87.7789 93.9363 87.9329 94.193C88.0869 94.4497 88.1639 94.7723 88.1639 95.161C88.1639 95.4617 88.0942 95.7293 87.9549 95.964C87.8156 96.1913 87.6176 96.382 87.3609 96.536C87.1116 96.69 86.8219 96.8073 86.4919 96.888C86.1619 96.9613 85.8026 96.998 85.4139 96.998C84.9886 96.998 84.6806 96.9357 84.4899 96.811C84.3066 96.679 84.2149 96.5323 84.2149 96.371C84.2149 96.283 84.2369 96.217 84.2809 96.173C84.3249 96.1217 84.4019 96.096 84.5119 96.096C84.5926 96.096 84.6916 96.1107 84.8089 96.14C84.9262 96.162 85.0912 96.173 85.3039 96.173C85.6339 96.173 85.9272 96.1327 86.1839 96.052C86.4406 95.964 86.6459 95.8467 86.7999 95.7C86.9539 95.546 87.0309 95.3737 87.0309 95.183C87.0309 94.963 86.9759 94.798 86.8659 94.688C86.7559 94.578 86.5726 94.523 86.3159 94.523C86.0446 94.523 85.7989 94.589 85.5789 94.721C85.3589 94.8457 85.1646 95.018 84.9959 95.238C84.8346 95.458 84.7099 95.7073 84.6219 95.986C84.5339 96.2647 84.4899 96.5543 84.4899 96.855C84.4899 97.0823 84.5302 97.2877 84.6109 97.471C84.6916 97.6543 84.8199 97.7973 84.9959 97.9C85.1792 98.0027 85.4249 98.054 85.7329 98.054C86.1436 98.054 86.4846 98.01 86.7559 97.922C87.0272 97.834 87.2546 97.735 87.4379 97.625C87.6212 97.5077 87.7752 97.405 87.8999 97.317C88.0319 97.229 88.1566 97.185 88.2739 97.185C88.3839 97.185 88.4609 97.2217 88.5049 97.295C88.5562 97.361 88.5819 97.4673 88.5819 97.614C88.5819 97.7753 88.5086 97.944 88.3619 98.12C88.2226 98.296 88.0246 98.4573 87.7679 98.604C87.5186 98.7507 87.2252 98.8717 86.8879 98.967C86.5579 99.0623 86.1986 99.11 85.8099 99.11ZM90.6732 99.132C90.5412 99.132 90.4239 99.0917 90.3212 99.011C90.2259 98.9303 90.1489 98.8203 90.0902 98.681C90.0389 98.5343 90.0132 98.3693 90.0132 98.186C90.0132 97.6947 90.0022 97.229 89.9802 96.789C89.9655 96.349 89.9362 95.9457 89.8922 95.579C89.8482 95.2123 89.7895 94.9043 89.7162 94.655C89.6575 94.479 89.6172 94.347 89.5952 94.259C89.5805 94.1637 89.5732 94.0647 89.5732 93.962C89.5732 93.83 89.6135 93.72 89.6942 93.632C89.7749 93.544 89.9032 93.5 90.0792 93.5C90.2332 93.5 90.3725 93.555 90.4972 93.665C90.6219 93.775 90.7282 93.9657 90.8162 94.237C90.9042 94.501 90.9702 94.8677 91.0142 95.337C91.0655 95.8063 91.0875 96.404 91.0802 97.13L90.6292 96.943C90.7099 96.3123 90.8455 95.7733 91.0362 95.326C91.2342 94.8787 91.4615 94.5157 91.7182 94.237C91.9822 93.9583 92.2572 93.753 92.5432 93.621C92.8292 93.489 93.1115 93.423 93.3902 93.423C93.6175 93.423 93.7752 93.4817 93.8632 93.599C93.9585 93.709 94.0062 93.8483 94.0062 94.017C94.0062 94.149 93.9622 94.27 93.8742 94.38C93.7935 94.4827 93.6505 94.5707 93.4452 94.644C93.0639 94.7613 92.7449 94.93 92.4882 95.15C92.2315 95.37 92.0225 95.634 91.8612 95.942C91.7072 96.25 91.5862 96.5947 91.4982 96.976C91.4175 97.3573 91.3589 97.7717 91.3222 98.219C91.3002 98.461 91.2635 98.648 91.2122 98.78C91.1609 98.912 91.0912 99.0037 91.0032 99.055C90.9152 99.1063 90.8052 99.132 90.6732 99.132ZM96.057 99.11C95.683 99.11 95.375 99.0623 95.133 98.967C94.891 98.8717 94.7113 98.7507 94.594 98.604C94.484 98.4573 94.429 98.2997 94.429 98.131C94.429 98.0063 94.4657 97.9037 94.539 97.823C94.6197 97.7423 94.7333 97.702 94.88 97.702C94.9607 97.702 95.0303 97.7167 95.089 97.746C95.155 97.7753 95.2247 97.8083 95.298 97.845C95.3787 97.8817 95.474 97.9147 95.584 97.944C95.7013 97.9733 95.8517 97.988 96.035 97.988C96.4897 97.988 96.8747 97.9367 97.19 97.834C97.5127 97.724 97.7363 97.5553 97.861 97.328C97.8023 97.1813 97.685 97.0677 97.509 96.987C97.333 96.9063 97.124 96.8367 96.882 96.778C96.64 96.7193 96.387 96.657 96.123 96.591C95.8663 96.5177 95.6243 96.4297 95.397 96.327C95.177 96.217 94.9973 96.074 94.858 95.898C94.7187 95.722 94.649 95.4947 94.649 95.216C94.649 94.93 94.7333 94.6733 94.902 94.446C95.0707 94.2187 95.2943 94.028 95.573 93.874C95.8517 93.72 96.1597 93.6027 96.497 93.522C96.8343 93.4413 97.1717 93.4047 97.509 93.412C97.7363 93.412 97.927 93.4487 98.081 93.522C98.235 93.5953 98.3487 93.6907 98.422 93.808C98.5027 93.9253 98.543 94.0463 98.543 94.171C98.543 94.303 98.5063 94.4093 98.433 94.49C98.367 94.5707 98.2643 94.611 98.125 94.611C98.059 94.611 97.9967 94.6073 97.938 94.6C97.8867 94.5927 97.828 94.589 97.762 94.589C97.696 94.5817 97.608 94.578 97.498 94.578C97.0873 94.578 96.7317 94.6367 96.431 94.754C96.1303 94.864 95.9067 95.0327 95.76 95.26C95.804 95.392 95.914 95.4983 96.09 95.579C96.266 95.6597 96.475 95.7293 96.717 95.788C96.9663 95.8467 97.223 95.909 97.487 95.975C97.7583 96.041 98.0077 96.129 98.235 96.239C98.4697 96.3417 98.6603 96.481 98.807 96.657C98.9537 96.833 99.027 97.0567 99.027 97.328C99.027 97.7387 98.8913 98.076 98.62 98.34C98.3487 98.604 97.9893 98.7983 97.542 98.923C97.0947 99.0477 96.5997 99.11 96.057 99.11Z" fill="black"/>
</svg>
