<svg width="134" height="109" viewBox="0 0 134 109" fill="none" xmlns="http://www.w3.org/2000/svg">
<path d="M46.232 28.5C46.632 18.5 55.0653 6 59.232 1C54.032 13 57.0653 24.3333 59.232 28.5C75.632 22.9 92.0654 28.1667 98.2321 31.5C136.632 31.5 135.565 61.8333 130.232 77C130.732 88.5 122.732 104.5 103.732 107.5C88.5321 109.9 72.0654 104.167 65.7321 101C61.7321 102.5 47.2321 104.3 21.2321 99.5C-4.76795 94.7 -0.267986 71.5 5.232 60.5C1.232 48 2.97938 37.5948 10.732 31.5C19 25 36.0653 26.6667 46.232 28.5Z" fill="white" stroke="black"/>
<path d="M21.925 52.11C21.7343 52.11 21.5693 52.033 21.43 51.879C21.298 51.7177 21.232 51.4573 21.232 51.098C21.232 50.614 21.2027 50.185 21.144 49.811C21.0853 49.437 21.0157 49.0887 20.935 48.766C20.8617 48.4433 20.792 48.1317 20.726 47.831C20.6673 47.523 20.638 47.204 20.638 46.874C20.638 46.346 20.7297 45.884 20.913 45.488C21.1037 45.0847 21.4043 44.773 21.815 44.553C22.2257 44.3257 22.7647 44.212 23.432 44.212C23.9233 44.212 24.3707 44.311 24.774 44.509C25.1847 44.707 25.511 44.993 25.753 45.367C25.995 45.7337 26.116 46.1847 26.116 46.72C26.116 47.094 26.0353 47.457 25.874 47.809C25.7127 48.1537 25.489 48.4617 25.203 48.733C24.9243 48.997 24.5907 49.206 24.202 49.36C23.8207 49.514 23.4063 49.591 22.959 49.591C22.673 49.591 22.4163 49.547 22.189 49.459C21.9617 49.371 21.782 49.2573 21.65 49.118C21.518 48.9713 21.452 48.821 21.452 48.667C21.452 48.5277 21.4887 48.4213 21.562 48.348C21.6427 48.2747 21.738 48.238 21.848 48.238C21.9507 48.238 22.0423 48.2563 22.123 48.293C22.2037 48.3223 22.3027 48.3553 22.42 48.392C22.5373 48.4213 22.7023 48.436 22.915 48.436C23.3037 48.436 23.6447 48.3553 23.938 48.194C24.2387 48.0327 24.477 47.82 24.653 47.556C24.829 47.292 24.917 47.0133 24.917 46.72C24.917 46.4267 24.8473 46.1847 24.708 45.994C24.5687 45.796 24.3853 45.6493 24.158 45.554C23.9307 45.4587 23.6887 45.411 23.432 45.411C22.8967 45.411 22.497 45.5393 22.233 45.796C21.969 46.0453 21.837 46.4047 21.837 46.874C21.837 47.1893 21.8663 47.5047 21.925 47.82C21.991 48.1353 22.0643 48.469 22.145 48.821C22.233 49.1657 22.3063 49.5507 22.365 49.976C22.431 50.394 22.464 50.8707 22.464 51.406C22.464 51.6187 22.4237 51.791 22.343 51.923C22.2697 52.0477 22.1303 52.11 21.925 52.11ZM29.1975 52.11C28.7649 52.11 28.3909 52.0513 28.0755 51.934C27.7602 51.8167 27.4999 51.648 27.2945 51.428C27.0892 51.208 26.9352 50.9513 26.8325 50.658C26.7372 50.3647 26.6895 50.042 26.6895 49.69C26.6895 49.3087 26.7592 48.9273 26.8985 48.546C27.0452 48.1573 27.2505 47.8053 27.5145 47.49C27.7785 47.1673 28.0939 46.9107 28.4605 46.72C28.8345 46.522 29.2489 46.423 29.7035 46.423C30.0775 46.423 30.4002 46.489 30.6715 46.621C30.9502 46.7457 31.1665 46.9363 31.3205 47.193C31.4745 47.4497 31.5515 47.7723 31.5515 48.161C31.5515 48.4617 31.4819 48.7293 31.3425 48.964C31.2032 49.1913 31.0052 49.382 30.7485 49.536C30.4992 49.69 30.2095 49.8073 29.8795 49.888C29.5495 49.9613 29.1902 49.998 28.8015 49.998C28.3762 49.998 28.0682 49.9357 27.8775 49.811C27.6942 49.679 27.6025 49.5323 27.6025 49.371C27.6025 49.283 27.6245 49.217 27.6685 49.173C27.7125 49.1217 27.7895 49.096 27.8995 49.096C27.9802 49.096 28.0792 49.1107 28.1965 49.14C28.3139 49.162 28.4789 49.173 28.6915 49.173C29.0215 49.173 29.3149 49.1327 29.5715 49.052C29.8282 48.964 30.0335 48.8467 30.1875 48.7C30.3415 48.546 30.4185 48.3737 30.4185 48.183C30.4185 47.963 30.3635 47.798 30.2535 47.688C30.1435 47.578 29.9602 47.523 29.7035 47.523C29.4322 47.523 29.1865 47.589 28.9665 47.721C28.7465 47.8457 28.5522 48.018 28.3835 48.238C28.2222 48.458 28.0975 48.7073 28.0095 48.986C27.9215 49.2647 27.8775 49.5543 27.8775 49.855C27.8775 50.0823 27.9179 50.2877 27.9985 50.471C28.0792 50.6543 28.2075 50.7973 28.3835 50.9C28.5669 51.0027 28.8125 51.054 29.1205 51.054C29.5312 51.054 29.8722 51.01 30.1435 50.922C30.4149 50.834 30.6422 50.735 30.8255 50.625C31.0089 50.5077 31.1629 50.405 31.2875 50.317C31.4195 50.229 31.5442 50.185 31.6615 50.185C31.7715 50.185 31.8485 50.2217 31.8925 50.295C31.9439 50.361 31.9695 50.4673 31.9695 50.614C31.9695 50.7753 31.8962 50.944 31.7495 51.12C31.6102 51.296 31.4122 51.4573 31.1555 51.604C30.9062 51.7507 30.6129 51.8717 30.2755 51.967C29.9455 52.0623 29.5862 52.11 29.1975 52.11ZM35.9047 52.11C35.5307 52.11 35.1934 52.0513 34.8927 51.934C34.592 51.8093 34.3537 51.6517 34.1777 51.461C34.0017 51.2703 33.9137 51.065 33.9137 50.845C33.9137 50.7423 33.943 50.6543 34.0017 50.581C34.0677 50.5003 34.152 50.46 34.2547 50.46C34.3427 50.46 34.4234 50.4857 34.4967 50.537C34.5774 50.581 34.6654 50.636 34.7607 50.702C34.8634 50.7607 34.9917 50.8157 35.1457 50.867C35.2997 50.911 35.5014 50.933 35.7507 50.933C36.132 50.933 36.44 50.8413 36.6747 50.658C36.9094 50.4673 37.0267 50.1483 37.0267 49.701C37.0267 49.3783 36.9644 49.0923 36.8397 48.843C36.715 48.5863 36.5427 48.3663 36.3227 48.183C36.11 47.9997 35.868 47.8603 35.5967 47.765C35.3254 47.6623 35.043 47.611 34.7497 47.611C34.603 47.611 34.46 47.6293 34.3207 47.666C34.1887 47.6953 34.0604 47.71 33.9357 47.71C33.8257 47.71 33.723 47.6843 33.6277 47.633C33.5397 47.5817 33.4664 47.512 33.4077 47.424C33.3564 47.3287 33.3307 47.2297 33.3307 47.127C33.3307 46.8777 33.4444 46.698 33.6717 46.588C33.899 46.4707 34.2547 46.412 34.7387 46.412C35.23 46.412 35.6884 46.4927 36.1137 46.654C36.5464 46.808 36.924 47.0353 37.2467 47.336C37.5694 47.6293 37.8224 47.9887 38.0057 48.414C38.189 48.8393 38.2807 49.3197 38.2807 49.855C38.2807 50.1777 38.222 50.4747 38.1047 50.746C37.9947 51.0173 37.8334 51.2557 37.6207 51.461C37.4154 51.6663 37.166 51.8277 36.8727 51.945C36.5867 52.055 36.264 52.11 35.9047 52.11ZM33.9027 54.871C33.7927 54.871 33.69 54.8453 33.5947 54.794C33.5067 54.75 33.4334 54.6767 33.3747 54.574C33.3234 54.4787 33.2977 54.354 33.2977 54.2C33.2977 54.0753 33.3124 53.9617 33.3417 53.859C33.371 53.7563 33.4004 53.639 33.4297 53.507C33.4664 53.3823 33.4994 53.2247 33.5287 53.034C33.558 52.8507 33.5727 52.6123 33.5727 52.319C33.5727 51.7837 33.525 51.2557 33.4297 50.735C33.3417 50.207 33.2464 49.679 33.1437 49.151C33.0484 48.623 32.9934 48.084 32.9787 47.534C32.9714 47.358 33.008 47.2223 33.0887 47.127C33.1767 47.0317 33.2904 46.984 33.4297 46.984C33.5837 46.984 33.7194 47.028 33.8367 47.116C33.9614 47.1967 34.0604 47.3067 34.1337 47.446C34.2144 47.578 34.2547 47.7247 34.2547 47.886C34.2547 48.3187 34.284 48.7293 34.3427 49.118C34.4014 49.5067 34.4674 49.888 34.5407 50.262C34.614 50.6287 34.68 50.9953 34.7387 51.362C34.7974 51.7287 34.8267 52.11 34.8267 52.506C34.8267 52.8433 34.8084 53.155 34.7717 53.441C34.7424 53.7343 34.691 53.9873 34.6177 54.2C34.5517 54.4127 34.46 54.5777 34.3427 54.695C34.2254 54.8123 34.0787 54.871 33.9027 54.871ZM41.8956 52.11C41.3163 52.11 40.8396 52.0073 40.4656 51.802C40.0989 51.5893 39.8276 51.3033 39.6516 50.944C39.4756 50.5773 39.3876 50.1593 39.3876 49.69C39.3876 49.3087 39.4573 48.9273 39.5966 48.546C39.7433 48.1573 39.9486 47.8053 40.2126 47.49C40.4766 47.1673 40.7919 46.9107 41.1586 46.72C41.5326 46.522 41.9469 46.423 42.4016 46.423C42.7756 46.423 43.0983 46.489 43.3696 46.621C43.6483 46.7457 43.8646 46.9363 44.0186 47.193C44.1726 47.4497 44.2496 47.7723 44.2496 48.161C44.2496 48.5643 44.1286 48.9017 43.8866 49.173C43.6446 49.4443 43.3146 49.6497 42.8966 49.789C42.4786 49.9283 42.0129 49.998 41.4996 49.998C41.0743 49.998 40.7663 49.9357 40.5756 49.811C40.3923 49.679 40.3006 49.5323 40.3006 49.371C40.3006 49.283 40.3226 49.217 40.3666 49.173C40.4106 49.1217 40.4876 49.096 40.5976 49.096C40.6783 49.096 40.7773 49.1107 40.8946 49.14C41.0119 49.162 41.1769 49.173 41.3896 49.173C41.7196 49.173 42.0129 49.1327 42.2696 49.052C42.5263 48.964 42.7316 48.8467 42.8856 48.7C43.0396 48.546 43.1166 48.3737 43.1166 48.183C43.1166 47.963 43.0616 47.798 42.9516 47.688C42.8416 47.578 42.6583 47.523 42.4016 47.523C42.1303 47.523 41.8846 47.589 41.6646 47.721C41.4446 47.8457 41.2503 48.018 41.0816 48.238C40.9203 48.458 40.7956 48.7073 40.7076 48.986C40.6196 49.2647 40.5756 49.5543 40.5756 49.855C40.5756 50.0823 40.6159 50.2877 40.6966 50.471C40.7773 50.6543 40.9056 50.7973 41.0816 50.9C41.2649 51.0027 41.5106 51.054 41.8186 51.054C42.2293 51.054 42.5703 51.01 42.8416 50.922C43.1129 50.834 43.3403 50.735 43.5236 50.625C43.7069 50.5077 43.8609 50.405 43.9856 50.317C44.1176 50.229 44.2423 50.185 44.3596 50.185C44.4696 50.185 44.5466 50.2217 44.5906 50.295C44.6419 50.361 44.6676 50.4673 44.6676 50.614C44.6676 50.7753 44.5943 50.944 44.4476 51.12C44.3083 51.296 44.1103 51.4573 43.8536 51.604C43.6043 51.7507 43.3109 51.8717 42.9736 51.967C42.6436 52.0623 42.2843 52.11 41.8956 52.11ZM48.0254 52.11C47.8641 52.11 47.7211 52.0623 47.5964 51.967C47.4791 51.8717 47.3508 51.725 47.2114 51.527C47.1088 51.3583 46.9951 51.131 46.8704 50.845C46.7458 50.559 46.6211 50.2547 46.4964 49.932C46.3791 49.602 46.2618 49.294 46.1444 49.008C45.9978 48.6193 45.8694 48.3113 45.7594 48.084C45.6494 47.8567 45.5541 47.677 45.4734 47.545C45.4001 47.4057 45.3451 47.2883 45.3084 47.193C45.2718 47.0903 45.2534 46.9767 45.2534 46.852C45.2534 46.7347 45.2901 46.6357 45.3634 46.555C45.4441 46.467 45.5761 46.423 45.7594 46.423C45.9721 46.423 46.1518 46.4853 46.2984 46.61C46.4451 46.7273 46.5698 46.8887 46.6724 47.094C46.7824 47.2993 46.8851 47.5303 46.9804 47.787C47.1051 48.095 47.2261 48.425 47.3434 48.777C47.4681 49.129 47.5964 49.4737 47.7284 49.811C47.8678 50.141 48.0144 50.4453 48.1684 50.724L47.7724 50.702C47.9631 50.3133 48.1318 49.9393 48.2784 49.58C48.4251 49.2207 48.5718 48.876 48.7184 48.546C48.8651 48.216 49.0228 47.9007 49.1914 47.6C49.3601 47.2993 49.5618 47.0097 49.7964 46.731C49.8918 46.6283 49.9834 46.5513 50.0714 46.5C50.1594 46.4487 50.2658 46.423 50.3904 46.423C50.4931 46.423 50.5848 46.4523 50.6654 46.511C50.7461 46.5697 50.8084 46.643 50.8524 46.731C50.8964 46.8117 50.9184 46.9033 50.9184 47.006C50.9184 47.116 50.9001 47.2187 50.8634 47.314C50.8341 47.4093 50.7901 47.4973 50.7314 47.578C50.4748 47.908 50.2548 48.227 50.0714 48.535C49.8954 48.843 49.7341 49.1547 49.5874 49.47C49.4481 49.778 49.3014 50.1117 49.1474 50.471C48.9934 50.823 48.8174 51.219 48.6194 51.659C48.5388 51.8277 48.4544 51.945 48.3664 52.011C48.2858 52.077 48.1721 52.11 48.0254 52.11ZM54.0243 52.11C53.445 52.11 52.9683 52.0073 52.5943 51.802C52.2276 51.5893 51.9563 51.3033 51.7803 50.944C51.6043 50.5773 51.5163 50.1593 51.5163 49.69C51.5163 49.3087 51.586 48.9273 51.7253 48.546C51.872 48.1573 52.0773 47.8053 52.3413 47.49C52.6053 47.1673 52.9206 46.9107 53.2873 46.72C53.6613 46.522 54.0756 46.423 54.5303 46.423C55.0876 46.423 55.535 46.5697 55.8723 46.863C56.2096 47.149 56.3783 47.5817 56.3783 48.161C56.3783 48.5643 56.2573 48.9017 56.0153 49.173C55.7733 49.4443 55.4433 49.6497 55.0253 49.789C54.6073 49.9283 54.1416 49.998 53.6283 49.998C53.203 49.998 52.895 49.9357 52.7043 49.811C52.521 49.679 52.4293 49.5323 52.4293 49.371C52.4293 49.283 52.4513 49.217 52.4953 49.173C52.5393 49.1217 52.6163 49.096 52.7263 49.096C52.807 49.096 52.906 49.1107 53.0233 49.14C53.1406 49.162 53.3056 49.173 53.5183 49.173C53.8483 49.173 54.1416 49.1327 54.3983 49.052C54.655 48.964 54.8603 48.8467 55.0143 48.7C55.1683 48.546 55.2453 48.3737 55.2453 48.183C55.2453 47.963 55.1903 47.798 55.0803 47.688C54.9703 47.578 54.787 47.523 54.5303 47.523C54.1783 47.523 53.863 47.633 53.5843 47.853C53.313 48.073 53.0966 48.3627 52.9353 48.722C52.7813 49.074 52.7043 49.4517 52.7043 49.855C52.7043 50.0823 52.7446 50.2877 52.8253 50.471C52.906 50.6543 53.0343 50.7973 53.2103 50.9C53.3936 51.0027 53.6393 51.054 53.9473 51.054C54.358 51.054 54.699 51.01 54.9703 50.922C55.2416 50.834 55.469 50.735 55.6523 50.625C55.8356 50.5077 55.9896 50.405 56.1143 50.317C56.2463 50.229 56.371 50.185 56.4883 50.185C56.5983 50.185 56.6753 50.2217 56.7193 50.295C56.7706 50.361 56.7963 50.4673 56.7963 50.614C56.7963 50.7753 56.723 50.944 56.5763 51.12C56.437 51.296 56.239 51.4573 55.9823 51.604C55.733 51.7507 55.4396 51.8717 55.1023 51.967C54.7723 52.0623 54.413 52.11 54.0243 52.11ZM58.8876 52.132C58.7556 52.132 58.6382 52.0917 58.5356 52.011C58.4402 51.9303 58.3632 51.8203 58.3046 51.681C58.2532 51.5343 58.2276 51.3693 58.2276 51.186C58.2276 50.6947 58.2166 50.229 58.1946 49.789C58.1799 49.349 58.1506 48.9457 58.1066 48.579C58.0626 48.2123 58.0039 47.9043 57.9306 47.655C57.8719 47.479 57.8316 47.347 57.8096 47.259C57.7949 47.1637 57.7876 47.0647 57.7876 46.962C57.7876 46.83 57.8279 46.72 57.9086 46.632C57.9892 46.544 58.1176 46.5 58.2936 46.5C58.4476 46.5 58.5869 46.555 58.7116 46.665C58.8362 46.775 58.9426 46.9657 59.0306 47.237C59.1186 47.501 59.1846 47.8677 59.2286 48.337C59.2799 48.8063 59.3019 49.404 59.2946 50.13L58.8436 49.943C58.9242 49.3123 59.0599 48.7733 59.2506 48.326C59.4486 47.8787 59.6759 47.5157 59.9326 47.237C60.1966 46.9583 60.4716 46.753 60.7576 46.621C61.0436 46.489 61.3259 46.423 61.6046 46.423C61.8319 46.423 61.9896 46.4817 62.0776 46.599C62.1729 46.709 62.2206 46.8483 62.2206 47.017C62.2206 47.149 62.1766 47.27 62.0886 47.38C62.0079 47.4827 61.8649 47.5707 61.6596 47.644C61.2782 47.7613 60.9592 47.93 60.7026 48.15C60.4459 48.37 60.2369 48.634 60.0756 48.942C59.9216 49.25 59.8006 49.5947 59.7126 49.976C59.6319 50.3573 59.5732 50.7717 59.5366 51.219C59.5146 51.461 59.4779 51.648 59.4266 51.78C59.3752 51.912 59.3056 52.0037 59.2176 52.055C59.1296 52.1063 59.0196 52.132 58.8876 52.132ZM64.2714 52.11C63.8974 52.11 63.5894 52.0623 63.3474 51.967C63.1054 51.8717 62.9257 51.7507 62.8084 51.604C62.6984 51.4573 62.6434 51.2997 62.6434 51.131C62.6434 51.0063 62.6801 50.9037 62.7534 50.823C62.8341 50.7423 62.9477 50.702 63.0944 50.702C63.1751 50.702 63.2447 50.7167 63.3034 50.746C63.3694 50.7753 63.4391 50.8083 63.5124 50.845C63.5931 50.8817 63.6884 50.9147 63.7984 50.944C63.9157 50.9733 64.0661 50.988 64.2494 50.988C64.7041 50.988 65.0891 50.9367 65.4044 50.834C65.7271 50.724 65.9507 50.5553 66.0754 50.328C66.0167 50.1813 65.8994 50.0677 65.7234 49.987C65.5474 49.9063 65.3384 49.8367 65.0964 49.778C64.8544 49.7193 64.6014 49.657 64.3374 49.591C64.0807 49.5177 63.8387 49.4297 63.6114 49.327C63.3914 49.217 63.2117 49.074 63.0724 48.898C62.9331 48.722 62.8634 48.4947 62.8634 48.216C62.8634 47.93 62.9477 47.6733 63.1164 47.446C63.2851 47.2187 63.5087 47.028 63.7874 46.874C64.0661 46.72 64.3741 46.6027 64.7114 46.522C65.0487 46.4413 65.3861 46.4047 65.7234 46.412C65.9507 46.412 66.1414 46.4487 66.2954 46.522C66.4494 46.5953 66.5631 46.6907 66.6364 46.808C66.7171 46.9253 66.7574 47.0463 66.7574 47.171C66.7574 47.303 66.7207 47.4093 66.6474 47.49C66.5814 47.5707 66.4787 47.611 66.3394 47.611C66.2734 47.611 66.2111 47.6073 66.1524 47.6C66.1011 47.5927 66.0424 47.589 65.9764 47.589C65.9104 47.5817 65.8224 47.578 65.7124 47.578C65.3017 47.578 64.9461 47.6367 64.6454 47.754C64.3447 47.864 64.1211 48.0327 63.9744 48.26C64.0184 48.392 64.1284 48.4983 64.3044 48.579C64.4804 48.6597 64.6894 48.7293 64.9314 48.788C65.1807 48.8467 65.4374 48.909 65.7014 48.975C65.9727 49.041 66.2221 49.129 66.4494 49.239C66.6841 49.3417 66.8747 49.481 67.0214 49.657C67.1681 49.833 67.2414 50.0567 67.2414 50.328C67.2414 50.636 67.1607 50.9037 66.9994 51.131C66.8454 51.3583 66.6291 51.5453 66.3504 51.692C66.0791 51.8313 65.7637 51.934 65.4044 52C65.0524 52.0733 64.6747 52.11 64.2714 52.11ZM70.7242 52.11C70.1448 52.11 69.6682 52.0073 69.2942 51.802C68.9275 51.5893 68.6562 51.3033 68.4802 50.944C68.3042 50.5773 68.2162 50.1593 68.2162 49.69C68.2162 49.3087 68.2858 48.9273 68.4252 48.546C68.5718 48.1573 68.7772 47.8053 69.0412 47.49C69.3052 47.1673 69.6205 46.9107 69.9872 46.72C70.3612 46.522 70.7755 46.423 71.2302 46.423C71.7875 46.423 72.2348 46.5697 72.5722 46.863C72.9095 47.149 73.0782 47.5817 73.0782 48.161C73.0782 48.5643 72.9572 48.9017 72.7152 49.173C72.4732 49.4443 72.1432 49.6497 71.7252 49.789C71.3072 49.9283 70.8415 49.998 70.3282 49.998C69.9028 49.998 69.5948 49.9357 69.4042 49.811C69.2208 49.679 69.1292 49.5323 69.1292 49.371C69.1292 49.283 69.1512 49.217 69.1952 49.173C69.2392 49.1217 69.3162 49.096 69.4262 49.096C69.5068 49.096 69.6058 49.1107 69.7232 49.14C69.8405 49.162 70.0055 49.173 70.2182 49.173C70.5482 49.173 70.8415 49.1327 71.0982 49.052C71.3548 48.964 71.5602 48.8467 71.7142 48.7C71.8682 48.546 71.9452 48.3737 71.9452 48.183C71.9452 47.963 71.8902 47.798 71.7802 47.688C71.6702 47.578 71.4868 47.523 71.2302 47.523C70.8782 47.523 70.5628 47.633 70.2842 47.853C70.0128 48.073 69.7965 48.3627 69.6352 48.722C69.4812 49.074 69.4042 49.4517 69.4042 49.855C69.4042 50.0823 69.4445 50.2877 69.5252 50.471C69.6058 50.6543 69.7342 50.7973 69.9102 50.9C70.0935 51.0027 70.3392 51.054 70.6472 51.054C71.0578 51.054 71.3988 51.01 71.6702 50.922C71.9415 50.834 72.1688 50.735 72.3522 50.625C72.5355 50.5077 72.6895 50.405 72.8142 50.317C72.9462 50.229 73.0708 50.185 73.1882 50.185C73.2982 50.185 73.3752 50.2217 73.4192 50.295C73.4705 50.361 73.4962 50.4673 73.4962 50.614C73.4962 50.7753 73.4228 50.944 73.2762 51.12C73.1368 51.296 72.9388 51.4573 72.6822 51.604C72.4328 51.7507 72.1395 51.8717 71.8022 51.967C71.4722 52.0623 71.1128 52.11 70.7242 52.11ZM79.4906 49.822C79.2486 49.822 79.0432 49.7927 78.8746 49.734C78.7059 49.668 78.5776 49.5837 78.4896 49.481C78.4016 49.3783 78.3576 49.2757 78.3576 49.173C78.3576 49.0923 78.3796 49.0153 78.4236 48.942C78.4749 48.8687 78.5739 48.8173 78.7206 48.788C79.1899 48.7 79.6446 48.634 80.0846 48.59C80.5246 48.5387 80.9719 48.513 81.4266 48.513C81.7419 48.513 81.9912 48.5533 82.1746 48.634C82.3579 48.7147 82.4899 48.81 82.5706 48.92C82.6512 49.03 82.6916 49.129 82.6916 49.217C82.6916 49.349 82.6439 49.4553 82.5486 49.536C82.4532 49.6093 82.3176 49.646 82.1416 49.646C81.5842 49.646 81.1332 49.6607 80.7886 49.69C80.4512 49.7193 80.1799 49.7487 79.9746 49.778C79.7766 49.8073 79.6152 49.822 79.4906 49.822ZM88.9716 52.11C88.781 52.11 88.616 52.033 88.4766 51.879C88.3446 51.7177 88.2786 51.4573 88.2786 51.098C88.2786 50.614 88.2493 50.185 88.1906 49.811C88.132 49.437 88.0623 49.0887 87.9816 48.766C87.9083 48.4433 87.8386 48.1317 87.7726 47.831C87.714 47.523 87.6846 47.204 87.6846 46.874C87.6846 46.346 87.7763 45.884 87.9596 45.488C88.1503 45.0847 88.451 44.773 88.8616 44.553C89.2723 44.3257 89.8113 44.212 90.4786 44.212C90.97 44.212 91.4173 44.311 91.8206 44.509C92.2313 44.707 92.5576 44.993 92.7996 45.367C93.0416 45.7337 93.1626 46.1847 93.1626 46.72C93.1626 47.094 93.082 47.457 92.9206 47.809C92.7593 48.1537 92.5356 48.4617 92.2496 48.733C91.971 48.997 91.6373 49.206 91.2486 49.36C90.8673 49.514 90.453 49.591 90.0056 49.591C89.7196 49.591 89.463 49.547 89.2356 49.459C89.0083 49.371 88.8286 49.2573 88.6966 49.118C88.5646 48.9713 88.4986 48.821 88.4986 48.667C88.4986 48.5277 88.5353 48.4213 88.6086 48.348C88.6893 48.2747 88.7846 48.238 88.8946 48.238C88.9973 48.238 89.089 48.2563 89.1696 48.293C89.2503 48.3223 89.3493 48.3553 89.4666 48.392C89.584 48.4213 89.749 48.436 89.9616 48.436C90.3503 48.436 90.6913 48.3553 90.9846 48.194C91.2853 48.0327 91.5236 47.82 91.6996 47.556C91.8756 47.292 91.9636 47.0133 91.9636 46.72C91.9636 46.4267 91.894 46.1847 91.7546 45.994C91.6153 45.796 91.432 45.6493 91.2046 45.554C90.9773 45.4587 90.7353 45.411 90.4786 45.411C89.9433 45.411 89.5436 45.5393 89.2796 45.796C89.0156 46.0453 88.8836 46.4047 88.8836 46.874C88.8836 47.1893 88.913 47.5047 88.9716 47.82C89.0376 48.1353 89.111 48.469 89.1916 48.821C89.2796 49.1657 89.353 49.5507 89.4116 49.976C89.4776 50.394 89.5106 50.8707 89.5106 51.406C89.5106 51.6187 89.4703 51.791 89.3896 51.923C89.3163 52.0477 89.177 52.11 88.9716 52.11ZM97.4342 52.121C97.3095 52.121 97.1922 52.099 97.0822 52.055C96.9795 52.011 96.8695 51.9267 96.7522 51.802C96.6422 51.67 96.5138 51.4793 96.3672 51.23C96.1252 50.812 95.9235 50.394 95.7622 49.976C95.6082 49.5507 95.4762 49.1363 95.3662 48.733C95.2562 48.3223 95.1535 47.9373 95.0582 47.578C94.9702 47.2113 94.8748 46.874 94.7722 46.566C94.6768 46.258 94.5595 45.9977 94.4202 45.785C94.2662 45.5503 94.1452 45.3597 94.0572 45.213C93.9765 45.059 93.9362 44.8977 93.9362 44.729C93.9362 44.5897 93.9765 44.4687 94.0572 44.366C94.1452 44.2633 94.2808 44.212 94.4642 44.212C94.6328 44.212 94.7868 44.2633 94.9262 44.366C95.0728 44.4687 95.2232 44.652 95.3772 44.916C95.5678 45.202 95.7255 45.5283 95.8502 45.895C95.9822 46.2543 96.0995 46.6357 96.2022 47.039C96.3122 47.4423 96.4222 47.8457 96.5322 48.249C96.6495 48.6523 96.7778 49.041 96.9172 49.415C97.0565 49.789 97.2252 50.13 97.4232 50.438L97.0492 50.746C97.3498 49.6313 97.6982 48.601 98.0942 47.655C98.4975 46.7017 98.9668 45.8033 99.5022 44.96C99.6488 44.7327 99.7698 44.5677 99.8652 44.465C99.9678 44.355 100.059 44.2817 100.14 44.245C100.228 44.2083 100.312 44.19 100.393 44.19C100.554 44.19 100.679 44.245 100.767 44.355C100.855 44.465 100.899 44.597 100.899 44.751C100.899 44.8757 100.884 44.993 100.855 45.103C100.826 45.213 100.782 45.3267 100.723 45.444C100.672 45.554 100.602 45.6823 100.514 45.829C100.213 46.3277 99.9458 46.7933 99.7112 47.226C99.4838 47.6587 99.2748 48.0877 99.0842 48.513C98.9008 48.931 98.7248 49.371 98.5562 49.833C98.3948 50.295 98.2372 50.8083 98.0832 51.373C98.0025 51.6663 97.9072 51.8643 97.7972 51.967C97.6945 52.0697 97.5735 52.121 97.4342 52.121ZM103.012 52.11C102.822 52.11 102.657 52.033 102.517 51.879C102.385 51.7177 102.319 51.4573 102.319 51.098C102.319 50.614 102.29 50.185 102.231 49.811C102.173 49.437 102.103 49.0887 102.022 48.766C101.949 48.4433 101.879 48.1317 101.813 47.831C101.755 47.523 101.725 47.204 101.725 46.874C101.725 46.346 101.817 45.884 102 45.488C102.191 45.0847 102.492 44.773 102.902 44.553C103.313 44.3257 103.852 44.212 104.519 44.212C105.011 44.212 105.458 44.311 105.861 44.509C106.272 44.707 106.598 44.993 106.84 45.367C107.082 45.7337 107.203 46.1847 107.203 46.72C107.203 47.094 107.123 47.457 106.961 47.809C106.8 48.1537 106.576 48.4617 106.29 48.733C106.012 48.997 105.678 49.206 105.289 49.36C104.908 49.514 104.494 49.591 104.046 49.591C103.76 49.591 103.504 49.547 103.276 49.459C103.049 49.371 102.869 49.2573 102.737 49.118C102.605 48.9713 102.539 48.821 102.539 48.667C102.539 48.5277 102.576 48.4213 102.649 48.348C102.73 48.2747 102.825 48.238 102.935 48.238C103.038 48.238 103.13 48.2563 103.21 48.293C103.291 48.3223 103.39 48.3553 103.507 48.392C103.625 48.4213 103.79 48.436 104.002 48.436C104.391 48.436 104.732 48.3553 105.025 48.194C105.326 48.0327 105.564 47.82 105.74 47.556C105.916 47.292 106.004 47.0133 106.004 46.72C106.004 46.4267 105.935 46.1847 105.795 45.994C105.656 45.796 105.473 45.6493 105.245 45.554C105.018 45.4587 104.776 45.411 104.519 45.411C103.984 45.411 103.584 45.5393 103.32 45.796C103.056 46.0453 102.924 46.4047 102.924 46.874C102.924 47.1893 102.954 47.5047 103.012 47.82C103.078 48.1353 103.152 48.469 103.232 48.821C103.32 49.1657 103.394 49.5507 103.452 49.976C103.518 50.394 103.551 50.8707 103.551 51.406C103.551 51.6187 103.511 51.791 103.43 51.923C103.357 52.0477 103.218 52.11 103.012 52.11ZM23.652 67.11C22.9627 67.11 22.3907 66.9633 21.936 66.67C21.4887 66.3767 21.1513 65.977 20.924 65.471C20.704 64.965 20.594 64.393 20.594 63.755C20.594 63.161 20.693 62.589 20.891 62.039C21.0963 61.489 21.375 61.0013 21.727 60.576C22.0863 60.1433 22.5007 59.8023 22.97 59.553C23.4393 59.3037 23.949 59.179 24.499 59.179C25.049 59.179 25.4377 59.2963 25.665 59.531C25.8997 59.7583 26.017 60.0737 26.017 60.477C26.017 60.6457 25.9913 60.807 25.94 60.961C25.8887 61.115 25.808 61.2397 25.698 61.335C25.5953 61.4303 25.4633 61.478 25.302 61.478C25.192 61.478 25.1113 61.4523 25.06 61.401C25.0087 61.3497 24.9757 61.28 24.961 61.192C24.9463 61.104 24.939 61.0087 24.939 60.906C24.939 60.818 24.9243 60.7373 24.895 60.664C24.873 60.5907 24.818 60.5357 24.73 60.499C24.6493 60.455 24.521 60.433 24.345 60.433C23.971 60.433 23.6263 60.5283 23.311 60.719C23.003 60.9023 22.7353 61.1517 22.508 61.467C22.288 61.7823 22.1157 62.138 21.991 62.534C21.8737 62.93 21.815 63.3407 21.815 63.766C21.815 64.4627 21.9837 65.0017 22.321 65.383C22.6583 65.757 23.1167 65.944 23.696 65.944C24.0113 65.944 24.268 65.911 24.466 65.845C24.664 65.779 24.8253 65.6947 24.95 65.592C25.0747 65.4893 25.181 65.3903 25.269 65.295C25.357 65.1923 25.4413 65.108 25.522 65.042C25.6027 64.9687 25.7017 64.932 25.819 64.932C25.9657 64.932 26.072 64.976 26.138 65.064C26.2113 65.152 26.248 65.2693 26.248 65.416C26.248 65.5773 26.1893 65.757 26.072 65.955C25.962 66.153 25.797 66.34 25.577 66.516C25.3643 66.692 25.0967 66.835 24.774 66.945C24.4513 67.055 24.0773 67.11 23.652 67.11ZM30.518 67.077C29.9973 67.077 29.539 66.9963 29.143 66.835C28.747 66.6663 28.4133 66.4317 28.142 66.131C27.878 65.8303 27.6763 65.4783 27.537 65.075C27.3976 64.6717 27.328 64.239 27.328 63.777C27.328 63.469 27.3573 63.15 27.416 62.82C27.482 62.49 27.5663 62.1673 27.669 61.852C27.779 61.5293 27.9 61.225 28.032 60.939C28.1493 60.6897 28.2886 60.4843 28.45 60.323C28.6186 60.1543 28.813 60.07 29.033 60.07C29.143 60.07 29.2346 60.092 29.308 60.136C29.3886 60.1727 29.44 60.2313 29.462 60.312C29.484 60.3927 29.4693 60.5027 29.418 60.642C29.2786 60.8987 29.143 61.1957 29.011 61.533C28.879 61.8703 28.769 62.2297 28.681 62.611C28.6003 62.985 28.56 63.3737 28.56 63.777C28.56 64.195 28.637 64.5653 28.791 64.888C28.9523 65.2033 29.1796 65.449 29.473 65.625C29.7663 65.801 30.1073 65.889 30.496 65.889C30.848 65.889 31.145 65.8707 31.387 65.834C31.6363 65.79 31.838 65.7387 31.992 65.68C32.146 65.6213 32.2743 65.57 32.377 65.526C32.487 65.482 32.586 65.46 32.674 65.46C32.8206 65.46 32.927 65.5003 32.993 65.581C33.0663 65.6617 33.103 65.7753 33.103 65.922C33.103 66.1273 33.004 66.318 32.806 66.494C32.6153 66.67 32.3293 66.813 31.948 66.923C31.5666 67.0257 31.09 67.077 30.518 67.077ZM28.494 64.085C28.3326 64.1217 28.2043 64.118 28.109 64.074C28.021 64.0227 27.955 63.9457 27.911 63.843C27.8743 63.7403 27.856 63.634 27.856 63.524C27.856 63.37 27.922 63.2343 28.054 63.117C28.186 62.9997 28.362 62.9227 28.582 62.886C28.802 62.842 29.0366 62.8017 29.286 62.765C29.5426 62.7283 29.803 62.6953 30.067 62.666C30.3383 62.6293 30.606 62.6 30.87 62.578C31.134 62.556 31.3906 62.545 31.64 62.545C31.8966 62.545 32.0726 62.5853 32.168 62.666C32.2706 62.7467 32.322 62.8567 32.322 62.996C32.322 63.2233 32.2303 63.392 32.047 63.502C31.871 63.612 31.6583 63.678 31.409 63.7C31.123 63.7147 30.8443 63.7367 30.573 63.766C30.3016 63.7953 30.0376 63.8283 29.781 63.865C29.5316 63.8943 29.297 63.931 29.077 63.975C28.8643 64.0117 28.67 64.0483 28.494 64.085ZM28.175 60.708C27.9183 60.708 27.7203 60.653 27.581 60.543C27.4416 60.4257 27.372 60.2827 27.372 60.114C27.372 60.026 27.4013 59.9343 27.46 59.839C27.5186 59.7437 27.6286 59.6777 27.79 59.641C28.2593 59.5383 28.769 59.454 29.319 59.388C29.869 59.322 30.4043 59.2743 30.925 59.245C31.4456 59.2083 31.893 59.19 32.267 59.19C32.5676 59.19 32.7803 59.245 32.905 59.355C33.037 59.4577 33.103 59.597 33.103 59.773C33.103 59.9417 33.0516 60.081 32.949 60.191C32.8536 60.301 32.6996 60.356 32.487 60.356C31.9003 60.356 31.3796 60.3743 30.925 60.411C30.4703 60.4477 30.0706 60.488 29.726 60.532C29.3813 60.576 29.0806 60.6163 28.824 60.653C28.5746 60.6897 28.3583 60.708 28.175 60.708ZM34.5781 67.11C34.4608 67.11 34.3581 67.0733 34.2701 67C34.1894 66.934 34.1308 66.835 34.0941 66.703C34.0574 66.571 34.0538 66.4207 34.0831 66.252C34.1198 66.0833 34.2004 65.9 34.3251 65.702C34.5378 65.372 34.7724 65.0237 35.0291 64.657C35.2931 64.283 35.5681 63.9017 35.8541 63.513C36.1474 63.1243 36.4408 62.743 36.7341 62.369C37.0348 61.9877 37.3318 61.6247 37.6251 61.28C37.9184 60.928 38.1971 60.609 38.4611 60.323C38.7324 60.037 38.9744 59.7913 39.1871 59.586C39.3411 59.432 39.4621 59.333 39.5501 59.289C39.6454 59.2377 39.7444 59.212 39.8471 59.212C39.9571 59.212 40.0598 59.2523 40.1551 59.333C40.2504 59.4063 40.3164 59.509 40.3531 59.641C40.3898 59.773 40.3861 59.9197 40.3421 60.081C40.2981 60.235 40.1918 60.3963 40.0231 60.565C39.6931 60.8803 39.3264 61.2617 38.9231 61.709C38.5198 62.1563 38.1018 62.644 37.6691 63.172C37.2438 63.7 36.8221 64.2537 36.4041 64.833C35.9861 65.4123 35.6011 65.9953 35.2491 66.582C35.1318 66.7873 35.0254 66.9267 34.9301 67C34.8348 67.0733 34.7174 67.11 34.5781 67.11ZM39.7371 67.088C39.6051 67.088 39.4768 67.044 39.3521 66.956C39.2274 66.8607 39.0844 66.6737 38.9231 66.395C38.7471 66.065 38.5014 65.7167 38.1861 65.35C37.8708 64.976 37.5261 64.591 37.1521 64.195C36.7854 63.7917 36.4188 63.3883 36.0521 62.985C35.6928 62.5817 35.3701 62.1893 35.0841 61.808C34.7981 61.4193 34.5854 61.049 34.4461 60.697C34.2481 60.1617 34.1858 59.7767 34.2591 59.542C34.3398 59.3073 34.5194 59.19 34.7981 59.19C34.9668 59.1827 35.1098 59.2267 35.2271 59.322C35.3444 59.4173 35.4434 59.5787 35.5241 59.806C35.6928 60.268 35.9238 60.719 36.2171 61.159C36.5178 61.599 36.8478 62.0243 37.2071 62.435C37.5664 62.8383 37.9221 63.227 38.2741 63.601C38.6334 63.975 38.9598 64.327 39.2531 64.657C39.5538 64.987 39.7884 65.2987 39.9571 65.592C40.1624 65.922 40.2688 66.2007 40.2761 66.428C40.2908 66.6553 40.2468 66.824 40.1441 66.934C40.0414 67.0367 39.9058 67.088 39.7371 67.088ZM42.721 67.11C42.347 67.11 42.039 67.0623 41.797 66.967C41.555 66.8717 41.3753 66.7507 41.258 66.604C41.148 66.4573 41.093 66.2997 41.093 66.131C41.093 66.0063 41.1297 65.9037 41.203 65.823C41.2837 65.7423 41.3973 65.702 41.544 65.702C41.6247 65.702 41.6943 65.7167 41.753 65.746C41.819 65.7753 41.8887 65.8083 41.962 65.845C42.0427 65.8817 42.138 65.9147 42.248 65.944C42.3653 65.9733 42.5157 65.988 42.699 65.988C43.1537 65.988 43.5387 65.9367 43.854 65.834C44.1767 65.724 44.4003 65.5553 44.525 65.328C44.4663 65.1813 44.349 65.0677 44.173 64.987C43.997 64.9063 43.788 64.8367 43.546 64.778C43.304 64.7193 43.051 64.657 42.787 64.591C42.5303 64.5177 42.2883 64.4297 42.061 64.327C41.841 64.217 41.6613 64.074 41.522 63.898C41.3827 63.722 41.313 63.4947 41.313 63.216C41.313 62.93 41.3973 62.6733 41.566 62.446C41.7347 62.2187 41.9583 62.028 42.237 61.874C42.5157 61.72 42.8237 61.6027 43.161 61.522C43.4983 61.4413 43.8357 61.4047 44.173 61.412C44.4003 61.412 44.591 61.4487 44.745 61.522C44.899 61.5953 45.0127 61.6907 45.086 61.808C45.1667 61.9253 45.207 62.0463 45.207 62.171C45.207 62.303 45.1703 62.4093 45.097 62.49C45.031 62.5707 44.9283 62.611 44.789 62.611C44.723 62.611 44.6607 62.6073 44.602 62.6C44.5507 62.5927 44.492 62.589 44.426 62.589C44.36 62.5817 44.272 62.578 44.162 62.578C43.7513 62.578 43.3957 62.6367 43.095 62.754C42.7943 62.864 42.5707 63.0327 42.424 63.26C42.468 63.392 42.578 63.4983 42.754 63.579C42.93 63.6597 43.139 63.7293 43.381 63.788C43.6303 63.8467 43.887 63.909 44.151 63.975C44.4223 64.041 44.6717 64.129 44.899 64.239C45.1337 64.3417 45.3243 64.481 45.471 64.657C45.6177 64.833 45.691 65.0567 45.691 65.328C45.691 65.7387 45.5553 66.076 45.284 66.34C45.0127 66.604 44.6533 66.7983 44.206 66.923C43.7587 67.0477 43.2637 67.11 42.721 67.11ZM52.3642 67.121C52.2029 67.121 52.0416 67.0953 51.8802 67.044C51.7189 67 51.5686 66.912 51.4292 66.78C51.2899 66.6407 51.1652 66.439 51.0552 66.175C50.9452 65.911 50.8572 65.5627 50.7912 65.13C50.7326 64.6973 50.7032 64.1583 50.7032 63.513C50.7032 62.919 50.7142 62.3873 50.7362 61.918C50.7656 61.4413 50.8059 60.9977 50.8572 60.587C50.9086 60.1763 50.9672 59.773 51.0332 59.377C51.0772 59.1057 51.1432 58.915 51.2312 58.805C51.3266 58.695 51.4476 58.64 51.5942 58.64C51.7922 58.64 51.9462 58.717 52.0562 58.871C52.1662 59.025 52.2212 59.2743 52.2212 59.619C52.2212 59.8317 52.2066 60.0627 52.1772 60.312C52.1479 60.554 52.1149 60.8327 52.0782 61.148C52.0416 61.456 52.0086 61.8227 51.9792 62.248C51.9499 62.666 51.9352 63.161 51.9352 63.733C51.9352 64.1803 51.9499 64.5507 51.9792 64.844C52.0086 65.13 52.0452 65.3537 52.0892 65.515C52.1406 65.6763 52.1992 65.79 52.2652 65.856C52.3386 65.922 52.4119 65.955 52.4852 65.955C52.5732 65.955 52.6429 65.9477 52.6942 65.933C52.7529 65.911 52.8006 65.8927 52.8372 65.878C52.8739 65.8633 52.9142 65.856 52.9582 65.856C53.1196 65.856 53.2259 65.9 53.2772 65.988C53.3359 66.076 53.3652 66.186 53.3652 66.318C53.3652 66.4793 53.3176 66.6223 53.2222 66.747C53.1342 66.8643 53.0132 66.956 52.8592 67.022C52.7126 67.088 52.5476 67.121 52.3642 67.121ZM55.0273 67.121C54.8659 67.121 54.7376 67.0843 54.6423 67.011C54.5469 66.9377 54.4736 66.835 54.4223 66.703C54.3783 66.5637 54.3563 66.4023 54.3563 66.219C54.3563 65.6763 54.3526 65.218 54.3453 64.844C54.3453 64.4627 54.3416 64.1327 54.3343 63.854C54.3343 63.5753 54.3306 63.315 54.3233 63.073C54.3233 62.831 54.3233 62.5743 54.3233 62.303C54.3233 62.1417 54.3489 61.9987 54.4003 61.874C54.4516 61.742 54.5286 61.6393 54.6313 61.566C54.7413 61.4927 54.8806 61.456 55.0493 61.456C55.2473 61.456 55.4049 61.522 55.5223 61.654C55.6396 61.7787 55.7019 61.973 55.7093 62.237C55.7093 62.391 55.7056 62.611 55.6983 62.897C55.6983 63.183 55.6909 63.4983 55.6763 63.843C55.6689 64.1803 55.6579 64.525 55.6433 64.877C55.6359 65.2217 55.6286 65.537 55.6213 65.823C55.6139 66.109 55.6103 66.34 55.6103 66.516C55.6103 66.6847 55.5626 66.8277 55.4673 66.945C55.3719 67.0623 55.2253 67.121 55.0273 67.121ZM55.1263 60.587C54.8256 60.587 54.5763 60.5027 54.3783 60.334C54.1803 60.158 54.0813 59.949 54.0813 59.707C54.0813 59.4723 54.1619 59.2853 54.3233 59.146C54.4846 59.0067 54.6899 58.937 54.9393 58.937C55.1446 58.937 55.3206 58.9847 55.4673 59.08C55.6139 59.1753 55.7239 59.2963 55.7973 59.443C55.8779 59.5897 55.9183 59.7363 55.9183 59.883C55.9183 60.0517 55.8559 60.213 55.7313 60.367C55.6139 60.5137 55.4123 60.587 55.1263 60.587ZM58.5351 67.11C58.1611 67.11 57.8531 67.0623 57.6111 66.967C57.3691 66.8717 57.1894 66.7507 57.0721 66.604C56.9621 66.4573 56.9071 66.2997 56.9071 66.131C56.9071 66.0063 56.9437 65.9037 57.0171 65.823C57.0977 65.7423 57.2114 65.702 57.3581 65.702C57.4387 65.702 57.5084 65.7167 57.5671 65.746C57.6331 65.7753 57.7027 65.8083 57.7761 65.845C57.8567 65.8817 57.9521 65.9147 58.0621 65.944C58.1794 65.9733 58.3297 65.988 58.5131 65.988C58.9677 65.988 59.3527 65.9367 59.6681 65.834C59.9907 65.724 60.2144 65.5553 60.3391 65.328C60.2804 65.1813 60.1631 65.0677 59.9871 64.987C59.8111 64.9063 59.6021 64.8367 59.3601 64.778C59.1181 64.7193 58.8651 64.657 58.6011 64.591C58.3444 64.5177 58.1024 64.4297 57.8751 64.327C57.6551 64.217 57.4754 64.074 57.3361 63.898C57.1967 63.722 57.1271 63.4947 57.1271 63.216C57.1271 62.93 57.2114 62.6733 57.3801 62.446C57.5487 62.2187 57.7724 62.028 58.0511 61.874C58.3297 61.72 58.6377 61.6027 58.9751 61.522C59.3124 61.4413 59.6497 61.4047 59.9871 61.412C60.3317 61.4193 60.5884 61.5 60.7571 61.654C60.9331 61.808 61.0211 61.9803 61.0211 62.171C61.0211 62.303 60.9844 62.4093 60.9111 62.49C60.8451 62.5707 60.7424 62.611 60.6031 62.611C60.5371 62.611 60.4747 62.6073 60.4161 62.6C60.3647 62.5927 60.3061 62.589 60.2401 62.589C60.1741 62.5817 60.0861 62.578 59.9761 62.578C59.5654 62.578 59.2097 62.6367 58.9091 62.754C58.6084 62.864 58.3847 63.0327 58.2381 63.26C58.2821 63.392 58.3921 63.4983 58.5681 63.579C58.7441 63.6597 58.9531 63.7293 59.1951 63.788C59.4444 63.8467 59.7011 63.909 59.9651 63.975C60.2364 64.041 60.4857 64.129 60.7131 64.239C60.9477 64.3417 61.1384 64.481 61.2851 64.657C61.4317 64.833 61.5051 65.0567 61.5051 65.328C61.5051 65.7387 61.3694 66.076 61.0981 66.34C60.8267 66.604 60.4674 66.7983 60.0201 66.923C59.5727 67.0477 59.0777 67.11 58.5351 67.11ZM65.0326 67.143C64.446 67.143 63.973 67.0073 63.6136 66.736C63.2543 66.4573 62.994 66.0723 62.8326 65.581C62.6786 65.0823 62.6016 64.5067 62.6016 63.854C62.6016 63.4653 62.62 63.1207 62.6566 62.82C62.7006 62.512 62.7446 62.2187 62.7886 61.94C62.84 61.6613 62.8766 61.3753 62.8986 61.082C62.9206 60.7447 62.9316 60.4733 62.9316 60.268C62.9316 60.0627 62.939 59.8683 62.9536 59.685C62.961 59.553 63.0013 59.4393 63.0746 59.344C63.1553 59.2413 63.2873 59.19 63.4706 59.19C63.7346 59.19 63.9216 59.3257 64.0316 59.597C64.1416 59.8683 64.1746 60.2937 64.1306 60.873C64.1013 61.137 64.0683 61.3827 64.0316 61.61C63.995 61.83 63.9583 62.05 63.9216 62.27C63.8923 62.4827 63.8666 62.7137 63.8446 62.963C63.8226 63.205 63.8116 63.4837 63.8116 63.799C63.8116 64.3343 63.8593 64.7597 63.9546 65.075C64.0573 65.3903 64.204 65.6177 64.3946 65.757C64.5926 65.889 64.8383 65.955 65.1316 65.955C65.3076 65.955 65.4433 65.9367 65.5386 65.9C65.6413 65.8633 65.7293 65.8303 65.8026 65.801C65.876 65.7643 65.9603 65.746 66.0556 65.746C66.1876 65.746 66.2866 65.7863 66.3526 65.867C66.4186 65.9477 66.4516 66.0613 66.4516 66.208C66.4516 66.4573 66.3343 66.6773 66.0996 66.868C65.8723 67.0513 65.5166 67.143 65.0326 67.143ZM63.7566 63.007C63.522 63.1097 63.3423 63.1133 63.2176 63.018C63.093 62.9227 63.0306 62.787 63.0306 62.611C63.0306 62.435 63.0673 62.281 63.1406 62.149C63.2213 62.0097 63.4156 61.885 63.7236 61.775C64.0023 61.665 64.3103 61.5807 64.6476 61.522C64.9923 61.456 65.315 61.423 65.6156 61.423C65.9016 61.423 66.107 61.4817 66.2316 61.599C66.3636 61.709 66.4296 61.8593 66.4296 62.05C66.4296 62.1893 66.3856 62.2957 66.2976 62.369C66.217 62.4423 66.096 62.4863 65.9346 62.501C65.6193 62.523 65.337 62.556 65.0876 62.6C64.8456 62.644 64.6183 62.699 64.4056 62.765C64.2003 62.831 63.984 62.9117 63.7566 63.007ZM68.3326 67.121C68.1713 67.121 68.043 67.0843 67.9476 67.011C67.8523 66.9377 67.779 66.835 67.7276 66.703C67.6836 66.5637 67.6616 66.4023 67.6616 66.219C67.6616 65.6763 67.658 65.218 67.6506 64.844C67.6506 64.4627 67.647 64.1327 67.6396 63.854C67.6396 63.5753 67.636 63.315 67.6286 63.073C67.6286 62.831 67.6286 62.5743 67.6286 62.303C67.6286 62.1417 67.6543 61.9987 67.7056 61.874C67.757 61.742 67.834 61.6393 67.9366 61.566C68.0466 61.4927 68.186 61.456 68.3546 61.456C68.5526 61.456 68.7103 61.522 68.8276 61.654C68.945 61.7787 69.0073 61.973 69.0146 62.237C69.0146 62.391 69.011 62.611 69.0036 62.897C69.0036 63.183 68.9963 63.4983 68.9816 63.843C68.9743 64.1803 68.9633 64.525 68.9486 64.877C68.9413 65.2217 68.934 65.537 68.9266 65.823C68.9193 66.109 68.9156 66.34 68.9156 66.516C68.9156 66.6847 68.868 66.8277 68.7726 66.945C68.6773 67.0623 68.5306 67.121 68.3326 67.121ZM68.4316 60.587C68.131 60.587 67.8816 60.5027 67.6836 60.334C67.4856 60.158 67.3866 59.949 67.3866 59.707C67.3866 59.4723 67.4673 59.2853 67.6286 59.146C67.79 59.0067 67.9953 58.937 68.2446 58.937C68.45 58.937 68.626 58.9847 68.7726 59.08C68.9193 59.1753 69.0293 59.2963 69.1026 59.443C69.1833 59.5897 69.2236 59.7363 69.2236 59.883C69.2236 60.0517 69.1613 60.213 69.0366 60.367C68.9193 60.5137 68.7176 60.587 68.4316 60.587ZM75.7776 67.099C75.5283 67.099 75.3083 66.9927 75.1176 66.78C74.9343 66.56 74.7913 66.219 74.6886 65.757C74.586 65.2877 74.5346 64.679 74.5346 63.931C74.5346 63.6377 74.5273 63.403 74.5126 63.227C74.5053 63.0437 74.4833 62.897 74.4466 62.787C74.4173 62.677 74.3733 62.589 74.3146 62.523C74.2633 62.4497 74.1936 62.3763 74.1056 62.303C74.267 62.2957 74.4026 62.314 74.5126 62.358C74.6226 62.3947 74.707 62.4643 74.7656 62.567C74.8243 62.6623 74.85 62.8053 74.8426 62.996C74.7326 62.8347 74.641 62.7283 74.5676 62.677C74.4943 62.6257 74.4063 62.6 74.3036 62.6C74.157 62.6 73.9883 62.688 73.7976 62.864C73.6143 63.04 73.42 63.293 73.2146 63.623C73.0166 63.9457 72.8223 64.3343 72.6316 64.789C72.441 65.2363 72.2686 65.7277 72.1146 66.263C72.034 66.5783 71.9423 66.7983 71.8396 66.923C71.737 67.0403 71.5976 67.099 71.4216 67.099C71.121 67.099 70.8973 66.934 70.7506 66.604C70.604 66.274 70.5306 65.8523 70.5306 65.339C70.5306 64.9723 70.5453 64.6533 70.5746 64.382C70.6113 64.1033 70.648 63.8467 70.6846 63.612C70.7286 63.37 70.7653 63.1243 70.7946 62.875C70.8313 62.6183 70.8496 62.3287 70.8496 62.006C70.8496 61.83 70.89 61.698 70.9706 61.61C71.0586 61.5147 71.187 61.467 71.3556 61.467C71.5463 61.467 71.693 61.533 71.7956 61.665C71.9056 61.797 71.9606 62.0133 71.9606 62.314C71.9606 62.5413 71.9423 62.7613 71.9056 62.974C71.869 63.1793 71.8286 63.403 71.7846 63.645C71.748 63.8797 71.715 64.1583 71.6856 64.481C71.6563 64.8037 71.649 65.1923 71.6636 65.647L71.3996 65.449C71.649 64.569 71.9386 63.832 72.2686 63.238C72.5986 62.6367 72.947 62.1857 73.3136 61.885C73.6803 61.577 74.0396 61.423 74.3916 61.423C74.8243 61.423 75.1433 61.577 75.3486 61.885C75.5613 62.1857 75.6676 62.5963 75.6676 63.117C75.6676 63.667 75.675 64.14 75.6896 64.536C75.7043 64.9247 75.7446 65.2437 75.8106 65.493C75.884 65.7423 75.994 65.933 76.1406 66.065C76.2286 66.1383 76.291 66.2153 76.3276 66.296C76.3643 66.3767 76.3826 66.4757 76.3826 66.593C76.3826 66.725 76.3313 66.8423 76.2286 66.945C76.1333 67.0477 75.983 67.099 75.7776 67.099ZM80.9097 69.86C80.3303 69.86 79.8427 69.7977 79.4467 69.673C79.058 69.5557 78.7537 69.4017 78.5337 69.211C78.3137 69.0203 78.1523 68.815 78.0497 68.595C77.9543 68.375 77.9067 68.1697 77.9067 67.979C77.9067 67.759 77.969 67.5683 78.0937 67.407C78.2183 67.253 78.376 67.176 78.5667 67.176C78.706 67.176 78.805 67.209 78.8637 67.275C78.9297 67.341 78.9627 67.4363 78.9627 67.561C78.9627 67.781 79.0323 67.9753 79.1717 68.144C79.3183 68.32 79.531 68.4557 79.8097 68.551C80.0883 68.6537 80.422 68.705 80.8107 68.705C81.2213 68.705 81.5 68.5913 81.6467 68.364C81.8007 68.1367 81.8777 67.8103 81.8777 67.385C81.8777 67.0257 81.8557 66.6993 81.8117 66.406C81.7677 66.1127 81.709 65.834 81.6357 65.57C81.5697 65.2987 81.5037 65.031 81.4377 64.767C81.379 64.4957 81.3313 64.206 81.2947 63.898L81.7897 64.008C81.7163 64.404 81.5953 64.7413 81.4267 65.02C81.2653 65.2987 81.071 65.5297 80.8437 65.713C80.6163 65.889 80.3707 66.0173 80.1067 66.098C79.8427 66.1787 79.5713 66.219 79.2927 66.219C78.86 66.219 78.4823 66.142 78.1597 65.988C77.8443 65.8267 77.5987 65.5957 77.4227 65.295C77.254 64.987 77.1697 64.613 77.1697 64.173C77.1697 63.799 77.243 63.447 77.3897 63.117C77.5363 62.7797 77.7343 62.4827 77.9837 62.226C78.2403 61.9693 78.53 61.7713 78.8527 61.632C79.1827 61.4853 79.5273 61.412 79.8867 61.412C80.268 61.412 80.5687 61.4743 80.7887 61.599C81.0087 61.7163 81.1663 61.8703 81.2617 62.061C81.3643 62.2443 81.4157 62.4387 81.4157 62.644C81.4157 62.7687 81.3827 62.8823 81.3167 62.985C81.2507 63.0877 81.1737 63.139 81.0857 63.139C80.983 63.139 80.9023 63.1097 80.8437 63.051C80.7923 62.9923 80.7373 62.9263 80.6787 62.853C80.62 62.7797 80.543 62.7137 80.4477 62.655C80.3597 62.5963 80.2313 62.567 80.0627 62.567C79.85 62.567 79.641 62.611 79.4357 62.699C79.2303 62.787 79.047 62.908 78.8857 63.062C78.7317 63.2087 78.607 63.3773 78.5117 63.568C78.4163 63.7587 78.3687 63.9493 78.3687 64.14C78.3687 64.426 78.442 64.646 78.5887 64.8C78.7427 64.954 78.9773 65.031 79.2927 65.031C79.6447 65.031 79.9637 64.943 80.2497 64.767C80.5357 64.591 80.763 64.3123 80.9317 63.931C81.1003 63.5423 81.1847 63.04 81.1847 62.424C81.1847 62.2407 81.214 62.105 81.2727 62.017C81.3313 61.929 81.4413 61.885 81.6027 61.885C81.8593 61.885 82.05 61.973 82.1747 62.149C82.3067 62.325 82.38 62.5193 82.3947 62.732C82.4313 63.1793 82.4863 63.5827 82.5597 63.942C82.6403 64.294 82.721 64.6423 82.8017 64.987C82.8823 65.3243 82.9483 65.6947 82.9997 66.098C83.0583 66.494 83.0877 66.9597 83.0877 67.495C83.0877 68.2283 82.897 68.804 82.5157 69.222C82.1343 69.6473 81.599 69.86 80.9097 69.86ZM85.6449 67.11C85.2709 67.11 84.9629 67.0623 84.7209 66.967C84.4789 66.8717 84.2992 66.7507 84.1819 66.604C84.0719 66.4573 84.0169 66.2997 84.0169 66.131C84.0169 66.0063 84.0536 65.9037 84.1269 65.823C84.2076 65.7423 84.3212 65.702 84.4679 65.702C84.5486 65.702 84.6182 65.7167 84.6769 65.746C84.7429 65.7753 84.8126 65.8083 84.8859 65.845C84.9666 65.8817 85.0619 65.9147 85.1719 65.944C85.2892 65.9733 85.4396 65.988 85.6229 65.988C86.0776 65.988 86.4626 65.9367 86.7779 65.834C87.1006 65.724 87.3242 65.5553 87.4489 65.328C87.3902 65.1813 87.2729 65.0677 87.0969 64.987C86.9209 64.9063 86.7119 64.8367 86.4699 64.778C86.2279 64.7193 85.9749 64.657 85.7109 64.591C85.4542 64.5177 85.2122 64.4297 84.9849 64.327C84.7649 64.217 84.5852 64.074 84.4459 63.898C84.3066 63.722 84.2369 63.4947 84.2369 63.216C84.2369 62.93 84.3212 62.6733 84.4899 62.446C84.6586 62.2187 84.8822 62.028 85.1609 61.874C85.4396 61.72 85.7476 61.6027 86.0849 61.522C86.4222 61.4413 86.7596 61.4047 87.0969 61.412C87.3242 61.412 87.5149 61.4487 87.6689 61.522C87.8229 61.5953 87.9366 61.6907 88.0099 61.808C88.0906 61.9253 88.1309 62.0463 88.1309 62.171C88.1309 62.303 88.0942 62.4093 88.0209 62.49C87.9549 62.5707 87.8522 62.611 87.7129 62.611C87.6469 62.611 87.5846 62.6073 87.5259 62.6C87.4746 62.5927 87.4159 62.589 87.3499 62.589C87.2839 62.5817 87.1959 62.578 87.0859 62.578C86.6752 62.578 86.3196 62.6367 86.0189 62.754C85.7182 62.864 85.4946 63.0327 85.3479 63.26C85.3919 63.392 85.5019 63.4983 85.6779 63.579C85.8539 63.6597 86.0629 63.7293 86.3049 63.788C86.5542 63.8467 86.8109 63.909 87.0749 63.975C87.3462 64.041 87.5956 64.129 87.8229 64.239C88.0576 64.3417 88.2482 64.481 88.3949 64.657C88.5416 64.833 88.6149 65.0567 88.6149 65.328C88.6149 65.636 88.5342 65.9037 88.3729 66.131C88.2189 66.3583 88.0026 66.5453 87.7239 66.692C87.4526 66.8313 87.1372 66.934 86.7779 67C86.4259 67.0733 86.0482 67.11 85.6449 67.11ZM28.03 82.132C27.898 82.132 27.7697 82.11 27.645 82.066C27.5203 82.0293 27.3957 81.956 27.271 81.846C27.1537 81.7287 27.0217 81.56 26.875 81.34C26.7357 81.1347 26.6147 80.8853 26.512 80.592C26.4167 80.2987 26.3287 79.9833 26.248 79.646C26.1747 79.3087 26.1013 78.964 26.028 78.612C25.962 78.26 25.8887 77.9227 25.808 77.6C25.7347 77.27 25.6467 76.9693 25.544 76.698C25.4487 76.4267 25.3313 76.2067 25.192 76.038L25.577 76.148C25.335 76.412 25.115 76.742 24.917 77.138C24.7263 77.5267 24.554 77.9593 24.4 78.436C24.246 78.9127 24.1103 79.4113 23.993 79.932C23.883 80.4453 23.7803 80.955 23.685 81.461C23.6483 81.6663 23.5677 81.824 23.443 81.934C23.3257 82.0367 23.1717 82.088 22.981 82.088C22.8857 82.088 22.7867 82.0697 22.684 82.033C22.5887 81.9963 22.4897 81.923 22.387 81.813C22.2843 81.6957 22.1817 81.527 22.079 81.307C21.9323 80.999 21.7893 80.647 21.65 80.251C21.518 79.8477 21.3897 79.4223 21.265 78.975C21.1477 78.5203 21.0413 78.0547 20.946 77.578C20.8507 77.1013 20.7663 76.632 20.693 76.17C20.627 75.7007 20.5793 75.2607 20.55 74.85C20.5353 74.6667 20.572 74.509 20.66 74.377C20.748 74.2377 20.9057 74.168 21.133 74.168C21.3897 74.168 21.573 74.2597 21.683 74.443C21.793 74.619 21.859 74.8573 21.881 75.158C21.903 75.51 21.947 75.8987 22.013 76.324C22.079 76.742 22.1597 77.1783 22.255 77.633C22.3577 78.0803 22.475 78.5313 22.607 78.986C22.739 79.4407 22.8857 79.877 23.047 80.295L22.783 80.35C22.9077 79.668 23.047 79.0263 23.201 78.425C23.3623 77.8237 23.542 77.281 23.74 76.797C23.9453 76.3057 24.169 75.895 24.411 75.565C24.5797 75.345 24.7557 75.1653 24.939 75.026C25.1223 74.8867 25.335 74.817 25.577 74.817C25.8117 74.817 26.017 74.9233 26.193 75.136C26.369 75.3413 26.545 75.7043 26.721 76.225C26.8163 76.5257 26.897 76.8667 26.963 77.248C27.029 77.6293 27.0987 78.0217 27.172 78.425C27.2453 78.821 27.337 79.2023 27.447 79.569C27.5643 79.9283 27.7257 80.2437 27.931 80.515L27.601 80.548C27.7257 80.2547 27.832 79.9137 27.92 79.525C28.0153 79.1363 28.096 78.7257 28.162 78.293C28.2353 77.853 28.305 77.4203 28.371 76.995C28.4443 76.5623 28.5177 76.1553 28.591 75.774C28.6717 75.3927 28.767 75.0663 28.877 74.795C28.9797 74.553 29.086 74.388 29.196 74.3C29.306 74.212 29.4453 74.168 29.614 74.168C29.8047 74.168 29.944 74.223 30.032 74.333C30.12 74.443 30.164 74.597 30.164 74.795C30.164 74.9857 30.1237 75.202 30.043 75.444C29.9403 75.7593 29.845 76.1187 29.757 76.522C29.6763 76.9253 29.5993 77.3543 29.526 77.809C29.4527 78.2563 29.3757 78.7037 29.295 79.151C29.2143 79.5983 29.1227 80.0273 29.02 80.438C28.9247 80.8487 28.811 81.2153 28.679 81.538C28.5837 81.7653 28.481 81.9193 28.371 82C28.261 82.088 28.1473 82.132 28.03 82.132ZM33.344 82.11C32.9114 82.11 32.5374 82.0513 32.222 81.934C31.9067 81.8167 31.6464 81.648 31.441 81.428C31.2357 81.208 31.0817 80.9513 30.979 80.658C30.8837 80.3647 30.836 80.042 30.836 79.69C30.836 79.3087 30.9057 78.9273 31.045 78.546C31.1917 78.1573 31.397 77.8053 31.661 77.49C31.925 77.1673 32.2404 76.9107 32.607 76.72C32.981 76.522 33.3954 76.423 33.85 76.423C34.224 76.423 34.5467 76.489 34.818 76.621C35.0967 76.7457 35.313 76.9363 35.467 77.193C35.621 77.4497 35.698 77.7723 35.698 78.161C35.698 78.4617 35.6284 78.7293 35.489 78.964C35.3497 79.1913 35.1517 79.382 34.895 79.536C34.6457 79.69 34.356 79.8073 34.026 79.888C33.696 79.9613 33.3367 79.998 32.948 79.998C32.5227 79.998 32.2147 79.9357 32.024 79.811C31.8407 79.679 31.749 79.5323 31.749 79.371C31.749 79.283 31.771 79.217 31.815 79.173C31.859 79.1217 31.936 79.096 32.046 79.096C32.1267 79.096 32.2257 79.1107 32.343 79.14C32.4604 79.162 32.6254 79.173 32.838 79.173C33.168 79.173 33.4614 79.1327 33.718 79.052C33.9747 78.964 34.18 78.8467 34.334 78.7C34.488 78.546 34.565 78.3737 34.565 78.183C34.565 77.963 34.51 77.798 34.4 77.688C34.29 77.578 34.1067 77.523 33.85 77.523C33.5787 77.523 33.333 77.589 33.113 77.721C32.893 77.8457 32.6987 78.018 32.53 78.238C32.3687 78.458 32.244 78.7073 32.156 78.986C32.068 79.2647 32.024 79.5543 32.024 79.855C32.024 80.0823 32.0644 80.2877 32.145 80.471C32.2257 80.6543 32.354 80.7973 32.53 80.9C32.7134 81.0027 32.959 81.054 33.267 81.054C33.6777 81.054 34.0187 81.01 34.29 80.922C34.5614 80.834 34.7887 80.735 34.972 80.625C35.1554 80.5077 35.3094 80.405 35.434 80.317C35.566 80.229 35.6907 80.185 35.808 80.185C35.918 80.185 35.995 80.2217 36.039 80.295C36.0904 80.361 36.116 80.4673 36.116 80.614C36.116 80.7753 36.0427 80.944 35.896 81.12C35.7567 81.296 35.5587 81.4573 35.302 81.604C35.0527 81.7507 34.7594 81.8717 34.422 81.967C34.092 82.0623 33.7327 82.11 33.344 82.11ZM38.7535 82.11C38.5775 82.11 38.4015 82.0953 38.2255 82.066C38.0495 82.0367 37.8881 81.989 37.7415 81.923C37.5948 81.857 37.4738 81.7727 37.3785 81.67C37.2905 81.56 37.2465 81.4243 37.2465 81.263C37.2465 81.109 37.2941 80.9953 37.3895 80.922C37.4921 80.8413 37.6205 80.801 37.7745 80.801C37.8918 80.801 38.0238 80.823 38.1705 80.867C38.3245 80.9037 38.4748 80.922 38.6215 80.922C38.9661 80.922 39.3035 80.8743 39.6335 80.779C39.9708 80.6837 40.2715 80.5443 40.5355 80.361C40.8068 80.1777 41.0195 79.9467 41.1735 79.668C41.3348 79.382 41.4155 79.052 41.4155 78.678C41.4155 78.4873 41.3935 78.315 41.3495 78.161C41.3055 77.9997 41.2248 77.8713 41.1075 77.776C40.9901 77.6807 40.8251 77.633 40.6125 77.633C40.2605 77.633 39.9525 77.7687 39.6885 78.04C39.4245 78.304 39.2008 78.6743 39.0175 79.151C38.8341 79.6277 38.6838 80.174 38.5665 80.79C38.5371 80.9293 38.4858 81.032 38.4125 81.098C38.3465 81.164 38.2658 81.197 38.1705 81.197C38.0385 81.197 37.9211 81.131 37.8185 80.999C37.7158 80.8597 37.6425 80.6727 37.5985 80.438C37.5251 80.0493 37.4628 79.657 37.4115 79.261C37.3675 78.865 37.3345 78.4983 37.3125 78.161C37.2905 77.8163 37.2795 77.5267 37.2795 77.292C37.2795 76.8887 37.2868 76.5403 37.3015 76.247C37.3235 75.9537 37.3455 75.6933 37.3675 75.466C37.3968 75.2387 37.4188 75.0297 37.4335 74.839C37.4481 74.641 37.4518 74.4357 37.4445 74.223C37.4371 74.069 37.4665 73.9333 37.5325 73.816C37.6058 73.6987 37.7268 73.64 37.8955 73.64C38.1155 73.64 38.2951 73.7207 38.4345 73.882C38.5738 74.036 38.6435 74.2743 38.6435 74.597C38.6435 74.7803 38.6325 74.9637 38.6105 75.147C38.5958 75.323 38.5775 75.5137 38.5555 75.719C38.5335 75.9243 38.5115 76.159 38.4895 76.423C38.4748 76.6797 38.4675 76.9803 38.4675 77.325C38.4675 77.6183 38.4711 77.919 38.4785 78.227C38.4931 78.5277 38.5151 78.8687 38.5445 79.25L38.2585 78.865C38.3831 78.3223 38.5701 77.8713 38.8195 77.512C39.0688 77.1527 39.3511 76.8813 39.6665 76.698C39.9891 76.5147 40.3081 76.423 40.6235 76.423C41.0048 76.423 41.3458 76.5073 41.6465 76.676C41.9545 76.8373 42.1965 77.0903 42.3725 77.435C42.5485 77.7797 42.6365 78.227 42.6365 78.777C42.6365 79.2903 42.5265 79.7523 42.3065 80.163C42.0938 80.5663 41.8041 80.9147 41.4375 81.208C41.0708 81.5013 40.6528 81.725 40.1835 81.879C39.7215 82.033 39.2448 82.11 38.7535 82.11ZM45.6592 82.132C45.1239 82.132 44.6876 82.0733 44.3502 81.956C44.0202 81.8387 43.7782 81.6883 43.6242 81.505C43.4776 81.3143 43.4042 81.12 43.4042 80.922C43.4042 80.7607 43.4409 80.6287 43.5142 80.526C43.5876 80.416 43.6976 80.361 43.8442 80.361C43.9469 80.361 44.0349 80.3903 44.1082 80.449C44.1816 80.5003 44.2659 80.5663 44.3612 80.647C44.4566 80.7203 44.5886 80.7863 44.7572 80.845C44.9259 80.9037 45.1569 80.933 45.4502 80.933C45.9709 80.933 46.4366 80.878 46.8472 80.768C47.2579 80.658 47.5842 80.504 47.8262 80.306C48.0682 80.1007 48.1892 79.8587 48.1892 79.58C48.1892 79.3307 48.0976 79.14 47.9142 79.008C47.7309 78.8687 47.4559 78.7697 47.0892 78.711C46.7226 78.6523 46.2642 78.623 45.7142 78.623C45.4869 78.623 45.3146 78.5497 45.1972 78.403C45.0799 78.2563 45.0212 78.095 45.0212 77.919C45.0212 77.809 45.0506 77.7173 45.1092 77.644C45.1679 77.5633 45.2669 77.5083 45.4062 77.479C45.8022 77.3837 46.1579 77.27 46.4732 77.138C46.7959 77.006 47.0489 76.8483 47.2322 76.665C47.4156 76.4817 47.5072 76.258 47.5072 75.994C47.5072 75.8107 47.4632 75.6713 47.3752 75.576C47.2946 75.4733 47.1846 75.4073 47.0452 75.378C46.9059 75.3413 46.7482 75.323 46.5722 75.323C46.1102 75.323 45.7326 75.3633 45.4392 75.444C45.1459 75.5247 44.9076 75.62 44.7242 75.73C44.5409 75.8327 44.3869 75.9243 44.2622 76.005C44.1449 76.0857 44.0202 76.126 43.8882 76.126C43.7929 76.126 43.7012 76.104 43.6132 76.06C43.5252 76.016 43.4519 75.9537 43.3932 75.873C43.3419 75.7923 43.3162 75.7007 43.3162 75.598C43.3162 75.466 43.4042 75.3193 43.5802 75.158C43.7562 74.9893 43.9909 74.8317 44.2842 74.685C44.5849 74.531 44.9259 74.4063 45.3072 74.311C45.6959 74.2157 46.1029 74.168 46.5282 74.168C47.0269 74.168 47.4376 74.2413 47.7602 74.388C48.0902 74.5347 48.3359 74.7437 48.4972 75.015C48.6586 75.279 48.7392 75.5907 48.7392 75.95C48.7392 76.1553 48.7026 76.3643 48.6292 76.577C48.5632 76.7823 48.4422 76.9803 48.2662 77.171C48.0976 77.3617 47.8592 77.534 47.5512 77.688C47.2506 77.8347 46.8656 77.9483 46.3962 78.029L46.3742 77.743C46.9316 77.743 47.4009 77.787 47.7822 77.875C48.1636 77.963 48.4716 78.0913 48.7062 78.26C48.9482 78.4213 49.1206 78.6193 49.2232 78.854C49.3332 79.0813 49.3882 79.338 49.3882 79.624C49.3882 80.02 49.2966 80.3757 49.1132 80.691C48.9299 80.999 48.6696 81.263 48.3322 81.483C48.0022 81.6957 47.6099 81.857 47.1552 81.967C46.7006 82.077 46.2019 82.132 45.6592 82.132ZM57.0991 82.099C56.2778 82.099 55.6581 81.857 55.2401 81.373C54.8221 80.889 54.6131 80.1777 54.6131 79.239C54.6131 78.6743 54.6571 78.1463 54.7451 77.655C54.8405 77.1637 54.9321 76.6907 55.0201 76.236C55.1155 75.7813 55.1631 75.334 55.1631 74.894C55.1631 74.674 55.1961 74.5017 55.2621 74.377C55.3355 74.2523 55.4748 74.19 55.6801 74.19C55.8415 74.19 55.9771 74.234 56.0871 74.322C56.1971 74.4027 56.2778 74.5163 56.3291 74.663C56.3805 74.8023 56.4061 74.96 56.4061 75.136C56.4061 75.51 56.3768 75.8803 56.3181 76.247C56.2595 76.6063 56.1898 76.962 56.1091 77.314C56.0358 77.666 55.9698 78.0107 55.9111 78.348C55.8525 78.6853 55.8231 79.019 55.8231 79.349C55.8231 79.833 55.9221 80.2143 56.1201 80.493C56.3255 80.7717 56.6665 80.911 57.1431 80.911C57.4878 80.911 57.7701 80.8817 57.9901 80.823C58.2175 80.7643 58.4045 80.702 58.5511 80.636C58.6978 80.5627 58.8261 80.5003 58.9361 80.449C59.0461 80.3903 59.1598 80.361 59.2771 80.361C59.4018 80.361 59.5008 80.4087 59.5741 80.504C59.6548 80.592 59.6951 80.702 59.6951 80.834C59.6951 80.9733 59.6621 81.109 59.5961 81.241C59.5301 81.373 59.4311 81.4867 59.2991 81.582C58.9985 81.758 58.6575 81.89 58.2761 81.978C57.8948 82.0587 57.5025 82.099 57.0991 82.099ZM62.9111 82.11C62.4344 82.11 62.0201 82.011 61.6681 81.813C61.3234 81.615 61.0374 81.3547 60.8101 81.032C60.5901 80.702 60.4251 80.3353 60.3151 79.932C60.2051 79.5287 60.1501 79.1253 60.1501 78.722C60.1501 78.37 60.1758 78.0473 60.2271 77.754C60.2858 77.4533 60.3701 77.1637 60.4801 76.885C60.5241 76.7677 60.5864 76.676 60.6671 76.61C60.7478 76.544 60.8578 76.511 60.9971 76.511C61.1731 76.511 61.3198 76.5697 61.4371 76.687C61.5544 76.8043 61.6131 76.9583 61.6131 77.149C61.6131 77.2663 61.5984 77.3763 61.5691 77.479C61.5471 77.5743 61.5178 77.6807 61.4811 77.798C61.4518 77.9153 61.4224 78.051 61.3931 78.205C61.3711 78.3517 61.3601 78.535 61.3601 78.755C61.3601 79.085 61.3931 79.3857 61.4591 79.657C61.5324 79.9283 61.6351 80.163 61.7671 80.361C61.9064 80.5517 62.0714 80.6983 62.2621 80.801C62.4528 80.9037 62.6654 80.955 62.9001 80.955C63.1861 80.955 63.4281 80.8487 63.6261 80.636C63.8241 80.416 63.9744 80.1007 64.0771 79.69C64.1798 79.2793 64.2311 78.7917 64.2311 78.227C64.2311 78.0363 64.2238 77.875 64.2091 77.743C64.2018 77.611 64.1908 77.4937 64.1761 77.391C64.1688 77.281 64.1651 77.1673 64.1651 77.05C64.1651 76.874 64.1981 76.7383 64.2641 76.643C64.3301 76.5477 64.4474 76.5 64.6161 76.5C64.7848 76.5 64.9278 76.5513 65.0451 76.654C65.1624 76.7493 65.2504 76.9143 65.3091 77.149C65.3751 77.3763 65.4081 77.6917 65.4081 78.095C65.4081 78.997 65.3054 79.745 65.1001 80.339C64.8948 80.9257 64.6051 81.3693 64.2311 81.67C63.8571 81.9633 63.4171 82.11 62.9111 82.11ZM69.1514 82.099C68.6087 82.099 68.143 81.9927 67.7544 81.78C67.3657 81.5673 67.0687 81.274 66.8634 80.9C66.658 80.5187 66.5554 80.0787 66.5554 79.58C66.5554 79.14 66.6434 78.7293 66.8194 78.348C67.0027 77.9667 67.252 77.633 67.5674 77.347C67.8827 77.0537 68.242 76.8263 68.6454 76.665C69.056 76.5037 69.4924 76.423 69.9544 76.423C70.1304 76.423 70.288 76.4487 70.4274 76.5C70.5667 76.5513 70.6767 76.6357 70.7574 76.753C70.8454 76.863 70.8894 77.0133 70.8894 77.204C70.8894 77.38 70.849 77.5303 70.7684 77.655C70.695 77.7723 70.5814 77.831 70.4274 77.831C70.3394 77.831 70.2734 77.8127 70.2294 77.776C70.1854 77.7393 70.134 77.7063 70.0754 77.677C70.024 77.6477 69.936 77.633 69.8114 77.633C69.4227 77.633 69.0744 77.7247 68.7664 77.908C68.4657 78.084 68.2237 78.326 68.0404 78.634C67.8644 78.9347 67.7764 79.2757 67.7764 79.657C67.7764 79.9063 67.8277 80.1263 67.9304 80.317C68.033 80.5077 68.187 80.658 68.3924 80.768C68.5977 80.8707 68.8507 80.922 69.1514 80.922C69.4667 80.922 69.7087 80.8853 69.8774 80.812C70.046 80.7387 70.1744 80.658 70.2624 80.57C70.3504 80.4747 70.431 80.394 70.5044 80.328C70.5777 80.2547 70.673 80.218 70.7904 80.218C70.915 80.218 71.0104 80.2583 71.0764 80.339C71.1497 80.4197 71.1864 80.537 71.1864 80.691C71.1864 80.9623 71.0947 81.2043 70.9114 81.417C70.7354 81.6297 70.4934 81.7983 70.1854 81.923C69.8847 82.0403 69.54 82.099 69.1514 82.099ZM77.0444 82.077C76.8024 82.077 76.5274 82.0257 76.2194 81.923C75.9114 81.813 75.596 81.67 75.2734 81.494C74.958 81.3107 74.6647 81.109 74.3934 80.889C74.1294 80.6617 73.9167 80.427 73.7554 80.185C73.594 79.943 73.5134 79.7083 73.5134 79.481C73.5134 79.217 73.594 78.9457 73.7554 78.667C73.924 78.381 74.1404 78.106 74.4044 77.842C74.6684 77.5707 74.9507 77.3287 75.2514 77.116C75.5594 76.896 75.8564 76.7237 76.1424 76.599C76.4284 76.4743 76.6667 76.412 76.8574 76.412C77.0554 76.412 77.213 76.4597 77.3304 76.555C77.4477 76.6503 77.5064 76.786 77.5064 76.962C77.5064 77.1233 77.4587 77.259 77.3634 77.369C77.268 77.4717 77.0994 77.5633 76.8574 77.644C76.586 77.7393 76.3257 77.864 76.0764 78.018C75.8344 78.1647 75.6144 78.3223 75.4164 78.491C75.2257 78.6597 75.0754 78.821 74.9654 78.975C74.8554 79.129 74.8004 79.2537 74.8004 79.349C74.8004 79.459 74.87 79.6057 75.0094 79.789C75.156 79.965 75.3834 80.1483 75.6914 80.339C75.9994 80.5297 76.3954 80.6947 76.8794 80.834C77.1727 80.9147 77.367 81.021 77.4624 81.153C77.5577 81.2777 77.6054 81.4097 77.6054 81.549C77.6054 81.7103 77.5577 81.8387 77.4624 81.934C77.3744 82.0293 77.235 82.077 77.0444 82.077ZM73.0514 82.11C72.9194 82.11 72.791 82.0697 72.6664 81.989C72.549 81.9083 72.4537 81.7617 72.3804 81.549C72.307 81.329 72.2704 81.021 72.2704 80.625C72.2704 80.3317 72.296 79.9467 72.3474 79.47C72.406 78.9933 72.4684 78.4617 72.5344 77.875C72.6077 77.2883 72.6737 76.6907 72.7324 76.082C72.769 75.752 72.791 75.488 72.7984 75.29C72.813 75.0847 72.8204 74.9197 72.8204 74.795C72.8204 74.6703 72.8204 74.564 72.8204 74.476C72.8204 74.3807 72.8277 74.2817 72.8424 74.179C72.8497 74.0103 72.901 73.882 72.9964 73.794C73.0917 73.6987 73.22 73.651 73.3814 73.651C73.5574 73.651 73.6967 73.7207 73.7994 73.86C73.902 73.9993 73.968 74.2413 73.9974 74.586C74.0267 74.9233 74.012 75.3963 73.9534 76.005C73.902 76.4377 73.8507 76.8227 73.7994 77.16C73.7554 77.4973 73.7114 77.8017 73.6674 78.073C73.6307 78.337 73.5977 78.5863 73.5684 78.821C73.539 79.0557 73.5134 79.2867 73.4914 79.514C73.4767 79.7413 73.4694 79.9797 73.4694 80.229C73.4694 80.493 73.4767 80.7277 73.4914 80.933C73.5134 81.131 73.5244 81.3327 73.5244 81.538C73.5244 81.736 73.484 81.8827 73.4034 81.978C73.3227 82.066 73.2054 82.11 73.0514 82.11ZM81.2417 84.871C80.7431 84.871 80.3214 84.8233 79.9767 84.728C79.6394 84.6327 79.3864 84.5007 79.2177 84.332C79.0491 84.1707 78.9647 83.9763 78.9647 83.749C78.9647 83.6023 79.0051 83.485 79.0857 83.397C79.1664 83.3163 79.2874 83.276 79.4487 83.276C79.5514 83.276 79.6431 83.2943 79.7237 83.331C79.8117 83.3677 79.9107 83.4117 80.0207 83.463C80.1381 83.5143 80.2884 83.5583 80.4717 83.595C80.6624 83.6317 80.9081 83.65 81.2087 83.65C81.5314 83.65 81.7844 83.584 81.9677 83.452C82.1511 83.3273 82.2831 83.144 82.3637 82.902C82.4444 82.66 82.4847 82.3777 82.4847 82.055C82.4847 81.8203 82.4774 81.6003 82.4627 81.395C82.4481 81.1823 82.4297 80.9623 82.4077 80.735C82.3931 80.5077 82.3747 80.251 82.3527 79.965C82.3381 79.679 82.3271 79.3453 82.3197 78.964L82.7487 79.305C82.6094 79.7597 82.4517 80.13 82.2757 80.416C82.0997 80.6947 81.9164 80.9147 81.7257 81.076C81.5351 81.23 81.3481 81.3363 81.1647 81.395C80.9887 81.4463 80.8201 81.472 80.6587 81.472C80.2187 81.472 79.8411 81.3583 79.5257 81.131C79.2177 80.9037 78.9757 80.5517 78.7997 80.075C78.6311 79.5983 78.5467 78.9823 78.5467 78.227C78.5467 77.721 78.5761 77.3397 78.6347 77.083C78.6934 76.819 78.7741 76.643 78.8767 76.555C78.9867 76.467 79.1077 76.423 79.2397 76.423C79.4011 76.423 79.5294 76.456 79.6247 76.522C79.7201 76.5807 79.7897 76.676 79.8337 76.808C79.8777 76.94 79.8924 77.105 79.8777 77.303C79.8631 77.699 79.8521 78.0767 79.8447 78.436C79.8447 78.788 79.8667 79.1033 79.9107 79.382C79.9547 79.6607 80.0281 79.8807 80.1307 80.042C80.2407 80.196 80.3947 80.273 80.5927 80.273C80.8861 80.273 81.1427 80.1263 81.3627 79.833C81.5901 79.5397 81.7734 79.1473 81.9127 78.656C82.0594 78.1573 82.1657 77.6037 82.2317 76.995C82.2537 76.775 82.2977 76.6283 82.3637 76.555C82.4297 76.4743 82.5434 76.434 82.7047 76.434C82.8074 76.434 82.9064 76.456 83.0017 76.5C83.0971 76.5367 83.1777 76.6027 83.2437 76.698C83.3097 76.786 83.3574 76.907 83.3867 77.061C83.4234 77.2077 83.4307 77.3873 83.4087 77.6C83.3721 77.974 83.3574 78.3003 83.3647 78.579C83.3721 78.8577 83.3904 79.1217 83.4197 79.371C83.4491 79.613 83.4821 79.8623 83.5187 80.119C83.5554 80.3683 83.5884 80.647 83.6177 80.955C83.6471 81.263 83.6617 81.6297 83.6617 82.055C83.6617 82.539 83.5994 82.957 83.4747 83.309C83.3574 83.6683 83.1887 83.9617 82.9687 84.189C82.7561 84.4237 82.5031 84.596 82.2097 84.706C81.9164 84.816 81.5937 84.871 81.2417 84.871ZM92.4146 84.86C91.8352 84.86 91.3476 84.7977 90.9516 84.673C90.5629 84.5557 90.2586 84.4017 90.0386 84.211C89.8186 84.0203 89.6572 83.815 89.5546 83.595C89.4592 83.375 89.4116 83.1697 89.4116 82.979C89.4116 82.759 89.4739 82.5683 89.5986 82.407C89.7232 82.253 89.8809 82.176 90.0716 82.176C90.2109 82.176 90.3099 82.209 90.3686 82.275C90.4346 82.341 90.4676 82.4363 90.4676 82.561C90.4676 82.781 90.5372 82.9753 90.6766 83.144C90.8232 83.32 91.0359 83.4557 91.3146 83.551C91.5932 83.6537 91.9269 83.705 92.3156 83.705C92.7262 83.705 93.0049 83.5913 93.1516 83.364C93.3056 83.1367 93.3826 82.8103 93.3826 82.385C93.3826 82.0257 93.3606 81.6993 93.3166 81.406C93.2726 81.1127 93.2139 80.834 93.1406 80.57C93.0746 80.2987 93.0086 80.031 92.9426 79.767C92.8839 79.4957 92.8362 79.206 92.7996 78.898L93.2946 79.008C93.2212 79.404 93.1002 79.7413 92.9316 80.02C92.7702 80.2987 92.5759 80.5297 92.3486 80.713C92.1212 80.889 91.8756 81.0173 91.6116 81.098C91.3476 81.1787 91.0762 81.219 90.7976 81.219C90.3649 81.219 89.9872 81.142 89.6646 80.988C89.3492 80.8267 89.1036 80.5957 88.9276 80.295C88.7589 79.987 88.6746 79.613 88.6746 79.173C88.6746 78.799 88.7479 78.447 88.8946 78.117C89.0412 77.7797 89.2392 77.4827 89.4886 77.226C89.7452 76.9693 90.0349 76.7713 90.3576 76.632C90.6876 76.4853 91.0322 76.412 91.3916 76.412C91.7729 76.412 92.0736 76.4743 92.2936 76.599C92.5136 76.7163 92.6712 76.8703 92.7666 77.061C92.8692 77.2443 92.9206 77.4387 92.9206 77.644C92.9206 77.7687 92.8876 77.8823 92.8216 77.985C92.7556 78.0877 92.6786 78.139 92.5906 78.139C92.4879 78.139 92.4072 78.1097 92.3486 78.051C92.2972 77.9923 92.2422 77.9263 92.1836 77.853C92.1249 77.7797 92.0479 77.7137 91.9526 77.655C91.8646 77.5963 91.7362 77.567 91.5676 77.567C91.3549 77.567 91.1459 77.611 90.9406 77.699C90.7352 77.787 90.5519 77.908 90.3906 78.062C90.2366 78.2087 90.1119 78.3773 90.0166 78.568C89.9212 78.7587 89.8736 78.9493 89.8736 79.14C89.8736 79.426 89.9469 79.646 90.0936 79.8C90.2476 79.954 90.4822 80.031 90.7976 80.031C91.1496 80.031 91.4686 79.943 91.7546 79.767C92.0406 79.591 92.2679 79.3123 92.4366 78.931C92.6052 78.5423 92.6896 78.04 92.6896 77.424C92.6896 77.2407 92.7189 77.105 92.7776 77.017C92.8362 76.929 92.9462 76.885 93.1076 76.885C93.3642 76.885 93.5549 76.973 93.6796 77.149C93.8116 77.325 93.8849 77.5193 93.8996 77.732C93.9362 78.1793 93.9912 78.5827 94.0646 78.942C94.1452 79.294 94.2259 79.6423 94.3066 79.987C94.3872 80.3243 94.4532 80.6947 94.5046 81.098C94.5632 81.494 94.5926 81.9597 94.5926 82.495C94.5926 83.2283 94.4019 83.804 94.0206 84.222C93.6392 84.6473 93.1039 84.86 92.4146 84.86ZM97.3363 82.11C96.9916 82.11 96.6873 82.0367 96.4233 81.89C96.1666 81.736 95.9686 81.5233 95.8293 81.252C95.6899 80.9807 95.6203 80.6617 95.6203 80.295C95.6203 79.9357 95.6753 79.5727 95.7853 79.206C95.9026 78.832 96.0639 78.48 96.2693 78.15C96.4746 77.82 96.7166 77.5267 96.9953 77.27C97.2739 77.006 97.5783 76.8007 97.9083 76.654C98.2383 76.5 98.5866 76.423 98.9533 76.423C99.1513 76.423 99.3199 76.4817 99.4593 76.599C99.5986 76.7163 99.6683 76.8887 99.6683 77.116C99.6683 77.2113 99.6389 77.292 99.5803 77.358C99.5216 77.424 99.4373 77.4643 99.3273 77.479C98.8286 77.545 98.3886 77.7247 98.0073 78.018C97.6333 78.3113 97.3399 78.6633 97.1273 79.074C96.9219 79.4847 96.8193 79.9137 96.8193 80.361C96.8193 80.5443 96.8339 80.713 96.8633 80.867C96.8926 81.0137 96.9586 81.2043 97.0613 81.439L96.4343 80.559C96.6029 80.7203 96.7459 80.8267 96.8633 80.878C96.9879 80.922 97.1493 80.944 97.3473 80.944C97.7799 80.944 98.1723 80.6837 98.5243 80.163C98.8836 79.635 99.1439 78.865 99.3053 77.853C99.3273 77.699 99.3859 77.5817 99.4813 77.501C99.5766 77.413 99.6939 77.369 99.8333 77.369C100.046 77.369 100.226 77.4423 100.372 77.589C100.519 77.7283 100.618 77.908 100.669 78.128C100.75 78.524 100.834 78.8833 100.922 79.206C101.01 79.5213 101.128 79.8257 101.274 80.119C101.421 80.405 101.623 80.7057 101.879 81.021C101.953 81.1017 101.993 81.2043 102 81.329C102.008 81.4463 101.989 81.5637 101.945 81.681C101.901 81.791 101.832 81.8863 101.736 81.967C101.648 82.0403 101.542 82.077 101.417 82.077C101.307 82.077 101.216 82.055 101.142 82.011C101.076 81.967 101.014 81.9083 100.955 81.835C100.809 81.6443 100.673 81.4537 100.548 81.263C100.424 81.065 100.306 80.8487 100.196 80.614C100.094 80.372 100.002 80.0933 99.9213 79.778C99.8479 79.4553 99.7856 79.0777 99.7343 78.645L100.163 78.623C100.053 79.2683 99.8956 79.8147 99.6903 80.262C99.4923 80.7093 99.2649 81.0687 99.0083 81.34C98.7516 81.6113 98.4803 81.8093 98.1943 81.934C97.9083 82.0513 97.6223 82.11 97.3363 82.11ZM103.662 82.099C103.472 82.099 103.325 82.022 103.222 81.868C103.12 81.714 103.046 81.516 103.002 81.274C102.958 81.0247 102.936 80.7643 102.936 80.493C102.936 80.1337 102.951 79.767 102.98 79.393C103.017 79.019 103.035 78.656 103.035 78.304C103.035 78.1133 103.021 77.9373 102.991 77.776C102.962 77.6073 102.947 77.446 102.947 77.292C102.947 77.1747 102.988 77.0757 103.068 76.995C103.156 76.907 103.274 76.863 103.42 76.863C103.596 76.863 103.732 76.9143 103.827 77.017C103.93 77.1197 104.003 77.2627 104.047 77.446C104.099 77.6293 104.128 77.8383 104.135 78.073L103.904 78.271C104.014 77.8603 104.143 77.5193 104.289 77.248C104.436 76.9767 104.605 76.7713 104.795 76.632C104.986 76.4927 105.195 76.423 105.422 76.423C105.694 76.423 105.917 76.522 106.093 76.72C106.269 76.918 106.416 77.1967 106.533 77.556C106.651 77.9153 106.746 78.3407 106.819 78.832C106.893 79.272 106.959 79.6203 107.017 79.877C107.076 80.1263 107.131 80.328 107.182 80.482L106.874 80.405C107.072 79.5983 107.303 78.898 107.567 78.304C107.831 77.71 108.114 77.248 108.414 76.918C108.715 76.588 109.016 76.423 109.316 76.423C109.808 76.423 110.163 76.6467 110.383 77.094C110.611 77.534 110.772 78.2087 110.867 79.118C110.911 79.5947 110.966 79.9687 111.032 80.24C111.106 80.5113 111.172 80.724 111.23 80.878C111.296 81.0247 111.348 81.1493 111.384 81.252C111.428 81.3473 111.45 81.461 111.45 81.593C111.45 81.7543 111.395 81.879 111.285 81.967C111.175 82.055 111.032 82.099 110.856 82.099C110.68 82.099 110.523 82.0257 110.383 81.879C110.244 81.725 110.123 81.483 110.02 81.153C109.925 80.823 109.844 80.394 109.778 79.866C109.72 79.4333 109.668 79.0813 109.624 78.81C109.588 78.5387 109.547 78.326 109.503 78.172C109.459 78.0107 109.408 77.8787 109.349 77.776C109.298 77.6733 109.232 77.5707 109.151 77.468H109.426C109.126 77.7613 108.869 78.106 108.656 78.502C108.451 78.8907 108.268 79.3417 108.106 79.855C107.952 80.361 107.787 80.9257 107.611 81.549C107.567 81.7323 107.49 81.8717 107.38 81.967C107.27 82.055 107.142 82.099 106.995 82.099C106.68 82.099 106.442 81.9193 106.28 81.56C106.119 81.2007 105.991 80.6873 105.895 80.02C105.829 79.536 105.763 79.1327 105.697 78.81C105.631 78.48 105.554 78.205 105.466 77.985C105.386 77.7577 105.276 77.567 105.136 77.413L105.433 77.534C105.221 77.7393 105.041 77.9887 104.894 78.282C104.748 78.5753 104.627 78.9017 104.531 79.261C104.436 79.613 104.359 79.9797 104.3 80.361C104.249 80.7423 104.209 81.1273 104.179 81.516C104.165 81.7213 104.11 81.8717 104.014 81.967C103.926 82.055 103.809 82.099 103.662 82.099ZM114.877 82.11C114.298 82.11 113.821 82.0073 113.447 81.802C113.08 81.5893 112.809 81.3033 112.633 80.944C112.457 80.5773 112.369 80.1593 112.369 79.69C112.369 79.3087 112.439 78.9273 112.578 78.546C112.725 78.1573 112.93 77.8053 113.194 77.49C113.458 77.1673 113.773 76.9107 114.14 76.72C114.514 76.522 114.928 76.423 115.383 76.423C115.757 76.423 116.08 76.489 116.351 76.621C116.63 76.7457 116.846 76.9363 117 77.193C117.154 77.4497 117.231 77.7723 117.231 78.161C117.231 78.5643 117.11 78.9017 116.868 79.173C116.626 79.4443 116.296 79.6497 115.878 79.789C115.46 79.9283 114.994 79.998 114.481 79.998C114.056 79.998 113.748 79.9357 113.557 79.811C113.374 79.679 113.282 79.5323 113.282 79.371C113.282 79.283 113.304 79.217 113.348 79.173C113.392 79.1217 113.469 79.096 113.579 79.096C113.66 79.096 113.759 79.1107 113.876 79.14C113.993 79.162 114.158 79.173 114.371 79.173C114.701 79.173 114.994 79.1327 115.251 79.052C115.508 78.964 115.713 78.8467 115.867 78.7C116.021 78.546 116.098 78.3737 116.098 78.183C116.098 77.963 116.043 77.798 115.933 77.688C115.823 77.578 115.64 77.523 115.383 77.523C115.112 77.523 114.866 77.589 114.646 77.721C114.426 77.8457 114.232 78.018 114.063 78.238C113.902 78.458 113.777 78.7073 113.689 78.986C113.601 79.2647 113.557 79.5543 113.557 79.855C113.557 80.0823 113.597 80.2877 113.678 80.471C113.759 80.6543 113.887 80.7973 114.063 80.9C114.246 81.0027 114.492 81.054 114.8 81.054C115.211 81.054 115.552 81.01 115.823 80.922C116.094 80.834 116.322 80.735 116.505 80.625C116.688 80.5077 116.842 80.405 116.967 80.317C117.099 80.229 117.224 80.185 117.341 80.185C117.451 80.185 117.528 80.2217 117.572 80.295C117.623 80.361 117.649 80.4673 117.649 80.614C117.649 80.7753 117.576 80.944 117.429 81.12C117.29 81.296 117.092 81.4573 116.835 81.604C116.586 81.7507 116.292 81.8717 115.955 81.967C115.625 82.0623 115.266 82.11 114.877 82.11Z" fill="black"/>
</svg>
