<svg width="95" height="17" viewBox="0 0 95 17" fill="none" xmlns="http://www.w3.org/2000/svg">
<path d="M0.616301 1.30049H2.39271C4.11128 5.56938 5.02014 7.83051 5.11929 8.08389C5.34513 8.70082 5.49385 9.11944 5.56546 9.33977C5.56546 9.33977 5.63431 9.53532 5.77202 9.9264H5.84638C5.91798 9.66751 5.9951 9.40312 6.07772 9.13321C6.07772 9.13321 6.17136 8.84128 6.35864 8.2574C6.4633 7.93793 6.57897 7.60468 6.70566 7.25766L8.84562 1.30049H9.31657L11.5226 7.13372L12.4728 9.9264H12.5472L13.1338 8.04258C13.2384 7.71209 13.3458 7.40087 13.456 7.10893L15.5629 1.30049H17.3393L12.7289 13.1652H12.258L9.74621 6.53883C9.67461 6.36257 9.603 6.16152 9.53139 5.93568L9.08522 4.57239H9.03565L8.82083 5.29122C8.76024 5.49502 8.69414 5.70709 8.62253 5.92742L6.02815 13.1652H5.55719L0.616301 1.30049ZM20.8178 5.45646C21.633 4.86708 22.5804 4.57239 23.66 4.57239C26.1718 4.57239 27.4277 5.9522 27.4277 8.71183V13H25.8661L25.8578 8.81098C25.8578 7.85806 25.6926 7.15025 25.3621 6.68755C24.993 6.15876 24.3899 5.89437 23.5526 5.89437C22.6548 5.89437 21.9029 6.1147 21.297 6.55536C21.0987 6.69306 20.939 6.8528 20.8178 7.03457V13H19.2479V0.0941886L20.8178 0.102451V5.45646ZM32.1124 1.34181C32.1124 1.65027 32.0188 1.89814 31.8315 2.08542C31.6442 2.2727 31.3964 2.36634 31.0879 2.36634C30.7794 2.36634 30.5316 2.2727 30.3443 2.08542C30.157 1.89814 30.0634 1.65027 30.0634 1.34181C30.0634 1.03334 30.157 0.788227 30.3443 0.606455C30.5316 0.419175 30.7794 0.325535 31.0879 0.325535C31.3964 0.325535 31.6442 0.419175 31.8315 0.606455C32.0188 0.788227 32.1124 1.03334 32.1124 1.34181ZM30.303 4.73764H31.8728V13H30.303V4.73764ZM34.7564 6.01004H33.8723V4.98551L35.9049 3.45697H36.3262V4.73764H38.6893V6.01004H36.3262V9.34804C36.3262 10.2844 36.4447 10.9234 36.6815 11.2649C36.9184 11.6009 37.3811 11.8075 38.0696 11.8846L37.83 13C36.1775 13.2093 35.1998 12.5566 34.8968 11.0418C34.8032 10.5901 34.7564 10.1027 34.7564 9.57938V6.01004ZM46.5303 5.46472C46.8222 5.75666 47.0508 6.12571 47.216 6.57188C47.3868 7.01254 47.4722 7.47799 47.4722 7.96822C47.4722 8.45845 47.4171 9.03407 47.3069 9.69505H41.5563C41.6775 10.3616 41.9474 10.8876 42.366 11.2732C42.7847 11.6532 43.3768 11.8433 44.1424 11.8433C45.167 11.8433 46.1061 11.656 46.9599 11.2814L47.2243 12.4629C46.6569 12.7934 45.8472 13.011 44.7952 13.1157C44.5032 13.1487 44.1232 13.1652 43.655 13.1652C43.1868 13.1652 42.6965 13.0716 42.1843 12.8843C41.672 12.697 41.2479 12.4216 40.9118 12.0581C40.2454 11.3365 39.9121 10.2789 39.9121 8.88534C39.9121 7.66251 40.3115 6.63798 41.1101 5.81174C41.9199 4.98551 42.9306 4.57239 44.1424 4.57239C45.1394 4.57239 45.9354 4.86983 46.5303 5.46472ZM45.9767 8.48049L46.0097 8.03432C46.0097 7.02631 45.6324 6.35706 44.8778 6.02657C44.6244 5.9164 44.3215 5.86132 43.9689 5.86132C43.6164 5.86132 43.2914 5.93017 42.994 6.06788C42.702 6.20558 42.4486 6.39286 42.2338 6.62972C41.7932 7.11444 41.5453 7.73137 41.4902 8.48049H45.9767ZM53.2393 13.1652C52.5673 13.1652 51.9393 13.1047 51.3555 12.9835V16.8585H49.7856V4.73764H50.9837L51.215 5.53082C51.9972 4.89187 52.9363 4.57239 54.0325 4.57239C55.2223 4.57239 56.1779 4.94695 56.8995 5.69607C57.6101 6.43968 57.9654 7.41464 57.9654 8.62095C57.9654 9.97047 57.5137 11.0694 56.6103 11.9176C55.729 12.7494 54.6053 13.1652 53.2393 13.1652ZM51.3555 11.5706C52.1321 11.7524 52.7821 11.8433 53.3054 11.8433C53.8287 11.8433 54.2776 11.7717 54.6522 11.6284C55.0267 11.4797 55.3434 11.2704 55.6023 11.0005C56.1311 10.4497 56.3955 9.68955 56.3955 8.7201C56.3955 7.90488 56.1807 7.23838 55.7511 6.7206C55.2939 6.16978 54.6852 5.89437 53.9251 5.89437C53.0548 5.89437 52.3414 6.10919 51.7851 6.53883C51.6089 6.68205 51.4656 6.84454 51.3555 7.02631V11.5706ZM65.6742 11.9424C64.6661 12.7576 63.6058 13.1652 62.4931 13.1652C61.7165 13.1652 61.0638 12.9614 60.535 12.5538C59.9676 12.1132 59.6839 11.5376 59.6839 10.827C59.6839 9.36181 60.6589 8.38409 62.6088 7.89386C63.3965 7.69556 64.3412 7.5854 65.4428 7.56336C65.4098 6.66552 64.9718 6.13673 64.1291 5.97699C63.8537 5.92191 63.5948 5.89437 63.3524 5.89437C63.1101 5.89437 62.8952 5.90538 62.708 5.92742C62.5207 5.94945 62.3279 5.97975 62.1296 6.0183C61.6944 6.10093 61.3254 6.20283 61.0224 6.32401L60.5845 5.15075C61.3557 4.76518 62.2866 4.57239 63.3772 4.57239C65.0793 4.57239 66.2002 5.11495 66.74 6.20008C66.9218 6.57464 67.0127 7.0208 67.0127 7.53858V10.1743C67.0127 10.7361 67.054 11.1107 67.1366 11.298C67.2853 11.656 67.547 11.8846 67.9215 11.9837L67.6902 13C66.6601 13.1212 65.9881 12.7687 65.6742 11.9424ZM62.6997 9.19105C62.1874 9.38384 61.8184 9.59866 61.5925 9.83551C61.3667 10.0669 61.2538 10.3175 61.2538 10.5874C61.2538 10.8573 61.2923 11.0639 61.3695 11.2071C61.4466 11.3448 61.5485 11.4604 61.6752 11.5541C61.9341 11.7469 62.237 11.8433 62.584 11.8433C62.931 11.8433 63.2423 11.8075 63.5177 11.7359C63.7986 11.6587 64.0575 11.5596 64.2943 11.4384C64.757 11.2071 65.1399 10.9206 65.4428 10.5791V8.79446C64.1318 8.86056 63.2175 8.99275 62.6997 9.19105ZM73.6639 13.1652C72.9918 13.1652 72.3639 13.1047 71.78 12.9835V16.8585H70.2102V4.73764H71.4082L71.6396 5.53082C72.4217 4.89187 73.3609 4.57239 74.457 4.57239C75.6468 4.57239 76.6025 4.94695 77.3241 5.69607C78.0346 6.43968 78.3899 7.41464 78.3899 8.62095C78.3899 9.97047 77.9382 11.0694 77.0349 11.9176C76.1536 12.7494 75.0299 13.1652 73.6639 13.1652ZM71.78 11.5706C72.5567 11.7524 73.2067 11.8433 73.73 11.8433C74.2532 11.8433 74.7022 11.7717 75.0767 11.6284C75.4513 11.4797 75.768 11.2704 76.0269 11.0005C76.5557 10.4497 76.8201 9.68955 76.8201 8.7201C76.8201 7.90488 76.6053 7.23838 76.1756 6.7206C75.7184 6.16978 75.1098 5.89437 74.3496 5.89437C73.4793 5.89437 72.766 6.10919 72.2097 6.53883C72.0334 6.68205 71.8902 6.84454 71.78 7.02631V11.5706ZM86.5862 5.46472C86.8781 5.75666 87.1067 6.12571 87.272 6.57188C87.4427 7.01254 87.5281 7.47799 87.5281 7.96822C87.5281 8.45845 87.473 9.03407 87.3629 9.69505H81.6123C81.7334 10.3616 82.0033 10.8876 82.422 11.2732C82.8406 11.6532 83.4327 11.8433 84.1984 11.8433C85.2229 11.8433 86.1621 11.656 87.0158 11.2814L87.2802 12.4629C86.7129 12.7934 85.9032 13.011 84.8511 13.1157C84.5592 13.1487 84.1791 13.1652 83.7109 13.1652C83.2427 13.1652 82.7525 13.0716 82.2402 12.8843C81.7279 12.697 81.3038 12.4216 80.9678 12.0581C80.3013 11.3365 79.968 10.2789 79.968 8.88534C79.968 7.66251 80.3674 6.63798 81.1661 5.81174C81.9758 4.98551 82.9866 4.57239 84.1984 4.57239C85.1954 4.57239 85.9913 4.86983 86.5862 5.46472ZM86.0326 8.48049L86.0657 8.03432C86.0657 7.02631 85.6884 6.35706 84.9337 6.02657C84.6803 5.9164 84.3774 5.86132 84.0249 5.86132C83.6723 5.86132 83.3474 5.93017 83.0499 6.06788C82.758 6.20558 82.5046 6.39286 82.2898 6.62972C81.8491 7.11444 81.6012 7.73137 81.5462 8.48049H86.0326ZM94.5842 6.46447C94.2482 6.26617 93.9039 6.16703 93.5514 6.16703C93.2043 6.16703 92.9152 6.25516 92.6838 6.43142C92.458 6.60768 92.2597 6.83077 92.0889 7.10067C91.7529 7.61845 91.5271 8.22435 91.4114 8.91839V13H89.8416V4.73764H91.1388L91.4032 6.24965C91.8273 5.47299 92.3698 4.95797 93.0308 4.70459C93.2677 4.61646 93.4825 4.57239 93.6753 4.57239C93.8736 4.57239 94.0196 4.5779 94.1132 4.58891C94.2068 4.59442 94.2977 4.60544 94.3859 4.62196C94.5621 4.66603 94.7467 4.73213 94.9394 4.82026L94.5842 6.46447Z" fill="white"/>
</svg>
