<svg width="116" height="17" viewBox="0 0 116 17" fill="none" xmlns="http://www.w3.org/2000/svg">
<path d="M0.617888 1.2585H2.3943C4.11287 5.52739 5.02173 7.78852 5.12088 8.0419C5.34671 8.65882 5.49544 9.07745 5.56704 9.29778C5.56704 9.29778 5.6359 9.49332 5.7736 9.88441H5.84796C5.91957 9.62552 5.99669 9.36113 6.07931 9.09122C6.07931 9.09122 6.17295 8.79928 6.36023 8.21541C6.46489 7.89593 6.58056 7.56268 6.70725 7.21567L8.8472 1.2585H9.31816L11.5242 7.09173L12.4744 9.88441H12.5487L13.1354 8.00059C13.24 7.6701 13.3474 7.35888 13.4576 7.06694L15.5645 1.2585H17.3409L12.7305 13.1233H12.2596L9.7478 6.49684C9.67619 6.32058 9.60459 6.11953 9.53298 5.89369L9.08681 4.5304H9.03724L8.82241 5.24922C8.76182 5.45303 8.69573 5.6651 8.62412 5.88542L6.02974 13.1233H5.55878L0.617888 1.2585ZM20.8194 5.41447C21.6346 4.82509 22.582 4.5304 23.6616 4.5304C26.1734 4.5304 27.4293 5.91021 27.4293 8.66984V12.958H25.8677L25.8594 8.76899C25.8594 7.81606 25.6942 7.10825 25.3637 6.64556C24.9946 6.11677 24.3915 5.85238 23.5542 5.85238C22.6564 5.85238 21.9045 6.07271 21.2986 6.51336C21.1003 6.65107 20.9405 6.81081 20.8194 6.99258V12.958H19.2495V0.0521964L20.8194 0.0604588V5.41447ZM32.114 1.29981C32.114 1.60827 32.0204 1.85615 31.8331 2.04343C31.6458 2.23071 31.3979 2.32435 31.0895 2.32435C30.781 2.32435 30.5332 2.23071 30.3459 2.04343C30.1586 1.85615 30.065 1.60827 30.065 1.29981C30.065 0.991352 30.1586 0.746235 30.3459 0.564463C30.5332 0.377183 30.781 0.283543 31.0895 0.283543C31.3979 0.283543 31.6458 0.377183 31.8331 0.564463C32.0204 0.746235 32.114 0.991352 32.114 1.29981ZM30.3046 4.69564H31.8744V12.958H30.3046V4.69564ZM34.758 5.96805H33.8739V4.94352L35.9064 3.41498H36.3278V4.69564H38.6909V5.96805H36.3278V9.30604C36.3278 10.2424 36.4463 10.8814 36.6831 11.2229C36.92 11.5589 37.3827 11.7655 38.0712 11.8426L37.8316 12.958C36.1791 13.1673 35.2014 12.5146 34.8984 10.9998C34.8048 10.5482 34.758 10.0607 34.758 9.53739V5.96805ZM46.5318 5.42273C46.8238 5.71467 47.0524 6.08372 47.2176 6.52989C47.3884 6.97055 47.4738 7.436 47.4738 7.92623C47.4738 8.41646 47.4187 8.99207 47.3085 9.65306H41.5579C41.6791 10.3196 41.949 10.8456 42.3676 11.2312C42.7862 11.6112 43.3784 11.8013 44.144 11.8013C45.1686 11.8013 46.1077 11.614 46.9615 11.2394L47.2259 12.421C46.6585 12.7514 45.8488 12.969 44.7967 13.0737C44.5048 13.1067 44.1247 13.1233 43.6565 13.1233C43.1883 13.1233 42.6981 13.0296 42.1858 12.8423C41.6736 12.6551 41.2494 12.3796 40.9134 12.0161C40.2469 11.2945 39.9137 10.2369 39.9137 8.84335C39.9137 7.62052 40.313 6.59599 41.1117 5.76975C41.9214 4.94352 42.9322 4.5304 44.144 4.5304C45.141 4.5304 45.937 4.82784 46.5318 5.42273ZM45.9783 8.4385L46.0113 7.99233C46.0113 6.98432 45.634 6.31507 44.8794 5.98457C44.626 5.87441 44.323 5.81933 43.9705 5.81933C43.618 5.81933 43.293 5.88818 42.9956 6.02589C42.7036 6.16359 42.4502 6.35087 42.2354 6.58773C41.7948 7.07245 41.5469 7.68937 41.4918 8.4385H45.9783ZM53.2409 13.1233C52.5689 13.1233 51.9409 13.0627 51.3571 12.9415V16.8165H49.7872V4.69564H50.9853L51.2166 5.48883C51.9988 4.84988 52.9379 4.5304 54.0341 4.5304C55.2238 4.5304 56.1795 4.90496 56.9011 5.65408C57.6117 6.39769 57.967 7.37265 57.967 8.57896C57.967 9.92847 57.5153 11.0274 56.6119 11.8756C55.7306 12.7074 54.6069 13.1233 53.2409 13.1233ZM51.3571 11.5286C52.1337 11.7104 52.7837 11.8013 53.307 11.8013C53.8303 11.8013 54.2792 11.7297 54.6537 11.5865C55.0283 11.4377 55.345 11.2284 55.6039 10.9585C56.1327 10.4077 56.3971 9.64755 56.3971 8.6781C56.3971 7.86288 56.1823 7.19639 55.7526 6.67861C55.2955 6.12779 54.6868 5.85238 53.9267 5.85238C53.0564 5.85238 52.343 6.0672 51.7867 6.49684C51.6104 6.64005 51.4672 6.80255 51.3571 6.98432V11.5286ZM65.6757 11.9004C64.6677 12.7156 63.6074 13.1233 62.4947 13.1233C61.7181 13.1233 61.0653 12.9195 60.5365 12.5118C59.9692 12.0712 59.6855 11.4956 59.6855 10.785C59.6855 9.31981 60.6605 8.3421 62.6104 7.85187C63.3981 7.65357 64.3427 7.54341 65.4444 7.52137C65.4113 6.62353 64.9734 6.09474 64.1307 5.935C63.8553 5.87992 63.5964 5.85238 63.354 5.85238C63.1117 5.85238 62.8968 5.86339 62.7095 5.88542C62.5223 5.90746 62.3295 5.93775 62.1312 5.97631C61.696 6.05893 61.327 6.16084 61.024 6.28202L60.5861 5.10876C61.3573 4.72319 62.2882 4.5304 63.3788 4.5304C65.0808 4.5304 66.2018 5.07296 66.7416 6.15808C66.9234 6.53264 67.0142 6.97881 67.0142 7.49659V10.1323C67.0142 10.6941 67.0556 11.0687 67.1382 11.256C67.2869 11.614 67.5485 11.8426 67.9231 11.9417L67.6918 12.958C66.6617 13.0792 65.9897 12.7267 65.6757 11.9004ZM62.7013 9.14906C62.189 9.34185 61.82 9.55667 61.5941 9.79352C61.3683 10.0249 61.2554 10.2755 61.2554 10.5454C61.2554 10.8153 61.2939 11.0219 61.371 11.1651C61.4482 11.3028 61.5501 11.4185 61.6768 11.5121C61.9356 11.7049 62.2386 11.8013 62.5856 11.8013C62.9326 11.8013 63.2438 11.7655 63.5193 11.6939C63.8002 11.6168 64.0591 11.5176 64.2959 11.3964C64.7586 11.1651 65.1414 10.8786 65.4444 10.5371V8.75246C64.1334 8.81856 63.2191 8.95076 62.7013 9.14906ZM73.6654 13.1233C72.9934 13.1233 72.3655 13.0627 71.7816 12.9415V16.8165H70.2118V4.69564H71.4098L71.6412 5.48883C72.4233 4.84988 73.3625 4.5304 74.4586 4.5304C75.6484 4.5304 76.6041 4.90496 77.3257 5.65408C78.0362 6.39769 78.3915 7.37265 78.3915 8.57896C78.3915 9.92847 77.9398 11.0274 77.0365 11.8756C76.1552 12.7074 75.0315 13.1233 73.6654 13.1233ZM71.7816 11.5286C72.5583 11.7104 73.2083 11.8013 73.7315 11.8013C74.2548 11.8013 74.7037 11.7297 75.0783 11.5865C75.4529 11.4377 75.7696 11.2284 76.0285 10.9585C76.5573 10.4077 76.8217 9.64755 76.8217 8.6781C76.8217 7.86288 76.6068 7.19639 76.1772 6.67861C75.72 6.12779 75.1114 5.85238 74.3512 5.85238C73.4809 5.85238 72.7676 6.0672 72.2113 6.49684C72.035 6.64005 71.8918 6.80255 71.7816 6.98432V11.5286ZM86.1003 11.9004C85.0923 12.7156 84.032 13.1233 82.9193 13.1233C82.1426 13.1233 81.4899 12.9195 80.9611 12.5118C80.3938 12.0712 80.1101 11.4956 80.1101 10.785C80.1101 9.31981 81.0851 8.3421 83.035 7.85187C83.8226 7.65357 84.7673 7.54341 85.869 7.52137C85.8359 6.62353 85.398 6.09474 84.5552 5.935C84.2798 5.87992 84.0209 5.85238 83.7786 5.85238C83.5362 5.85238 83.3214 5.86339 83.1341 5.88542C82.9468 5.90746 82.754 5.93775 82.5558 5.97631C82.1206 6.05893 81.7515 6.16084 81.4486 6.28202L81.0107 5.10876C81.7818 4.72319 82.7127 4.5304 83.8034 4.5304C85.5054 4.5304 86.6263 5.07296 87.1662 6.15808C87.3479 6.53264 87.4388 6.97881 87.4388 7.49659V10.1323C87.4388 10.6941 87.4801 11.0687 87.5627 11.256C87.7115 11.614 87.9731 11.8426 88.3477 11.9417L88.1163 12.958C87.0863 13.0792 86.4143 12.7267 86.1003 11.9004ZM83.1259 9.14906C82.6136 9.34185 82.2445 9.55667 82.0187 9.79352C81.7929 10.0249 81.6799 10.2755 81.6799 10.5454C81.6799 10.8153 81.7185 11.0219 81.7956 11.1651C81.8727 11.3028 81.9746 11.4185 82.1013 11.5121C82.3602 11.7049 82.6632 11.8013 83.0102 11.8013C83.3572 11.8013 83.6684 11.7655 83.9438 11.6939C84.2247 11.6168 84.4836 11.5176 84.7205 11.3964C85.1832 11.1651 85.566 10.8786 85.869 10.5371V8.75246C84.558 8.81856 83.6436 8.95076 83.1259 9.14906ZM94.09 13.1233C93.418 13.1233 92.7901 13.0627 92.2062 12.9415V16.8165H90.6363V4.69564H91.8344L92.0657 5.48883C92.8479 4.84988 93.787 4.5304 94.8832 4.5304C96.073 4.5304 97.0286 4.90496 97.7502 5.65408C98.4608 6.39769 98.8161 7.37265 98.8161 8.57896C98.8161 9.92847 98.3644 11.0274 97.461 11.8756C96.5797 12.7074 95.456 13.1233 94.09 13.1233ZM92.2062 11.5286C92.9828 11.7104 93.6328 11.8013 94.1561 11.8013C94.6794 11.8013 95.1283 11.7297 95.5029 11.5865C95.8774 11.4377 96.1941 11.2284 96.453 10.9585C96.9818 10.4077 97.2462 9.64755 97.2462 8.6781C97.2462 7.86288 97.0314 7.19639 96.6018 6.67861C96.1446 6.12779 95.5359 5.85238 94.7758 5.85238C93.9055 5.85238 93.1922 6.0672 92.6358 6.49684C92.4596 6.64005 92.3163 6.80255 92.2062 6.98432V11.5286ZM107.012 5.42273C107.304 5.71467 107.533 6.08372 107.698 6.52989C107.869 6.97055 107.954 7.436 107.954 7.92623C107.954 8.41646 107.899 8.99207 107.789 9.65306H102.038C102.16 10.3196 102.429 10.8456 102.848 11.2312C103.267 11.6112 103.859 11.8013 104.625 11.8013C105.649 11.8013 106.588 11.614 107.442 11.2394L107.706 12.421C107.139 12.7514 106.329 12.969 105.277 13.0737C104.985 13.1067 104.605 13.1233 104.137 13.1233C103.669 13.1233 103.179 13.0296 102.666 12.8423C102.154 12.6551 101.73 12.3796 101.394 12.0161C100.727 11.2945 100.394 10.2369 100.394 8.84335C100.394 7.62052 100.794 6.59599 101.592 5.76975C102.402 4.94352 103.413 4.5304 104.625 4.5304C105.622 4.5304 106.417 4.82784 107.012 5.42273ZM106.459 8.4385L106.492 7.99233C106.492 6.98432 106.115 6.31507 105.36 5.98457C105.106 5.87441 104.804 5.81933 104.451 5.81933C104.098 5.81933 103.773 5.88818 103.476 6.02589C103.184 6.16359 102.931 6.35087 102.716 6.58773C102.275 7.07245 102.027 7.68937 101.972 8.4385H106.459ZM115.01 6.42248C114.674 6.22418 114.33 6.12503 113.978 6.12503C113.63 6.12503 113.341 6.21317 113.11 6.38943C112.884 6.56569 112.686 6.78878 112.515 7.05868C112.179 7.57646 111.953 8.18236 111.838 8.8764V12.958H110.268V4.69564H111.565L111.829 6.20766C112.253 5.43099 112.796 4.91597 113.457 4.6626C113.694 4.57446 113.909 4.5304 114.101 4.5304C114.3 4.5304 114.446 4.53591 114.539 4.54692C114.633 4.55243 114.724 4.56345 114.812 4.57997C114.988 4.62404 115.173 4.69014 115.366 4.77827L115.01 6.42248Z" fill="#509F27"/>
</svg>
