<svg width="130" height="36" viewBox="0 0 130 36" fill="none" xmlns="http://www.w3.org/2000/svg">
<path d="M25.3394 23.1861L22.0317 26.7444C21.9601 26.8217 21.8735 26.8834 21.7771 26.9256C21.6808 26.9678 21.5768 26.9896 21.4717 26.9897H5.79155C5.71676 26.9897 5.64361 26.9678 5.58105 26.9266C5.51849 26.8855 5.46924 26.827 5.43933 26.7582C5.40941 26.6895 5.40014 26.6135 5.41263 26.5395C5.42513 26.4655 5.45885 26.3968 5.50968 26.3417L8.8137 22.7834C8.88525 22.7061 8.97189 22.6444 9.06825 22.6022C9.16458 22.56 9.26858 22.5382 9.37371 22.5381H25.0538C25.1293 22.5365 25.2035 22.5574 25.2672 22.5981C25.3309 22.6387 25.3813 22.6974 25.4117 22.7666C25.4423 22.8359 25.4516 22.9127 25.4387 22.9873C25.4259 23.062 25.3913 23.1311 25.3394 23.1861ZM22.0317 16.0188C21.9599 15.9419 21.8732 15.8805 21.7769 15.8383C21.6806 15.7961 21.5767 15.7741 21.4717 15.7735H5.79155C5.71676 15.7736 5.64361 15.7955 5.58105 15.8366C5.51849 15.8777 5.46924 15.9362 5.43933 16.005C5.40941 16.0738 5.40014 16.1498 5.41263 16.2238C5.42513 16.2977 5.45885 16.3665 5.50968 16.4215L8.8137 19.9817C8.88552 20.0586 8.97222 20.1201 9.06851 20.1623C9.16479 20.2044 9.26865 20.2265 9.37371 20.227H25.0538C25.1285 20.2266 25.2013 20.2044 25.2637 20.1632C25.326 20.1219 25.3749 20.0634 25.4046 19.9947C25.4343 19.926 25.4434 19.8501 25.4307 19.7763C25.4182 19.7025 25.3846 19.634 25.3338 19.5791L22.0317 16.0188ZM5.79155 13.4625H21.4717C21.5768 13.4624 21.6808 13.4405 21.7771 13.3983C21.8735 13.3561 21.9601 13.2944 22.0317 13.2171L25.3394 9.65881C25.3913 9.60385 25.4259 9.53471 25.4387 9.46008C25.4516 9.38545 25.4423 9.30867 25.4117 9.2394C25.3813 9.17013 25.3309 9.11147 25.2672 9.0708C25.2035 9.03013 25.1293 9.00926 25.0538 9.01082H9.37371C9.26858 9.01094 9.16458 9.03278 9.06825 9.07499C8.97189 9.1172 8.88525 9.17887 8.8137 9.25616L5.50968 12.8145C5.45885 12.8695 5.42513 12.9382 5.41263 13.0122C5.40014 13.0862 5.40941 13.1622 5.43933 13.231C5.46924 13.2998 5.51849 13.3583 5.58105 13.3994C5.64361 13.4405 5.71676 13.4624 5.79155 13.4625Z" fill="white"/>
<path fill-rule="evenodd" clip-rule="evenodd" d="M90.2009 11.071H81.9875C81.6254 11.069 81.2666 11.1386 80.9313 11.2758C80.5961 11.413 80.2909 11.6151 80.0336 11.8706C79.7762 12.126 79.5714 12.4299 79.4311 12.7647C79.2907 13.0996 79.2173 13.4589 79.2155 13.8222V24.9297H82.0155V20.377H90.1916V24.9297H92.9916V13.8222C92.9897 13.4573 92.9158 13.0965 92.7743 12.7604C92.6326 12.4243 92.4264 12.1196 92.1669 11.8639C91.9076 11.6082 91.6003 11.4065 91.2628 11.2704C90.9254 11.1343 90.5645 11.0666 90.2009 11.071ZM90.1804 17.6052H82.0043V13.8428H90.1804V17.6052Z" fill="white"/>
<path fill-rule="evenodd" clip-rule="evenodd" d="M52.2867 11.071H60.7073C61.0695 11.069 61.4282 11.1386 61.7635 11.2758C62.0987 11.413 62.4039 11.6151 62.6612 11.8706C62.9186 12.126 63.1234 12.4299 63.2637 12.7647C63.4041 13.0996 63.4775 13.4589 63.4793 13.8221V22.1786C63.4775 22.5418 63.4041 22.9011 63.2637 23.236C63.1234 23.5708 62.9186 23.8747 62.6612 24.1301C62.4039 24.3856 62.0987 24.5877 61.7635 24.7249C61.4282 24.8621 61.0695 24.9317 60.7073 24.9297H52.2867C51.924 24.9327 51.5643 24.8638 51.2281 24.7271C50.8921 24.5903 50.5862 24.3884 50.328 24.1328C50.0697 23.8772 49.8643 23.5731 49.7236 23.2377C49.5826 22.9024 49.5091 22.5425 49.5072 22.1786V13.8221C49.5091 13.4582 49.5826 13.0983 49.7236 12.763C49.8643 12.4276 50.0697 12.1235 50.328 11.8679C50.5862 11.6123 50.8921 11.4104 51.2281 11.2736C51.5643 11.1369 51.924 11.068 52.2867 11.071ZM52.3072 22.158H60.6868L60.683 13.8427H52.3072V22.158Z" fill="white"/>
<path d="M36.0671 16.6144H44.456C44.8183 16.6125 45.1776 16.6822 45.5131 16.8196C45.8485 16.957 46.1537 17.1595 46.4113 17.4153C46.6687 17.6712 46.8733 17.9755 47.0135 18.3108C47.1537 18.646 47.2265 19.0057 47.228 19.3693V22.1785C47.2261 22.5418 47.1528 22.9011 47.0124 23.2359C46.872 23.5708 46.6673 23.8746 46.4098 24.1301C46.1526 24.3856 45.8474 24.5877 45.5122 24.7249C45.1769 24.862 44.8181 24.9316 44.456 24.9297H33.4668V22.1579H44.4392V19.3862H36.0391C35.6768 19.3882 35.3175 19.3184 34.982 19.181C34.6466 19.0436 34.3414 18.8411 34.0838 18.5853C33.8263 18.3294 33.6218 18.0251 33.4816 17.6898C33.3414 17.3546 33.2686 16.9948 33.2671 16.6313V13.8221C33.269 13.4588 33.3423 13.0995 33.4827 12.7647C33.6231 12.4298 33.8278 12.126 34.0853 11.8705C34.3425 11.615 34.6477 11.4129 34.9829 11.2757C35.3182 11.1386 35.677 11.069 36.0391 11.0709H46.6363V13.8427H36.0671V16.6144Z" fill="white"/>
<path fill-rule="evenodd" clip-rule="evenodd" d="M114.682 11.0709H122.896C123.258 11.069 123.617 11.1386 123.952 11.2757C124.287 11.4129 124.592 11.615 124.85 11.8705C125.107 12.126 125.312 12.4298 125.452 12.7647C125.592 13.0995 125.666 13.4588 125.668 13.8221V24.9297H122.868V20.3769H114.71V24.9297H111.91V13.8221C111.912 13.4588 111.986 13.0995 112.126 12.7647C112.266 12.4298 112.471 12.126 112.728 11.8705C112.986 11.615 113.291 11.4129 113.626 11.2757C113.961 11.1386 114.32 11.069 114.682 11.0709ZM114.692 17.6051H122.868V13.8427H114.692V17.6051Z" fill="white"/>
<path d="M106.628 22.1579H105.508L101.504 12.232C101.366 11.8896 101.13 11.5961 100.826 11.3893C100.521 11.1824 100.162 11.0715 99.7938 11.0709H97.3092C97.0677 11.0697 96.8284 11.1162 96.6049 11.2077C96.3813 11.2993 96.178 11.4342 96.0063 11.6046C95.8347 11.775 95.6983 11.9777 95.6048 12.201C95.5112 12.4244 95.4625 12.664 95.4612 12.9063V24.9296H98.2612V13.8427H99.3812L103.383 23.7685C103.523 24.1103 103.761 24.4026 104.067 24.6081C104.373 24.8136 104.733 24.9229 105.101 24.9222H107.585C107.827 24.9234 108.066 24.8769 108.29 24.7853C108.513 24.6938 108.717 24.5589 108.888 24.3885C109.06 24.2181 109.196 24.0154 109.29 23.7921C109.383 23.5687 109.432 23.3291 109.433 23.0868V11.0709H106.628V22.1579Z" fill="white"/>
<path d="M65.9528 11.071H68.7528V22.158H77.1342V24.9297H68.7342C68.3713 24.9329 68.0114 24.8642 67.675 24.7276C67.3388 24.591 67.0325 24.3891 66.7741 24.1335C66.5158 23.8779 66.3103 23.5736 66.1693 23.2382C66.0284 22.9027 65.9547 22.5426 65.9528 22.1786V11.071Z" fill="white"/>
</svg>
