<svg width="130" height="37" viewBox="0 0 130 37" fill="none" xmlns="http://www.w3.org/2000/svg">
<path d="M25.0881 23.9136L21.7803 27.4719C21.7088 27.5492 21.6222 27.6109 21.5258 27.6531C21.4295 27.6953 21.3255 27.7172 21.2203 27.7173H5.5402C5.46542 27.7172 5.39227 27.6953 5.32971 27.6542C5.26715 27.6131 5.2179 27.5545 5.18798 27.4858C5.15807 27.417 5.14879 27.341 5.16129 27.267C5.17378 27.193 5.20751 27.1243 5.25833 27.0693L8.56236 23.5109C8.63391 23.4337 8.72054 23.372 8.8169 23.3298C8.91324 23.2876 9.01723 23.2657 9.12237 23.2656H24.8025C24.8779 23.264 24.9522 23.2849 25.0159 23.3256C25.0795 23.3663 25.1299 23.4249 25.1603 23.4942C25.191 23.5635 25.2003 23.6402 25.1874 23.7149C25.1745 23.7895 25.14 23.8586 25.0881 23.9136ZM21.7803 16.7464C21.7085 16.6694 21.6218 16.608 21.5255 16.5658C21.4293 16.5236 21.3254 16.5016 21.2203 16.5011H5.5402C5.46542 16.5011 5.39227 16.523 5.32971 16.5641C5.26715 16.6052 5.2179 16.6638 5.18798 16.7325C5.15807 16.8013 5.14879 16.8773 5.16129 16.9513C5.17378 17.0253 5.20751 17.094 5.25833 17.1491L8.56236 20.7092C8.63417 20.7862 8.72088 20.8476 8.81716 20.8898C8.91345 20.932 9.01731 20.954 9.12237 20.9546H24.8025C24.8772 20.9542 24.95 20.932 25.0123 20.8907C25.0747 20.8495 25.1236 20.7909 25.1532 20.7222C25.1829 20.6536 25.1921 20.5777 25.1794 20.5039C25.1669 20.43 25.1333 20.3615 25.0825 20.3066L21.7803 16.7464ZM5.5402 14.19H21.2203C21.3255 14.1899 21.4295 14.1681 21.5258 14.1258C21.6222 14.0836 21.7088 14.022 21.7803 13.9447L25.0881 10.3864C25.14 10.3314 25.1745 10.2622 25.1874 10.1876C25.2003 10.113 25.191 10.0362 25.1603 9.96694C25.1299 9.89767 25.0795 9.83901 25.0159 9.79834C24.9522 9.75767 24.8779 9.7368 24.8025 9.73836H9.12237C9.01723 9.73847 8.91324 9.76032 8.8169 9.80253C8.72054 9.84474 8.63391 9.90641 8.56236 9.9837L5.25833 13.542C5.20751 13.5971 5.17378 13.6658 5.16129 13.7398C5.14879 13.8137 5.15807 13.8898 5.18798 13.9585C5.2179 14.0273 5.26715 14.0858 5.32971 14.1269C5.39227 14.1681 5.46542 14.19 5.5402 14.19Z" fill="#389739"/>
<path fill-rule="evenodd" clip-rule="evenodd" d="M89.9494 11.7985H81.736C81.3739 11.7966 81.0151 11.8662 80.6799 12.0034C80.3446 12.1406 80.0394 12.3426 79.7822 12.5981C79.5247 12.8536 79.32 13.1574 79.1796 13.4923C79.0392 13.8271 78.9659 14.1864 78.964 14.5497V25.6573H81.764V21.1045H89.9401V25.6573H92.7401V14.5497C92.7383 14.1849 92.6643 13.824 92.5228 13.4879C92.3812 13.1518 92.1749 12.8472 91.9154 12.5914C91.6561 12.3357 91.3489 12.134 91.0114 11.9979C90.6739 11.8619 90.3131 11.7941 89.9494 11.7985ZM89.9289 18.3328H81.7528V14.5703H89.9289V18.3328Z" fill="#389739"/>
<path fill-rule="evenodd" clip-rule="evenodd" d="M52.0352 11.7985H60.4559C60.818 11.7966 61.1768 11.8661 61.512 12.0033C61.8473 12.1405 62.1525 12.3426 62.4097 12.5981C62.6671 12.8536 62.8719 13.1574 63.0123 13.4922C63.1526 13.8271 63.226 14.1864 63.2279 14.5497V22.9061C63.226 23.2694 63.1526 23.6287 63.0123 23.9635C62.8719 24.2984 62.6671 24.6022 62.4097 24.8577C62.1525 25.1131 61.8473 25.3152 61.512 25.4524C61.1768 25.5896 60.818 25.6592 60.4559 25.6573H52.0352C51.6726 25.6602 51.3128 25.5914 50.9767 25.4546C50.6406 25.3178 50.3347 25.1159 50.0765 24.8603C49.8182 24.6048 49.6129 24.3006 49.4721 23.9653C49.3312 23.6299 49.2576 23.27 49.2558 22.9061V14.5497C49.2576 14.1858 49.3312 13.8258 49.4721 13.4905C49.6129 13.1552 49.8182 12.851 50.0765 12.5954C50.3347 12.3399 50.6406 12.1379 50.9767 12.0012C51.3128 11.8644 51.6726 11.7956 52.0352 11.7985ZM52.0558 22.8855H60.4353L60.4316 14.5703H52.0558V22.8855Z" fill="#389739"/>
<path d="M35.8156 17.342H44.2045C44.5668 17.34 44.9262 17.4097 45.2616 17.5471C45.5971 17.6846 45.9023 17.887 46.1599 18.1429C46.4173 18.3987 46.6219 18.703 46.7621 19.0383C46.9022 19.3736 46.975 19.7333 46.9765 20.0969V22.9061C46.9747 23.2693 46.9013 23.6286 46.7609 23.9635C46.6206 24.2983 46.4158 24.6022 46.1584 24.8576C45.9011 25.1131 45.5959 25.3152 45.2607 25.4524C44.9254 25.5896 44.5667 25.6592 44.2045 25.6572H33.2154V22.8855H44.1877V20.1137H35.7876C35.4253 20.1157 35.066 20.046 34.7305 19.9085C34.3951 19.7711 34.0899 19.5687 33.8323 19.3128C33.5749 19.0569 33.3703 18.7527 33.2301 18.4174C33.0899 18.0821 33.0171 17.7224 33.0156 17.3588V14.5496C33.0175 14.1864 33.0909 13.827 33.2312 13.4922C33.3716 13.1574 33.5764 12.8535 33.8338 12.598C34.091 12.3426 34.3962 12.1405 34.7315 12.0033C35.0667 11.8661 35.4255 11.7965 35.7876 11.7985H46.3848V14.5702H35.8156V17.342Z" fill="#389739"/>
<path fill-rule="evenodd" clip-rule="evenodd" d="M114.431 11.7985H122.644C123.006 11.7965 123.365 11.8661 123.7 12.0033C124.036 12.1405 124.341 12.3426 124.598 12.598C124.856 12.8535 125.06 13.1574 125.201 13.4922C125.341 13.827 125.414 14.1864 125.416 14.5496V25.6572H122.616V21.1044H114.459V25.6572H111.659V14.5496C111.661 14.1864 111.734 13.827 111.874 13.4922C112.015 13.1574 112.22 12.8535 112.477 12.598C112.734 12.3426 113.039 12.1405 113.375 12.0033C113.71 11.8661 114.069 11.7965 114.431 11.7985ZM114.44 18.3327H122.616V14.5702H114.44V18.3327Z" fill="#389739"/>
<path d="M106.376 22.8854H105.256L101.252 12.9596C101.115 12.6171 100.879 12.3237 100.574 12.1168C100.27 11.9099 99.9102 11.7991 99.5423 11.7985H97.0577C96.8162 11.7972 96.5769 11.8437 96.3535 11.9353C96.1298 12.0269 95.9265 12.1617 95.7548 12.3321C95.5833 12.5026 95.4468 12.7052 95.3533 12.9286C95.2598 13.1519 95.211 13.3916 95.2097 13.6338V25.6572H98.0098V14.5702H99.1298L103.132 24.4961C103.271 24.8378 103.509 25.1301 103.815 25.3356C104.121 25.5411 104.481 25.6504 104.849 25.6497H107.334C107.575 25.6509 107.815 25.6044 108.038 25.5129C108.262 25.4213 108.465 25.2864 108.637 25.116C108.808 24.9456 108.945 24.7429 109.038 24.5196C109.132 24.2962 109.181 24.0566 109.182 23.8144V11.7985H106.376V22.8854Z" fill="#389739"/>
<path d="M65.7013 11.7985H68.5014V22.8855H76.8828V25.6573H68.4827C68.1198 25.6605 67.7599 25.5918 67.4235 25.4551C67.0874 25.3185 66.781 25.1166 66.5227 24.861C66.2643 24.6054 66.0588 24.3012 65.9179 23.9657C65.7769 23.6302 65.7032 23.2702 65.7013 22.9061V11.7985Z" fill="#389739"/>
</svg>
