<svg width="279" height="249" viewBox="0 0 279 249" fill="none" xmlns="http://www.w3.org/2000/svg">
<g clip-path="url(#clip0_5166_108676)">
<path fill-rule="evenodd" clip-rule="evenodd" d="M230.045 112.477C230.045 112.477 246.551 109.169 246.671 102.857C246.671 102.857 246.7 99.8013 244.063 99.0159C244.063 99.0159 236.145 88.9945 233.388 87.2745L234.62 85.6349C234.62 85.6349 243.764 83.8232 243.489 77.2359C243.489 77.2359 251.407 70.5168 243.982 59.6469C243.982 59.6469 246.281 53.6845 235.119 50.9383C235.119 50.9383 221.262 44.116 209.366 43.2617C209.366 43.2617 202.16 33.8308 187.563 37.4427C187.563 37.4427 176.344 40.7048 172.479 43.3535C172.479 43.3535 157.728 32.5524 143.476 35.7457C143.476 35.7457 113.297 38.1708 108.366 71.0442C108.366 71.0442 107.277 73.4693 104.629 75.6307C104.629 75.6307 88.1803 88.0657 94.3377 117.815C94.7734 119.901 95.8168 122.109 96.4818 124.373C96.4818 124.373 104.004 135.209 132.898 147.988C132.898 147.988 197.808 170.582 233.565 136.545C233.565 136.545 245.691 131.138 242.486 123.123C242.486 123.123 237.664 115.126 230.057 112.471L230.045 112.477Z" fill="#478201"/>
<path fill-rule="evenodd" clip-rule="evenodd" d="M229.558 112.328C234.798 111.319 251.928 106.468 245.45 99.434C243.466 97.2783 239.121 103.074 230.475 105.643C200.13 114.667 177.054 109.828 172.542 108.882C155.716 105.356 155.745 105.459 139.199 100.965C125.187 97.1579 117.797 105.884 126.139 115.234C132.268 122.103 151.439 133.672 158.107 135.787C165.13 138.018 183.212 143.751 192.224 143.693C215.466 143.544 256.819 135.271 237.836 117.264C235.446 114.999 230.32 112.614 229.558 112.322V112.328Z" fill="#AE0B00"/>
<path fill-rule="evenodd" clip-rule="evenodd" d="M221.71 114.948C221.71 114.948 233.279 121.828 234.168 125.451C234.168 125.451 220.758 136.097 187.185 133.787C187.185 133.787 142.444 124.66 133.718 111.824C133.718 111.824 130.84 109.513 138.872 110.975C138.872 110.975 189.478 123.869 221.715 114.942L221.71 114.948Z" fill="#D24137"/>
<path fill-rule="evenodd" clip-rule="evenodd" d="M198.49 133.69L189.146 133.913C186.119 133.512 173.288 131.104 156.106 125.13C138.924 119.156 133.248 111.05 133.248 111.05C132.961 109.531 141.395 111.543 141.395 111.543C161.621 116.84 205.382 118.256 205.382 118.256C206.74 119.449 211.378 122.768 210.083 125.371C208.919 127.71 202.693 131.093 198.485 133.684L198.49 133.69Z" fill="#8A0900"/>
<path fill-rule="evenodd" clip-rule="evenodd" d="M198.078 133.971C200.325 133.678 186.915 126.116 173.162 122.998C159.735 119.953 157.144 123.078 154.954 124.488C154.954 124.488 180.655 133.013 187.03 133.627C187.03 133.627 196.404 134.189 198.078 133.971Z" fill="#F7473B"/>
<path fill-rule="evenodd" clip-rule="evenodd" d="M196.151 79.6606C197.091 78.5369 202.028 75.2174 200.141 66.1592C197.974 55.7651 188.291 54.1541 173.024 54.9281C156.599 55.7594 152.912 62.9773 138.362 64.6686C136.676 64.8635 129.969 68.4238 140.454 71.4967C147.518 73.5663 151.743 81.7417 168.357 85.2102C174.268 86.4428 179.709 85.1299 187.517 83.9948C192.654 83.2495 195.624 80.1995 196.146 79.6606H196.151Z" fill="white"/>
<path fill-rule="evenodd" clip-rule="evenodd" d="M199.534 74.0366C199.534 74.0366 228.033 86.5576 243.489 77.2356C243.489 77.2356 251.487 68.7163 243.472 58.6777C243.472 58.6777 223.934 48.9085 198.181 60.3231C198.181 60.3231 202.269 65.5402 199.534 74.0366Z" fill="white"/>
<path d="M229.558 112.328C234.798 111.319 251.928 106.468 245.45 99.434C243.466 97.2783 239.121 103.074 230.475 105.643C200.13 114.667 177.054 109.828 172.542 108.882C155.716 105.356 155.745 105.459 139.199 100.965C125.187 97.1579 117.797 105.884 126.139 115.234C132.268 122.103 151.439 133.672 158.107 135.787C165.13 138.018 183.212 143.751 192.224 143.693C215.466 143.544 256.819 135.271 237.836 117.264C235.446 114.999 230.32 112.614 229.558 112.322V112.328Z" stroke="black" stroke-width="1.41607" stroke-linecap="round" stroke-linejoin="round"/>
<path d="M221.71 114.948C221.71 114.948 233.279 121.828 234.168 125.451C234.168 125.451 220.758 136.097 187.185 133.787C187.185 133.787 142.444 124.66 133.718 111.824C133.718 111.824 130.84 109.513 138.872 110.975C138.872 110.975 189.478 123.869 221.715 114.942L221.71 114.948Z" stroke="black" stroke-width="1.41607" stroke-linecap="round" stroke-linejoin="round"/>
<path fill-rule="evenodd" clip-rule="evenodd" d="M226.651 129.304C226.651 129.304 231.003 126.798 229.466 124.282C227.93 121.765 220.867 117.173 218.35 115.991L222.736 115.206C222.736 115.206 232.121 121.369 234.03 125.164C234.03 125.164 231.129 128.048 226.651 129.298V129.304Z" fill="black"/>
<path fill-rule="evenodd" clip-rule="evenodd" d="M233.479 137.949C252.805 129.39 243.151 116.485 238.886 114.318C236.604 113.16 236.46 113.452 234.488 111.841C233.709 111.21 230.464 112.403 230.372 112.426C234.718 115.201 240.623 117.213 240.302 125.36C239.986 133.443 235.079 135.221 229.879 137.789C231.656 138.248 231.639 138.207 233.485 137.949H233.479Z" fill="black"/>
<path d="M205.387 118.256C206.746 119.448 211.384 122.768 210.088 125.371C208.925 127.71 202.699 131.092 198.49 133.684" stroke="black" stroke-width="1.41607" stroke-linecap="round" stroke-linejoin="round"/>
<path d="M198.078 133.971C196.186 132.864 186.915 126.116 173.162 122.998C159.735 119.953 157.144 123.078 154.954 124.488" stroke="black" stroke-width="1.41607" stroke-linecap="round" stroke-linejoin="round"/>
<path d="M121.77 97.4736C121.375 98.0985 119.598 100.885 116.645 105.185" stroke="black" stroke-width="1.41607" stroke-linecap="round" stroke-linejoin="round"/>
<path d="M243.765 98.6601C242.945 97.3186 238.014 89.2751 228.732 85.1816" stroke="black" stroke-width="1.41607" stroke-linecap="round" stroke-linejoin="round"/>
<path d="M232.058 87.0049C226.262 89.4873 223.785 91.0926 212.99 90.6741" stroke="black" stroke-width="1.41607" stroke-linecap="round" stroke-linejoin="round"/>
<path fill-rule="evenodd" clip-rule="evenodd" d="M243.209 77.8152C243.209 77.8152 234.695 81.7481 221.583 79.8103C208.472 77.8726 200.256 74.5703 200.256 74.5703L198.095 77.7866C198.095 77.7866 210.599 87.7392 212.628 90.2675C212.628 90.2675 226.118 90.3879 232.545 86.5926C232.545 86.5926 241.448 85.5663 243.209 77.8095V77.8152Z" fill="black"/>
<path d="M233.737 85.7327C235.262 85.3486 239.465 84.5402 241.775 81.8055C243.615 79.627 243.329 77.5286 243.277 77.1445" stroke="black" stroke-width="1.41607" stroke-linecap="round" stroke-linejoin="round"/>
<path fill-rule="evenodd" clip-rule="evenodd" d="M197.286 77.5913C197.332 77.5225 197.585 77.1155 198.135 76.9951C198.307 76.9549 198.485 76.9492 198.657 76.9779C199.001 77.0352 199.001 77.0581 199.293 77.2588C210.346 84.7749 217.215 94.9396 218.327 96.5735C218.43 96.7226 218.436 96.734 218.407 96.9118C218.407 96.9404 218.367 97.164 218.229 97.2099C218.098 97.25 217.971 97.3188 217.828 97.336C217.771 97.336 217.719 97.3016 217.679 97.2672C217.668 97.2558 217.69 97.2443 217.593 97.1124C216.079 95.1689 208.776 85.9559 197.848 79.5463C197.55 79.3686 197.533 79.38 197.332 79.0991C197.286 79.0303 197.017 78.6462 197.109 78.1016C197.155 77.8321 197.155 77.8321 197.298 77.6028L197.286 77.5913Z" fill="black"/>
<path fill-rule="evenodd" clip-rule="evenodd" d="M234.511 88.2147C236.036 89.476 234.913 86.3974 236.054 84.815C236.054 84.815 215.873 83.9436 207.033 81.2949C206.723 82.4702 231.186 86.7069 234.506 88.209L234.511 88.2147Z" fill="black"/>
<path d="M200.853 74.5585C200.853 74.5585 229.931 86.0246 243.122 77.3276C243.122 77.3276 251.286 70.2243 243.799 58.9932C243.799 58.9932 221.795 48.6163 198.645 60.1914" stroke="black" stroke-width="1.41607" stroke-linecap="round" stroke-linejoin="round"/>
<path d="M243.833 58.8903C243.833 58.8903 246.591 53.9942 235.308 50.7321C235.308 50.7321 210.341 47.4929 194.988 57.8239" stroke="black" stroke-width="1.41607" stroke-linecap="round" stroke-linejoin="round"/>
<path d="M234.62 50.5538C234.62 50.5538 220.207 43.8519 210.243 43.4104C210.243 43.4104 201.839 33.991 187.483 37.3964C187.483 37.3964 176.67 39.8444 172.978 43.1983" stroke="black" stroke-width="1.41607" stroke-linecap="round" stroke-linejoin="round"/>
<path d="M196.725 55.9322C190.401 50.3997 181.102 50.1074 171.826 50.3539C161.42 50.6291 149.312 56.0124 140.145 59.6587" stroke="black" stroke-width="1.41607" stroke-linecap="round" stroke-linejoin="round"/>
<path d="M190.653 52.0102C180.626 46.4204 180.317 47.0167 172.428 43.8922C168.787 42.4474 161.128 32.5751 140.34 36.227C131.276 37.8151 119.265 46.5351 114.644 53.0995C106.171 65.1275 109.886 71.4453 106.945 73.7271C102.742 76.9835 96.6079 80.1309 93.3916 103.728C93.2196 104.978 92.2221 121.14 98.0182 126.953C98.3737 127.308 100.919 129.231 105.655 132.72C105.655 132.72 139.101 162.183 194.867 153.721C194.867 153.721 220.505 152.144 235.182 135.048" stroke="black" stroke-width="1.41607" stroke-linecap="round" stroke-linejoin="round"/>
<path fill-rule="evenodd" clip-rule="evenodd" d="M188.32 87.5499L177.989 91.9701C165.319 98.3968 137.594 87.9799 138.494 86.4893C157.74 91.1273 174.79 92.2281 188.32 87.5441V87.5499Z" fill="black"/>
<path fill-rule="evenodd" clip-rule="evenodd" d="M206.809 42.7977C206.809 42.7977 193.044 32.7935 174.458 44.145L172.153 43.8125C172.153 43.8125 183.235 35.3849 195.114 36.7207C195.114 36.7207 203.329 37.0532 208.518 42.4939L206.804 42.7977H206.809Z" fill="black"/>
<path fill-rule="evenodd" clip-rule="evenodd" d="M166.97 40.7791C166.97 40.7791 154.942 35.6767 142.547 37.3908C142.547 37.3908 118.485 40.7906 111.267 64.3535C111.267 64.3535 110.631 70.8433 110.516 71.3765C110.396 71.9097 108.011 73.5207 108.011 73.5207C108.011 73.5207 108.269 70.442 108.418 69.0661C108.561 67.6844 110.207 58.8784 112.798 55.3583C115.389 51.8325 127.412 37.8323 142.077 35.5104C142.077 35.5104 158.072 33.0509 166.976 40.7848L166.97 40.7791Z" fill="black"/>
<path fill-rule="evenodd" clip-rule="evenodd" d="M199.574 118.239C199.574 118.239 206.528 121.696 207.658 123.679C207.658 123.679 208.414 125.181 205.657 126.907C202.893 128.633 196.524 131.316 193.967 130.737L198.668 134.205L208.638 127.182C208.638 127.182 211.705 124.447 209.251 121.673C206.792 118.898 204.791 117.585 204.791 117.585L199.574 118.233V118.239Z" fill="black"/>
<path fill-rule="evenodd" clip-rule="evenodd" d="M173.695 122.596C173.695 122.596 160.893 118.273 156.696 119.792C152.5 121.312 149.897 121.919 149.897 121.919L154.661 124.654C154.661 124.654 160.194 119.844 172.652 122.258" fill="black"/>
<path fill-rule="evenodd" clip-rule="evenodd" d="M196.593 80.011C189.994 88.4788 168.214 87.2863 168.214 87.2863C161.18 86.3231 141.349 76.7432 141.349 76.7432C141.349 76.7432 163.169 93.1226 182.088 90.2961C186.164 89.6884 190.103 88.1864 193.663 85.4402C193.663 85.4402 199.545 76.2215 196.593 80.0053V80.011Z" fill="black"/>
<path fill-rule="evenodd" clip-rule="evenodd" d="M215.908 50.4106C215.908 50.4106 219.571 48.1632 222.415 48.2148C222.415 48.2148 215.116 43.9265 194.093 47.2058L207.841 41.7422L209.968 43.5022C209.968 43.5022 222.294 43.7258 232.298 50.0666C232.298 50.0666 218.688 49.5048 215.908 50.4163V50.4106Z" fill="black"/>
<path fill-rule="evenodd" clip-rule="evenodd" d="M182.965 48.1232C182.965 48.1232 159.282 43.8176 142.541 47.332C142.541 47.332 135.461 48.7538 128.352 53.26C128.352 53.26 135.22 47.3263 147.81 44.9012C147.81 44.9012 163.845 42.0977 169.871 42.2984L173.844 44.0355L182.965 48.1174V48.1232Z" fill="black"/>
<path d="M196.151 79.6606C197.091 78.5369 202.028 75.2174 200.141 66.1592C197.974 55.7651 188.291 54.1541 173.024 54.9281C156.599 55.7594 152.912 62.9773 138.362 64.6686C136.676 64.8635 129.969 68.4238 140.454 71.4967C147.518 73.5663 151.743 81.7417 168.357 85.2102C174.268 86.4428 179.709 85.1299 187.517 83.9948C192.654 83.2495 195.624 80.1995 196.145 79.6606H196.151Z" stroke="black" stroke-width="1.41607" stroke-linecap="round" stroke-linejoin="round"/>
<path fill-rule="evenodd" clip-rule="evenodd" d="M229.805 60.1683C233.514 63.5566 236.839 65.1102 231.731 74.0022C230.596 75.9801 221.664 76.9433 218.935 72.9244C217.358 70.6082 215.351 67.994 220.574 61.3723C222.902 58.4255 226.955 57.835 229.81 60.1683H229.805Z" fill="black"/>
<path fill-rule="evenodd" clip-rule="evenodd" d="M182.547 62.1182C183.217 62.8578 187.769 67.8971 185.132 73.8767C181.968 81.0545 166.66 82.6311 165.37 72.9308C164.877 69.2387 172.646 55.0837 182.547 62.1239V62.1182Z" fill="black"/>
<path fill-rule="evenodd" clip-rule="evenodd" d="M179.399 68.0632C186.709 71.2279 178.299 75.5277 175.982 73.8651C173.775 72.2828 173.494 67.0657 179.399 68.0632Z" fill="white"/>
<path fill-rule="evenodd" clip-rule="evenodd" d="M231.077 68.2526C231.135 68.9061 231.96 71.3656 227.437 71.9791C223.234 72.5524 223.642 69.1871 224.691 68.1379C225.883 66.9569 229.071 65.3688 231.077 68.2526Z" fill="white"/>
<path d="M229.724 112.311C224.891 113.652 225.906 113.962 221.027 115.051" stroke="black" stroke-width="1.41607" stroke-linecap="round" stroke-linejoin="round"/>
<path fill-rule="evenodd" clip-rule="evenodd" d="M219.365 44.0932C223.188 43.5371 241.775 42.3962 232.728 34.0145C226.256 28.0177 209.183 31.4919 207.09 29.0439C199.224 19.8481 200.216 7.68822 178.677 3.21069C174.635 2.37366 174.864 0.951863 163.347 0.779871C146.268 0.527616 137.055 0.269626 127.847 20.4615C122.779 31.5779 108.086 48.4905 140.449 47.0286C152.173 46.4954 152.093 46.6617 163.811 45.7501C166.385 45.5494 207.405 45.1596 219.359 44.1047L219.365 44.0932Z" fill="#FEF303"/>
<mask id="mask0_5166_108676" style="mask-type:luminance" maskUnits="userSpaceOnUse" x="120" y="0" width="116" height="48">
<path d="M219.365 44.0932C223.188 43.5371 241.775 42.3962 232.728 34.0145C226.256 28.0177 209.183 31.4919 207.09 29.0439C199.224 19.8481 200.216 7.68822 178.677 3.21069C174.635 2.37366 174.864 0.951863 163.347 0.779871C146.268 0.527616 137.055 0.269626 127.847 20.4615C122.779 31.5779 108.086 48.4905 140.449 47.0286C152.173 46.4954 152.093 46.6617 163.811 45.7501C166.385 45.5494 207.405 45.1596 219.359 44.1047L219.365 44.0932Z" fill="white"/>
</mask>
<g mask="url(#mask0_5166_108676)">
<path d="M120.916 38.6923C131.649 42.78 131.889 42.1666 155.636 41.0314C163.255 40.6645 168.363 35.6882 179.795 35.5162C192.207 35.327 195.44 37.7922 208.093 29.8691" stroke="black" stroke-width="1.43327" stroke-linecap="round" stroke-linejoin="round"/>
<path d="M151.061 1.66309C170.433 8.60584 177.53 27.502 180.185 35.0869" stroke="black" stroke-width="1.43327" stroke-linecap="round" stroke-linejoin="round"/>
<path d="M161.3 1.1582C177.043 15.8062 181.79 22.9439 185.155 35.0177" stroke="black" stroke-width="1.43327" stroke-linecap="round" stroke-linejoin="round"/>
<path d="M169.739 1.66309C190.665 27.7142 190.183 32.3522 190.82 34.3473" stroke="black" stroke-width="1.43327" stroke-linecap="round" stroke-linejoin="round"/>
<path d="M177.525 3.58301C182.948 11.5921 185.786 14.3096 195.658 35.155" stroke="black" stroke-width="1.43327" stroke-linecap="round" stroke-linejoin="round"/>
</g>
<path d="M219.365 44.0932C223.188 43.5371 241.775 42.3962 232.728 34.0145C226.256 28.0177 209.183 31.4919 207.09 29.0439C199.224 19.8481 200.216 7.68822 178.677 3.21069C174.635 2.37366 174.864 0.951863 163.347 0.779871C146.268 0.527616 137.055 0.269626 127.847 20.4615C122.779 31.5779 108.086 48.4905 140.449 47.0286C152.173 46.4954 152.093 46.6617 163.811 45.7501C166.385 45.5494 207.405 45.1596 219.359 44.1047L219.365 44.0932Z" stroke="black" stroke-width="1.43327" stroke-linecap="round" stroke-linejoin="round"/>
<path fill-rule="evenodd" clip-rule="evenodd" d="M110.82 136.2L161.512 166.666L193.646 152.367L110.82 136.2Z" fill="#478201"/>
<path fill-rule="evenodd" clip-rule="evenodd" d="M96.6482 87.2402C96.6482 87.2402 60.9884 105.403 45.8245 121.06L34.3526 135.054C34.3526 135.054 18.8217 153.01 14.4474 158.99C10.073 164.975 -2.75186 186.21 1.56514 212.387C1.56514 212.387 10.2679 197.378 12.8077 190.642C15.3474 183.906 20.4098 171.734 27.9315 164.986C35.4533 158.239 47.5272 148.206 47.5272 148.206C47.5272 148.206 57.8696 141.263 59.7386 134.286C59.7386 134.286 60.5241 130.026 65.1678 126.225C69.8116 122.424 92.5375 106.824 92.5375 106.824C92.5375 106.824 93.9192 91.1559 96.6596 87.2402H96.6482Z" fill="#717C74"/>
<path fill-rule="evenodd" clip-rule="evenodd" d="M195.956 247.99L198.886 214.4L203.22 220.465C217.312 216.779 229.397 211.309 240.909 205.324C240.909 205.324 237.005 173.053 214.847 160.921L162.464 161.546L90.3073 134.836C90.3073 134.836 44.0414 152.907 34.9602 199.734C34.9602 199.734 48.5361 210.18 81.014 214.979C81.014 214.979 84.7519 209.888 87.9281 212.708C87.9281 212.708 84.6316 234.706 88.4498 247.21L195.956 247.978V247.99Z" fill="#05A3E4"/>
<path fill-rule="evenodd" clip-rule="evenodd" d="M59.7157 135.88C59.7157 135.88 77.9182 159.735 101.16 176.103C101.16 176.103 151.456 217.754 155.951 221.767C155.951 221.767 160.274 227.317 150.579 237.516C150.579 237.516 108.04 210.851 94.7046 195.022C94.7046 195.022 54.017 160.113 47.4182 148.017C47.4182 148.017 57.0154 142.461 59.7099 135.874L59.7157 135.88Z" fill="#B37A5C"/>
<path fill-rule="evenodd" clip-rule="evenodd" d="M235.612 208.019L236.661 214.807L205.353 228.835C205.353 228.835 203.444 221.084 202.842 220.454C202.842 220.454 230.252 211.281 235.618 208.019H235.612Z" fill="#AFD5DC"/>
<path fill-rule="evenodd" clip-rule="evenodd" d="M75.5333 227.942C75.5333 227.942 77.9699 218.539 81.3696 214.991C81.3696 214.991 49.6714 211.264 34.3297 199.672C34.3297 199.672 33.2634 206.208 33.8653 212.353C33.8653 212.353 58.2309 229.868 75.5333 227.942Z" fill="#AFD5DC"/>
<path fill-rule="evenodd" clip-rule="evenodd" d="M34.3009 247.634C34.3009 247.634 31.8013 223.045 33.6932 212.318C33.6932 212.318 54.7966 228.291 75.0401 227.368C75.0401 227.368 70.3218 240.095 73.9221 247.76" fill="#488201"/>
<path fill-rule="evenodd" clip-rule="evenodd" d="M135.667 247.651C135.731 246.344 135.513 234.941 139.119 231.324C139.795 230.641 143.132 232.9 143.442 233.112C145.116 234.253 145.683 233.84 146.107 235.813C146.824 239.126 147.627 239.963 150.568 238.266C154.18 236.179 157.66 228.463 156.794 224.152C156.289 221.623 155.458 220.878 159.603 215.988C160.222 215.254 162.9 213.133 164.539 216.463C166.339 220.121 166.041 224.994 166.156 227.253C168.925 223.234 174.801 213.849 177.421 218.384C180.076 222.976 177.737 229.753 177.72 229.827C178.018 229.363 181.005 224.736 182.593 224.954C182.902 224.994 186.291 226.37 184.949 233.399C186.503 232.052 191.955 224.404 194.323 231.828C195.962 236.976 193.572 240.766 192.362 248.007L135.667 247.657V247.651Z" fill="#488201"/>
<path fill-rule="evenodd" clip-rule="evenodd" d="M161.804 161.592L174.251 179.245C174.251 179.245 195.893 164.946 213.459 161.025L213.654 155.275C213.654 155.275 189.484 153.899 179.864 156.192C170.244 158.485 161.804 161.587 161.804 161.587V161.592Z" fill="#AFD5DC"/>
<mask id="mask1_5166_108676" style="mask-type:luminance" maskUnits="userSpaceOnUse" x="161" y="154" width="53" height="26">
<path d="M161.804 161.592L174.251 179.245C174.251 179.245 195.893 164.946 213.459 161.025L213.654 155.275C213.654 155.275 189.484 153.899 179.864 156.192C170.244 158.485 161.804 161.587 161.804 161.587V161.592Z" fill="white"/>
</mask>
<g mask="url(#mask1_5166_108676)">
<path d="M175.891 169.154C177.335 169.154 178.505 170.301 178.505 171.711C178.505 173.122 177.335 174.268 175.891 174.268C174.446 174.268 173.271 173.122 173.271 171.711C173.271 170.301 174.446 169.154 175.891 169.154Z" stroke="black" stroke-width="1.43327" stroke-linecap="round" stroke-linejoin="round"/>
</g>
<path d="M161.804 161.592L174.251 179.245C174.251 179.245 195.893 164.946 213.459 161.025L213.654 155.275C213.654 155.275 189.484 153.899 179.864 156.192C170.244 158.485 161.804 161.587 161.804 161.587V161.592Z" stroke="black" stroke-width="1.43327" stroke-linecap="round" stroke-linejoin="round"/>
<path fill-rule="evenodd" clip-rule="evenodd" d="M155.974 171.505L159.924 183.407L155.252 220.523C155.252 220.523 158.852 213.798 161.805 213.998C164.757 214.199 166.454 220.947 166.259 225.728C166.259 225.728 170.335 219.783 171.557 218.831L166.259 183.458L168.873 171.78L161.312 161.397L155.968 171.505H155.974Z" fill="black"/>
<path fill-rule="evenodd" clip-rule="evenodd" d="M148.934 181.331L161.805 161.587C161.805 161.587 113.991 142.754 100.014 128.375L96.5622 125.359L90.3992 135.771C90.3992 135.771 127.521 170.628 148.934 181.331Z" fill="#AFD5DC"/>
<mask id="mask2_5166_108676" style="mask-type:luminance" maskUnits="userSpaceOnUse" x="90" y="125" width="72" height="57">
<path d="M148.934 181.331L161.805 161.587C161.805 161.587 113.991 142.754 100.014 128.375L96.5622 125.359L90.3992 135.771C90.3992 135.771 127.521 170.628 148.934 181.331Z" fill="white"/>
</mask>
<g mask="url(#mask2_5166_108676)">
<path d="M145.781 174.836C147.433 174.836 148.773 173.537 148.773 171.935C148.773 170.333 147.433 169.034 145.781 169.034C144.128 169.034 142.788 170.333 142.788 171.935C142.788 173.537 144.128 174.836 145.781 174.836Z" stroke="black" stroke-width="1.439" stroke-linecap="round" stroke-linejoin="round"/>
</g>
<path d="M148.934 181.331L161.805 161.587C161.805 161.587 113.991 142.754 100.014 128.375L96.5622 125.359L90.3992 135.771C90.3992 135.771 127.521 170.628 148.934 181.331Z" stroke="black" stroke-width="1.43327" stroke-linecap="round" stroke-linejoin="round"/>
<path d="M90.3991 135.771C90.3991 135.771 80.9281 139.056 69.6396 147.3" stroke="black" stroke-width="1.43327" stroke-linecap="round" stroke-linejoin="round"/>
<path d="M56.1038 159.242C46.2716 169.596 37.6892 183.47 34.0487 202.922C34.0487 202.922 31.4803 228.005 33.8653 246.62" stroke="black" stroke-width="1.43327" stroke-linecap="round" stroke-linejoin="round"/>
<path fill-rule="evenodd" clip-rule="evenodd" d="M212.032 157.395C208.523 164.281 218.642 167.64 218.642 167.64L231.559 153.835C231.96 151.192 228.841 150.367 225.774 150.063C222.707 149.759 217.06 153.325 215.414 154.718C213.769 156.111 212.026 157.401 212.026 157.401L212.032 157.395ZM204.201 152.207L212.571 144.955C212.571 144.955 222.254 135.862 225.768 137.158C229.283 138.453 231.702 141.555 233.416 142.845C233.416 142.845 241.85 148.945 243.839 149.965C245.828 150.992 251.355 155.704 252.811 158.192C254.268 160.68 260.396 169.435 261.468 172.995C262.54 176.555 263.899 179.76 262.758 183.297C261.617 186.835 263.813 194.471 264.971 199.012C266.129 203.552 271.438 215.403 272.837 218.292C274.236 221.182 279.797 242.623 278.312 247.68H218.992C218.992 247.68 220.156 241.838 222.713 239.029C225.27 236.219 228.583 234.029 231.771 232.241C234.959 230.452 240.118 228.503 240.118 228.503C240.118 228.503 235.991 209.159 235.394 204.642C234.798 200.124 230.739 190.877 226.542 188.566C222.346 186.25 217.691 183.917 217.691 183.917C217.691 183.917 202.79 180.488 203.255 169.624C203.255 169.624 203.61 166.287 202.412 164.447C201.214 162.607 190.883 157.567 195.251 150.143C195.251 150.143 199.929 147.569 204.201 152.201V152.207Z" fill="#488201"/>
<path fill-rule="evenodd" clip-rule="evenodd" d="M209.068 247.726L206.138 229.105C216.487 223.297 227.179 218.183 238.312 213.992L244.923 231.128C244.923 231.128 238.817 246.074 238.886 246.711C238.96 247.347 209.068 247.726 209.068 247.726Z" fill="#488201"/>
<path d="M278.255 247.64C278.593 238.008 275.904 224.306 272.006 217.036C268.101 209.761 263.842 195.245 263.349 193.044C262.856 190.842 262.156 185.614 262.993 182.867C263.83 180.121 263.916 179.112 261.726 173.15C259.536 167.187 251.527 155.876 247.852 152.809C244.177 149.742 239.218 147.54 236.891 145.706C234.563 143.871 231.805 141.578 228.52 138.201C225.235 134.824 218.35 141.194 215.512 142.856C212.674 144.519 204.59 152.505 204.59 152.505C196.816 144.92 190.556 152.918 197.367 159.792C198.76 161.196 202.767 162.79 202.83 166.505C203.163 185.51 220.448 181.159 229.151 191.083C237.619 200.732 234.5 214.967 239.872 228.571" stroke="black" stroke-width="1.43327" stroke-linecap="round" stroke-linejoin="round"/>
<path d="M242.44 227.069C235.176 232.47 234.225 230.618 226.365 235.09C223.303 236.827 221.325 241.373 220.597 242.594" stroke="black" stroke-width="1.43327" stroke-linecap="round" stroke-linejoin="round"/>
<path d="M205.049 152.092C203.925 156.1 207.056 161.156 214.228 156.088C218.579 153.01 220.15 150.739 224.971 150.218C230.911 149.575 231.444 153.268 231.507 153.382" stroke="black" stroke-width="1.43327" stroke-linecap="round" stroke-linejoin="round"/>
<path d="M211.963 158.066C211.654 162.171 211.407 164.493 217.582 167.687" stroke="black" stroke-width="1.43327" stroke-linecap="round" stroke-linejoin="round"/>
<path d="M209.779 148.424C210.989 149.484 213.872 151.244 211.327 154.208C210.329 155.372 208.053 156.697 205.508 155.24" stroke="black" stroke-width="1.43327" stroke-linecap="round" stroke-linejoin="round"/>
<path d="M233.279 152.023C221.274 165.393 215.179 166.052 220.528 170.771C226.623 176.148 228.681 172.84 237.836 163.427" stroke="black" stroke-width="1.43327" stroke-linecap="round" stroke-linejoin="round"/>
<path d="M229.759 171.94C229.569 172.491 228.096 176.762 232.27 178.763C237.011 181.039 246.029 170.146 246.929 169.062" stroke="black" stroke-width="1.43327" stroke-linecap="round" stroke-linejoin="round"/>
<path d="M240.027 176.653C243.249 183.711 248.219 177.433 254.44 172.21" stroke="black" stroke-width="1.43327" stroke-linecap="round" stroke-linejoin="round"/>
<path d="M135.536 247.542C136.831 237.853 135.828 236.907 139.067 231.157" stroke="black" stroke-width="1.43327" stroke-linecap="round" stroke-linejoin="round"/>
<path d="M145.803 235.876C148.091 245.731 159.483 228.429 156.157 221.859C155.103 219.783 159.878 213.517 161.873 214.239C166.311 215.85 166.213 226.044 166.202 227.133C168.019 224.53 173.437 214.881 177.089 218.126C180.179 220.872 177.725 229.604 177.456 230.561C177.473 230.533 180.317 223.011 183.275 225.339C185.442 227.047 184.777 233.124 184.702 233.806C188.286 229.26 188.096 229.042 189.146 228.692C189.604 228.538 192.757 227.488 194.059 232.178C195.664 237.94 193.239 242.727 191.955 247.491" stroke="black" stroke-width="1.43327" stroke-linecap="round" stroke-linejoin="round"/>
<path d="M59.8877 136.126C77.0869 160.893 118.285 187.236 143.493 211.189L149.1 216.28C151.388 218.115 153.681 219.943 155.968 221.778" stroke="black" stroke-width="1.43327" stroke-linecap="round" stroke-linejoin="round"/>
<path d="M47.8022 148.48C63.5109 168.953 64.7951 167.692 95.5243 196.615C116.886 216.727 132.233 226.387 150.464 238.163" stroke="black" stroke-width="1.43327" stroke-linecap="round" stroke-linejoin="round"/>
<path d="M47.4985 148.367C61.3898 138.357 57.9901 134.55 61.4987 130.026C64.8697 125.675 84.9928 111.577 93.151 106.802" stroke="black" stroke-width="1.43327" stroke-linecap="round" stroke-linejoin="round"/>
<path d="M96.3615 87.1426C40.7163 116.307 38.4746 131.001 30.3853 139.463C-0.0573584 171.321 -0.464408 193.124 1.29565 213.081C7.22364 207.68 11.8617 188.744 19.9625 175.025C25.0936 166.339 41.2838 152.253 47.5099 148.2" stroke="black" stroke-width="1.43327" stroke-linecap="round" stroke-linejoin="round"/>
<path d="M34.1348 135.495C38.7384 144.055 39.2487 143.842 47.8425 148.372" stroke="black" stroke-width="1.43327" stroke-linecap="round" stroke-linejoin="round"/>
<path d="M45.9333 121.363C54.9171 129.596 55.198 129.229 59.6067 134.509" stroke="black" stroke-width="1.43327" stroke-linecap="round" stroke-linejoin="round"/>
<path d="M73.3661 246.998C68.9803 239.729 80.9911 206.609 87.521 212.651C87.521 212.651 85.2221 238.324 88.1574 247.732" stroke="black" stroke-width="1.43327" stroke-linecap="round" stroke-linejoin="round"/>
<path d="M33.6245 212.118C45.9105 219.904 56.9467 227.425 74.7478 227.758" stroke="black" stroke-width="1.43327" stroke-linecap="round" stroke-linejoin="round"/>
<path d="M34.7825 200.01C51.632 209.292 63.1841 212.439 81.5127 215.415" stroke="black" stroke-width="1.43327" stroke-linecap="round" stroke-linejoin="round"/>
<path d="M195.704 247.462C197.114 230.997 196.977 230.034 198.737 213.666C205.542 224.782 205.273 226.651 208.598 247.566" stroke="black" stroke-width="1.32434" stroke-linecap="round" stroke-linejoin="round"/>
<path d="M214.211 160.273C215.976 161.965 217.737 163.656 219.502 165.347" stroke="black" stroke-width="1.43327" stroke-linecap="round" stroke-linejoin="round"/>
<path d="M202.79 220.666C218.9 216.137 219.376 214.428 234.85 208.104" stroke="black" stroke-width="1.43327" stroke-linecap="round" stroke-linejoin="round"/>
<path d="M205.703 228.721C225.814 218.327 235.142 215.5 236.438 214.979" stroke="black" stroke-width="1.43327" stroke-linecap="round" stroke-linejoin="round"/>
<mask id="path-92-inside-1_5166_108676" fill="white">
<path fill-rule="evenodd" clip-rule="evenodd" d="M75.693 66.6031C90.1918 66.5328 86.7031 53.6753 83.8464 50.9633C75.2454 42.788 65.7229 51.92 64.6083 52.9907C61.0099 48.247 59.5487 44.6925 51.5972 44.1308C47.639 43.85 47.832 45.952 45.379 45.285C42.0264 44.3678 29.5725 40.0147 24.5261 55.1146C20.7522 55.4701 10.5276 53.0258 5.92868 63.9482C0.649621 76.481 19.541 79.6361 20.8575 79.9609C37.7084 84.1429 39.4286 76.1299 41.4471 76.2616C43.6369 76.4064 52.4134 80.821 61.1197 77.4859C74.1001 72.5184 75.32 68.0819 75.7062 66.682"/>
</mask>
<path fill-rule="evenodd" clip-rule="evenodd" d="M75.693 66.6031C90.1918 66.5328 86.7031 53.6753 83.8464 50.9633C75.2454 42.788 65.7229 51.92 64.6083 52.9907C61.0099 48.247 59.5487 44.6925 51.5972 44.1308C47.639 43.85 47.832 45.952 45.379 45.285C42.0264 44.3678 29.5725 40.0147 24.5261 55.1146C20.7522 55.4701 10.5276 53.0258 5.92868 63.9482C0.649621 76.481 19.541 79.6361 20.8575 79.9609C37.7084 84.1429 39.4286 76.1299 41.4471 76.2616C43.6369 76.4064 52.4134 80.821 61.1197 77.4859C74.1001 72.5184 75.32 68.0819 75.7062 66.682" fill="white"/>
<path d="M83.8464 50.9633L82.6371 52.2356L82.6379 52.2364L83.8464 50.9633ZM64.6083 52.9907L63.2098 54.0515L64.4019 55.623L65.8243 54.2566L64.6083 52.9907ZM51.5972 44.1308L51.4729 45.8817L51.4735 45.8818L51.5972 44.1308ZM45.379 45.285L44.9158 46.978L44.9184 46.9787L45.379 45.285ZM24.5261 55.1146L24.6907 56.8622L25.8286 56.755L26.1909 55.671L24.5261 55.1146ZM5.92868 63.9482L7.54633 64.6295L7.54643 64.6293L5.92868 63.9482ZM20.8575 79.9609L21.2803 78.2573L21.2779 78.2567L20.8575 79.9609ZM41.4471 76.2616L41.563 74.5101L41.5614 74.51L41.4471 76.2616ZM61.1197 77.4859L60.4923 75.8466L60.4918 75.8468L61.1197 77.4859ZM75.7015 68.3583C79.5718 68.3396 82.4818 67.4668 84.5424 65.9124C86.6286 64.3387 87.6586 62.206 88.0103 60.0574C88.3565 57.9419 88.0539 55.7944 87.4901 54.0119C86.9388 52.269 86.0646 50.6488 85.0549 49.6903L82.6379 52.2364C83.0565 52.6338 83.6897 53.6379 84.1429 55.0706C84.5836 56.4639 84.7826 58.0436 84.5458 59.4903C84.3144 60.9039 83.6765 62.1682 82.4283 63.1098C81.1545 64.0706 79.0636 64.8314 75.6845 64.8478L75.7015 68.3583ZM85.0557 49.6911C82.6534 47.4077 80.1075 46.268 77.5959 45.9401C75.1092 45.6153 72.7757 46.1009 70.785 46.8733C66.8439 48.4025 63.9733 51.1667 63.3923 51.7249L65.8243 54.2566C66.3579 53.744 68.8059 51.4069 72.0549 50.1462C73.6593 49.5237 75.3887 49.1922 77.1413 49.4211C78.8691 49.6467 80.7388 50.4313 82.6371 52.2356L85.0557 49.6911ZM66.0068 51.9299C64.3555 49.753 62.8768 47.3748 60.878 45.6602C58.7216 43.8105 55.9828 42.681 51.7208 42.3799L51.4735 45.8818C55.163 46.1424 57.1306 47.071 58.5923 48.3248C60.2116 49.7138 61.2628 51.4847 63.2098 54.0515L66.0068 51.9299ZM51.7214 42.3799C50.5742 42.2985 49.6527 42.3852 48.8668 42.5856C48.0786 42.7867 47.504 43.0843 47.0891 43.3085C46.6331 43.5549 46.5246 43.6127 46.3961 43.6454C46.3479 43.6577 46.2115 43.6923 45.8396 43.5912L44.9184 46.9787C45.7731 47.2111 46.5324 47.2331 47.2616 47.0477C47.9105 46.8826 48.461 46.5575 48.7582 46.3969C49.0964 46.2142 49.369 46.0806 49.7345 45.9873C50.1023 45.8935 50.641 45.8227 51.4729 45.8817L51.7214 42.3799ZM45.8422 43.5919C44.2803 43.1646 39.9222 41.7018 35.3029 42.4613C32.9448 42.8491 30.4925 43.8133 28.2811 45.7627C26.0752 47.7073 24.2004 50.5513 22.8613 54.5582L26.1909 55.671C27.3749 52.128 28.9493 49.8536 30.6026 48.3962C32.2504 46.9436 34.0673 46.2222 35.8725 45.9254C39.58 45.3158 43.1251 46.4882 44.9158 46.978L45.8422 43.5919ZM24.3615 53.3671C23.5303 53.4453 22.4226 53.3631 20.6844 53.3536C19.0723 53.3448 17.1458 53.4142 15.1568 53.8551C11.0711 54.7608 6.85856 57.2164 4.31094 63.267L7.54643 64.6293C9.59768 59.7576 12.7969 57.9741 15.9166 57.2825C17.5304 56.9248 19.1551 56.8559 20.6653 56.8641C22.0493 56.8717 23.6349 56.9616 24.6907 56.8622L24.3615 53.3671ZM4.31103 63.2668C2.8165 66.8149 2.97245 69.9075 4.28447 72.4874C5.55344 74.9827 7.79172 76.7773 10.0543 78.0596C14.5517 80.6086 19.9332 81.5408 20.4371 81.6651L21.2779 78.2567C20.4653 78.0562 15.7428 77.2485 11.7853 75.0055C9.82028 73.8918 8.24325 72.5274 7.41368 70.8961C6.62716 69.3495 6.40133 67.3478 7.54633 64.6295L4.31103 63.2668ZM20.4347 81.6645C29.1277 83.8219 34.2435 82.9098 37.5303 81.1843C39.1469 80.3356 40.2212 79.338 40.9517 78.6498C41.3461 78.2782 41.5459 78.0904 41.7054 77.9746C41.863 77.8601 41.6939 78.0367 41.3329 78.0132L41.5614 74.51C40.6958 74.4536 40.0313 74.8517 39.6426 75.1339C39.2558 75.4148 38.8585 75.7987 38.5445 76.0945C37.8581 76.7411 37.0707 77.4606 35.8985 78.076C33.6079 79.2785 29.4381 80.2818 21.2803 78.2573L20.4347 81.6645ZM41.3313 78.0131C41.4098 78.0182 41.6338 78.0574 42.0994 78.1853C42.5382 78.3057 43.0623 78.467 43.7135 78.6635C44.9898 79.0485 46.6321 79.5306 48.4984 79.9005C52.2217 80.6385 56.964 80.9575 61.7476 79.1251L60.4918 75.8468C56.5691 77.3494 52.57 77.1286 49.181 76.4569C47.4911 76.1219 45.9846 75.6817 44.7274 75.3025C44.1118 75.1168 43.523 74.9355 43.0286 74.7999C42.5612 74.6716 42.0319 74.5411 41.563 74.5101L41.3313 78.0131ZM61.747 79.1253C68.3655 76.5924 72.1497 74.1352 74.3541 72.0097C76.6252 69.82 77.1513 68.0442 77.3983 67.1488L74.0141 66.2153C73.8749 66.7197 73.5979 67.8622 71.9174 69.4825C70.1702 71.1671 66.8543 73.4119 60.4923 75.8466L61.747 79.1253Z" fill="black" mask="url(#path-92-inside-1_5166_108676)"/>
</g>
<defs>
<clipPath id="clip0_5166_108676">
<rect width="279" height="248.448" fill="white"/>
</clipPath>
</defs>
</svg>
