<svg width="324" height="276" viewBox="0 0 324 276" fill="none" xmlns="http://www.w3.org/2000/svg">
<g clip-path="url(#clip0_5166_107731)">
<path fill-rule="evenodd" clip-rule="evenodd" d="M277.858 278.328L1.77998 274.675L0.467529 221.722C4.78603 218.386 18.6225 211.1 18.6225 211.1C6.38973 194.105 2.25102 160.122 2.25102 160.122C0.539444 123.118 14.9296 100.033 14.9296 100.033C14.9296 100.033 27.2595 68.9328 34.6703 60.9714C42.0811 53.0133 57.8881 49.3239 57.8881 49.3239C79.6352 -14.1779 123.464 -8.22096 123.464 -8.22096C146.149 -7.79143 167.454 10.0894 167.454 10.0894C196.317 -8.8736 222.099 -3.98218 222.099 -3.98218C254.838 -0.142976 257.948 33.7007 257.948 33.7007C270.771 35.2723 276.884 43.3769 276.884 43.3769C286.596 43.7299 286.898 52.1808 286.898 52.1808C298.613 55.2442 298.052 61.0713 298.052 61.0713L304.38 78.739L304.927 83.9534C307.685 88.8148 300.35 90.3165 297.049 91.2156C293.748 92.1146 290.03 94.9182 290.03 94.9182C283.46 100.402 266.657 106.892 266.657 106.892C272.429 109.463 276.186 116.505 276.186 116.505L211.574 142.241C211.574 142.241 196.181 152.466 191.409 156.479C186.641 160.494 177.828 172.288 177.447 191.035C177.066 209.782 187.493 215.326 187.493 215.326C187.493 215.326 230.477 213.125 235.342 213.664C240.203 214.203 240.376 223.024 240.376 223.024C229.769 230.939 208.435 235.467 208.435 235.467C208.435 235.467 205.677 238.161 203.444 241.048C201.215 243.932 210.643 246.915 210.643 246.915C220.927 249.709 231.674 263.104 231.674 263.104C262.015 252.316 275.942 247.618 292.687 226.071C292.867 231.452 293.068 231.442 291.77 239.733C298.947 238.641 305.66 234.622 313.42 230.22C312.399 236.543 311.13 238.651 304.88 247.185C305.901 248.067 307.652 249.575 319.651 255.802C313.359 261.276 305.092 259.994 299.656 261.489C285.672 265.329 288.404 269.051 277.858 278.328Z" fill="#D23411"/>
<path fill-rule="evenodd" clip-rule="evenodd" d="M202.653 84.4965C203.778 80.3176 204.152 80.4375 183.476 67.1884C173.61 60.8652 147.976 59.5133 131.619 66.4992C111.853 74.9401 109.012 78.2465 107.613 79.8681C103.104 85.1092 130.666 94.0296 136.983 94.3859C163.168 95.8643 165.508 98.558 198.999 86.6042C199.262 86.511 199.24 86.4943 202.84 84.4798" fill="#FF6666"/>
<path fill-rule="evenodd" clip-rule="evenodd" d="M302.698 83.7906L280.404 88.369C240.959 93.5434 221.52 90.0638 211.84 88.6087C202.117 87.147 202.38 80.6506 209.032 79.1456C219.754 76.7182 223.088 77.7038 245.033 69.5359C275.88 58.0549 277.988 57.9683 281.037 57.8385C292.036 57.3756 302.36 61.7143 306.858 68.1507C313.571 77.7604 303.924 82.9149 302.698 83.7906Z" fill="#FF6666"/>
<path fill-rule="evenodd" clip-rule="evenodd" d="M187.22 214.7C187.22 214.7 179.094 205.247 179.831 193.955C179.831 193.955 180.054 179.384 189.676 163.165C189.676 163.165 194.005 156.629 199.446 153.589C204.882 150.549 211.758 144.735 211.758 144.735C211.758 144.735 179 144.768 172.79 143.536C166.581 142.304 134.78 135.195 134.78 135.195C134.78 135.195 115.823 129.318 102.875 132.435C89.9299 135.551 74.4214 146.323 69.6894 157.108C69.6894 157.108 55.8746 181.902 63.7025 197.185C63.7025 197.185 68.2727 210.158 85.7732 208.473C85.7732 208.473 99.4335 207.514 101.418 206.875C103.403 206.232 117.761 202.39 123.895 202.709C130.033 203.032 143.46 206.738 143.46 206.738C143.46 206.738 173.599 215.842 187.22 214.696V214.7Z" fill="#B90101"/>
<path fill-rule="evenodd" clip-rule="evenodd" d="M238.352 224.279C242.728 223.6 263.982 221.006 257.668 213.381C247.665 201.297 198.079 227.02 143.758 206.981C114.011 196.01 108.617 210.571 80.6851 208.573C49.679 206.355 60.8546 157.844 82.0659 142.51C119.289 115.603 137.005 146.719 202.139 145.044C212.624 144.775 296.549 145.214 279.976 117.907C276.103 111.527 271.317 121.246 246.992 125.765C176.124 138.924 161.449 121.643 109.318 117.704C97.8081 116.835 88.8942 120.567 88.1859 120.8C88.1859 120.8 67.2226 123.76 50.9447 158.793C50.9447 158.793 39.654 186.456 50.8296 210.97C50.8296 210.97 60.7071 227.592 83.0619 224.512C83.0619 224.512 110.584 218.276 117.333 217.843C124.086 217.407 138.124 220.11 155.865 225.162C155.865 225.162 186.904 232.271 238.348 224.279H238.352Z" fill="#FF0C0C"/>
<path fill-rule="evenodd" clip-rule="evenodd" d="M118.534 202.26C118.534 199.186 116.287 187.968 129.174 172.888C141.748 158.17 164.923 156.599 183.52 163.934C232.987 183.446 254.155 165.409 255.453 164.643C255.928 164.36 277.808 144.641 303.834 158.743C314.484 164.513 306.52 176.767 291.17 170.444C269.545 161.537 269.829 171.889 238.711 183.203C199.669 197.401 157.537 157.494 141.439 183.723C136.804 191.275 138.505 203.169 138.749 204.857" fill="#FF0C0C"/>
<path d="M67.9739 262.052C96.8621 251.843 114.071 243.116 130.18 224.453C131.773 231.202 130.669 235.158 130.396 238.458C142.697 233.689 142.028 232.564 154.189 227.343C149.295 237.988 148.004 237.246 141.428 247.072C145.167 251.121 147.922 251.85 156.433 255.21C143.891 262.455 142.251 258.396 128.645 263.694C120.335 266.93 121.856 268.629 114.963 277.306" stroke="#B40001" stroke-width="1.4383" stroke-linecap="round" stroke-linejoin="round"/>
<path d="M231.674 263.104C262.015 252.316 275.941 247.618 292.687 226.071C292.867 231.452 293.068 231.442 291.77 239.733C298.947 238.641 305.66 234.622 313.42 230.22C312.399 236.543 311.129 238.651 304.88 247.185C305.901 248.067 307.652 249.576 319.651 255.802C313.359 261.276 305.092 259.994 299.655 261.489C285.671 265.329 288.404 269.051 277.858 278.328" stroke="#B40001" stroke-width="1.4383" stroke-linecap="round" stroke-linejoin="round"/>
<path d="M168.828 243.132C212.581 238.767 234.421 226.946 239.502 224.199" stroke="#B40001" stroke-width="1.4383" stroke-linecap="round" stroke-linejoin="round"/>
<path d="M118.534 202.26C118.534 199.186 116.287 187.968 129.174 172.888C141.748 158.17 164.923 156.599 183.52 163.934C232.987 183.446 254.155 165.409 255.453 164.643C255.928 164.36 277.808 144.641 303.834 158.743C314.484 164.513 306.52 176.767 291.17 170.444C269.545 161.537 269.829 171.889 238.711 183.203C199.669 197.401 157.537 157.494 141.439 183.723C136.804 191.275 138.505 203.169 138.749 204.857" stroke="#B40001" stroke-width="1.4383" stroke-linecap="round" stroke-linejoin="round"/>
<path d="M238.352 224.279C242.728 223.6 263.982 221.006 257.668 213.381C247.665 201.297 198.079 227.02 143.758 206.981C114.011 196.01 108.617 210.571 80.6851 208.573C49.679 206.355 60.8546 157.844 82.0659 142.51C119.289 115.603 137.005 146.719 202.139 145.044C212.624 144.775 296.549 145.214 279.976 117.907C276.103 111.527 271.317 121.246 246.992 125.765C176.124 138.924 161.449 121.643 109.318 117.704C97.8081 116.835 88.8942 120.567 88.1859 120.8C88.1859 120.8 67.2226 123.76 50.9447 158.793C50.9447 158.793 39.654 186.456 50.8296 210.97C50.8296 210.97 60.7071 227.592 83.0619 224.512C83.0619 224.512 110.584 218.276 117.333 217.843C124.086 217.407 138.124 220.11 155.865 225.162C155.865 225.162 186.904 232.271 238.348 224.279H238.352Z" stroke="#B40001" stroke-width="1.4383" stroke-linecap="round" stroke-linejoin="round"/>
<path d="M207.953 236.573C206.198 238.091 200.229 242.28 205.781 244.807C206.036 244.924 219.934 249.719 227.287 257.993C236.309 268.149 238.992 274.605 239.534 276.32" stroke="#B40001" stroke-width="1.4383" stroke-linecap="round" stroke-linejoin="round"/>
<path d="M186.562 214.507C182.283 207.198 175.501 197.299 182.635 179.614" stroke="#B40001" stroke-width="1.4383" stroke-linecap="round" stroke-linejoin="round"/>
<path d="M188.63 165.376C193.045 156.699 194.135 157.371 211.815 144.878" stroke="#B40001" stroke-width="1.4383" stroke-linecap="round" stroke-linejoin="round"/>
<path d="M0.719238 221.922C4.57748 219.225 7.54397 215.662 18.0975 211.913" stroke="#B40001" stroke-width="1.4383" stroke-linecap="round" stroke-linejoin="round"/>
<path d="M26.2058 166.867C34.3466 163.421 35.5871 162.532 37.065 158.03" stroke="#B40001" stroke-width="1.4383" stroke-linecap="round" stroke-linejoin="round"/>
<path d="M44.181 159.026C37.3203 165.343 41.4734 169.961 42.1746 170.897" stroke="#B40001" stroke-width="1.4383" stroke-linecap="round" stroke-linejoin="round"/>
<path d="M25.3176 171.16C33.8252 165.742 38.2156 173.547 38.3558 173.75" stroke="#B40001" stroke-width="1.4383" stroke-linecap="round" stroke-linejoin="round"/>
<path d="M27.6262 118.29C37.2484 105.94 43.5518 107.838 47.41 110.212" stroke="#B40001" stroke-width="1.4383" stroke-linecap="round" stroke-linejoin="round"/>
<path d="M42.8289 91.5918C39.1936 100.046 43.8501 102.657 48.4743 104.511" stroke="#B40001" stroke-width="1.4383" stroke-linecap="round" stroke-linejoin="round"/>
<path d="M32.4805 92.3809C32.5776 92.7438 35.145 98.7707 32.2684 103.675C28.0002 110.951 20.3485 115.876 19.0828 116.691" stroke="#B40001" stroke-width="1.4383" stroke-linecap="round" stroke-linejoin="round"/>
<path d="M173.189 125.06C186.095 111.511 193.178 109.999 200.111 107.975" stroke="#B40001" stroke-width="1.4383" stroke-linecap="round" stroke-linejoin="round"/>
<path d="M141.673 116.645C145.588 116.535 166.789 117.737 192.042 105.354" stroke="#B40001" stroke-width="1.4383" stroke-linecap="round" stroke-linejoin="round"/>
<path d="M196.407 102.237C207.065 97.4856 208.01 96.9861 214.102 91.3389" stroke="#B40001" stroke-width="1.4383" stroke-linecap="round" stroke-linejoin="round"/>
<path d="M210.927 104.142C212.962 104.704 230.034 108.743 238.754 116.821" stroke="#B40001" stroke-width="1.4383" stroke-linecap="round" stroke-linejoin="round"/>
<path d="M267.988 107.575C271.533 109.906 273.795 111.677 275.733 115.593" stroke="#B40001" stroke-width="1.4383" stroke-linecap="round" stroke-linejoin="round"/>
<path d="M229.265 110.172C266.711 107.028 266.744 107.135 267.786 106.782C272.385 105.234 286.729 97.2855 288.987 95.4575C297.045 88.9311 305.024 91.0522 305.387 85.4582C305.642 81.5624 302.856 85.4216 280.404 88.3651C240.959 93.5395 221.52 90.0599 211.84 88.6048C202.117 87.1431 202.38 80.6467 209.032 79.1417C219.754 76.7143 223.088 77.6999 245.033 69.532C275.88 58.051 277.988 57.9644 281.037 57.8346C292.036 57.3717 302.36 61.7104 306.858 68.1468C313.571 77.7565 303.924 82.911 302.698 83.7867" stroke="#B40001" stroke-width="1.4383" stroke-linecap="round" stroke-linejoin="round"/>
<path d="M298.041 61.1945C295.391 51.3017 275.658 48.9509 265.244 50.6058C255.255 52.1941 256.402 54.9345 214.163 72.7254C209.305 74.7732 206.594 77.1107 202.477 74.7932C201.323 74.1472 189.823 64.108 173.024 60.9114C173.024 60.9114 162.262 59.09 161.097 58.6439C159.932 58.1943 147.505 56.2165 135.851 60.0723C124.197 63.9249 115.744 71.5567 110.329 76.6778" stroke="#B40001" stroke-width="1.4383" stroke-linecap="round" stroke-linejoin="round"/>
<path d="M113.504 98.1281C148.368 111.767 176.918 108.287 190.73 101.271C211.024 90.9657 204.347 85.2519 203.685 83.8667" stroke="#B40001" stroke-width="1.4383" stroke-linecap="round" stroke-linejoin="round"/>
<path d="M202.653 84.4965C203.778 80.3176 204.152 80.4375 183.476 67.1884C173.61 60.8652 147.976 59.5133 131.619 66.4992C111.853 74.9401 109.012 78.2465 107.613 79.8681C103.104 85.1092 130.666 94.0296 136.983 94.3859C163.168 95.8643 165.508 98.558 198.999 86.6042C199.262 86.511 199.24 86.4943 202.84 84.4798" stroke="#B40001" stroke-width="1.4383" stroke-linecap="round" stroke-linejoin="round"/>
<path d="M94.9424 70.9444C118.703 62.8698 130.023 56.1903 147.753 51.9115C149.839 51.4087 186.465 42.4717 203.11 69.8423" stroke="#B40001" stroke-width="1.4383" stroke-linecap="round" stroke-linejoin="round"/>
<path d="M94.6221 63.1228C104.367 62.0473 123.838 54.2723 129.127 50.9792C142.14 42.8712 150.716 40.5737 172.337 41.5094C181.003 41.8856 185.361 51.5719 187.072 55.3345" stroke="#B40001" stroke-width="1.4383" stroke-linecap="round" stroke-linejoin="round"/>
<path d="M206.518 65.4002C235.076 60.6819 247.301 46.3607 265.611 43.6336C286.243 40.5636 287.156 50.3264 287.318 52.0645" stroke="#B40001" stroke-width="1.4383" stroke-linecap="round" stroke-linejoin="round"/>
<path d="M187.231 32.0325C192.61 30.6839 200.971 27.4241 236.5 30.9503C269.135 34.1901 269.416 36.2346 277.064 43.4169" stroke="#B40001" stroke-width="1.4383" stroke-linecap="round" stroke-linejoin="round"/>
<path d="M197.946 30.0449C202.556 28.9561 233.426 21.6672 257.413 28.43" stroke="#B40001" stroke-width="1.4383" stroke-linecap="round" stroke-linejoin="round"/>
<path d="M258.117 33.7942C257.632 30.8507 254.191 9.84326 238.168 1.50888C204.616 -15.9424 169.054 8.55464 166.792 9.78998" stroke="#B40001" stroke-width="1.4383" stroke-linecap="round" stroke-linejoin="round"/>
<path d="M85.3955 34.7631C130.659 12.3338 133.704 14.4582 140.033 15.0043C165.156 17.1686 171.737 30.8839 174.606 35.7687" stroke="#B40001" stroke-width="1.4383" stroke-linecap="round" stroke-linejoin="round"/>
<path d="M178.364 43.517C177.195 29.3855 178.666 6.53342 136.121 -6.29946C119.66 -11.2641 97.4594 -7.00204 85.9206 4.94846C74.5688 16.7025 57.9025 33.5244 52.1853 75.839" stroke="#B40001" stroke-width="1.4383" stroke-linecap="round" stroke-linejoin="round"/>
<path d="M59.2038 49.1475C33.9472 56.7659 31.2864 57.7282 14.3612 101.568C14.1239 102.18 -13.3908 146.992 14.3432 204.228C25.001 226.221 56.5393 230.995 83.8706 234.575" stroke="#B40001" stroke-width="1.4383" stroke-linecap="round" stroke-linejoin="round"/>
<path d="M296.444 136.91C296.189 135.691 294.042 129.554 298.375 128.742C299.098 128.605 305.944 129.831 296.444 136.91Z" stroke="#B40001" stroke-width="1.4383" stroke-linecap="round" stroke-linejoin="round"/>
<path d="M310.827 153.146C312.018 152.151 320.475 143.373 322.449 148.674C324.455 154.062 310.853 153.146 310.827 153.146Z" stroke="#B40001" stroke-width="1.4383" stroke-linecap="round" stroke-linejoin="round"/>
<path d="M258.333 185.741C258.456 185.857 265.043 193.306 267.952 189.021C268.376 188.398 270.473 183.027 258.333 185.741Z" stroke="#B40001" stroke-width="1.4383" stroke-linecap="round" stroke-linejoin="round"/>
<path fill-rule="evenodd" clip-rule="evenodd" d="M281.216 70.8242C275.19 74.6202 276.276 79.7979 280.134 81.1365C285.6 83.0311 291.756 80.3374 290.443 74.5669C289.742 71.4935 286.34 68.7498 281.216 70.8276V70.8242Z" fill="#B40001"/>
<path fill-rule="evenodd" clip-rule="evenodd" d="M167.26 77.7767C164.725 80.7568 164.728 82.8945 166.249 85.6815C168.101 89.0712 177.684 90.3832 179.938 83.9501C180.74 81.6625 177.792 72.4557 168.673 76.8743C168.565 76.9276 168.371 76.9975 167.256 77.7767H167.26Z" fill="#B40001"/>
<path fill-rule="evenodd" clip-rule="evenodd" d="M173.754 80.3443C169.935 83.4243 175.764 85.5021 177.159 82.5319C177.943 80.867 176.458 80.0978 176.256 79.9946C175.055 79.372 174.135 80.1911 173.754 80.3476V80.3443Z" fill="white"/>
<path fill-rule="evenodd" clip-rule="evenodd" d="M286.549 73.8043C282.385 75.5192 285.538 78.6292 288.027 77.5104C290.443 76.4249 289.361 73.0352 286.549 73.8043Z" fill="white"/>
</g>
<defs>
<clipPath id="clip0_5166_107731">
<rect width="323.373" height="287.994" fill="white" transform="translate(0 -9)"/>
</clipPath>
</defs>
</svg>
